%TF.GenerationSoftware,KiCad,Pcbnew,7.0.8*%
%TF.CreationDate,2024-06-01T15:01:04+09:00*%
%TF.ProjectId,BDCM_Driver_v1,4244434d-5f44-4726-9976-65725f76312e,rev?*%
%TF.SameCoordinates,PXaac6430PY8670810*%
%TF.FileFunction,Soldermask,Top*%
%TF.FilePolarity,Negative*%
%FSLAX46Y46*%
G04 Gerber Fmt 4.6, Leading zero omitted, Abs format (unit mm)*
G04 Created by KiCad (PCBNEW 7.0.8) date 2024-06-01 15:01:04*
%MOMM*%
%LPD*%
G01*
G04 APERTURE LIST*
G04 Aperture macros list*
%AMRoundRect*
0 Rectangle with rounded corners*
0 $1 Rounding radius*
0 $2 $3 $4 $5 $6 $7 $8 $9 X,Y pos of 4 corners*
0 Add a 4 corners polygon primitive as box body*
4,1,4,$2,$3,$4,$5,$6,$7,$8,$9,$2,$3,0*
0 Add four circle primitives for the rounded corners*
1,1,$1+$1,$2,$3*
1,1,$1+$1,$4,$5*
1,1,$1+$1,$6,$7*
1,1,$1+$1,$8,$9*
0 Add four rect primitives between the rounded corners*
20,1,$1+$1,$2,$3,$4,$5,0*
20,1,$1+$1,$4,$5,$6,$7,0*
20,1,$1+$1,$6,$7,$8,$9,0*
20,1,$1+$1,$8,$9,$2,$3,0*%
G04 Aperture macros list end*
%ADD10R,2.400000X3.100000*%
%ADD11RoundRect,0.070000X-1.100000X-0.250000X1.100000X-0.250000X1.100000X0.250000X-1.100000X0.250000X0*%
%ADD12C,0.770000*%
%ADD13R,1.000000X1.000000*%
%ADD14O,1.000000X1.000000*%
%ADD15RoundRect,0.200000X0.275000X-0.200000X0.275000X0.200000X-0.275000X0.200000X-0.275000X-0.200000X0*%
%ADD16RoundRect,0.225000X-0.250000X0.225000X-0.250000X-0.225000X0.250000X-0.225000X0.250000X0.225000X0*%
%ADD17RoundRect,0.200000X0.200000X0.275000X-0.200000X0.275000X-0.200000X-0.275000X0.200000X-0.275000X0*%
%ADD18RoundRect,0.200000X-0.275000X0.200000X-0.275000X-0.200000X0.275000X-0.200000X0.275000X0.200000X0*%
%ADD19RoundRect,0.100000X0.100000X-0.637500X0.100000X0.637500X-0.100000X0.637500X-0.100000X-0.637500X0*%
%ADD20RoundRect,0.218750X0.256250X-0.218750X0.256250X0.218750X-0.256250X0.218750X-0.256250X-0.218750X0*%
%ADD21R,1.700000X1.700000*%
%ADD22O,1.700000X1.700000*%
%ADD23RoundRect,0.250000X-0.250000X-0.475000X0.250000X-0.475000X0.250000X0.475000X-0.250000X0.475000X0*%
%ADD24RoundRect,0.150000X-0.150000X0.825000X-0.150000X-0.825000X0.150000X-0.825000X0.150000X0.825000X0*%
%ADD25RoundRect,0.150000X0.150000X-0.825000X0.150000X0.825000X-0.150000X0.825000X-0.150000X-0.825000X0*%
%ADD26RoundRect,0.250000X1.000000X-1.950000X1.000000X1.950000X-1.000000X1.950000X-1.000000X-1.950000X0*%
%ADD27RoundRect,0.225000X0.250000X-0.225000X0.250000X0.225000X-0.250000X0.225000X-0.250000X-0.225000X0*%
%ADD28C,0.750000*%
%ADD29R,1.600000X1.050000*%
%ADD30RoundRect,0.225000X-0.225000X-0.250000X0.225000X-0.250000X0.225000X0.250000X-0.225000X0.250000X0*%
%ADD31RoundRect,0.250000X-0.600000X-0.725000X0.600000X-0.725000X0.600000X0.725000X-0.600000X0.725000X0*%
%ADD32O,1.700000X1.950000*%
%ADD33R,0.304800X0.584200*%
%ADD34RoundRect,0.200000X-0.200000X-0.275000X0.200000X-0.275000X0.200000X0.275000X-0.200000X0.275000X0*%
%ADD35RoundRect,0.225000X0.225000X0.250000X-0.225000X0.250000X-0.225000X-0.250000X0.225000X-0.250000X0*%
G04 APERTURE END LIST*
D10*
%TO.C,U2*%
X-11938000Y21336000D03*
D11*
X-14813000Y23241000D03*
X-14813000Y21971000D03*
X-14813000Y20701000D03*
X-14813000Y19431000D03*
X-9063000Y19431000D03*
X-9063000Y20701000D03*
X-9063000Y21971000D03*
X-9063000Y23241000D03*
D12*
X-12588000Y22636000D03*
X-12588000Y21336000D03*
X-12588000Y20036000D03*
X-11288000Y22636000D03*
X-11288000Y21336000D03*
X-11288000Y20036000D03*
%TD*%
D10*
%TO.C,U5*%
X-11938000Y15997000D03*
D11*
X-14813000Y17902000D03*
X-14813000Y16632000D03*
X-14813000Y15362000D03*
X-14813000Y14092000D03*
X-9063000Y14092000D03*
X-9063000Y15362000D03*
X-9063000Y16632000D03*
X-9063000Y17902000D03*
D12*
X-12588000Y17297000D03*
X-12588000Y15997000D03*
X-12588000Y14697000D03*
X-11288000Y17297000D03*
X-11288000Y15997000D03*
X-11288000Y14697000D03*
%TD*%
D13*
%TO.C,J2*%
X-20320000Y25913000D03*
D14*
X-20320000Y24643000D03*
X-20320000Y23373000D03*
%TD*%
D15*
%TO.C,R5*%
X-18288000Y17971000D03*
X-18288000Y19621000D03*
%TD*%
D16*
%TO.C,C6*%
X-2540000Y22111000D03*
X-2540000Y20561000D03*
%TD*%
D17*
%TO.C,R4*%
X-5779000Y6604000D03*
X-7429000Y6604000D03*
%TD*%
D18*
%TO.C,TH1*%
X-16764000Y19621000D03*
X-16764000Y17971000D03*
%TD*%
D19*
%TO.C,U1*%
X-25531000Y15933500D03*
X-24881000Y15933500D03*
X-24231000Y15933500D03*
X-23581000Y15933500D03*
X-22931000Y15933500D03*
X-22281000Y15933500D03*
X-21631000Y15933500D03*
X-20981000Y15933500D03*
X-20331000Y15933500D03*
X-19681000Y15933500D03*
X-19681000Y21658500D03*
X-20331000Y21658500D03*
X-20981000Y21658500D03*
X-21631000Y21658500D03*
X-22281000Y21658500D03*
X-22931000Y21658500D03*
X-23581000Y21658500D03*
X-24231000Y21658500D03*
X-24881000Y21658500D03*
X-25531000Y21658500D03*
%TD*%
D20*
%TO.C,D5*%
X-27686000Y11150500D03*
X-27686000Y12725500D03*
%TD*%
D21*
%TO.C,J4*%
X-3810000Y1016000D03*
D22*
X-6350000Y1016000D03*
%TD*%
D20*
%TO.C,D2*%
X-23114000Y11150500D03*
X-23114000Y12725500D03*
%TD*%
D23*
%TO.C,C12*%
X-24826000Y7112000D03*
X-22926000Y7112000D03*
%TD*%
D24*
%TO.C,U6*%
X-3429000Y14921000D03*
X-4699000Y14921000D03*
X-5969000Y14921000D03*
X-7239000Y14921000D03*
X-7239000Y9971000D03*
X-5969000Y9971000D03*
X-4699000Y9971000D03*
X-3429000Y9971000D03*
%TD*%
D20*
%TO.C,D1*%
X-24638000Y11150500D03*
X-24638000Y12725500D03*
%TD*%
D25*
%TO.C,U3*%
X-7239000Y22671000D03*
X-5969000Y22671000D03*
X-4699000Y22671000D03*
X-3429000Y22671000D03*
X-3429000Y27621000D03*
X-4699000Y27621000D03*
X-5969000Y27621000D03*
X-7239000Y27621000D03*
%TD*%
D26*
%TO.C,C5*%
X-13716000Y2404000D03*
X-13716000Y10804000D03*
%TD*%
D27*
%TO.C,C2*%
X-7366000Y29451000D03*
X-7366000Y31001000D03*
%TD*%
D21*
%TO.C,J1*%
X-1327000Y22611000D03*
D22*
X-1327000Y20071000D03*
%TD*%
D21*
%TO.C,J7*%
X-1327000Y17531000D03*
D22*
X-1327000Y14991000D03*
%TD*%
D28*
%TO.C,SW1*%
X-26786000Y17018000D03*
X-28586000Y17018000D03*
D29*
X-27686000Y19243000D03*
X-27686000Y14793000D03*
%TD*%
D30*
%TO.C,C10*%
X-28207000Y20574000D03*
X-26657000Y20574000D03*
%TD*%
%TO.C,C3*%
X-4839000Y29337000D03*
X-3289000Y29337000D03*
%TD*%
D20*
%TO.C,D4*%
X-26162000Y11150500D03*
X-26162000Y12725500D03*
%TD*%
D31*
%TO.C,J5*%
X-29404000Y5736000D03*
D32*
X-26904000Y5736000D03*
X-24404000Y5736000D03*
X-21904000Y5736000D03*
%TD*%
D30*
%TO.C,C1*%
X-23381000Y14224000D03*
X-21831000Y14224000D03*
%TD*%
D16*
%TO.C,C8*%
X-3302000Y8141000D03*
X-3302000Y6591000D03*
%TD*%
D33*
%TO.C,RN3*%
X-26162000Y8432800D03*
X-26162000Y9855200D03*
X-25654000Y8432800D03*
X-25654000Y9855200D03*
X-25146000Y8432800D03*
X-25146000Y9855200D03*
X-24638000Y8432800D03*
X-24638000Y9855200D03*
%TD*%
D18*
%TO.C,R3*%
X-4572000Y8191000D03*
X-4572000Y6541000D03*
%TD*%
D13*
%TO.C,J6*%
X-22098000Y25913000D03*
D14*
X-22098000Y24643000D03*
X-22098000Y23373000D03*
%TD*%
D34*
%TO.C,R2*%
X-4889000Y30988000D03*
X-3239000Y30988000D03*
%TD*%
D16*
%TO.C,C11*%
X-2540000Y17031000D03*
X-2540000Y15481000D03*
%TD*%
D15*
%TO.C,R1*%
X-6096000Y29401000D03*
X-6096000Y31051000D03*
%TD*%
D21*
%TO.C,J3*%
X-25146000Y31750000D03*
D22*
X-25146000Y29210000D03*
X-25146000Y26670000D03*
X-25146000Y24130000D03*
%TD*%
D35*
%TO.C,C9*%
X-5829000Y8255000D03*
X-7379000Y8255000D03*
%TD*%
M02*
