%TF.GenerationSoftware,KiCad,Pcbnew,7.0.8*%
%TF.CreationDate,2024-06-01T15:01:03+09:00*%
%TF.ProjectId,BDCM_Driver_v1,4244434d-5f44-4726-9976-65725f76312e,rev?*%
%TF.SameCoordinates,PXaac6430PY8670810*%
%TF.FileFunction,Copper,L1,Top*%
%TF.FilePolarity,Positive*%
%FSLAX46Y46*%
G04 Gerber Fmt 4.6, Leading zero omitted, Abs format (unit mm)*
G04 Created by KiCad (PCBNEW 7.0.8) date 2024-06-01 15:01:03*
%MOMM*%
%LPD*%
G01*
G04 APERTURE LIST*
G04 Aperture macros list*
%AMRoundRect*
0 Rectangle with rounded corners*
0 $1 Rounding radius*
0 $2 $3 $4 $5 $6 $7 $8 $9 X,Y pos of 4 corners*
0 Add a 4 corners polygon primitive as box body*
4,1,4,$2,$3,$4,$5,$6,$7,$8,$9,$2,$3,0*
0 Add four circle primitives for the rounded corners*
1,1,$1+$1,$2,$3*
1,1,$1+$1,$4,$5*
1,1,$1+$1,$6,$7*
1,1,$1+$1,$8,$9*
0 Add four rect primitives between the rounded corners*
20,1,$1+$1,$2,$3,$4,$5,0*
20,1,$1+$1,$4,$5,$6,$7,0*
20,1,$1+$1,$6,$7,$8,$9,0*
20,1,$1+$1,$8,$9,$2,$3,0*%
G04 Aperture macros list end*
%TA.AperFunction,SMDPad,CuDef*%
%ADD10R,2.200000X0.500000*%
%TD*%
%TA.AperFunction,ComponentPad*%
%ADD11C,0.630000*%
%TD*%
%TA.AperFunction,SMDPad,CuDef*%
%ADD12R,2.950000X4.900000*%
%TD*%
%TA.AperFunction,ComponentPad*%
%ADD13R,1.000000X1.000000*%
%TD*%
%TA.AperFunction,ComponentPad*%
%ADD14O,1.000000X1.000000*%
%TD*%
%TA.AperFunction,SMDPad,CuDef*%
%ADD15RoundRect,0.200000X0.275000X-0.200000X0.275000X0.200000X-0.275000X0.200000X-0.275000X-0.200000X0*%
%TD*%
%TA.AperFunction,SMDPad,CuDef*%
%ADD16RoundRect,0.225000X-0.250000X0.225000X-0.250000X-0.225000X0.250000X-0.225000X0.250000X0.225000X0*%
%TD*%
%TA.AperFunction,SMDPad,CuDef*%
%ADD17RoundRect,0.200000X0.200000X0.275000X-0.200000X0.275000X-0.200000X-0.275000X0.200000X-0.275000X0*%
%TD*%
%TA.AperFunction,SMDPad,CuDef*%
%ADD18RoundRect,0.200000X-0.275000X0.200000X-0.275000X-0.200000X0.275000X-0.200000X0.275000X0.200000X0*%
%TD*%
%TA.AperFunction,SMDPad,CuDef*%
%ADD19RoundRect,0.100000X0.100000X-0.637500X0.100000X0.637500X-0.100000X0.637500X-0.100000X-0.637500X0*%
%TD*%
%TA.AperFunction,SMDPad,CuDef*%
%ADD20RoundRect,0.218750X0.256250X-0.218750X0.256250X0.218750X-0.256250X0.218750X-0.256250X-0.218750X0*%
%TD*%
%TA.AperFunction,ComponentPad*%
%ADD21R,1.700000X1.700000*%
%TD*%
%TA.AperFunction,ComponentPad*%
%ADD22O,1.700000X1.700000*%
%TD*%
%TA.AperFunction,SMDPad,CuDef*%
%ADD23RoundRect,0.250000X-0.250000X-0.475000X0.250000X-0.475000X0.250000X0.475000X-0.250000X0.475000X0*%
%TD*%
%TA.AperFunction,SMDPad,CuDef*%
%ADD24RoundRect,0.150000X-0.150000X0.825000X-0.150000X-0.825000X0.150000X-0.825000X0.150000X0.825000X0*%
%TD*%
%TA.AperFunction,SMDPad,CuDef*%
%ADD25RoundRect,0.150000X0.150000X-0.825000X0.150000X0.825000X-0.150000X0.825000X-0.150000X-0.825000X0*%
%TD*%
%TA.AperFunction,SMDPad,CuDef*%
%ADD26RoundRect,0.250000X1.000000X-1.950000X1.000000X1.950000X-1.000000X1.950000X-1.000000X-1.950000X0*%
%TD*%
%TA.AperFunction,SMDPad,CuDef*%
%ADD27RoundRect,0.225000X0.250000X-0.225000X0.250000X0.225000X-0.250000X0.225000X-0.250000X-0.225000X0*%
%TD*%
%TA.AperFunction,SMDPad,CuDef*%
%ADD28R,1.600000X1.050000*%
%TD*%
%TA.AperFunction,SMDPad,CuDef*%
%ADD29RoundRect,0.225000X-0.225000X-0.250000X0.225000X-0.250000X0.225000X0.250000X-0.225000X0.250000X0*%
%TD*%
%TA.AperFunction,ComponentPad*%
%ADD30RoundRect,0.250000X-0.600000X-0.725000X0.600000X-0.725000X0.600000X0.725000X-0.600000X0.725000X0*%
%TD*%
%TA.AperFunction,ComponentPad*%
%ADD31O,1.700000X1.950000*%
%TD*%
%TA.AperFunction,SMDPad,CuDef*%
%ADD32R,0.304800X0.584200*%
%TD*%
%TA.AperFunction,SMDPad,CuDef*%
%ADD33RoundRect,0.200000X-0.200000X-0.275000X0.200000X-0.275000X0.200000X0.275000X-0.200000X0.275000X0*%
%TD*%
%TA.AperFunction,SMDPad,CuDef*%
%ADD34R,1.000000X1.500000*%
%TD*%
%TA.AperFunction,SMDPad,CuDef*%
%ADD35RoundRect,0.225000X0.225000X0.250000X-0.225000X0.250000X-0.225000X-0.250000X0.225000X-0.250000X0*%
%TD*%
%TA.AperFunction,ViaPad*%
%ADD36C,0.800000*%
%TD*%
%TA.AperFunction,Conductor*%
%ADD37C,0.250000*%
%TD*%
%TA.AperFunction,Conductor*%
%ADD38C,0.500000*%
%TD*%
%TA.AperFunction,Conductor*%
%ADD39C,1.000000*%
%TD*%
G04 APERTURE END LIST*
%TA.AperFunction,EtchedComponent*%
%TO.C,JP3*%
G36*
X-19308000Y11638000D02*
G01*
X-19808000Y11638000D01*
X-19808000Y12238000D01*
X-19308000Y12238000D01*
X-19308000Y11638000D01*
G37*
%TD.AperFunction*%
%TD*%
D10*
%TO.P,U2,1,GND*%
%TO.N,GNDPWR*%
X-14813000Y23241000D03*
%TO.P,U2,2,IN2*%
%TO.N,PWM_{1B}*%
X-14813000Y21971000D03*
%TO.P,U2,3,IN1*%
%TO.N,PWM_{1A}*%
X-14813000Y20701000D03*
%TO.P,U2,4,VREF*%
%TO.N,+3V3*%
X-14813000Y19431000D03*
%TO.P,U2,5,VM*%
%TO.N,Vdrive*%
X-9063000Y19431000D03*
%TO.P,U2,6,OUT1*%
%TO.N,OUT_A_{1}*%
X-9063000Y20701000D03*
%TO.P,U2,7,ISEN*%
%TO.N,GNDPWR*%
X-9063000Y21971000D03*
%TO.P,U2,8,OUT2*%
%TO.N,OUT_A_{2}*%
X-9063000Y23241000D03*
D11*
%TO.P,U2,9,GND*%
%TO.N,GNDPWR*%
X-12588000Y22636000D03*
X-12588000Y21336000D03*
X-12588000Y20036000D03*
D12*
X-11938000Y21336000D03*
D11*
X-11288000Y22636000D03*
X-11288000Y21336000D03*
X-11288000Y20036000D03*
%TD*%
D10*
%TO.P,U5,1,GND*%
%TO.N,GNDPWR*%
X-14813000Y17902000D03*
%TO.P,U5,2,IN2*%
%TO.N,PWM_{2B}*%
X-14813000Y16632000D03*
%TO.P,U5,3,IN1*%
%TO.N,PWM_{2A}*%
X-14813000Y15362000D03*
%TO.P,U5,4,VREF*%
%TO.N,+3V3*%
X-14813000Y14092000D03*
%TO.P,U5,5,VM*%
%TO.N,Vdrive*%
X-9063000Y14092000D03*
%TO.P,U5,6,OUT1*%
%TO.N,OUT_B_{1}*%
X-9063000Y15362000D03*
%TO.P,U5,7,ISEN*%
%TO.N,GNDPWR*%
X-9063000Y16632000D03*
%TO.P,U5,8,OUT2*%
%TO.N,OUT_B_{2}*%
X-9063000Y17902000D03*
D11*
%TO.P,U5,9,GND*%
%TO.N,GNDPWR*%
X-12588000Y17297000D03*
X-12588000Y15997000D03*
X-12588000Y14697000D03*
D12*
X-11938000Y15997000D03*
D11*
X-11288000Y17297000D03*
X-11288000Y15997000D03*
X-11288000Y14697000D03*
%TD*%
D13*
%TO.P,J2,1,Pin_1*%
%TO.N,GND*%
X-20320000Y25913000D03*
D14*
%TO.P,J2,2,Pin_2*%
%TO.N,ENC_{1A}*%
X-20320000Y24643000D03*
%TO.P,J2,3,Pin_3*%
%TO.N,ENC_{1B}*%
X-20320000Y23373000D03*
%TD*%
D15*
%TO.P,R5,1*%
%TO.N,TEMP*%
X-18288000Y17971000D03*
%TO.P,R5,2*%
%TO.N,GND*%
X-18288000Y19621000D03*
%TD*%
D16*
%TO.P,C6,1*%
%TO.N,OUT_A_{2}'*%
X-2540000Y22111000D03*
%TO.P,C6,2*%
%TO.N,OUT_A_{1}*%
X-2540000Y20561000D03*
%TD*%
D17*
%TO.P,R4,1*%
%TO.N,Current_{2}*%
X-5779000Y6604000D03*
%TO.P,R4,2*%
%TO.N,GND*%
X-7429000Y6604000D03*
%TD*%
D18*
%TO.P,TH1,1*%
%TO.N,+3V3*%
X-16764000Y19621000D03*
%TO.P,TH1,2*%
%TO.N,TEMP*%
X-16764000Y17971000D03*
%TD*%
D19*
%TO.P,U1,1,PB7*%
%TO.N,I^{2}C_{SDA}*%
X-25531000Y15933500D03*
%TO.P,U1,2,PC14*%
%TO.N,LED_{1}*%
X-24881000Y15933500D03*
%TO.P,U1,3,PC15*%
%TO.N,LED_{2}*%
X-24231000Y15933500D03*
%TO.P,U1,4,VDD*%
%TO.N,+3V3*%
X-23581000Y15933500D03*
%TO.P,U1,5,VSS*%
%TO.N,GND*%
X-22931000Y15933500D03*
%TO.P,U1,6,PF2*%
%TO.N,Net-(U1-PF2)*%
X-22281000Y15933500D03*
%TO.P,U1,7,PA0*%
%TO.N,PWM_{1B}*%
X-21631000Y15933500D03*
%TO.P,U1,8,PA1*%
%TO.N,PWM_{1A}*%
X-20981000Y15933500D03*
%TO.P,U1,9,PA2*%
%TO.N,PWM_{2B}*%
X-20331000Y15933500D03*
%TO.P,U1,10,PA3*%
%TO.N,PWM_{2A}*%
X-19681000Y15933500D03*
%TO.P,U1,11,PA4*%
%TO.N,ENC_{1A}*%
X-19681000Y21658500D03*
%TO.P,U1,12,PA5*%
%TO.N,ENC_{1B}*%
X-20331000Y21658500D03*
%TO.P,U1,13,PA6*%
%TO.N,ENC_{2A}*%
X-20981000Y21658500D03*
%TO.P,U1,14,PA7*%
%TO.N,ENC_{2B}*%
X-21631000Y21658500D03*
%TO.P,U1,15,PA8*%
%TO.N,TEMP*%
X-22281000Y21658500D03*
%TO.P,U1,16,PA9/PA11*%
%TO.N,Current_{1}*%
X-22931000Y21658500D03*
%TO.P,U1,17,PA10/PA12*%
%TO.N,Current_{2}*%
X-23581000Y21658500D03*
%TO.P,U1,18,PA13*%
%TO.N,SWDIO*%
X-24231000Y21658500D03*
%TO.P,U1,19,PA14*%
%TO.N,SWDCLK*%
X-24881000Y21658500D03*
%TO.P,U1,20,PB6*%
%TO.N,I^{2}C_{SCL}*%
X-25531000Y21658500D03*
%TD*%
D20*
%TO.P,D5,1,K*%
%TO.N,Net-(D5-K)*%
X-27686000Y11150500D03*
%TO.P,D5,2,A*%
%TO.N,I^{2}C_{SDA}*%
X-27686000Y12725500D03*
%TD*%
D21*
%TO.P,J4,1,Pin_1*%
%TO.N,GNDPWR*%
X-3810000Y1016000D03*
D22*
%TO.P,J4,2,Pin_2*%
%TO.N,Vdrive*%
X-6350000Y1016000D03*
%TD*%
D20*
%TO.P,D2,1,K*%
%TO.N,Net-(D2-K)*%
X-23114000Y11150500D03*
%TO.P,D2,2,A*%
%TO.N,+3V3*%
X-23114000Y12725500D03*
%TD*%
D23*
%TO.P,C12,1*%
%TO.N,+3V3*%
X-24826000Y7112000D03*
%TO.P,C12,2*%
%TO.N,GND*%
X-22926000Y7112000D03*
%TD*%
D24*
%TO.P,U6,1,IP+*%
%TO.N,OUT_B_{1}'*%
X-3429000Y14921000D03*
%TO.P,U6,2,IP+*%
X-4699000Y14921000D03*
%TO.P,U6,3,IP-*%
%TO.N,OUT_B_{1}*%
X-5969000Y14921000D03*
%TO.P,U6,4,IP-*%
X-7239000Y14921000D03*
%TO.P,U6,5,GND*%
%TO.N,GND*%
X-7239000Y9971000D03*
%TO.P,U6,6,FILTER*%
%TO.N,Net-(U6-FILTER)*%
X-5969000Y9971000D03*
%TO.P,U6,7,VIOUT*%
%TO.N,Net-(U6-VIOUT)*%
X-4699000Y9971000D03*
%TO.P,U6,8,VCC*%
%TO.N,+3V3*%
X-3429000Y9971000D03*
%TD*%
D20*
%TO.P,D1,1,K*%
%TO.N,Net-(D1-K)*%
X-24638000Y11150500D03*
%TO.P,D1,2,A*%
%TO.N,LED_{2}*%
X-24638000Y12725500D03*
%TD*%
D25*
%TO.P,U3,1,IP+*%
%TO.N,OUT_A_{2}*%
X-7239000Y22671000D03*
%TO.P,U3,2,IP+*%
X-5969000Y22671000D03*
%TO.P,U3,3,IP-*%
%TO.N,OUT_A_{2}'*%
X-4699000Y22671000D03*
%TO.P,U3,4,IP-*%
X-3429000Y22671000D03*
%TO.P,U3,5,GND*%
%TO.N,GND*%
X-3429000Y27621000D03*
%TO.P,U3,6,FILTER*%
%TO.N,Net-(U3-FILTER)*%
X-4699000Y27621000D03*
%TO.P,U3,7,VIOUT*%
%TO.N,Net-(U3-VIOUT)*%
X-5969000Y27621000D03*
%TO.P,U3,8,VCC*%
%TO.N,+3V3*%
X-7239000Y27621000D03*
%TD*%
D26*
%TO.P,C5,1*%
%TO.N,Vdrive*%
X-13716000Y2404000D03*
%TO.P,C5,2*%
%TO.N,GNDPWR*%
X-13716000Y10804000D03*
%TD*%
D27*
%TO.P,C2,1*%
%TO.N,+3V3*%
X-7366000Y29451000D03*
%TO.P,C2,2*%
%TO.N,GND*%
X-7366000Y31001000D03*
%TD*%
D21*
%TO.P,J1,1,Pin_1*%
%TO.N,OUT_A_{2}'*%
X-1327000Y22611000D03*
D22*
%TO.P,J1,2,Pin_2*%
%TO.N,OUT_A_{1}*%
X-1327000Y20071000D03*
%TD*%
D21*
%TO.P,J7,1,Pin_1*%
%TO.N,OUT_B_{2}*%
X-1327000Y17531000D03*
D22*
%TO.P,J7,2,Pin_2*%
%TO.N,OUT_B_{1}'*%
X-1327000Y14991000D03*
%TD*%
D28*
%TO.P,SW1,1,1*%
%TO.N,Net-(U1-PF2)*%
X-27686000Y19243000D03*
%TO.P,SW1,2,2*%
%TO.N,GND*%
X-27686000Y14793000D03*
%TD*%
D29*
%TO.P,C10,1*%
%TO.N,Net-(U1-PF2)*%
X-28207000Y20574000D03*
%TO.P,C10,2*%
%TO.N,GND*%
X-26657000Y20574000D03*
%TD*%
%TO.P,C3,1*%
%TO.N,Net-(U3-FILTER)*%
X-4839000Y29337000D03*
%TO.P,C3,2*%
%TO.N,GND*%
X-3289000Y29337000D03*
%TD*%
D20*
%TO.P,D4,1,K*%
%TO.N,Net-(D4-K)*%
X-26162000Y11150500D03*
%TO.P,D4,2,A*%
%TO.N,LED_{1}*%
X-26162000Y12725500D03*
%TD*%
D30*
%TO.P,J5,1,Pin_1*%
%TO.N,I^{2}C_{SCL}*%
X-29404000Y5736000D03*
D31*
%TO.P,J5,2,Pin_2*%
%TO.N,I^{2}C_{SDA}*%
X-26904000Y5736000D03*
%TO.P,J5,3,Pin_3*%
%TO.N,+3V3*%
X-24404000Y5736000D03*
%TO.P,J5,4,Pin_4*%
%TO.N,GND*%
X-21904000Y5736000D03*
%TD*%
D29*
%TO.P,C1,1*%
%TO.N,+3V3*%
X-23381000Y14224000D03*
%TO.P,C1,2*%
%TO.N,GND*%
X-21831000Y14224000D03*
%TD*%
D16*
%TO.P,C8,1*%
%TO.N,+3V3*%
X-3302000Y8141000D03*
%TO.P,C8,2*%
%TO.N,GND*%
X-3302000Y6591000D03*
%TD*%
D32*
%TO.P,RN3,1,R1.1*%
%TO.N,GND*%
X-26162000Y8432800D03*
%TO.P,RN3,2,R1.2*%
%TO.N,Net-(D5-K)*%
X-26162000Y9855200D03*
%TO.P,RN3,3,R2.1*%
%TO.N,GND*%
X-25654000Y8432800D03*
%TO.P,RN3,4,R2.2*%
%TO.N,Net-(D4-K)*%
X-25654000Y9855200D03*
%TO.P,RN3,5,R3.1*%
%TO.N,GND*%
X-25146000Y8432800D03*
%TO.P,RN3,6,R3.2*%
%TO.N,Net-(D1-K)*%
X-25146000Y9855200D03*
%TO.P,RN3,7,R4.1*%
%TO.N,GND*%
X-24638000Y8432800D03*
%TO.P,RN3,8,R4.2*%
%TO.N,Net-(D2-K)*%
X-24638000Y9855200D03*
%TD*%
D18*
%TO.P,R3,1*%
%TO.N,Net-(U6-VIOUT)*%
X-4572000Y8191000D03*
%TO.P,R3,2*%
%TO.N,Current_{2}*%
X-4572000Y6541000D03*
%TD*%
D13*
%TO.P,J6,1,Pin_1*%
%TO.N,GND*%
X-22098000Y25913000D03*
D14*
%TO.P,J6,2,Pin_2*%
%TO.N,ENC_{2A}*%
X-22098000Y24643000D03*
%TO.P,J6,3,Pin_3*%
%TO.N,ENC_{2B}*%
X-22098000Y23373000D03*
%TD*%
D33*
%TO.P,R2,1*%
%TO.N,Current_{1}*%
X-4889000Y30988000D03*
%TO.P,R2,2*%
%TO.N,GND*%
X-3239000Y30988000D03*
%TD*%
D16*
%TO.P,C11,1*%
%TO.N,OUT_B_{2}*%
X-2540000Y17031000D03*
%TO.P,C11,2*%
%TO.N,OUT_B_{1}'*%
X-2540000Y15481000D03*
%TD*%
D15*
%TO.P,R1,1*%
%TO.N,Net-(U3-VIOUT)*%
X-6096000Y29401000D03*
%TO.P,R1,2*%
%TO.N,Current_{1}*%
X-6096000Y31051000D03*
%TD*%
D21*
%TO.P,J3,1,Pin_1*%
%TO.N,+3V3*%
X-25146000Y31750000D03*
D22*
%TO.P,J3,2,Pin_2*%
%TO.N,SWDCLK*%
X-25146000Y29210000D03*
%TO.P,J3,3,Pin_3*%
%TO.N,GND*%
X-25146000Y26670000D03*
%TO.P,J3,4,Pin_4*%
%TO.N,SWDIO*%
X-25146000Y24130000D03*
%TD*%
D34*
%TO.P,JP3,1,A*%
%TO.N,GND*%
X-20208000Y11938000D03*
%TO.P,JP3,2,B*%
%TO.N,GNDPWR*%
X-18908000Y11938000D03*
%TD*%
D35*
%TO.P,C9,1*%
%TO.N,Net-(U6-FILTER)*%
X-5829000Y8255000D03*
%TO.P,C9,2*%
%TO.N,GND*%
X-7379000Y8255000D03*
%TD*%
D36*
%TO.N,GNDPWR*%
X-19050000Y13970000D03*
X-16764000Y13970000D03*
%TO.N,+3V3*%
X-20641619Y14629420D03*
X-5334000Y4572000D03*
X-7366000Y29951500D03*
X-16764000Y19621000D03*
X-22030082Y1524000D03*
%TO.N,GND*%
X-23368000Y20066000D03*
X-19919040Y2419654D03*
X-26924000Y32512000D03*
X-31496000Y14478000D03*
X-7822066Y31361176D03*
X-31496000Y508000D03*
X-27940000Y27940000D03*
X-28702000Y13716000D03*
X-3302000Y27686000D03*
X-25908000Y4064000D03*
X-27940000Y25654000D03*
X-31496000Y24638000D03*
X-31496000Y9144000D03*
X-15748000Y508000D03*
X-20066000Y10160000D03*
X-20066000Y27940000D03*
X-27686000Y30734000D03*
X-23368000Y4064000D03*
X-22606000Y27940000D03*
X-31496000Y28956000D03*
X-20066000Y6604000D03*
X-3302000Y32512000D03*
X-3556000Y5588000D03*
X-10668000Y30988000D03*
X-31496000Y4826000D03*
X-27940000Y23114000D03*
X-19520500Y18695500D03*
X-31496000Y20320000D03*
X-21209000Y25400000D03*
X-23114000Y9144000D03*
X-23368000Y32512000D03*
X-22098000Y29464000D03*
X-31496000Y32512000D03*
X-23368000Y18034000D03*
X-26924000Y21336000D03*
X-20574000Y508000D03*
X-25400000Y18288000D03*
X-20066000Y30988000D03*
%TO.N,Vdrive*%
X-8128000Y19304000D03*
X-13716000Y4064000D03*
X-8255000Y14097000D03*
%TO.N,GNDPWR*%
X-16510000Y29972000D03*
X-10922000Y29972000D03*
X-31496000Y26670000D03*
X-12192000Y28448000D03*
X-16256000Y23368000D03*
X-25400000Y508000D03*
X-508000Y30226000D03*
X-9652000Y25146000D03*
X-8636000Y29972000D03*
X-31496000Y30734000D03*
X-11176000Y23876000D03*
X-508000Y32512000D03*
X-15240000Y28448000D03*
X-10033000Y7620000D03*
X-508000Y28194000D03*
X-10922000Y26670000D03*
X-12700000Y8890000D03*
X-508000Y26162000D03*
X-8382000Y26670000D03*
X-31496000Y17272000D03*
X-11938000Y20947084D03*
X-12192000Y25146000D03*
X-31496000Y2794000D03*
X-2286000Y32512000D03*
X-31496000Y11938000D03*
X-18796000Y26670000D03*
X-11934887Y16654768D03*
X-13716000Y26670000D03*
X-29464000Y32512000D03*
X-508000Y6858000D03*
X-31496000Y22352000D03*
X-508000Y9144000D03*
X-13970000Y24130000D03*
X-508000Y508000D03*
X-2286000Y9906000D03*
X-508000Y11430000D03*
X-31496000Y7112000D03*
X-2032000Y29210000D03*
X-9398000Y28448000D03*
X-15875000Y7620000D03*
X-15621000Y10795000D03*
X-508000Y4572000D03*
X-16764000Y26670000D03*
X-11930996Y22249993D03*
X-12700000Y12827000D03*
X-2286000Y26924000D03*
X-28956000Y508000D03*
X-8308233Y21974184D03*
X-18796000Y29972000D03*
X-17526000Y18796000D03*
X-17526000Y28194000D03*
X-508000Y2540000D03*
X-17526000Y24892000D03*
X-2286000Y11684000D03*
X-16764000Y9271000D03*
X-18034000Y13081000D03*
X-18415000Y10414000D03*
X-15240000Y25146000D03*
X-13716000Y29972000D03*
X-18288000Y23368000D03*
X-11938000Y18796000D03*
X-14732000Y12827000D03*
X-11934498Y15350691D03*
X-14732000Y8890000D03*
X-18288000Y7620000D03*
%TO.N,Current_{2}*%
X-25615097Y20028500D03*
X-6350000Y6604000D03*
%TO.N,TEMP*%
X-21844000Y19558000D03*
X-20256500Y17939182D03*
%TD*%
D37*
%TO.N,SWDCLK*%
X-23831000Y25953000D02*
X-23831000Y27895000D01*
X-25849027Y25400000D02*
X-24384000Y25400000D01*
X-24384000Y25400000D02*
X-23831000Y25953000D01*
X-25654000Y22860000D02*
X-26321000Y23527000D01*
X-23831000Y27895000D02*
X-25146000Y29210000D01*
X-25146000Y22860000D02*
X-25654000Y22860000D01*
X-26321000Y23527000D02*
X-26321000Y24928027D01*
X-24881000Y22595000D02*
X-25146000Y22860000D01*
X-26321000Y24928027D02*
X-25849027Y25400000D01*
X-24881000Y21658500D02*
X-24881000Y22595000D01*
%TO.N,+3V3*%
X-15436000Y14092000D02*
X-14813000Y14092000D01*
X-16002000Y14732000D02*
X-15436000Y14166000D01*
X-15436000Y14166000D02*
X-15436000Y14092000D01*
X-20539039Y14732000D02*
X-16002000Y14732000D01*
X-20641619Y14629420D02*
X-20539039Y14732000D01*
X-16574000Y19431000D02*
X-16764000Y19621000D01*
X-14813000Y19431000D02*
X-16574000Y19431000D01*
D38*
X-24404000Y3897918D02*
X-24404000Y5736000D01*
D37*
X-3429000Y9971000D02*
X-3429000Y8268000D01*
X-28318410Y11938000D02*
X-24131520Y11938000D01*
X-7239000Y27621000D02*
X-7239000Y29324000D01*
D38*
X-26162000Y7112000D02*
X-28611000Y9561000D01*
D37*
X-3429000Y8268000D02*
X-3302000Y8141000D01*
D38*
X-24826000Y7112000D02*
X-26162000Y7112000D01*
X-24826000Y7112000D02*
X-24826000Y6158000D01*
X-22030082Y1524000D02*
X-24404000Y3897918D01*
X-2055000Y7389000D02*
X-2794000Y8128000D01*
X-3369918Y4572000D02*
X-5334000Y4572000D01*
D37*
X-7366000Y27748000D02*
X-7239000Y27621000D01*
D38*
X-28611000Y9561000D02*
X-28611000Y11646258D01*
D37*
X-24131520Y11938000D02*
X-23581000Y12488520D01*
D38*
X-2055000Y5886918D02*
X-3369918Y4572000D01*
X-2055000Y7389000D02*
X-2055000Y5886918D01*
D37*
X-7239000Y29324000D02*
X-7366000Y29451000D01*
X-7366000Y29951500D02*
X-7366000Y27748000D01*
X-23581000Y12488520D02*
X-23581000Y15933500D01*
D38*
X-28611000Y11646258D02*
X-28318834Y11938424D01*
X-24826000Y6158000D02*
X-24404000Y5736000D01*
D37*
%TO.N,GND*%
X-3429000Y30798000D02*
X-3239000Y30988000D01*
X-18595000Y19621000D02*
X-19520500Y18695500D01*
X-20053000Y31001000D02*
X-20066000Y30988000D01*
X-18288000Y19621000D02*
X-18595000Y19621000D01*
%TO.N,Net-(U3-FILTER)*%
X-4699000Y29197000D02*
X-4839000Y29337000D01*
X-4699000Y27621000D02*
X-4699000Y29197000D01*
D39*
%TO.N,Vdrive*%
X-13716000Y4064000D02*
X-13716000Y2404000D01*
X-13716000Y2404000D02*
X-13716000Y3302000D01*
X-13150066Y704066D02*
X-13716000Y1270000D01*
X-6661934Y704066D02*
X-11176000Y704066D01*
X-12016066Y704066D02*
X-13716000Y2404000D01*
X-11176000Y704066D02*
X-12016066Y704066D01*
X-6350000Y1016000D02*
X-6661934Y704066D01*
X-13716000Y3302000D02*
X-13462000Y3556000D01*
X-11176000Y704066D02*
X-13150066Y704066D01*
D38*
%TO.N,GNDPWR*%
X-11930996Y21851004D02*
X-11684000Y22098000D01*
D39*
X-3810000Y1237208D02*
X-8890000Y6317208D01*
D38*
X-12314000Y17902000D02*
X-12192000Y17780000D01*
X-11532007Y22249993D02*
X-11930996Y22249993D01*
D39*
X-10677000Y10804000D02*
X-13716000Y10804000D01*
D38*
X-12065000Y19685000D02*
X-11938000Y19812000D01*
X-9063000Y21971000D02*
X-10795000Y21971000D01*
D39*
X-3810000Y1016000D02*
X-3810000Y1237208D01*
X-8890000Y9017000D02*
X-10677000Y10804000D01*
D38*
X-12324000Y14092000D02*
X-12192000Y14224000D01*
X-11562000Y16632000D02*
X-11934887Y16654768D01*
X-13081000Y23241000D02*
X-12954000Y23114000D01*
X-11930996Y22249993D02*
X-11930996Y21851004D01*
X-10795000Y21971000D02*
X-10922000Y22098000D01*
D39*
X-8890000Y6317208D02*
X-8890000Y9017000D01*
D38*
X-14813000Y23241000D02*
X-13081000Y23241000D01*
X-9063000Y16632000D02*
X-11562000Y16632000D01*
X-11934887Y16654768D02*
X-11684000Y16510000D01*
D39*
X-18908000Y11938000D02*
X-13716000Y11938000D01*
D38*
X-11557000Y22225000D02*
X-11532007Y22249993D01*
D37*
%TO.N,ENC_{1A}*%
X-19481000Y21858500D02*
X-19481000Y23804000D01*
X-19481000Y23804000D02*
X-20320000Y24643000D01*
X-19681000Y21658500D02*
X-19481000Y21858500D01*
%TO.N,ENC_{1B}*%
X-20331000Y23362000D02*
X-20320000Y23373000D01*
X-20331000Y21658500D02*
X-20331000Y23362000D01*
%TO.N,SWDIO*%
X-24231000Y21658500D02*
X-24231000Y23215000D01*
X-24231000Y23215000D02*
X-25146000Y24130000D01*
%TO.N,I^{2}C_{SCL}*%
X-25531000Y22156000D02*
X-25531000Y21658500D01*
X-27877818Y22156000D02*
X-25531000Y22156000D01*
X-28956000Y6184000D02*
X-28956000Y8277604D01*
X-29636000Y8957604D02*
X-29636000Y20397818D01*
X-29636000Y20397818D02*
X-27877818Y22156000D01*
X-29404000Y5736000D02*
X-28956000Y6184000D01*
X-28956000Y8277604D02*
X-29636000Y8957604D01*
%TO.N,I^{2}C_{SDA}*%
X-28344930Y12725500D02*
X-27686000Y12725500D01*
X-29186000Y11884430D02*
X-28344930Y12725500D01*
X-26904000Y6862000D02*
X-26904000Y5736000D01*
X-25531000Y14880500D02*
X-27686000Y12725500D01*
X-29186000Y9144000D02*
X-26904000Y6862000D01*
X-29186000Y9144000D02*
X-29186000Y11884430D01*
X-25531000Y15933500D02*
X-25531000Y14880500D01*
%TO.N,Net-(U3-VIOUT)*%
X-5969000Y29274000D02*
X-6096000Y29401000D01*
X-5969000Y27621000D02*
X-5969000Y29274000D01*
%TO.N,Net-(U6-FILTER)*%
X-5969000Y9971000D02*
X-5969000Y8395000D01*
X-5969000Y8395000D02*
X-5829000Y8255000D01*
%TO.N,Net-(D1-K)*%
X-25146000Y10642500D02*
X-24638000Y11150500D01*
X-25146000Y9855200D02*
X-25146000Y10642500D01*
%TO.N,LED_{1}*%
X-24881000Y15933500D02*
X-24881000Y14006500D01*
X-24881000Y14006500D02*
X-26162000Y12725500D01*
%TO.N,Net-(D2-K)*%
X-24638000Y9855200D02*
X-23793425Y9855200D01*
X-23114000Y10534625D02*
X-23114000Y11150500D01*
X-23793425Y9855200D02*
X-23114000Y10534625D01*
%TO.N,LED_{2}*%
X-24638000Y12725500D02*
X-24231000Y13132500D01*
X-24231000Y13132500D02*
X-24231000Y15933500D01*
%TO.N,Net-(D4-K)*%
X-25654000Y9855200D02*
X-25654000Y10642500D01*
X-25654000Y10642500D02*
X-26162000Y11150500D01*
%TO.N,Net-(D5-K)*%
X-27686000Y10528250D02*
X-27686000Y11150500D01*
X-26162000Y9855200D02*
X-27012950Y9855200D01*
X-27012950Y9855200D02*
X-27686000Y10528250D01*
%TO.N,ENC_{2A}*%
X-20981000Y22379396D02*
X-21273000Y22671396D01*
X-21273000Y23818000D02*
X-22098000Y24643000D01*
X-20981000Y21658500D02*
X-20981000Y22379396D01*
X-21273000Y22671396D02*
X-21273000Y23818000D01*
%TO.N,ENC_{2B}*%
X-21631000Y22393000D02*
X-22098000Y22860000D01*
X-22098000Y22860000D02*
X-22098000Y23373000D01*
X-21631000Y21658500D02*
X-21631000Y22393000D01*
%TO.N,Current_{1}*%
X-22931000Y21658500D02*
X-22931000Y22347042D01*
X-20574000Y32258000D02*
X-7303000Y32258000D01*
X-23368000Y29464000D02*
X-20574000Y32258000D01*
X-7303000Y32258000D02*
X-6096000Y31051000D01*
X-23368000Y22784042D02*
X-23368000Y29464000D01*
X-4889000Y30988000D02*
X-6033000Y30988000D01*
X-6033000Y30988000D02*
X-6096000Y31051000D01*
X-22931000Y22347042D02*
X-23368000Y22784042D01*
%TO.N,Net-(U6-VIOUT)*%
X-4699000Y9971000D02*
X-4699000Y8318000D01*
X-4699000Y8318000D02*
X-4572000Y8191000D01*
%TO.N,Current_{2}*%
X-5779000Y6604000D02*
X-6350000Y6604000D01*
X-24473500Y20028500D02*
X-25615097Y20028500D01*
X-23581000Y20921000D02*
X-24473500Y20028500D01*
X-23581000Y21658500D02*
X-23581000Y20921000D01*
X-4635000Y6604000D02*
X-4572000Y6541000D01*
X-5779000Y6604000D02*
X-4635000Y6604000D01*
%TO.N,TEMP*%
X-20224682Y17971000D02*
X-18288000Y17971000D01*
X-21844000Y19558000D02*
X-22281000Y19995000D01*
X-22281000Y19995000D02*
X-22281000Y21658500D01*
X-20256500Y17939182D02*
X-20224682Y17971000D01*
X-18288000Y17971000D02*
X-16764000Y17971000D01*
%TO.N,PWM_{1B}*%
X-14813000Y21971000D02*
X-17907000Y21971000D01*
X-17907000Y21971000D02*
X-21631000Y18247000D01*
X-21631000Y18247000D02*
X-21631000Y15933500D01*
%TO.N,PWM_{1A}*%
X-20981000Y18260604D02*
X-18540604Y20701000D01*
X-18540604Y20701000D02*
X-14813000Y20701000D01*
X-20981000Y15933500D02*
X-20981000Y18260604D01*
%TO.N,PWM_{2A}*%
X-14813000Y15362000D02*
X-19674000Y15362000D01*
%TO.N,PWM_{2B}*%
X-19404958Y16996000D02*
X-19040958Y16632000D01*
X-19040958Y16632000D02*
X-14813000Y16632000D01*
X-19957042Y16996000D02*
X-19404958Y16996000D01*
X-20331000Y16622042D02*
X-19957042Y16996000D01*
X-20331000Y15933500D02*
X-20331000Y16622042D01*
%TO.N,Net-(U1-PF2)*%
X-28207000Y19825000D02*
X-28207000Y20574000D01*
X-22281000Y15933500D02*
X-22281000Y18217000D01*
X-23368000Y19304000D02*
X-27686000Y19304000D01*
X-22281000Y18217000D02*
X-23368000Y19304000D01*
X-27686000Y19304000D02*
X-28207000Y19825000D01*
%TD*%
%TA.AperFunction,Conductor*%
%TO.N,OUT_A_{1}*%
G36*
X-5826323Y21316315D02*
G01*
X-5805681Y21299681D01*
X-5588000Y21082000D01*
X-559362Y21082000D01*
X-492323Y21062315D01*
X-471681Y21045681D01*
X-290319Y20864319D01*
X-256834Y20802996D01*
X-254000Y20776638D01*
X-254000Y19355362D01*
X-273685Y19288323D01*
X-290319Y19267681D01*
X-471681Y19086319D01*
X-533004Y19052834D01*
X-559362Y19050000D01*
X-6806638Y19050000D01*
X-6873677Y19069685D01*
X-6894319Y19086319D01*
X-7874000Y20066000D01*
X-10108638Y20066000D01*
X-10175677Y20085685D01*
X-10196319Y20102319D01*
X-10226181Y20132181D01*
X-10259666Y20193504D01*
X-10262500Y20219862D01*
X-10262500Y21182138D01*
X-10242815Y21249177D01*
X-10226181Y21269819D01*
X-10196319Y21299681D01*
X-10134996Y21333166D01*
X-10108638Y21336000D01*
X-5893362Y21336000D01*
X-5826323Y21316315D01*
G37*
%TD.AperFunction*%
%TD*%
%TA.AperFunction,Conductor*%
%TO.N,GNDPWR*%
G36*
X-10406544Y22573695D02*
G01*
X-10406542Y22573692D01*
X-10406540Y22573689D01*
X-10371502Y22526885D01*
X-10371498Y22526881D01*
X-10371491Y22526871D01*
X-10371484Y22526864D01*
X-10337734Y22493114D01*
X-10337731Y22493112D01*
X-10329552Y22485763D01*
X-10329554Y22485764D01*
X-10304624Y22465675D01*
X-10233576Y22428510D01*
X-10166544Y22408827D01*
X-10166542Y22408827D01*
X-10166536Y22408825D01*
X-10108638Y22400500D01*
X-10005862Y22400500D01*
X-9938823Y22380815D01*
X-9918181Y22364181D01*
X-9688319Y22134319D01*
X-9654834Y22072996D01*
X-9652000Y22046638D01*
X-9652000Y21895362D01*
X-9671685Y21828323D01*
X-9688319Y21807681D01*
X-9918181Y21577819D01*
X-9979504Y21544334D01*
X-10005862Y21541500D01*
X-10114142Y21541500D01*
X-10125134Y21540911D01*
X-10125143Y21540911D01*
X-10125144Y21540910D01*
X-10125145Y21540910D01*
X-10156962Y21537489D01*
X-10156971Y21537487D01*
X-10233479Y21513530D01*
X-10233484Y21513529D01*
X-10294812Y21480040D01*
X-10341616Y21445002D01*
X-10341637Y21444984D01*
X-10375386Y21411234D01*
X-10375388Y21411231D01*
X-10382737Y21403052D01*
X-10382736Y21403054D01*
X-10402826Y21378124D01*
X-10414000Y21356763D01*
X-10414000Y22587350D01*
X-10406544Y22573695D01*
G37*
%TD.AperFunction*%
%TD*%
%TA.AperFunction,Conductor*%
%TO.N,OUT_B_{2}*%
G36*
X-492323Y18522315D02*
G01*
X-471681Y18505681D01*
X-290319Y18324319D01*
X-256834Y18262996D01*
X-254000Y18236638D01*
X-254000Y16815362D01*
X-273685Y16748323D01*
X-290319Y16727681D01*
X-471681Y16546319D01*
X-533004Y16512834D01*
X-559362Y16510000D01*
X-7060638Y16510000D01*
X-7127677Y16529685D01*
X-7148319Y16546319D01*
X-7874000Y17272000D01*
X-10108638Y17272000D01*
X-10175677Y17291685D01*
X-10196319Y17308319D01*
X-10226181Y17338181D01*
X-10259666Y17399504D01*
X-10262500Y17425862D01*
X-10262500Y18388138D01*
X-10242815Y18455177D01*
X-10226181Y18475819D01*
X-10196319Y18505681D01*
X-10134996Y18539166D01*
X-10108638Y18542000D01*
X-559362Y18542000D01*
X-492323Y18522315D01*
G37*
%TD.AperFunction*%
%TD*%
%TA.AperFunction,Conductor*%
%TO.N,OUT_A_{2}'*%
G36*
X-492323Y23602315D02*
G01*
X-471681Y23585681D01*
X-290319Y23404319D01*
X-256834Y23342996D01*
X-254000Y23316638D01*
X-254000Y21895362D01*
X-273685Y21828323D01*
X-290319Y21807681D01*
X-471681Y21626319D01*
X-533004Y21592834D01*
X-559362Y21590000D01*
X-4774638Y21590000D01*
X-4841677Y21609685D01*
X-4862319Y21626319D01*
X-5043681Y21807681D01*
X-5077166Y21869004D01*
X-5080000Y21895362D01*
X-5080000Y22990000D01*
X-5060315Y23057039D01*
X-5007511Y23102794D01*
X-4956000Y23114000D01*
X-2794000Y23114000D01*
X-2322319Y23585681D01*
X-2260996Y23619166D01*
X-2234638Y23622000D01*
X-559362Y23622000D01*
X-492323Y23602315D01*
G37*
%TD.AperFunction*%
%TD*%
%TA.AperFunction,Conductor*%
%TO.N,OUT_B_{1}'*%
G36*
X-492323Y15982315D02*
G01*
X-471681Y15965681D01*
X-290319Y15784319D01*
X-256834Y15722996D01*
X-254000Y15696638D01*
X-254000Y14275362D01*
X-273685Y14208323D01*
X-290319Y14187681D01*
X-471681Y14006319D01*
X-533004Y13972834D01*
X-559362Y13970000D01*
X-2234638Y13970000D01*
X-2301677Y13989685D01*
X-2322319Y14006319D01*
X-2794000Y14478000D01*
X-4956000Y14478000D01*
X-5023039Y14497685D01*
X-5068794Y14550489D01*
X-5080000Y14602000D01*
X-5080000Y15696638D01*
X-5060315Y15763677D01*
X-5043681Y15784319D01*
X-4862319Y15965681D01*
X-4800996Y15999166D01*
X-4774638Y16002000D01*
X-559362Y16002000D01*
X-492323Y15982315D01*
G37*
%TD.AperFunction*%
%TD*%
%TA.AperFunction,Conductor*%
%TO.N,OUT_B_{1}*%
G36*
X-5826323Y15982315D02*
G01*
X-5805681Y15965681D01*
X-5624319Y15784319D01*
X-5590834Y15722996D01*
X-5588000Y15696638D01*
X-5588000Y14602000D01*
X-5607685Y14534961D01*
X-5660489Y14489206D01*
X-5712000Y14478000D01*
X-7568638Y14478000D01*
X-7635677Y14497685D01*
X-7656319Y14514319D01*
X-7874000Y14732000D01*
X-10108638Y14732000D01*
X-10175677Y14751685D01*
X-10196319Y14768319D01*
X-10226181Y14798181D01*
X-10259666Y14859504D01*
X-10262500Y14885862D01*
X-10262500Y15848138D01*
X-10242815Y15915177D01*
X-10226181Y15935819D01*
X-10196319Y15965681D01*
X-10134996Y15999166D01*
X-10108638Y16002000D01*
X-5893362Y16002000D01*
X-5826323Y15982315D01*
G37*
%TD.AperFunction*%
%TD*%
%TA.AperFunction,Conductor*%
%TO.N,GNDPWR*%
G36*
X-13208000Y16764000D02*
G01*
X-13462000Y16954500D01*
X-13462000Y16954501D01*
X-14223999Y17525999D01*
X-14224000Y17526000D01*
X-15994576Y17968645D01*
X-16054839Y18004002D01*
X-16086421Y18066326D01*
X-16088501Y18088943D01*
X-16088501Y18202518D01*
X-16088501Y18202519D01*
X-16103354Y18296304D01*
X-16160950Y18409342D01*
X-16160954Y18409346D01*
X-16160955Y18409348D01*
X-16250653Y18499046D01*
X-16250656Y18499048D01*
X-16250658Y18499050D01*
X-16327483Y18538195D01*
X-16363699Y18556648D01*
X-16457476Y18571500D01*
X-17070518Y18571500D01*
X-17151481Y18558677D01*
X-17164304Y18556646D01*
X-17277342Y18499050D01*
X-17277343Y18499049D01*
X-17277348Y18499046D01*
X-17367046Y18409348D01*
X-17367049Y18409343D01*
X-17367050Y18409342D01*
X-17390050Y18364204D01*
X-17438023Y18313409D01*
X-17500533Y18296500D01*
X-17551467Y18296500D01*
X-17618506Y18316185D01*
X-17661951Y18364204D01*
X-17684950Y18409342D01*
X-17684954Y18409346D01*
X-17684955Y18409348D01*
X-17743681Y18468074D01*
X-17777166Y18529397D01*
X-17780000Y18555755D01*
X-17780000Y19036245D01*
X-17760315Y19103284D01*
X-17743681Y19123926D01*
X-17684955Y19182653D01*
X-17684950Y19182658D01*
X-17657620Y19236297D01*
X-17609646Y19287091D01*
X-17547136Y19304000D01*
X-17504864Y19304000D01*
X-17437825Y19284315D01*
X-17394381Y19236297D01*
X-17367050Y19182658D01*
X-17367048Y19182656D01*
X-17367046Y19182653D01*
X-17277348Y19092955D01*
X-17277346Y19092954D01*
X-17277342Y19092950D01*
X-17166451Y19036448D01*
X-17164302Y19035353D01*
X-17070525Y19020501D01*
X-17070519Y19020500D01*
X-16807435Y19020501D01*
X-16799333Y19019970D01*
X-16764000Y19015318D01*
X-16728667Y19019970D01*
X-16720566Y19020501D01*
X-16457483Y19020501D01*
X-16457482Y19020501D01*
X-16363696Y19035354D01*
X-16252551Y19091986D01*
X-16196258Y19105500D01*
X-16169971Y19105500D01*
X-16102932Y19085815D01*
X-16066869Y19050391D01*
X-16057553Y19036448D01*
X-15991231Y18992133D01*
X-15991230Y18992132D01*
X-15932753Y18980501D01*
X-15932750Y18980500D01*
X-15932748Y18980500D01*
X-13693250Y18980500D01*
X-13693249Y18980501D01*
X-13678432Y18983448D01*
X-13634771Y18992132D01*
X-13634771Y18992133D01*
X-13634769Y18992133D01*
X-13568448Y19036448D01*
X-13524133Y19102769D01*
X-13524133Y19102771D01*
X-13524132Y19102771D01*
X-13512501Y19161248D01*
X-13512500Y19161250D01*
X-13512500Y19329138D01*
X-13492815Y19396177D01*
X-13476181Y19416819D01*
X-13462000Y19431000D01*
X-13208000Y19431000D01*
X-13208000Y16764000D01*
G37*
%TD.AperFunction*%
%TD*%
%TA.AperFunction,Conductor*%
%TO.N,GNDPWR*%
G36*
X-10406544Y17239695D02*
G01*
X-10406542Y17239692D01*
X-10406540Y17239689D01*
X-10371502Y17192885D01*
X-10371498Y17192881D01*
X-10371491Y17192871D01*
X-10371484Y17192864D01*
X-10337734Y17159114D01*
X-10337731Y17159112D01*
X-10329552Y17151763D01*
X-10329554Y17151764D01*
X-10304624Y17131675D01*
X-10233576Y17094510D01*
X-10166544Y17074827D01*
X-10166542Y17074827D01*
X-10166536Y17074825D01*
X-10108638Y17066500D01*
X-10005862Y17066500D01*
X-9938823Y17046815D01*
X-9918181Y17030181D01*
X-9688319Y16800319D01*
X-9654834Y16738996D01*
X-9652000Y16712638D01*
X-9652000Y16561362D01*
X-9671685Y16494323D01*
X-9688319Y16473681D01*
X-9918181Y16243819D01*
X-9979504Y16210334D01*
X-10005862Y16207500D01*
X-10114142Y16207500D01*
X-10125134Y16206911D01*
X-10125143Y16206911D01*
X-10125144Y16206910D01*
X-10125145Y16206910D01*
X-10156962Y16203489D01*
X-10156971Y16203487D01*
X-10233479Y16179530D01*
X-10233484Y16179529D01*
X-10294812Y16146040D01*
X-10341616Y16111002D01*
X-10341637Y16110984D01*
X-10375386Y16077234D01*
X-10375388Y16077231D01*
X-10382737Y16069052D01*
X-10382736Y16069054D01*
X-10402826Y16044124D01*
X-10414000Y16022763D01*
X-10414000Y17253350D01*
X-10406544Y17239695D01*
G37*
%TD.AperFunction*%
%TD*%
%TA.AperFunction,Conductor*%
%TO.N,GNDPWR*%
G36*
X-10978777Y30465548D02*
G01*
X-10978351Y30466574D01*
X-10883949Y30427472D01*
X-10824762Y30402956D01*
X-10746381Y30392637D01*
X-10668001Y30382318D01*
X-10668000Y30382318D01*
X-10667999Y30382318D01*
X-10615746Y30389198D01*
X-10511238Y30402956D01*
X-10434008Y30434946D01*
X-10357649Y30466574D01*
X-10357224Y30465548D01*
X-10303292Y30480000D01*
X-7998000Y30480000D01*
X-7930961Y30460315D01*
X-7885206Y30407511D01*
X-7874000Y30356000D01*
X-7874000Y30316208D01*
X-7888452Y30262274D01*
X-7887426Y30261849D01*
X-7951044Y30108263D01*
X-7951045Y30108261D01*
X-7971682Y29951502D01*
X-7971682Y29944952D01*
X-7985197Y29888658D01*
X-8025719Y29809129D01*
X-8025720Y29809125D01*
X-8041500Y29709494D01*
X-8041500Y29192507D01*
X-8025721Y29092879D01*
X-8025720Y29092876D01*
X-8025719Y29092874D01*
X-7964528Y28972780D01*
X-7910318Y28918570D01*
X-7876834Y28857249D01*
X-7874000Y28830890D01*
X-7874000Y24254000D01*
X-7893685Y24186961D01*
X-7946489Y24141206D01*
X-7998000Y24130000D01*
X-10414000Y24130000D01*
X-10414000Y23927234D01*
X-10428124Y23869760D01*
X-10439991Y23847075D01*
X-10459674Y23780044D01*
X-10468000Y23722135D01*
X-10468000Y22754362D01*
X-10467410Y22743356D01*
X-10467410Y22743355D01*
X-10463989Y22711539D01*
X-10463987Y22711530D01*
X-10448567Y22662283D01*
X-10440029Y22635018D01*
X-10429168Y22615128D01*
X-10414000Y22555701D01*
X-10414000Y21387234D01*
X-10428124Y21329760D01*
X-10439991Y21307075D01*
X-10459674Y21240044D01*
X-10459675Y21240036D01*
X-10468000Y21182138D01*
X-10468000Y20214358D01*
X-10467587Y20206646D01*
X-10467410Y20203356D01*
X-10467410Y20203355D01*
X-10463989Y20171539D01*
X-10463987Y20171530D01*
X-10448567Y20122283D01*
X-10440029Y20095018D01*
X-10429168Y20075128D01*
X-10414000Y20015701D01*
X-10414000Y18593234D01*
X-10428124Y18535760D01*
X-10439991Y18513075D01*
X-10459674Y18446044D01*
X-10468000Y18388135D01*
X-10468000Y17420362D01*
X-10467410Y17409356D01*
X-10467410Y17409355D01*
X-10463989Y17377539D01*
X-10463987Y17377530D01*
X-10448567Y17328283D01*
X-10440029Y17301018D01*
X-10437045Y17295554D01*
X-10429168Y17281128D01*
X-10414000Y17221701D01*
X-10414000Y16053234D01*
X-10428124Y15995760D01*
X-10439991Y15973075D01*
X-10459674Y15906044D01*
X-10468000Y15848135D01*
X-10468000Y14880362D01*
X-10467410Y14869356D01*
X-10467410Y14869355D01*
X-10463989Y14837539D01*
X-10463987Y14837530D01*
X-10461890Y14830834D01*
X-10440029Y14761018D01*
X-10429168Y14741128D01*
X-10414000Y14681701D01*
X-10414000Y13530727D01*
X-10433685Y13463688D01*
X-10472280Y13425575D01*
X-12330017Y12264489D01*
X-12415843Y12210848D01*
X-12481563Y12192000D01*
X-14732000Y12192000D01*
X-19307000Y12192000D01*
X-19374039Y12211685D01*
X-19419794Y12264489D01*
X-19431000Y12316000D01*
X-19431000Y14282500D01*
X-19411315Y14349539D01*
X-19358511Y14395294D01*
X-19307000Y14406500D01*
X-16237500Y14406500D01*
X-16170461Y14386815D01*
X-16124706Y14334011D01*
X-16113500Y14282500D01*
X-16113500Y13822248D01*
X-16101869Y13763771D01*
X-16101868Y13763770D01*
X-16057553Y13697448D01*
X-15991231Y13653133D01*
X-15991230Y13653132D01*
X-15932753Y13641501D01*
X-15932750Y13641500D01*
X-15932748Y13641500D01*
X-13693250Y13641500D01*
X-13693249Y13641501D01*
X-13678432Y13644448D01*
X-13634771Y13653132D01*
X-13634771Y13653133D01*
X-13634769Y13653133D01*
X-13568448Y13697448D01*
X-13524133Y13763769D01*
X-13524133Y13763771D01*
X-13524132Y13763771D01*
X-13512501Y13822248D01*
X-13512500Y13822250D01*
X-13512500Y14361751D01*
X-13512501Y14361753D01*
X-13524132Y14420230D01*
X-13524133Y14420231D01*
X-13568448Y14486553D01*
X-13634770Y14530868D01*
X-13634771Y14530869D01*
X-13693248Y14542500D01*
X-13693252Y14542500D01*
X-15300812Y14542500D01*
X-15367851Y14562185D01*
X-15388493Y14578819D01*
X-15509493Y14699819D01*
X-15542978Y14761142D01*
X-15537994Y14830834D01*
X-15496122Y14886767D01*
X-15430658Y14911184D01*
X-15421812Y14911500D01*
X-13693250Y14911500D01*
X-13693249Y14911501D01*
X-13678432Y14914448D01*
X-13634771Y14923132D01*
X-13634771Y14923133D01*
X-13634769Y14923133D01*
X-13568448Y14967448D01*
X-13524133Y15033769D01*
X-13524132Y15033778D01*
X-13521482Y15040171D01*
X-13494601Y15080401D01*
X-13462002Y15113000D01*
X-13462000Y15113000D01*
X-13462000Y15367000D01*
X-13462000Y16954500D01*
X-13462000Y22352000D01*
X-13970000Y22860000D01*
X-19031500Y22860000D01*
X-19098539Y22879685D01*
X-19144294Y22932489D01*
X-19155500Y22984000D01*
X-19155500Y23787088D01*
X-19155264Y23792494D01*
X-19151737Y23832809D01*
X-19162215Y23871910D01*
X-19163382Y23877170D01*
X-19170412Y23917045D01*
X-19170413Y23917047D01*
X-19172240Y23922067D01*
X-19179180Y23938824D01*
X-19181446Y23943681D01*
X-19181446Y23943684D01*
X-19204663Y23976841D01*
X-19207565Y23981395D01*
X-19227806Y24016455D01*
X-19258818Y24042478D01*
X-19262790Y24046117D01*
X-19267681Y24051008D01*
X-19301166Y24112331D01*
X-19304000Y24138689D01*
X-19304000Y30356000D01*
X-19284315Y30423039D01*
X-19231511Y30468794D01*
X-19180000Y30480000D01*
X-11032708Y30480000D01*
X-10978777Y30465548D01*
G37*
%TD.AperFunction*%
%TD*%
%TA.AperFunction,Conductor*%
%TO.N,OUT_A_{2}*%
G36*
X-7604323Y23856315D02*
G01*
X-7583681Y23839681D01*
X-7148319Y23404319D01*
X-7114834Y23342996D01*
X-7112000Y23316638D01*
X-7112000Y23114000D01*
X-5712000Y23114000D01*
X-5644961Y23094315D01*
X-5599206Y23041511D01*
X-5588000Y22990000D01*
X-5588000Y21895362D01*
X-5607685Y21828323D01*
X-5624319Y21807681D01*
X-5805681Y21626319D01*
X-5867004Y21592834D01*
X-5893362Y21590000D01*
X-7314638Y21590000D01*
X-7381677Y21609685D01*
X-7402319Y21626319D01*
X-7583681Y21807681D01*
X-7617166Y21869004D01*
X-7620000Y21895362D01*
X-7620000Y22352000D01*
X-7874000Y22606000D01*
X-10108638Y22606000D01*
X-10175677Y22625685D01*
X-10196319Y22642319D01*
X-10226181Y22672181D01*
X-10259666Y22733504D01*
X-10262500Y22759862D01*
X-10262500Y23722138D01*
X-10242815Y23789177D01*
X-10226181Y23809819D01*
X-10196319Y23839681D01*
X-10134996Y23873166D01*
X-10108638Y23876000D01*
X-7671362Y23876000D01*
X-7604323Y23856315D01*
G37*
%TD.AperFunction*%
%TD*%
%TA.AperFunction,Conductor*%
%TO.N,GND*%
G36*
X-30015904Y32999815D02*
G01*
X-29970149Y32947011D01*
X-29960205Y32877853D01*
X-29984567Y32820014D01*
X-29988536Y32814843D01*
X-30049044Y32668763D01*
X-30049045Y32668761D01*
X-30069682Y32512002D01*
X-30069682Y32511999D01*
X-30049045Y32355240D01*
X-30049044Y32355238D01*
X-29988536Y32209159D01*
X-29892282Y32083718D01*
X-29766841Y31987464D01*
X-29620762Y31926956D01*
X-29542381Y31916637D01*
X-29464001Y31906318D01*
X-29464000Y31906318D01*
X-29463999Y31906318D01*
X-29411746Y31913198D01*
X-29307238Y31926956D01*
X-29161159Y31987464D01*
X-29035718Y32083718D01*
X-28939464Y32209159D01*
X-28878956Y32355238D01*
X-28862779Y32478113D01*
X-28858318Y32511999D01*
X-28858318Y32512002D01*
X-28878956Y32668761D01*
X-28878956Y32668762D01*
X-28939464Y32814841D01*
X-28939465Y32814842D01*
X-28939465Y32814843D01*
X-28943433Y32820014D01*
X-28968627Y32885183D01*
X-28954588Y32953628D01*
X-28905774Y33003618D01*
X-28845057Y33019500D01*
X-26137838Y33019500D01*
X-26070799Y32999815D01*
X-26025044Y32947011D01*
X-26015100Y32877853D01*
X-26044125Y32814297D01*
X-26068947Y32792398D01*
X-26140553Y32744553D01*
X-26184868Y32678231D01*
X-26184869Y32678230D01*
X-26196500Y32619753D01*
X-26196500Y30880248D01*
X-26184869Y30821771D01*
X-26184868Y30821770D01*
X-26140553Y30755448D01*
X-26074231Y30711133D01*
X-26074230Y30711132D01*
X-26015753Y30699501D01*
X-26015750Y30699500D01*
X-26015748Y30699500D01*
X-24276250Y30699500D01*
X-24276249Y30699501D01*
X-24261432Y30702448D01*
X-24217771Y30711132D01*
X-24217771Y30711133D01*
X-24217769Y30711133D01*
X-24151448Y30755448D01*
X-24107133Y30821769D01*
X-24107133Y30821771D01*
X-24107132Y30821771D01*
X-24095501Y30880248D01*
X-24095500Y30880250D01*
X-24095500Y32619751D01*
X-24095501Y32619753D01*
X-24107132Y32678230D01*
X-24107133Y32678231D01*
X-24151448Y32744553D01*
X-24223053Y32792398D01*
X-24267858Y32846011D01*
X-24276565Y32915336D01*
X-24246410Y32978363D01*
X-24186967Y33015082D01*
X-24154162Y33019500D01*
X-2918000Y33019500D01*
X-2850961Y32999815D01*
X-2805206Y32947011D01*
X-2794000Y32895500D01*
X-2794000Y32876708D01*
X-2808452Y32822774D01*
X-2807426Y32822349D01*
X-2871044Y32668763D01*
X-2871045Y32668761D01*
X-2891682Y32512002D01*
X-2891682Y32511999D01*
X-2871045Y32355240D01*
X-2871043Y32355235D01*
X-2807426Y32201649D01*
X-2808453Y32201224D01*
X-2794000Y32147292D01*
X-2794000Y27302000D01*
X-2813685Y27234961D01*
X-2866489Y27189206D01*
X-2918000Y27178000D01*
X-4074500Y27178000D01*
X-4141539Y27197685D01*
X-4187294Y27250489D01*
X-4198500Y27302000D01*
X-4198500Y28479261D01*
X-4208427Y28547392D01*
X-4208427Y28547393D01*
X-4259802Y28652483D01*
X-4259804Y28652485D01*
X-4259804Y28652486D01*
X-4265604Y28658286D01*
X-4299089Y28719609D01*
X-4294105Y28789301D01*
X-4270791Y28825576D01*
X-4271211Y28825881D01*
X-4265859Y28833249D01*
X-4265598Y28833654D01*
X-4265598Y28833655D01*
X-4265472Y28833780D01*
X-4204281Y28953874D01*
X-4202890Y28962658D01*
X-4188500Y29053507D01*
X-4188500Y29620494D01*
X-4204280Y29720122D01*
X-4204281Y29720124D01*
X-4204281Y29720126D01*
X-4265472Y29840220D01*
X-4265474Y29840222D01*
X-4265477Y29840226D01*
X-4360775Y29935524D01*
X-4360779Y29935527D01*
X-4360780Y29935528D01*
X-4480874Y29996719D01*
X-4480876Y29996720D01*
X-4480879Y29996721D01*
X-4580507Y30012500D01*
X-4580512Y30012500D01*
X-5097488Y30012500D01*
X-5097493Y30012500D01*
X-5197122Y29996721D01*
X-5317222Y29935527D01*
X-5317226Y29935524D01*
X-5365497Y29887252D01*
X-5426820Y29853767D01*
X-5496512Y29858751D01*
X-5540859Y29887252D01*
X-5582653Y29929046D01*
X-5582656Y29929048D01*
X-5582658Y29929050D01*
X-5659483Y29968195D01*
X-5695699Y29986648D01*
X-5789476Y30001500D01*
X-6402518Y30001500D01*
X-6483481Y29988677D01*
X-6496304Y29986646D01*
X-6591727Y29938026D01*
X-6660395Y29925130D01*
X-6725135Y29951407D01*
X-6765392Y30008513D01*
X-6770959Y30032326D01*
X-6780956Y30108261D01*
X-6780956Y30108262D01*
X-6841464Y30254341D01*
X-6937718Y30379782D01*
X-7063159Y30476036D01*
X-7074989Y30480936D01*
X-7209238Y30536544D01*
X-7209240Y30536545D01*
X-7365999Y30557182D01*
X-7366001Y30557182D01*
X-7522761Y30536545D01*
X-7522766Y30536543D01*
X-7589048Y30509088D01*
X-7658517Y30501619D01*
X-7720996Y30532895D01*
X-7730213Y30542446D01*
X-7746080Y30560757D01*
X-7775655Y30594889D01*
X-7793244Y30612841D01*
X-7793250Y30612846D01*
X-7873060Y30657489D01*
X-7873065Y30657491D01*
X-7940097Y30677174D01*
X-7940101Y30677175D01*
X-7940102Y30677175D01*
X-7998000Y30685500D01*
X-10303292Y30685500D01*
X-10303300Y30685500D01*
X-10356486Y30678497D01*
X-10356487Y30678497D01*
X-10437002Y30656922D01*
X-10437595Y30656356D01*
X-10446947Y30652019D01*
X-10549804Y30609415D01*
X-10581070Y30601037D01*
X-10651815Y30591723D01*
X-10684187Y30591723D01*
X-10754932Y30601037D01*
X-10786199Y30609415D01*
X-10888917Y30651962D01*
X-10893112Y30655343D01*
X-10932746Y30665964D01*
X-10949686Y30670852D01*
X-10954124Y30671694D01*
X-10979511Y30678496D01*
X-10979515Y30678497D01*
X-11032701Y30685500D01*
X-11032708Y30685500D01*
X-19180000Y30685500D01*
X-19180008Y30685500D01*
X-19223687Y30680803D01*
X-19275193Y30669598D01*
X-19285371Y30667111D01*
X-19285376Y30667109D01*
X-19366084Y30624101D01*
X-19366087Y30624099D01*
X-19390243Y30603167D01*
X-19418889Y30578345D01*
X-19436841Y30560757D01*
X-19436846Y30560751D01*
X-19481489Y30480941D01*
X-19481491Y30480936D01*
X-19501174Y30413904D01*
X-19501175Y30413899D01*
X-19501175Y30413898D01*
X-19505336Y30384955D01*
X-19509500Y30355997D01*
X-19509500Y25099853D01*
X-19529185Y25032814D01*
X-19581989Y24987059D01*
X-19651147Y24977115D01*
X-19714703Y25006140D01*
X-19735548Y25029410D01*
X-19791817Y25110929D01*
X-19919148Y25223734D01*
X-19919151Y25223737D01*
X-20069774Y25302790D01*
X-20234944Y25343500D01*
X-20405056Y25343500D01*
X-20570227Y25302790D01*
X-20720850Y25223737D01*
X-20848184Y25110928D01*
X-20944818Y24970932D01*
X-21005140Y24811875D01*
X-21005141Y24811870D01*
X-21025645Y24643000D01*
X-21005141Y24474131D01*
X-21005140Y24474126D01*
X-20944818Y24315069D01*
X-20906772Y24259951D01*
X-20884889Y24193597D01*
X-20902354Y24125945D01*
X-20953622Y24078475D01*
X-21022415Y24066258D01*
X-21086893Y24093173D01*
X-21096503Y24101830D01*
X-21376225Y24381552D01*
X-21409710Y24442875D01*
X-21411640Y24484177D01*
X-21392355Y24643000D01*
X-21412860Y24811872D01*
X-21473182Y24970930D01*
X-21490443Y24995936D01*
X-21507524Y25020682D01*
X-21569817Y25110929D01*
X-21697148Y25223734D01*
X-21697151Y25223737D01*
X-21847774Y25302790D01*
X-22012944Y25343500D01*
X-22183056Y25343500D01*
X-22348227Y25302790D01*
X-22498850Y25223737D01*
X-22626184Y25110928D01*
X-22722818Y24970932D01*
X-22783140Y24811875D01*
X-22783141Y24811870D01*
X-22795404Y24710870D01*
X-22823026Y24646692D01*
X-22829753Y24642158D01*
X-22799523Y24595119D01*
X-22795404Y24575131D01*
X-22783141Y24474131D01*
X-22783140Y24474126D01*
X-22722818Y24315069D01*
X-22707465Y24292827D01*
X-22638971Y24193597D01*
X-22626182Y24175070D01*
X-22542366Y24100815D01*
X-22505239Y24041626D01*
X-22506007Y23971760D01*
X-22542366Y23915185D01*
X-22626182Y23840931D01*
X-22722818Y23700932D01*
X-22783140Y23541875D01*
X-22783141Y23541870D01*
X-22795404Y23440870D01*
X-22823026Y23376692D01*
X-22829753Y23372158D01*
X-22799523Y23325119D01*
X-22795404Y23305131D01*
X-22783141Y23204131D01*
X-22783140Y23204126D01*
X-22722818Y23045069D01*
X-22671160Y22970231D01*
X-22626183Y22905071D01*
X-22498852Y22792266D01*
X-22498851Y22792266D01*
X-22498848Y22792263D01*
X-22492678Y22788004D01*
X-22493405Y22786952D01*
X-22448736Y22743739D01*
X-22432755Y22675721D01*
X-22456085Y22609862D01*
X-22506482Y22569084D01*
X-22555582Y22547404D01*
X-22624861Y22538332D01*
X-22685373Y22565847D01*
X-22708810Y22585513D01*
X-22712790Y22589159D01*
X-23006181Y22882550D01*
X-23039666Y22943873D01*
X-23042500Y22970231D01*
X-23042500Y23290184D01*
X-23022815Y23357223D01*
X-23007296Y23370671D01*
X-23010407Y23372575D01*
X-23040821Y23435478D01*
X-23042500Y23455817D01*
X-23042500Y24560184D01*
X-23022815Y24627223D01*
X-23007296Y24640671D01*
X-23010407Y24642575D01*
X-23040821Y24705478D01*
X-23042500Y24725817D01*
X-23042500Y29277812D01*
X-23022815Y29344851D01*
X-23006181Y29365493D01*
X-20475493Y31896181D01*
X-20414170Y31929666D01*
X-20387812Y31932500D01*
X-7489188Y31932500D01*
X-7422149Y31912815D01*
X-7401507Y31896181D01*
X-6807819Y31302493D01*
X-6774334Y31241170D01*
X-6771500Y31214812D01*
X-6771500Y30819483D01*
X-6761358Y30755448D01*
X-6756646Y30725696D01*
X-6699050Y30612658D01*
X-6699048Y30612656D01*
X-6699046Y30612653D01*
X-6609348Y30522955D01*
X-6609346Y30522954D01*
X-6609342Y30522950D01*
X-6514564Y30474658D01*
X-6496302Y30465353D01*
X-6402525Y30450501D01*
X-6402519Y30450500D01*
X-5789482Y30450501D01*
X-5695696Y30465354D01*
X-5582658Y30522950D01*
X-5582656Y30522953D01*
X-5581204Y30523692D01*
X-5512534Y30536589D01*
X-5447794Y30510313D01*
X-5424231Y30481499D01*
X-5422783Y30482550D01*
X-5417046Y30474653D01*
X-5327348Y30384955D01*
X-5327346Y30384954D01*
X-5327342Y30384950D01*
X-5214306Y30327355D01*
X-5214302Y30327353D01*
X-5120525Y30312501D01*
X-5120519Y30312500D01*
X-4657482Y30312501D01*
X-4563696Y30327354D01*
X-4450658Y30384950D01*
X-4360950Y30474658D01*
X-4303354Y30587696D01*
X-4303354Y30587698D01*
X-4303353Y30587699D01*
X-4290776Y30667111D01*
X-4288500Y30681481D01*
X-4288501Y31294518D01*
X-4303354Y31388304D01*
X-4360950Y31501342D01*
X-4360954Y31501346D01*
X-4360955Y31501348D01*
X-4450653Y31591046D01*
X-4450656Y31591048D01*
X-4450658Y31591050D01*
X-4527483Y31630195D01*
X-4563699Y31648648D01*
X-4657476Y31663500D01*
X-5120518Y31663500D01*
X-5196283Y31651500D01*
X-5214304Y31648646D01*
X-5327342Y31591050D01*
X-5327343Y31591049D01*
X-5327348Y31591046D01*
X-5373319Y31545074D01*
X-5434642Y31511589D01*
X-5504334Y31516573D01*
X-5548681Y31545074D01*
X-5582653Y31579046D01*
X-5582656Y31579048D01*
X-5582658Y31579050D01*
X-5659483Y31618195D01*
X-5695699Y31636648D01*
X-5789476Y31651500D01*
X-5789481Y31651500D01*
X-6184812Y31651500D01*
X-6251851Y31671185D01*
X-6272493Y31687819D01*
X-6572138Y31987464D01*
X-7060881Y32476207D01*
X-7064526Y32480186D01*
X-7090544Y32511193D01*
X-7090545Y32511194D01*
X-7101942Y32517774D01*
X-7125608Y32531439D01*
X-7130169Y32534345D01*
X-7143313Y32543548D01*
X-7163316Y32557554D01*
X-7163319Y32557555D01*
X-7168139Y32559803D01*
X-7184945Y32566765D01*
X-7189957Y32568589D01*
X-7229810Y32575617D01*
X-7235090Y32576788D01*
X-7274192Y32587265D01*
X-7309108Y32584210D01*
X-7314519Y32583736D01*
X-7319922Y32583500D01*
X-20557078Y32583500D01*
X-20562482Y32583736D01*
X-20567893Y32584210D01*
X-20602808Y32587265D01*
X-20602809Y32587265D01*
X-20641909Y32576788D01*
X-20647189Y32575617D01*
X-20687041Y32568590D01*
X-20692039Y32566771D01*
X-20708883Y32559794D01*
X-20713687Y32557554D01*
X-20746834Y32534344D01*
X-20751394Y32531438D01*
X-20786452Y32511196D01*
X-20786460Y32511190D01*
X-20812477Y32480185D01*
X-20816131Y32476196D01*
X-23586197Y29706130D01*
X-23590186Y29702475D01*
X-23621195Y29676455D01*
X-23641438Y29641394D01*
X-23644344Y29636834D01*
X-23667554Y29603687D01*
X-23669794Y29598883D01*
X-23676771Y29582039D01*
X-23678590Y29577041D01*
X-23685617Y29537189D01*
X-23686788Y29531909D01*
X-23697265Y29492809D01*
X-23693736Y29452487D01*
X-23693500Y29447080D01*
X-23693500Y28517188D01*
X-23713185Y28450149D01*
X-23765989Y28404394D01*
X-23835147Y28394450D01*
X-23898703Y28423475D01*
X-23905181Y28429507D01*
X-24144679Y28669005D01*
X-24178164Y28730328D01*
X-24173180Y28800020D01*
X-24171554Y28804150D01*
X-24170773Y28806038D01*
X-24170768Y28806046D01*
X-24110700Y29004066D01*
X-24090417Y29210000D01*
X-24110700Y29415934D01*
X-24170768Y29613954D01*
X-24268315Y29796450D01*
X-24373919Y29925130D01*
X-24399590Y29956411D01*
X-24559548Y30087683D01*
X-24559547Y30087683D01*
X-24559550Y30087685D01*
X-24742046Y30185232D01*
X-24940066Y30245300D01*
X-24940068Y30245301D01*
X-24940066Y30245301D01*
X-25146000Y30265583D01*
X-25351933Y30245301D01*
X-25549957Y30185231D01*
X-25617821Y30148956D01*
X-25732450Y30087685D01*
X-25732452Y30087684D01*
X-25732453Y30087683D01*
X-25892411Y29956411D01*
X-26023683Y29796453D01*
X-26121231Y29613957D01*
X-26181301Y29415933D01*
X-26201583Y29210000D01*
X-26181301Y29004068D01*
X-26171810Y28972780D01*
X-26121232Y28806046D01*
X-26023685Y28623550D01*
X-26023683Y28623548D01*
X-25892411Y28463590D01*
X-25820279Y28404394D01*
X-25732450Y28332315D01*
X-25549954Y28234768D01*
X-25351934Y28174700D01*
X-25351935Y28174700D01*
X-25333471Y28172882D01*
X-25146000Y28154417D01*
X-24940066Y28174700D01*
X-24742046Y28234768D01*
X-24742038Y28234773D01*
X-24740150Y28235554D01*
X-24739076Y28235670D01*
X-24736216Y28236537D01*
X-24736052Y28235996D01*
X-24670682Y28243030D01*
X-24608199Y28211762D01*
X-24605005Y28208679D01*
X-24192819Y27796493D01*
X-24159334Y27735170D01*
X-24156500Y27708812D01*
X-24156500Y26139188D01*
X-24176185Y26072149D01*
X-24192819Y26051507D01*
X-24482507Y25761819D01*
X-24543830Y25728334D01*
X-24570188Y25725500D01*
X-25832105Y25725500D01*
X-25837509Y25725736D01*
X-25842920Y25726210D01*
X-25877835Y25729265D01*
X-25877836Y25729265D01*
X-25916936Y25718788D01*
X-25922216Y25717617D01*
X-25962068Y25710590D01*
X-25967066Y25708771D01*
X-25983910Y25701794D01*
X-25988714Y25699554D01*
X-26021861Y25676344D01*
X-26026421Y25673438D01*
X-26061479Y25653196D01*
X-26061487Y25653190D01*
X-26087504Y25622185D01*
X-26091158Y25618196D01*
X-26539197Y25170157D01*
X-26543186Y25166502D01*
X-26574195Y25140482D01*
X-26594438Y25105421D01*
X-26597344Y25100861D01*
X-26620554Y25067714D01*
X-26622794Y25062910D01*
X-26629771Y25046066D01*
X-26631590Y25041068D01*
X-26638617Y25001216D01*
X-26639788Y24995936D01*
X-26650265Y24956836D01*
X-26646736Y24916514D01*
X-26646500Y24911107D01*
X-26646500Y23543922D01*
X-26646736Y23538515D01*
X-26650265Y23498192D01*
X-26639788Y23459090D01*
X-26638617Y23453810D01*
X-26631589Y23413957D01*
X-26629765Y23408945D01*
X-26622803Y23392139D01*
X-26620555Y23387319D01*
X-26620554Y23387316D01*
X-26613115Y23376692D01*
X-26597345Y23354169D01*
X-26594439Y23349608D01*
X-26574194Y23314545D01*
X-26543185Y23288525D01*
X-26539195Y23284869D01*
X-25947508Y22693181D01*
X-25914023Y22631858D01*
X-25919007Y22562166D01*
X-25960879Y22506233D01*
X-26026343Y22481816D01*
X-26035189Y22481500D01*
X-27860896Y22481500D01*
X-27866300Y22481736D01*
X-27871711Y22482210D01*
X-27906626Y22485265D01*
X-27906627Y22485265D01*
X-27945727Y22474788D01*
X-27951007Y22473617D01*
X-27990859Y22466590D01*
X-27995857Y22464771D01*
X-28012701Y22457794D01*
X-28017505Y22455554D01*
X-28050652Y22432344D01*
X-28055212Y22429438D01*
X-28090270Y22409196D01*
X-28090278Y22409190D01*
X-28116295Y22378185D01*
X-28119949Y22374196D01*
X-29854197Y20639948D01*
X-29858186Y20636293D01*
X-29889195Y20610273D01*
X-29909438Y20575212D01*
X-29912344Y20570652D01*
X-29935554Y20537505D01*
X-29937794Y20532701D01*
X-29944771Y20515857D01*
X-29946590Y20510859D01*
X-29953617Y20471007D01*
X-29954788Y20465727D01*
X-29965265Y20426627D01*
X-29961736Y20386305D01*
X-29961500Y20380898D01*
X-29961500Y8974526D01*
X-29961736Y8969119D01*
X-29965265Y8928796D01*
X-29954788Y8889694D01*
X-29953617Y8884414D01*
X-29946589Y8844561D01*
X-29944765Y8839549D01*
X-29937803Y8822743D01*
X-29935555Y8817923D01*
X-29935554Y8817920D01*
X-29924897Y8802700D01*
X-29912345Y8784773D01*
X-29909439Y8780212D01*
X-29889194Y8745149D01*
X-29858185Y8719129D01*
X-29854195Y8715473D01*
X-29317819Y8179097D01*
X-29284334Y8117774D01*
X-29281500Y8091416D01*
X-29281500Y7035500D01*
X-29301185Y6968461D01*
X-29353989Y6922706D01*
X-29405500Y6911500D01*
X-30058270Y6911500D01*
X-30088700Y6908647D01*
X-30088702Y6908647D01*
X-30216881Y6863794D01*
X-30216883Y6863793D01*
X-30326150Y6783150D01*
X-30406793Y6673883D01*
X-30406794Y6673881D01*
X-30451647Y6545702D01*
X-30451647Y6545700D01*
X-30454500Y6515270D01*
X-30454500Y4956731D01*
X-30451647Y4926301D01*
X-30451647Y4926299D01*
X-30406794Y4798120D01*
X-30406793Y4798118D01*
X-30326150Y4688850D01*
X-30216882Y4608207D01*
X-30190541Y4598990D01*
X-30088701Y4563354D01*
X-30058270Y4560500D01*
X-30058266Y4560500D01*
X-28749730Y4560500D01*
X-28719301Y4563354D01*
X-28719299Y4563354D01*
X-28653651Y4586326D01*
X-28591118Y4608207D01*
X-28481850Y4688850D01*
X-28401207Y4798118D01*
X-28374361Y4874840D01*
X-28356354Y4926299D01*
X-28356354Y4926301D01*
X-28353500Y4956731D01*
X-28353500Y6515270D01*
X-28356354Y6545700D01*
X-28356354Y6545702D01*
X-28396096Y6659276D01*
X-28401207Y6673882D01*
X-28481850Y6783150D01*
X-28553775Y6836233D01*
X-28580134Y6855687D01*
X-28622385Y6911335D01*
X-28630500Y6955457D01*
X-28630500Y7828812D01*
X-28610815Y7895851D01*
X-28558011Y7941606D01*
X-28488853Y7951550D01*
X-28425297Y7922525D01*
X-28418822Y7916496D01*
X-27917168Y7414841D01*
X-27446123Y6943796D01*
X-27412638Y6882473D01*
X-27417622Y6812781D01*
X-27459494Y6756848D01*
X-27475345Y6746760D01*
X-27490451Y6738685D01*
X-27650411Y6607411D01*
X-27781683Y6447453D01*
X-27879231Y6264957D01*
X-27939301Y6066933D01*
X-27946360Y5995258D01*
X-27952934Y5928501D01*
X-27954500Y5912605D01*
X-27954500Y5559396D01*
X-27939301Y5405068D01*
X-27939300Y5405066D01*
X-27879232Y5207046D01*
X-27781685Y5024550D01*
X-27761769Y5000282D01*
X-27650411Y4864590D01*
X-27569416Y4798120D01*
X-27490450Y4733315D01*
X-27307954Y4635768D01*
X-27109934Y4575700D01*
X-27109935Y4575700D01*
X-27091471Y4573882D01*
X-26904000Y4555417D01*
X-26698066Y4575700D01*
X-26500046Y4635768D01*
X-26317550Y4733315D01*
X-26157590Y4864590D01*
X-26026315Y5024550D01*
X-25928768Y5207046D01*
X-25868700Y5405066D01*
X-25853500Y5559392D01*
X-25853500Y5912608D01*
X-25868700Y6066934D01*
X-25928768Y6264954D01*
X-26026315Y6447450D01*
X-26035658Y6458835D01*
X-26062971Y6523145D01*
X-26051180Y6592013D01*
X-26004028Y6643573D01*
X-25939805Y6661500D01*
X-25646802Y6661500D01*
X-25579763Y6641815D01*
X-25534008Y6589011D01*
X-25526123Y6559481D01*
X-25525256Y6559670D01*
X-25523647Y6552299D01*
X-25478794Y6424120D01*
X-25478791Y6424114D01*
X-25410973Y6332224D01*
X-25387002Y6266595D01*
X-25392082Y6222597D01*
X-25439301Y6066935D01*
X-25454500Y5912605D01*
X-25454500Y5559396D01*
X-25439301Y5405068D01*
X-25439300Y5405066D01*
X-25379232Y5207046D01*
X-25281685Y5024550D01*
X-25261769Y5000282D01*
X-25150411Y4864590D01*
X-25019136Y4756857D01*
X-24990454Y4733318D01*
X-24990451Y4733316D01*
X-24990449Y4733314D01*
X-24963758Y4719048D01*
X-24920047Y4695684D01*
X-24870203Y4646723D01*
X-24854500Y4586326D01*
X-24854500Y3926701D01*
X-24854890Y3919763D01*
X-24856276Y3907464D01*
X-24859271Y3880884D01*
X-24848212Y3822439D01*
X-24839348Y3763628D01*
X-24836838Y3755491D01*
X-24834022Y3747443D01*
X-24806223Y3694846D01*
X-24780424Y3641274D01*
X-24775638Y3634253D01*
X-24770569Y3627386D01*
X-24770566Y3627380D01*
X-24770562Y3627376D01*
X-24728505Y3585319D01*
X-24688053Y3541722D01*
X-24680790Y3535930D01*
X-24681311Y3535277D01*
X-24669070Y3525884D01*
X-22660765Y1517580D01*
X-22627280Y1456257D01*
X-22625507Y1446085D01*
X-22615127Y1367239D01*
X-22586054Y1297051D01*
X-22554618Y1221159D01*
X-22458364Y1095718D01*
X-22332923Y999464D01*
X-22186844Y938956D01*
X-22108463Y928637D01*
X-22030083Y918318D01*
X-22030082Y918318D01*
X-22030081Y918318D01*
X-21977828Y925198D01*
X-21873320Y938956D01*
X-21727241Y999464D01*
X-21601800Y1095718D01*
X-21505546Y1221159D01*
X-21445038Y1367238D01*
X-21424400Y1524000D01*
X-21425041Y1528867D01*
X-21445038Y1680761D01*
X-21445038Y1680762D01*
X-21505546Y1826841D01*
X-21601800Y1952282D01*
X-21727241Y2048536D01*
X-21727243Y2048537D01*
X-21873321Y2109045D01*
X-21952166Y2119425D01*
X-22016063Y2147692D01*
X-22023661Y2154683D01*
X-23917181Y4048203D01*
X-23950666Y4109526D01*
X-23953500Y4135884D01*
X-23953500Y4586326D01*
X-23933815Y4653365D01*
X-23887954Y4695684D01*
X-23817550Y4733315D01*
X-23657590Y4864590D01*
X-23526315Y5024550D01*
X-23428768Y5207046D01*
X-23368700Y5405066D01*
X-23353500Y5559392D01*
X-23353500Y5912608D01*
X-23368700Y6066934D01*
X-23428768Y6264954D01*
X-23526315Y6447450D01*
X-23588436Y6523145D01*
X-23657590Y6607411D01*
X-23817548Y6738683D01*
X-23817547Y6738683D01*
X-23817550Y6738685D01*
X-24000046Y6836232D01*
X-24000047Y6836233D01*
X-24000048Y6836233D01*
X-24037496Y6847593D01*
X-24095935Y6885891D01*
X-24124391Y6949703D01*
X-24125500Y6966253D01*
X-24125500Y7641270D01*
X-24128354Y7671700D01*
X-24128354Y7671702D01*
X-24173207Y7799881D01*
X-24173208Y7799883D01*
X-24253850Y7909150D01*
X-24363118Y7989793D01*
X-24363120Y7989794D01*
X-24491300Y8034647D01*
X-24521730Y8037500D01*
X-24521734Y8037500D01*
X-25130266Y8037500D01*
X-25130270Y8037500D01*
X-25160700Y8034647D01*
X-25160702Y8034647D01*
X-25288881Y7989794D01*
X-25288883Y7989793D01*
X-25398150Y7909150D01*
X-25478793Y7799883D01*
X-25478794Y7799881D01*
X-25523647Y7671702D01*
X-25525256Y7664330D01*
X-25527380Y7664794D01*
X-25549198Y7610018D01*
X-25606041Y7569391D01*
X-25646802Y7562500D01*
X-25924034Y7562500D01*
X-25991073Y7582185D01*
X-26011715Y7598819D01*
X-28124181Y9711285D01*
X-28157666Y9772608D01*
X-28160500Y9798966D01*
X-28160500Y10238851D01*
X-28140815Y10305890D01*
X-28088011Y10351645D01*
X-28018853Y10361589D01*
X-27955297Y10332564D01*
X-27941508Y10318554D01*
X-27939197Y10315801D01*
X-27939194Y10315795D01*
X-27924459Y10303431D01*
X-27908185Y10289775D01*
X-27904195Y10286119D01*
X-27255082Y9637005D01*
X-27251427Y9633016D01*
X-27225409Y9602010D01*
X-27225408Y9602009D01*
X-27225405Y9602006D01*
X-27196563Y9585355D01*
X-27190346Y9581765D01*
X-27185796Y9578867D01*
X-27152634Y9555647D01*
X-27152632Y9555647D01*
X-27152631Y9555646D01*
X-27147782Y9553385D01*
X-27131003Y9546435D01*
X-27125998Y9544613D01*
X-27125997Y9544613D01*
X-27125995Y9544612D01*
X-27086121Y9537582D01*
X-27080858Y9536414D01*
X-27069043Y9533249D01*
X-27041757Y9525937D01*
X-27001440Y9529465D01*
X-26996038Y9529700D01*
X-26599501Y9529700D01*
X-26532462Y9510015D01*
X-26496399Y9474591D01*
X-26458953Y9418548D01*
X-26392631Y9374233D01*
X-26392630Y9374232D01*
X-26334153Y9362601D01*
X-26334150Y9362600D01*
X-26334148Y9362600D01*
X-25989850Y9362600D01*
X-25932192Y9374069D01*
X-25883808Y9374069D01*
X-25826151Y9362600D01*
X-25826148Y9362600D01*
X-25481850Y9362600D01*
X-25424192Y9374069D01*
X-25375808Y9374069D01*
X-25318151Y9362600D01*
X-25318148Y9362600D01*
X-24973850Y9362600D01*
X-24916192Y9374069D01*
X-24867808Y9374069D01*
X-24810151Y9362600D01*
X-24810148Y9362600D01*
X-24465850Y9362600D01*
X-24465849Y9362601D01*
X-24451032Y9365548D01*
X-24407371Y9374232D01*
X-24407371Y9374233D01*
X-24407369Y9374233D01*
X-24341048Y9418548D01*
X-24303601Y9474592D01*
X-24249989Y9519396D01*
X-24200499Y9529700D01*
X-23810347Y9529700D01*
X-23804944Y9529465D01*
X-23764618Y9525936D01*
X-23725485Y9536423D01*
X-23720263Y9537581D01*
X-23680380Y9544612D01*
X-23680375Y9544616D01*
X-23675326Y9546453D01*
X-23658601Y9553381D01*
X-23653744Y9555646D01*
X-23653741Y9555646D01*
X-23620584Y9578865D01*
X-23616035Y9581762D01*
X-23580970Y9602006D01*
X-23580966Y9602010D01*
X-23569888Y9615214D01*
X-23554944Y9633024D01*
X-23551303Y9636998D01*
X-22895796Y10292505D01*
X-22891834Y10296136D01*
X-22860806Y10322170D01*
X-22840562Y10357235D01*
X-22837665Y10361784D01*
X-22814446Y10394941D01*
X-22814446Y10394944D01*
X-22812181Y10399801D01*
X-22805253Y10416526D01*
X-22803413Y10421579D01*
X-22803412Y10421580D01*
X-22801106Y10434663D01*
X-22770083Y10497263D01*
X-22733123Y10519394D01*
X-22735276Y10523619D01*
X-22726583Y10528049D01*
X-22726580Y10528049D01*
X-22608249Y10588342D01*
X-22514342Y10682249D01*
X-22454049Y10800580D01*
X-22454049Y10800582D01*
X-22454048Y10800583D01*
X-22438500Y10898749D01*
X-22438500Y11402252D01*
X-22454048Y11500418D01*
X-22467714Y11527238D01*
X-22514342Y11618751D01*
X-22514346Y11618755D01*
X-22514347Y11618757D01*
X-22608244Y11712654D01*
X-22608247Y11712656D01*
X-22608249Y11712658D01*
X-22726580Y11772951D01*
X-22726581Y11772952D01*
X-22726584Y11772953D01*
X-22726583Y11772953D01*
X-22824749Y11788500D01*
X-22824754Y11788500D01*
X-23403246Y11788500D01*
X-23403251Y11788500D01*
X-23501422Y11772952D01*
X-23506181Y11771405D01*
X-23576023Y11769410D01*
X-23635855Y11805491D01*
X-23666682Y11868193D01*
X-23658717Y11937607D01*
X-23632182Y11977014D01*
X-23550174Y12059022D01*
X-23488853Y12092505D01*
X-23443099Y12093812D01*
X-23414634Y12089304D01*
X-23403248Y12087500D01*
X-23403246Y12087500D01*
X-22824749Y12087500D01*
X-22726583Y12103048D01*
X-22726582Y12103049D01*
X-22726580Y12103049D01*
X-22608249Y12163342D01*
X-22514342Y12257249D01*
X-22454049Y12375580D01*
X-22454049Y12375582D01*
X-22454048Y12375583D01*
X-22438500Y12473749D01*
X-22438500Y12977252D01*
X-22454048Y13075418D01*
X-22459396Y13085914D01*
X-22514342Y13193751D01*
X-22514346Y13193755D01*
X-22514347Y13193757D01*
X-22608244Y13287654D01*
X-22608247Y13287656D01*
X-22608249Y13287658D01*
X-22726580Y13347951D01*
X-22726581Y13347952D01*
X-22726584Y13347953D01*
X-22726583Y13347953D01*
X-22824749Y13363500D01*
X-22824754Y13363500D01*
X-22900433Y13363500D01*
X-22967472Y13383185D01*
X-23013227Y13435989D01*
X-23023171Y13505147D01*
X-22994146Y13568703D01*
X-22956732Y13597983D01*
X-22902780Y13625472D01*
X-22807472Y13720780D01*
X-22746281Y13840874D01*
X-22746280Y13840879D01*
X-22730500Y13940507D01*
X-22730500Y14507494D01*
X-22746280Y14607122D01*
X-22746281Y14607124D01*
X-22746281Y14607126D01*
X-22807472Y14727220D01*
X-22807474Y14727222D01*
X-22807477Y14727226D01*
X-22902775Y14822524D01*
X-22902779Y14822527D01*
X-22902780Y14822528D01*
X-23022874Y14883719D01*
X-23022876Y14883720D01*
X-23022879Y14883721D01*
X-23122507Y14899500D01*
X-23122512Y14899500D01*
X-23131500Y14899500D01*
X-23198539Y14919185D01*
X-23244294Y14971989D01*
X-23255500Y15023500D01*
X-23255500Y15045852D01*
X-23235815Y15112891D01*
X-23233799Y15115930D01*
X-23228799Y15123231D01*
X-23228794Y15123235D01*
X-23183415Y15226009D01*
X-23180500Y15251135D01*
X-23180501Y16615864D01*
X-23180531Y16616124D01*
X-23183414Y16640988D01*
X-23183415Y16640990D01*
X-23183415Y16640991D01*
X-23228794Y16743765D01*
X-23308235Y16823206D01*
X-23354690Y16843718D01*
X-23411008Y16868585D01*
X-23436135Y16871500D01*
X-23725857Y16871500D01*
X-23725883Y16871498D01*
X-23750987Y16868587D01*
X-23765325Y16862256D01*
X-23853762Y16823207D01*
X-23855914Y16822257D01*
X-23925193Y16813186D01*
X-23956086Y16822257D01*
X-23958235Y16823206D01*
X-24061009Y16868585D01*
X-24086135Y16871500D01*
X-24375857Y16871500D01*
X-24375883Y16871498D01*
X-24400987Y16868587D01*
X-24415325Y16862256D01*
X-24503762Y16823207D01*
X-24505914Y16822257D01*
X-24575193Y16813186D01*
X-24606086Y16822257D01*
X-24608235Y16823206D01*
X-24711009Y16868585D01*
X-24736135Y16871500D01*
X-25025857Y16871500D01*
X-25025883Y16871498D01*
X-25050987Y16868587D01*
X-25065325Y16862256D01*
X-25153762Y16823207D01*
X-25155914Y16822257D01*
X-25225193Y16813186D01*
X-25256086Y16822257D01*
X-25258235Y16823206D01*
X-25361009Y16868585D01*
X-25386135Y16871500D01*
X-25675857Y16871500D01*
X-25675883Y16871498D01*
X-25700988Y16868587D01*
X-25700992Y16868585D01*
X-25803765Y16823207D01*
X-25883206Y16743766D01*
X-25928585Y16640994D01*
X-25928585Y16640992D01*
X-25931500Y16615869D01*
X-25931500Y15251144D01*
X-25931498Y15251118D01*
X-25928587Y15226013D01*
X-25928585Y15226009D01*
X-25878565Y15112724D01*
X-25881216Y15111554D01*
X-25865025Y15061848D01*
X-25882739Y14994261D01*
X-25901291Y14970537D01*
X-27472007Y13399819D01*
X-27533330Y13366334D01*
X-27559688Y13363500D01*
X-27975251Y13363500D01*
X-28073418Y13347953D01*
X-28133248Y13317467D01*
X-28191751Y13287658D01*
X-28191752Y13287657D01*
X-28191757Y13287654D01*
X-28285654Y13193757D01*
X-28285659Y13193750D01*
X-28328683Y13109311D01*
X-28376657Y13058516D01*
X-28407083Y13045830D01*
X-28408642Y13045412D01*
X-28412845Y13044286D01*
X-28418121Y13043117D01*
X-28457971Y13036090D01*
X-28462969Y13034271D01*
X-28479813Y13027294D01*
X-28484617Y13025054D01*
X-28517764Y13001844D01*
X-28522324Y12998938D01*
X-28557382Y12978696D01*
X-28557385Y12978694D01*
X-28557387Y12978692D01*
X-28557389Y12978690D01*
X-28583406Y12947685D01*
X-28587061Y12943696D01*
X-29098819Y12431938D01*
X-29160142Y12398453D01*
X-29229833Y12403437D01*
X-29285767Y12445308D01*
X-29310184Y12510773D01*
X-29310500Y12519619D01*
X-29310500Y16565465D01*
X-29290815Y16632504D01*
X-29238011Y16678259D01*
X-29168853Y16688203D01*
X-29105297Y16659178D01*
X-29081803Y16631907D01*
X-29071786Y16616123D01*
X-28956582Y16507938D01*
X-28956580Y16507937D01*
X-28956578Y16507935D01*
X-28879422Y16465519D01*
X-28818092Y16431803D01*
X-28665019Y16392500D01*
X-28665016Y16392500D01*
X-28546652Y16392500D01*
X-28546650Y16392500D01*
X-28546645Y16392501D01*
X-28546641Y16392501D01*
X-28533912Y16394110D01*
X-28429208Y16407336D01*
X-28282268Y16465514D01*
X-28154413Y16558406D01*
X-28053676Y16680177D01*
X-27986386Y16823174D01*
X-27956773Y16978412D01*
X-27961754Y17057585D01*
X-27415227Y17057585D01*
X-27405304Y16899863D01*
X-27405304Y16899860D01*
X-27377848Y16815362D01*
X-27356467Y16749559D01*
X-27271786Y16616123D01*
X-27156582Y16507938D01*
X-27156580Y16507937D01*
X-27156578Y16507935D01*
X-27079422Y16465519D01*
X-27018092Y16431803D01*
X-26865019Y16392500D01*
X-26865016Y16392500D01*
X-26746652Y16392500D01*
X-26746650Y16392500D01*
X-26746645Y16392501D01*
X-26746641Y16392501D01*
X-26733912Y16394110D01*
X-26629208Y16407336D01*
X-26482268Y16465514D01*
X-26354413Y16558406D01*
X-26253676Y16680177D01*
X-26186386Y16823174D01*
X-26156773Y16978412D01*
X-26166696Y17136138D01*
X-26215533Y17286441D01*
X-26300214Y17419877D01*
X-26415418Y17528062D01*
X-26415421Y17528064D01*
X-26415423Y17528066D01*
X-26553905Y17604196D01*
X-26553913Y17604199D01*
X-26706979Y17643500D01*
X-26706981Y17643500D01*
X-26825350Y17643500D01*
X-26825360Y17643500D01*
X-26942792Y17628664D01*
X-26942794Y17628664D01*
X-27089731Y17570487D01*
X-27089740Y17570482D01*
X-27217584Y17477598D01*
X-27217585Y17477597D01*
X-27318326Y17355822D01*
X-27385613Y17212829D01*
X-27385615Y17212826D01*
X-27400243Y17136138D01*
X-27415227Y17057588D01*
X-27415227Y17057586D01*
X-27415227Y17057585D01*
X-27961754Y17057585D01*
X-27966696Y17136138D01*
X-28015533Y17286441D01*
X-28100214Y17419877D01*
X-28215418Y17528062D01*
X-28215421Y17528064D01*
X-28215423Y17528066D01*
X-28353905Y17604196D01*
X-28353913Y17604199D01*
X-28506979Y17643500D01*
X-28506981Y17643500D01*
X-28625350Y17643500D01*
X-28625360Y17643500D01*
X-28742792Y17628664D01*
X-28742794Y17628664D01*
X-28889731Y17570487D01*
X-28889740Y17570482D01*
X-29017583Y17477599D01*
X-29029539Y17463147D01*
X-29086750Y17393989D01*
X-29090956Y17388905D01*
X-29148856Y17349798D01*
X-29218708Y17348202D01*
X-29278333Y17384624D01*
X-29308803Y17447500D01*
X-29310500Y17467946D01*
X-29310500Y20211630D01*
X-29290815Y20278669D01*
X-29274181Y20299311D01*
X-29069181Y20504311D01*
X-29007858Y20537796D01*
X-28938166Y20532812D01*
X-28882233Y20490940D01*
X-28857816Y20425476D01*
X-28857500Y20416630D01*
X-28857500Y20290507D01*
X-28841721Y20190879D01*
X-28841720Y20190876D01*
X-28841719Y20190874D01*
X-28780528Y20070780D01*
X-28780527Y20070779D01*
X-28780524Y20070775D01*
X-28698633Y19988884D01*
X-28665148Y19927561D01*
X-28670132Y19857869D01*
X-28671753Y19853750D01*
X-28674869Y19846230D01*
X-28686500Y19787753D01*
X-28686500Y18698248D01*
X-28674869Y18639771D01*
X-28674868Y18639770D01*
X-28630553Y18573448D01*
X-28564231Y18529133D01*
X-28564230Y18529132D01*
X-28505753Y18517501D01*
X-28505750Y18517500D01*
X-28505748Y18517500D01*
X-26866250Y18517500D01*
X-26866249Y18517501D01*
X-26851432Y18520448D01*
X-26807771Y18529132D01*
X-26807771Y18529133D01*
X-26807769Y18529133D01*
X-26741448Y18573448D01*
X-26697133Y18639769D01*
X-26697133Y18639771D01*
X-26697132Y18639771D01*
X-26685501Y18698248D01*
X-26685500Y18698250D01*
X-26685500Y18854500D01*
X-26665815Y18921539D01*
X-26613011Y18967294D01*
X-26561500Y18978500D01*
X-23554188Y18978500D01*
X-23487149Y18958815D01*
X-23466507Y18942181D01*
X-22642819Y18118493D01*
X-22609334Y18057170D01*
X-22606500Y18030812D01*
X-22606500Y16821149D01*
X-22626185Y16754110D01*
X-22628199Y16751074D01*
X-22633206Y16743765D01*
X-22678585Y16640994D01*
X-22678585Y16640992D01*
X-22681500Y16615869D01*
X-22681500Y15251144D01*
X-22681498Y15251118D01*
X-22678587Y15226013D01*
X-22678585Y15226009D01*
X-22633207Y15123236D01*
X-22633206Y15123235D01*
X-22553765Y15043794D01*
X-22450991Y14998415D01*
X-22425865Y14995500D01*
X-22136136Y14995501D01*
X-22136121Y14995503D01*
X-22136118Y14995503D01*
X-22111013Y14998414D01*
X-22111013Y14998415D01*
X-22111009Y14998415D01*
X-22008235Y15043794D01*
X-22008234Y15043796D01*
X-22006088Y15044743D01*
X-21936810Y15053815D01*
X-21905915Y15044743D01*
X-21800996Y14998417D01*
X-21800991Y14998415D01*
X-21775865Y14995500D01*
X-21486136Y14995501D01*
X-21486121Y14995503D01*
X-21486118Y14995503D01*
X-21461013Y14998414D01*
X-21461013Y14998415D01*
X-21461009Y14998415D01*
X-21358235Y15043794D01*
X-21358234Y15043796D01*
X-21356088Y15044743D01*
X-21286810Y15053815D01*
X-21255933Y15044751D01*
X-21253766Y15043795D01*
X-21253765Y15043794D01*
X-21251507Y15042797D01*
X-21198124Y14997721D01*
X-21177586Y14930938D01*
X-21187014Y14881904D01*
X-21226664Y14786180D01*
X-21247301Y14629422D01*
X-21247301Y14629419D01*
X-21226664Y14472660D01*
X-21226663Y14472658D01*
X-21169234Y14334011D01*
X-21166155Y14326579D01*
X-21069901Y14201138D01*
X-20944460Y14104884D01*
X-20798381Y14044376D01*
X-20720000Y14034057D01*
X-20641620Y14023738D01*
X-20641619Y14023738D01*
X-20641618Y14023738D01*
X-20589365Y14030618D01*
X-20484857Y14044376D01*
X-20338778Y14104884D01*
X-20213337Y14201138D01*
X-20117083Y14326579D01*
X-20115687Y14329952D01*
X-20113745Y14332361D01*
X-20113020Y14333616D01*
X-20112825Y14333503D01*
X-20071849Y14384354D01*
X-20005555Y14406421D01*
X-20001125Y14406500D01*
X-19760500Y14406500D01*
X-19693461Y14386815D01*
X-19647706Y14334011D01*
X-19636500Y14282500D01*
X-19636500Y14119770D01*
X-19637031Y14111672D01*
X-19655682Y13970000D01*
X-19637208Y13829673D01*
X-19637031Y13828334D01*
X-19636500Y13820232D01*
X-19636500Y12315993D01*
X-19631803Y12272314D01*
X-19620598Y12220807D01*
X-19618111Y12210628D01*
X-19616653Y12206810D01*
X-19608500Y12162590D01*
X-19608500Y11168248D01*
X-19596869Y11109771D01*
X-19596868Y11109770D01*
X-19552553Y11043448D01*
X-19486231Y10999133D01*
X-19486230Y10999132D01*
X-19427753Y10987501D01*
X-19427750Y10987500D01*
X-19427748Y10987500D01*
X-19197325Y10987500D01*
X-19130286Y10967815D01*
X-19084531Y10915011D01*
X-19073326Y10863803D01*
X-19050000Y1270000D01*
X-15290500Y1270000D01*
X-15223461Y1250315D01*
X-15177706Y1197511D01*
X-15166500Y1146000D01*
X-15166500Y399731D01*
X-15163647Y369301D01*
X-15163647Y369299D01*
X-15128756Y269590D01*
X-15118793Y241118D01*
X-15087069Y198133D01*
X-15063098Y132505D01*
X-15078413Y64335D01*
X-15128153Y15266D01*
X-15186839Y500D01*
X-24781057Y500D01*
X-24848096Y20185D01*
X-24893851Y72989D01*
X-24903795Y142147D01*
X-24879433Y199986D01*
X-24875465Y205158D01*
X-24875466Y205158D01*
X-24875464Y205159D01*
X-24814956Y351238D01*
X-24794318Y508000D01*
X-24814956Y664762D01*
X-24875464Y810841D01*
X-24971718Y936282D01*
X-25097159Y1032536D01*
X-25243238Y1093044D01*
X-25243240Y1093045D01*
X-25399999Y1113682D01*
X-25400001Y1113682D01*
X-25556761Y1093045D01*
X-25556763Y1093044D01*
X-25702840Y1032537D01*
X-25828282Y936282D01*
X-25924537Y810840D01*
X-25985044Y664763D01*
X-25985045Y664761D01*
X-26005682Y508002D01*
X-26005682Y507999D01*
X-25985045Y351240D01*
X-25985044Y351238D01*
X-25924536Y205158D01*
X-25920567Y199986D01*
X-25895373Y134817D01*
X-25909412Y66372D01*
X-25958226Y16382D01*
X-26018943Y500D01*
X-28337057Y500D01*
X-28404096Y20185D01*
X-28449851Y72989D01*
X-28459795Y142147D01*
X-28435433Y199986D01*
X-28431465Y205158D01*
X-28431466Y205158D01*
X-28431464Y205159D01*
X-28370956Y351238D01*
X-28350318Y508000D01*
X-28370956Y664762D01*
X-28431464Y810841D01*
X-28527718Y936282D01*
X-28653159Y1032536D01*
X-28799238Y1093044D01*
X-28799240Y1093045D01*
X-28955999Y1113682D01*
X-28956001Y1113682D01*
X-29112761Y1093045D01*
X-29112763Y1093044D01*
X-29258840Y1032537D01*
X-29384282Y936282D01*
X-29480537Y810840D01*
X-29541044Y664763D01*
X-29541045Y664761D01*
X-29561682Y508002D01*
X-29561682Y507999D01*
X-29541045Y351240D01*
X-29541044Y351238D01*
X-29480536Y205158D01*
X-29476567Y199986D01*
X-29451373Y134817D01*
X-29465412Y66372D01*
X-29514226Y16382D01*
X-29574943Y500D01*
X-31879500Y500D01*
X-31946539Y20185D01*
X-31992294Y72989D01*
X-32003500Y124500D01*
X-32003500Y2175058D01*
X-31983815Y2242097D01*
X-31931011Y2287852D01*
X-31861853Y2297796D01*
X-31804011Y2273431D01*
X-31798841Y2269464D01*
X-31652762Y2208956D01*
X-31574381Y2198637D01*
X-31496001Y2188318D01*
X-31496000Y2188318D01*
X-31495999Y2188318D01*
X-31443746Y2195198D01*
X-31339238Y2208956D01*
X-31193159Y2269464D01*
X-31067718Y2365718D01*
X-30971464Y2491159D01*
X-30910956Y2637238D01*
X-30890318Y2794000D01*
X-30910956Y2950762D01*
X-30971464Y3096841D01*
X-31067718Y3222282D01*
X-31193159Y3318536D01*
X-31339238Y3379044D01*
X-31339240Y3379045D01*
X-31495999Y3399682D01*
X-31496001Y3399682D01*
X-31652761Y3379045D01*
X-31652763Y3379044D01*
X-31798843Y3318536D01*
X-31804014Y3314567D01*
X-31869183Y3289373D01*
X-31937628Y3303412D01*
X-31987618Y3352226D01*
X-32003500Y3412943D01*
X-32003500Y6493058D01*
X-31983815Y6560097D01*
X-31931011Y6605852D01*
X-31861853Y6615796D01*
X-31804011Y6591431D01*
X-31798841Y6587464D01*
X-31652762Y6526956D01*
X-31623814Y6523145D01*
X-31496001Y6506318D01*
X-31496000Y6506318D01*
X-31495999Y6506318D01*
X-31428033Y6515266D01*
X-31339238Y6526956D01*
X-31193159Y6587464D01*
X-31067718Y6683718D01*
X-30971464Y6809159D01*
X-30910956Y6955238D01*
X-30890318Y7112000D01*
X-30894202Y7141499D01*
X-30910414Y7264646D01*
X-30910956Y7268762D01*
X-30971464Y7414841D01*
X-31067718Y7540282D01*
X-31193159Y7636536D01*
X-31204588Y7641270D01*
X-31339238Y7697044D01*
X-31339240Y7697045D01*
X-31495999Y7717682D01*
X-31496001Y7717682D01*
X-31652761Y7697045D01*
X-31652763Y7697044D01*
X-31798843Y7636536D01*
X-31804014Y7632567D01*
X-31869183Y7607373D01*
X-31937628Y7621412D01*
X-31987618Y7670226D01*
X-32003500Y7730943D01*
X-32003500Y11319058D01*
X-31983815Y11386097D01*
X-31931011Y11431852D01*
X-31861853Y11441796D01*
X-31804011Y11417431D01*
X-31798841Y11413464D01*
X-31652762Y11352956D01*
X-31574381Y11342637D01*
X-31496001Y11332318D01*
X-31496000Y11332318D01*
X-31495999Y11332318D01*
X-31443746Y11339198D01*
X-31339238Y11352956D01*
X-31193159Y11413464D01*
X-31067718Y11509718D01*
X-30971464Y11635159D01*
X-30910956Y11781238D01*
X-30890318Y11938000D01*
X-30895455Y11977017D01*
X-30910956Y12094761D01*
X-30910956Y12094762D01*
X-30971464Y12240841D01*
X-31067718Y12366282D01*
X-31193159Y12462536D01*
X-31220230Y12473749D01*
X-31339238Y12523044D01*
X-31339240Y12523045D01*
X-31495999Y12543682D01*
X-31496001Y12543682D01*
X-31652761Y12523045D01*
X-31652763Y12523044D01*
X-31798843Y12462536D01*
X-31804014Y12458567D01*
X-31869183Y12433373D01*
X-31937628Y12447412D01*
X-31987618Y12496226D01*
X-32003500Y12556943D01*
X-32003500Y16653058D01*
X-31983815Y16720097D01*
X-31931011Y16765852D01*
X-31861853Y16775796D01*
X-31804011Y16751431D01*
X-31798841Y16747464D01*
X-31652762Y16686956D01*
X-31601285Y16680179D01*
X-31496001Y16666318D01*
X-31496000Y16666318D01*
X-31495999Y16666318D01*
X-31405299Y16678259D01*
X-31339238Y16686956D01*
X-31193159Y16747464D01*
X-31067718Y16843718D01*
X-30971464Y16969159D01*
X-30910956Y17115238D01*
X-30890655Y17269439D01*
X-30890318Y17271999D01*
X-30890318Y17272002D01*
X-30910956Y17428761D01*
X-30910956Y17428762D01*
X-30971464Y17574841D01*
X-31067718Y17700282D01*
X-31193159Y17796536D01*
X-31339238Y17857044D01*
X-31339240Y17857045D01*
X-31495999Y17877682D01*
X-31496001Y17877682D01*
X-31652761Y17857045D01*
X-31652763Y17857044D01*
X-31798843Y17796536D01*
X-31804014Y17792567D01*
X-31869183Y17767373D01*
X-31937628Y17781412D01*
X-31987618Y17830226D01*
X-32003500Y17890943D01*
X-32003500Y21733058D01*
X-31983815Y21800097D01*
X-31931011Y21845852D01*
X-31861853Y21855796D01*
X-31804011Y21831431D01*
X-31798841Y21827464D01*
X-31652762Y21766956D01*
X-31574381Y21756637D01*
X-31496001Y21746318D01*
X-31496000Y21746318D01*
X-31495999Y21746318D01*
X-31443746Y21753198D01*
X-31339238Y21766956D01*
X-31193159Y21827464D01*
X-31067718Y21923718D01*
X-30971464Y22049159D01*
X-30910956Y22195238D01*
X-30890318Y22352000D01*
X-30910956Y22508762D01*
X-30971464Y22654841D01*
X-31067718Y22780282D01*
X-31193159Y22876536D01*
X-31339238Y22937044D01*
X-31339240Y22937045D01*
X-31495999Y22957682D01*
X-31496001Y22957682D01*
X-31652761Y22937045D01*
X-31652763Y22937044D01*
X-31798843Y22876536D01*
X-31804014Y22872567D01*
X-31869183Y22847373D01*
X-31937628Y22861412D01*
X-31987618Y22910226D01*
X-32003500Y22970943D01*
X-32003500Y26051058D01*
X-31983815Y26118097D01*
X-31931011Y26163852D01*
X-31861853Y26173796D01*
X-31804011Y26149431D01*
X-31798841Y26145464D01*
X-31652762Y26084956D01*
X-31574381Y26074637D01*
X-31496001Y26064318D01*
X-31496000Y26064318D01*
X-31495999Y26064318D01*
X-31436517Y26072149D01*
X-31339238Y26084956D01*
X-31193159Y26145464D01*
X-31067718Y26241718D01*
X-30971464Y26367159D01*
X-30910956Y26513238D01*
X-30890318Y26670000D01*
X-30910956Y26826762D01*
X-30971464Y26972841D01*
X-31067718Y27098282D01*
X-31193159Y27194536D01*
X-31339238Y27255044D01*
X-31339240Y27255045D01*
X-31495999Y27275682D01*
X-31496001Y27275682D01*
X-31652761Y27255045D01*
X-31652763Y27255044D01*
X-31798843Y27194536D01*
X-31804014Y27190567D01*
X-31869183Y27165373D01*
X-31937628Y27179412D01*
X-31987618Y27228226D01*
X-32003500Y27288943D01*
X-32003500Y30115058D01*
X-31983815Y30182097D01*
X-31931011Y30227852D01*
X-31861853Y30237796D01*
X-31804011Y30213431D01*
X-31798841Y30209464D01*
X-31652762Y30148956D01*
X-31574381Y30138637D01*
X-31496001Y30128318D01*
X-31496000Y30128318D01*
X-31495999Y30128318D01*
X-31443746Y30135198D01*
X-31339238Y30148956D01*
X-31193159Y30209464D01*
X-31067718Y30305718D01*
X-30971464Y30431159D01*
X-30910956Y30577238D01*
X-30890318Y30734000D01*
X-30893142Y30755448D01*
X-30910956Y30890761D01*
X-30910956Y30890762D01*
X-30971464Y31036841D01*
X-31067718Y31162282D01*
X-31193159Y31258536D01*
X-31211599Y31266174D01*
X-31339238Y31319044D01*
X-31339240Y31319045D01*
X-31495999Y31339682D01*
X-31496001Y31339682D01*
X-31652761Y31319045D01*
X-31652763Y31319044D01*
X-31798843Y31258536D01*
X-31804014Y31254567D01*
X-31869183Y31229373D01*
X-31937628Y31243412D01*
X-31987618Y31292226D01*
X-32003500Y31352943D01*
X-32003500Y32895500D01*
X-31983815Y32962539D01*
X-31931011Y33008294D01*
X-31879500Y33019500D01*
X-30082943Y33019500D01*
X-30015904Y32999815D01*
G37*
%TD.AperFunction*%
%TA.AperFunction,Conductor*%
G36*
X-8622864Y13621815D02*
G01*
X-8614417Y13615876D01*
X-8557843Y13572465D01*
X-8557842Y13572465D01*
X-8557841Y13572464D01*
X-8411762Y13511956D01*
X-8360042Y13505147D01*
X-8255001Y13491318D01*
X-8255000Y13491318D01*
X-8254999Y13491318D01*
X-8202746Y13498198D01*
X-8098238Y13511956D01*
X-8045451Y13533822D01*
X-7975984Y13541290D01*
X-7913505Y13510015D01*
X-7877852Y13449927D01*
X-7874000Y13419260D01*
X-7874000Y10414000D01*
X-6593500Y10414000D01*
X-6526461Y10394315D01*
X-6480706Y10341511D01*
X-6469500Y10290000D01*
X-6469500Y9112740D01*
X-6459574Y9044609D01*
X-6408197Y8939515D01*
X-6402397Y8933715D01*
X-6368912Y8872392D01*
X-6373896Y8802700D01*
X-6397210Y8766419D01*
X-6396792Y8766115D01*
X-6402089Y8758826D01*
X-6402384Y8758365D01*
X-6402526Y8758224D01*
X-6402528Y8758220D01*
X-6458050Y8649251D01*
X-6463721Y8638122D01*
X-6479500Y8538494D01*
X-6479500Y7971507D01*
X-6463721Y7871879D01*
X-6463720Y7871876D01*
X-6463719Y7871874D01*
X-6402975Y7752658D01*
X-6402527Y7751779D01*
X-6402524Y7751775D01*
X-6307226Y7656477D01*
X-6307222Y7656474D01*
X-6307220Y7656472D01*
X-6187126Y7595281D01*
X-6187124Y7595281D01*
X-6187122Y7595280D01*
X-6087493Y7579500D01*
X-6087488Y7579500D01*
X-5570507Y7579500D01*
X-5470879Y7595280D01*
X-5470879Y7595281D01*
X-5470874Y7595281D01*
X-5350780Y7656472D01*
X-5302502Y7704751D01*
X-5241183Y7738234D01*
X-5171492Y7733251D01*
X-5127142Y7704749D01*
X-5085348Y7662955D01*
X-5085346Y7662954D01*
X-5085342Y7662950D01*
X-4976266Y7607373D01*
X-4972302Y7605353D01*
X-4878525Y7590501D01*
X-4878519Y7590500D01*
X-4265482Y7590501D01*
X-4171696Y7605354D01*
X-4058658Y7662950D01*
X-4058652Y7662957D01*
X-4052852Y7667170D01*
X-3987046Y7690651D01*
X-3918991Y7674827D01*
X-3892283Y7654534D01*
X-3805226Y7567477D01*
X-3805222Y7567474D01*
X-3805220Y7567472D01*
X-3685126Y7506281D01*
X-3685124Y7506281D01*
X-3685122Y7506280D01*
X-3585493Y7490500D01*
X-3585488Y7490500D01*
X-3018508Y7490500D01*
X-2937399Y7503347D01*
X-2868105Y7494393D01*
X-2814653Y7449397D01*
X-2794013Y7382646D01*
X-2794000Y7380874D01*
X-2794000Y5836384D01*
X-2813685Y5769345D01*
X-2830319Y5748703D01*
X-3520202Y5058819D01*
X-3581525Y5025334D01*
X-3607883Y5022500D01*
X-4892581Y5022500D01*
X-4959620Y5042185D01*
X-4968067Y5048124D01*
X-5031158Y5096536D01*
X-5177238Y5157044D01*
X-5177240Y5157045D01*
X-5333999Y5177682D01*
X-5334001Y5177682D01*
X-5490761Y5157045D01*
X-5490763Y5157044D01*
X-5636840Y5096537D01*
X-5762282Y5000282D01*
X-5858537Y4874840D01*
X-5919044Y4728763D01*
X-5919044Y4728761D01*
X-5931811Y4631791D01*
X-5960078Y4567894D01*
X-6018403Y4529424D01*
X-6088267Y4528593D01*
X-6142431Y4560296D01*
X-8153181Y6571046D01*
X-8171175Y6603999D01*
X-6955682Y6603999D01*
X-6935045Y6447240D01*
X-6935044Y6447238D01*
X-6874536Y6301159D01*
X-6778282Y6175718D01*
X-6652841Y6079464D01*
X-6506762Y6018956D01*
X-6428381Y6008637D01*
X-6350001Y5998318D01*
X-6350001Y5998319D01*
X-6350000Y5998318D01*
X-6278651Y6007712D01*
X-6209616Y5996947D01*
X-6206193Y5995270D01*
X-6127857Y5955355D01*
X-6104302Y5943353D01*
X-6010525Y5928501D01*
X-6010519Y5928500D01*
X-5547482Y5928501D01*
X-5453696Y5943354D01*
X-5340658Y6000950D01*
X-5322651Y6018957D01*
X-5294681Y6046926D01*
X-5233358Y6080411D01*
X-5163666Y6075427D01*
X-5119319Y6046926D01*
X-5085348Y6012955D01*
X-5085346Y6012954D01*
X-5085342Y6012950D01*
X-4972306Y5955355D01*
X-4972302Y5955353D01*
X-4878525Y5940501D01*
X-4878519Y5940500D01*
X-4265482Y5940501D01*
X-4171696Y5955354D01*
X-4058658Y6012950D01*
X-3968950Y6102658D01*
X-3911354Y6215696D01*
X-3911354Y6215698D01*
X-3911353Y6215699D01*
X-3896501Y6309476D01*
X-3896500Y6309481D01*
X-3896501Y6772518D01*
X-3911354Y6866304D01*
X-3968950Y6979342D01*
X-3968954Y6979346D01*
X-3968955Y6979348D01*
X-4058653Y7069046D01*
X-4058656Y7069048D01*
X-4058658Y7069050D01*
X-4142952Y7112000D01*
X-4171699Y7126648D01*
X-4265476Y7141500D01*
X-4878518Y7141500D01*
X-4959481Y7128677D01*
X-4972304Y7126646D01*
X-5085342Y7069050D01*
X-5086798Y7068308D01*
X-5155468Y7055412D01*
X-5220208Y7081689D01*
X-5243768Y7110503D01*
X-5245217Y7109450D01*
X-5250949Y7117340D01*
X-5250950Y7117342D01*
X-5250953Y7117345D01*
X-5250955Y7117348D01*
X-5340653Y7207046D01*
X-5340656Y7207048D01*
X-5340658Y7207050D01*
X-5417483Y7246195D01*
X-5453699Y7264648D01*
X-5547476Y7279500D01*
X-6010518Y7279500D01*
X-6104305Y7264646D01*
X-6206171Y7212743D01*
X-6274840Y7199847D01*
X-6278650Y7200289D01*
X-6349999Y7209682D01*
X-6350001Y7209682D01*
X-6506761Y7189045D01*
X-6506763Y7189044D01*
X-6652840Y7128537D01*
X-6778282Y7032282D01*
X-6874537Y6906840D01*
X-6935044Y6760763D01*
X-6935045Y6760761D01*
X-6955682Y6604002D01*
X-6955682Y6603999D01*
X-8171175Y6603999D01*
X-8186666Y6632369D01*
X-8189500Y6658727D01*
X-8189500Y8993953D01*
X-8189387Y8997698D01*
X-8185642Y9059606D01*
X-8196825Y9120629D01*
X-8197387Y9124326D01*
X-8199382Y9140749D01*
X-8204860Y9185872D01*
X-8208452Y9195344D01*
X-8214479Y9216966D01*
X-8216305Y9226929D01*
X-8216305Y9226931D01*
X-8241776Y9283524D01*
X-8243183Y9286921D01*
X-8265182Y9344930D01*
X-8265184Y9344932D01*
X-8265184Y9344934D01*
X-8270938Y9353269D01*
X-8281966Y9372823D01*
X-8286120Y9382053D01*
X-8292227Y9389848D01*
X-8324379Y9430888D01*
X-8326573Y9433870D01*
X-8339983Y9453297D01*
X-8361866Y9519650D01*
X-8361933Y9524003D01*
X-8356000Y11964000D01*
X-11990700Y11964000D01*
X-12057739Y11983685D01*
X-12103494Y12036489D01*
X-12113438Y12105647D01*
X-12084413Y12169203D01*
X-12056420Y12193152D01*
X-11946679Y12261740D01*
X-10363365Y13251311D01*
X-10327885Y13279354D01*
X-10289290Y13317467D01*
X-10281157Y13325973D01*
X-10236510Y13405790D01*
X-10216825Y13472829D01*
X-10208500Y13530727D01*
X-10208500Y13530731D01*
X-10207870Y13535112D01*
X-10205918Y13534832D01*
X-10183685Y13592751D01*
X-10127356Y13634088D01*
X-10085129Y13641500D01*
X-8689903Y13641500D01*
X-8622864Y13621815D01*
G37*
%TD.AperFunction*%
%TA.AperFunction,Conductor*%
G36*
X-17280254Y20355815D02*
G01*
X-17234499Y20303011D01*
X-17224555Y20233853D01*
X-17253580Y20170297D01*
X-17274410Y20151180D01*
X-17277347Y20149047D01*
X-17367046Y20059348D01*
X-17367049Y20059343D01*
X-17424648Y19946302D01*
X-17439500Y19852525D01*
X-17439500Y19632416D01*
X-17459185Y19565377D01*
X-17511989Y19519622D01*
X-17547167Y19509496D01*
X-17561167Y19507636D01*
X-17600795Y19502371D01*
X-17600798Y19502371D01*
X-17600800Y19502370D01*
X-17631007Y19494199D01*
X-17663305Y19485462D01*
X-17663311Y19485460D01*
X-17683029Y19479043D01*
X-17759048Y19428193D01*
X-17807019Y19377400D01*
X-17807021Y19377398D01*
X-17840719Y19329598D01*
X-17840726Y19329587D01*
X-17843188Y19324753D01*
X-17878184Y19282676D01*
X-17954278Y19224286D01*
X-17954280Y19224284D01*
X-17954282Y19224282D01*
X-18026843Y19129718D01*
X-18050537Y19098840D01*
X-18111044Y18952763D01*
X-18111045Y18952761D01*
X-18131682Y18796002D01*
X-18131682Y18795999D01*
X-18120582Y18711685D01*
X-18131348Y18642650D01*
X-18177728Y18590394D01*
X-18243521Y18571500D01*
X-18594518Y18571500D01*
X-18675481Y18558677D01*
X-18688304Y18556646D01*
X-18801342Y18499050D01*
X-18801343Y18499049D01*
X-18801348Y18499046D01*
X-18891046Y18409348D01*
X-18891049Y18409343D01*
X-18891050Y18409342D01*
X-18914050Y18364204D01*
X-18962023Y18313409D01*
X-19024533Y18296500D01*
X-19712616Y18296500D01*
X-19779655Y18316185D01*
X-19810992Y18345014D01*
X-19828217Y18367463D01*
X-19882796Y18409343D01*
X-19953659Y18463718D01*
X-20039525Y18499285D01*
X-20093928Y18543126D01*
X-20115993Y18609420D01*
X-20098714Y18677120D01*
X-20079757Y18701523D01*
X-18442097Y20339181D01*
X-18380774Y20372666D01*
X-18354416Y20375500D01*
X-17347293Y20375500D01*
X-17280254Y20355815D01*
G37*
%TD.AperFunction*%
%TA.AperFunction,Conductor*%
G36*
X-23173076Y20755244D02*
G01*
X-23100991Y20723415D01*
X-23075865Y20720500D01*
X-22786136Y20720501D01*
X-22786121Y20720503D01*
X-22786118Y20720503D01*
X-22751742Y20724489D01*
X-22751527Y20722627D01*
X-22693212Y20721470D01*
X-22635195Y20682537D01*
X-22607436Y20618418D01*
X-22606500Y20603209D01*
X-22606500Y20011922D01*
X-22606736Y20006515D01*
X-22610265Y19966192D01*
X-22599788Y19927090D01*
X-22598617Y19921810D01*
X-22591589Y19881957D01*
X-22589765Y19876945D01*
X-22582803Y19860139D01*
X-22580555Y19855319D01*
X-22580554Y19855316D01*
X-22566548Y19835313D01*
X-22557345Y19822169D01*
X-22554439Y19817608D01*
X-22534194Y19782545D01*
X-22503185Y19756525D01*
X-22499195Y19752869D01*
X-22476012Y19729686D01*
X-22442527Y19668363D01*
X-22440754Y19625821D01*
X-22449682Y19558003D01*
X-22449682Y19557999D01*
X-22429045Y19401240D01*
X-22429044Y19401238D01*
X-22368597Y19255305D01*
X-22368536Y19255159D01*
X-22272282Y19129718D01*
X-22146841Y19033464D01*
X-22000762Y18972956D01*
X-21922381Y18962637D01*
X-21844001Y18952318D01*
X-21844000Y18952318D01*
X-21843999Y18952318D01*
X-21766895Y18962470D01*
X-21687238Y18972956D01*
X-21687238Y18972957D01*
X-21679180Y18974017D01*
X-21678730Y18970597D01*
X-21624840Y18969371D01*
X-21566936Y18930270D01*
X-21539364Y18866070D01*
X-21550877Y18797156D01*
X-21574790Y18763538D01*
X-21849197Y18489130D01*
X-21853186Y18485475D01*
X-21871509Y18470100D01*
X-21879113Y18463718D01*
X-21892502Y18452483D01*
X-21894864Y18455298D01*
X-21936806Y18427412D01*
X-22006667Y18426325D01*
X-22053283Y18450834D01*
X-22057072Y18454012D01*
X-22058818Y18455477D01*
X-22062794Y18459120D01*
X-23125881Y19522207D01*
X-23129526Y19526186D01*
X-23155544Y19557193D01*
X-23155545Y19557194D01*
X-23169718Y19565377D01*
X-23190608Y19577439D01*
X-23195169Y19580345D01*
X-23208313Y19589548D01*
X-23228316Y19603554D01*
X-23228319Y19603555D01*
X-23233139Y19605803D01*
X-23249945Y19612765D01*
X-23254957Y19614589D01*
X-23294810Y19621617D01*
X-23300090Y19622788D01*
X-23339192Y19633265D01*
X-23374108Y19630210D01*
X-23379519Y19629736D01*
X-23384922Y19629500D01*
X-24112813Y19629500D01*
X-24179852Y19649185D01*
X-24225607Y19701989D01*
X-24235551Y19771147D01*
X-24206526Y19834703D01*
X-24200494Y19841181D01*
X-24000686Y20040989D01*
X-23362785Y20678891D01*
X-23358834Y20682511D01*
X-23327806Y20708545D01*
X-23327804Y20708551D01*
X-23320831Y20716857D01*
X-23318715Y20715082D01*
X-23279988Y20752016D01*
X-23211382Y20765247D01*
X-23173076Y20755244D01*
G37*
%TD.AperFunction*%
%TA.AperFunction,Conductor*%
G36*
X-25988461Y21810815D02*
G01*
X-25942706Y21758011D01*
X-25931500Y21706500D01*
X-25931500Y20976144D01*
X-25931498Y20976118D01*
X-25928587Y20951013D01*
X-25928585Y20951009D01*
X-25883207Y20848236D01*
X-25815866Y20780895D01*
X-25782381Y20719572D01*
X-25787365Y20649880D01*
X-25829237Y20593947D01*
X-25856094Y20578653D01*
X-25917937Y20553037D01*
X-26043379Y20456782D01*
X-26139634Y20331340D01*
X-26200141Y20185263D01*
X-26200142Y20185261D01*
X-26220779Y20028502D01*
X-26220779Y20028499D01*
X-26200142Y19871740D01*
X-26200140Y19871735D01*
X-26170821Y19800952D01*
X-26163352Y19731483D01*
X-26194627Y19669004D01*
X-26254717Y19633352D01*
X-26285382Y19629500D01*
X-26561500Y19629500D01*
X-26628539Y19649185D01*
X-26674294Y19701989D01*
X-26685500Y19753500D01*
X-26685500Y19787751D01*
X-26685501Y19787753D01*
X-26697132Y19846230D01*
X-26697133Y19846231D01*
X-26741448Y19912553D01*
X-26807770Y19956868D01*
X-26807771Y19956869D01*
X-26866248Y19968500D01*
X-26866252Y19968500D01*
X-27483237Y19968500D01*
X-27550276Y19988185D01*
X-27596031Y20040989D01*
X-27605975Y20110147D01*
X-27593724Y20148792D01*
X-27572281Y20190874D01*
X-27569783Y20206646D01*
X-27556500Y20290507D01*
X-27556500Y20857494D01*
X-27572280Y20957122D01*
X-27572281Y20957124D01*
X-27572281Y20957126D01*
X-27633472Y21077220D01*
X-27633474Y21077222D01*
X-27633477Y21077226D01*
X-27728775Y21172524D01*
X-27728779Y21172527D01*
X-27728780Y21172528D01*
X-27848874Y21233719D01*
X-27848876Y21233720D01*
X-27848879Y21233721D01*
X-27948507Y21249500D01*
X-27948512Y21249500D01*
X-28024630Y21249500D01*
X-28091669Y21269185D01*
X-28137424Y21321989D01*
X-28147368Y21391147D01*
X-28118343Y21454703D01*
X-28112311Y21461181D01*
X-27779311Y21794181D01*
X-27717988Y21827666D01*
X-27691630Y21830500D01*
X-26055500Y21830500D01*
X-25988461Y21810815D01*
G37*
%TD.AperFunction*%
%TD*%
M02*
