%TF.GenerationSoftware,KiCad,Pcbnew,7.0.8*%
%TF.CreationDate,2024-06-01T15:01:04+09:00*%
%TF.ProjectId,BDCM_Driver_v1,4244434d-5f44-4726-9976-65725f76312e,rev?*%
%TF.SameCoordinates,PXaac6430PY8670810*%
%TF.FileFunction,Legend,Top*%
%TF.FilePolarity,Positive*%
%FSLAX46Y46*%
G04 Gerber Fmt 4.6, Leading zero omitted, Abs format (unit mm)*
G04 Created by KiCad (PCBNEW 7.0.8) date 2024-06-01 15:01:04*
%MOMM*%
%LPD*%
G01*
G04 APERTURE LIST*
%ADD10C,0.300000*%
%ADD11C,0.150000*%
%ADD12C,0.100000*%
%ADD13C,0.125000*%
%ADD14C,0.175000*%
%ADD15C,0.120000*%
%ADD16C,0.152400*%
G04 APERTURE END LIST*
D10*
X-9652000Y18806994D02*
X321695Y18806994D01*
D11*
X-2540000Y23876000D02*
X3810000Y23876000D01*
X3810000Y13716000D01*
X-2540000Y13716000D01*
X-2540000Y23876000D01*
X-6812143Y3593086D02*
X-6812143Y4343086D01*
X-6812143Y4343086D02*
X-6526429Y4343086D01*
X-6526429Y4343086D02*
X-6455000Y4307372D01*
X-6455000Y4307372D02*
X-6419286Y4271658D01*
X-6419286Y4271658D02*
X-6383572Y4200229D01*
X-6383572Y4200229D02*
X-6383572Y4093086D01*
X-6383572Y4093086D02*
X-6419286Y4021658D01*
X-6419286Y4021658D02*
X-6455000Y3985943D01*
X-6455000Y3985943D02*
X-6526429Y3950229D01*
X-6526429Y3950229D02*
X-6812143Y3950229D01*
X-5919286Y4343086D02*
X-5776429Y4343086D01*
X-5776429Y4343086D02*
X-5705000Y4307372D01*
X-5705000Y4307372D02*
X-5633572Y4235943D01*
X-5633572Y4235943D02*
X-5597857Y4093086D01*
X-5597857Y4093086D02*
X-5597857Y3843086D01*
X-5597857Y3843086D02*
X-5633572Y3700229D01*
X-5633572Y3700229D02*
X-5705000Y3628800D01*
X-5705000Y3628800D02*
X-5776429Y3593086D01*
X-5776429Y3593086D02*
X-5919286Y3593086D01*
X-5919286Y3593086D02*
X-5990714Y3628800D01*
X-5990714Y3628800D02*
X-6062143Y3700229D01*
X-6062143Y3700229D02*
X-6097857Y3843086D01*
X-6097857Y3843086D02*
X-6097857Y4093086D01*
X-6097857Y4093086D02*
X-6062143Y4235943D01*
X-6062143Y4235943D02*
X-5990714Y4307372D01*
X-5990714Y4307372D02*
X-5919286Y4343086D01*
X-5347858Y4343086D02*
X-5169286Y3593086D01*
X-5169286Y3593086D02*
X-5026429Y4128800D01*
X-5026429Y4128800D02*
X-4883572Y3593086D01*
X-4883572Y3593086D02*
X-4705000Y4343086D01*
X-4419286Y3985943D02*
X-4169286Y3985943D01*
X-4062143Y3593086D02*
X-4419286Y3593086D01*
X-4419286Y3593086D02*
X-4419286Y4343086D01*
X-4419286Y4343086D02*
X-4062143Y4343086D01*
X-3312144Y3593086D02*
X-3562144Y3950229D01*
X-3740715Y3593086D02*
X-3740715Y4343086D01*
X-3740715Y4343086D02*
X-3455001Y4343086D01*
X-3455001Y4343086D02*
X-3383572Y4307372D01*
X-3383572Y4307372D02*
X-3347858Y4271658D01*
X-3347858Y4271658D02*
X-3312144Y4200229D01*
X-3312144Y4200229D02*
X-3312144Y4093086D01*
X-3312144Y4093086D02*
X-3347858Y4021658D01*
X-3347858Y4021658D02*
X-3383572Y3985943D01*
X-3383572Y3985943D02*
X-3455001Y3950229D01*
X-3455001Y3950229D02*
X-3740715Y3950229D01*
X-7365715Y3135586D02*
X-6901429Y3135586D01*
X-6901429Y3135586D02*
X-7151429Y2849872D01*
X-7151429Y2849872D02*
X-7044286Y2849872D01*
X-7044286Y2849872D02*
X-6972857Y2814158D01*
X-6972857Y2814158D02*
X-6937143Y2778443D01*
X-6937143Y2778443D02*
X-6901429Y2707015D01*
X-6901429Y2707015D02*
X-6901429Y2528443D01*
X-6901429Y2528443D02*
X-6937143Y2457015D01*
X-6937143Y2457015D02*
X-6972857Y2421300D01*
X-6972857Y2421300D02*
X-7044286Y2385586D01*
X-7044286Y2385586D02*
X-7258572Y2385586D01*
X-7258572Y2385586D02*
X-7330000Y2421300D01*
X-7330000Y2421300D02*
X-7365715Y2457015D01*
X-6580000Y2457015D02*
X-6544286Y2421300D01*
X-6544286Y2421300D02*
X-6580000Y2385586D01*
X-6580000Y2385586D02*
X-6615714Y2421300D01*
X-6615714Y2421300D02*
X-6580000Y2457015D01*
X-6580000Y2457015D02*
X-6580000Y2385586D01*
X-6294286Y3135586D02*
X-5794286Y3135586D01*
X-5794286Y3135586D02*
X-6115714Y2385586D01*
X-5508571Y2671300D02*
X-4937142Y2671300D01*
X-4615714Y3064158D02*
X-4580000Y3099872D01*
X-4580000Y3099872D02*
X-4508571Y3135586D01*
X-4508571Y3135586D02*
X-4330000Y3135586D01*
X-4330000Y3135586D02*
X-4258571Y3099872D01*
X-4258571Y3099872D02*
X-4222857Y3064158D01*
X-4222857Y3064158D02*
X-4187143Y2992729D01*
X-4187143Y2992729D02*
X-4187143Y2921300D01*
X-4187143Y2921300D02*
X-4222857Y2814158D01*
X-4222857Y2814158D02*
X-4651429Y2385586D01*
X-4651429Y2385586D02*
X-4187143Y2385586D01*
X-3544285Y2885586D02*
X-3544285Y2385586D01*
X-3722857Y3171300D02*
X-3901428Y2635586D01*
X-3901428Y2635586D02*
X-3437143Y2635586D01*
X-3258571Y3135586D02*
X-3008571Y2385586D01*
X-3008571Y2385586D02*
X-2758571Y3135586D01*
D12*
X-23484783Y31937391D02*
X-23175259Y31937391D01*
X-23175259Y31937391D02*
X-23341926Y31746915D01*
X-23341926Y31746915D02*
X-23270497Y31746915D01*
X-23270497Y31746915D02*
X-23222878Y31723105D01*
X-23222878Y31723105D02*
X-23199069Y31699296D01*
X-23199069Y31699296D02*
X-23175259Y31651677D01*
X-23175259Y31651677D02*
X-23175259Y31532629D01*
X-23175259Y31532629D02*
X-23199069Y31485010D01*
X-23199069Y31485010D02*
X-23222878Y31461200D01*
X-23222878Y31461200D02*
X-23270497Y31437391D01*
X-23270497Y31437391D02*
X-23413354Y31437391D01*
X-23413354Y31437391D02*
X-23460973Y31461200D01*
X-23460973Y31461200D02*
X-23484783Y31485010D01*
X-23032402Y31937391D02*
X-22865736Y31437391D01*
X-22865736Y31437391D02*
X-22699069Y31937391D01*
X-22580022Y31937391D02*
X-22270498Y31937391D01*
X-22270498Y31937391D02*
X-22437165Y31746915D01*
X-22437165Y31746915D02*
X-22365736Y31746915D01*
X-22365736Y31746915D02*
X-22318117Y31723105D01*
X-22318117Y31723105D02*
X-22294308Y31699296D01*
X-22294308Y31699296D02*
X-22270498Y31651677D01*
X-22270498Y31651677D02*
X-22270498Y31532629D01*
X-22270498Y31532629D02*
X-22294308Y31485010D01*
X-22294308Y31485010D02*
X-22318117Y31461200D01*
X-22318117Y31461200D02*
X-22365736Y31437391D01*
X-22365736Y31437391D02*
X-22508593Y31437391D01*
X-22508593Y31437391D02*
X-22556212Y31461200D01*
X-22556212Y31461200D02*
X-22580022Y31485010D01*
X-23151450Y30680010D02*
X-23175259Y30656200D01*
X-23175259Y30656200D02*
X-23246688Y30632391D01*
X-23246688Y30632391D02*
X-23294307Y30632391D01*
X-23294307Y30632391D02*
X-23365735Y30656200D01*
X-23365735Y30656200D02*
X-23413354Y30703820D01*
X-23413354Y30703820D02*
X-23437164Y30751439D01*
X-23437164Y30751439D02*
X-23460973Y30846677D01*
X-23460973Y30846677D02*
X-23460973Y30918105D01*
X-23460973Y30918105D02*
X-23437164Y31013343D01*
X-23437164Y31013343D02*
X-23413354Y31060962D01*
X-23413354Y31060962D02*
X-23365735Y31108581D01*
X-23365735Y31108581D02*
X-23294307Y31132391D01*
X-23294307Y31132391D02*
X-23246688Y31132391D01*
X-23246688Y31132391D02*
X-23175259Y31108581D01*
X-23175259Y31108581D02*
X-23151450Y31084772D01*
X-22699069Y30632391D02*
X-22937164Y30632391D01*
X-22937164Y30632391D02*
X-22937164Y31132391D01*
X-22532402Y30632391D02*
X-22532402Y31132391D01*
X-22246688Y30632391D02*
X-22460973Y30918105D01*
X-22246688Y31132391D02*
X-22532402Y30846677D01*
X-23175259Y30303581D02*
X-23222878Y30327391D01*
X-23222878Y30327391D02*
X-23294307Y30327391D01*
X-23294307Y30327391D02*
X-23365735Y30303581D01*
X-23365735Y30303581D02*
X-23413354Y30255962D01*
X-23413354Y30255962D02*
X-23437164Y30208343D01*
X-23437164Y30208343D02*
X-23460973Y30113105D01*
X-23460973Y30113105D02*
X-23460973Y30041677D01*
X-23460973Y30041677D02*
X-23437164Y29946439D01*
X-23437164Y29946439D02*
X-23413354Y29898820D01*
X-23413354Y29898820D02*
X-23365735Y29851200D01*
X-23365735Y29851200D02*
X-23294307Y29827391D01*
X-23294307Y29827391D02*
X-23246688Y29827391D01*
X-23246688Y29827391D02*
X-23175259Y29851200D01*
X-23175259Y29851200D02*
X-23151450Y29875010D01*
X-23151450Y29875010D02*
X-23151450Y30041677D01*
X-23151450Y30041677D02*
X-23246688Y30041677D01*
X-22937164Y29827391D02*
X-22937164Y30327391D01*
X-22937164Y30327391D02*
X-22651450Y29827391D01*
X-22651450Y29827391D02*
X-22651450Y30327391D01*
X-22413354Y29827391D02*
X-22413354Y30327391D01*
X-22413354Y30327391D02*
X-22294306Y30327391D01*
X-22294306Y30327391D02*
X-22222878Y30303581D01*
X-22222878Y30303581D02*
X-22175259Y30255962D01*
X-22175259Y30255962D02*
X-22151449Y30208343D01*
X-22151449Y30208343D02*
X-22127640Y30113105D01*
X-22127640Y30113105D02*
X-22127640Y30041677D01*
X-22127640Y30041677D02*
X-22151449Y29946439D01*
X-22151449Y29946439D02*
X-22175259Y29898820D01*
X-22175259Y29898820D02*
X-22222878Y29851200D01*
X-22222878Y29851200D02*
X-22294306Y29827391D01*
X-22294306Y29827391D02*
X-22413354Y29827391D01*
X-23437164Y29022391D02*
X-23437164Y29522391D01*
X-23103831Y29522391D02*
X-23008593Y29522391D01*
X-23008593Y29522391D02*
X-22960974Y29498581D01*
X-22960974Y29498581D02*
X-22913355Y29450962D01*
X-22913355Y29450962D02*
X-22889545Y29355724D01*
X-22889545Y29355724D02*
X-22889545Y29189058D01*
X-22889545Y29189058D02*
X-22913355Y29093820D01*
X-22913355Y29093820D02*
X-22960974Y29046200D01*
X-22960974Y29046200D02*
X-23008593Y29022391D01*
X-23008593Y29022391D02*
X-23103831Y29022391D01*
X-23103831Y29022391D02*
X-23151450Y29046200D01*
X-23151450Y29046200D02*
X-23199069Y29093820D01*
X-23199069Y29093820D02*
X-23222878Y29189058D01*
X-23222878Y29189058D02*
X-23222878Y29355724D01*
X-23222878Y29355724D02*
X-23199069Y29450962D01*
X-23199069Y29450962D02*
X-23151450Y29498581D01*
X-23151450Y29498581D02*
X-23103831Y29522391D01*
D13*
X-26795500Y22942001D02*
X-26762167Y23042001D01*
X-26762167Y23042001D02*
X-26762167Y23208667D01*
X-26762167Y23208667D02*
X-26795500Y23275334D01*
X-26795500Y23275334D02*
X-26828834Y23308667D01*
X-26828834Y23308667D02*
X-26895500Y23342001D01*
X-26895500Y23342001D02*
X-26962167Y23342001D01*
X-26962167Y23342001D02*
X-27028834Y23308667D01*
X-27028834Y23308667D02*
X-27062167Y23275334D01*
X-27062167Y23275334D02*
X-27095500Y23208667D01*
X-27095500Y23208667D02*
X-27128834Y23075334D01*
X-27128834Y23075334D02*
X-27162167Y23008667D01*
X-27162167Y23008667D02*
X-27195500Y22975334D01*
X-27195500Y22975334D02*
X-27262167Y22942001D01*
X-27262167Y22942001D02*
X-27328834Y22942001D01*
X-27328834Y22942001D02*
X-27395500Y22975334D01*
X-27395500Y22975334D02*
X-27428834Y23008667D01*
X-27428834Y23008667D02*
X-27462167Y23075334D01*
X-27462167Y23075334D02*
X-27462167Y23242001D01*
X-27462167Y23242001D02*
X-27428834Y23342001D01*
X-27462167Y23542001D02*
X-27462167Y23942001D01*
X-26762167Y23742001D02*
X-27462167Y23742001D01*
X-27028834Y24175334D02*
X-27028834Y24708667D01*
X-26762167Y25375334D02*
X-26762167Y25042001D01*
X-26762167Y25042001D02*
X-27462167Y25042001D01*
X-26762167Y25608668D02*
X-27228834Y25608668D01*
X-27462167Y25608668D02*
X-27428834Y25575335D01*
X-27428834Y25575335D02*
X-27395500Y25608668D01*
X-27395500Y25608668D02*
X-27428834Y25642001D01*
X-27428834Y25642001D02*
X-27462167Y25608668D01*
X-27462167Y25608668D02*
X-27395500Y25608668D01*
X-27228834Y25942001D02*
X-26762167Y25942001D01*
X-27162167Y25942001D02*
X-27195500Y25975334D01*
X-27195500Y25975334D02*
X-27228834Y26042001D01*
X-27228834Y26042001D02*
X-27228834Y26142001D01*
X-27228834Y26142001D02*
X-27195500Y26208668D01*
X-27195500Y26208668D02*
X-27128834Y26242001D01*
X-27128834Y26242001D02*
X-26762167Y26242001D01*
X-26762167Y26575334D02*
X-27462167Y26575334D01*
X-27028834Y26642001D02*
X-26762167Y26842001D01*
X-27228834Y26842001D02*
X-26962167Y26575334D01*
D12*
X-23128048Y27125296D02*
X-22961381Y27125296D01*
X-22889953Y26863391D02*
X-23128048Y26863391D01*
X-23128048Y26863391D02*
X-23128048Y27363391D01*
X-23128048Y27363391D02*
X-22889953Y27363391D01*
X-22675667Y26863391D02*
X-22675667Y27363391D01*
X-22675667Y27363391D02*
X-22389953Y26863391D01*
X-22389953Y26863391D02*
X-22389953Y27363391D01*
X-21866143Y26911010D02*
X-21889952Y26887200D01*
X-21889952Y26887200D02*
X-21961381Y26863391D01*
X-21961381Y26863391D02*
X-22009000Y26863391D01*
X-22009000Y26863391D02*
X-22080428Y26887200D01*
X-22080428Y26887200D02*
X-22128047Y26934820D01*
X-22128047Y26934820D02*
X-22151857Y26982439D01*
X-22151857Y26982439D02*
X-22175666Y27077677D01*
X-22175666Y27077677D02*
X-22175666Y27149105D01*
X-22175666Y27149105D02*
X-22151857Y27244343D01*
X-22151857Y27244343D02*
X-22128047Y27291962D01*
X-22128047Y27291962D02*
X-22080428Y27339581D01*
X-22080428Y27339581D02*
X-22009000Y27363391D01*
X-22009000Y27363391D02*
X-21961381Y27363391D01*
X-21961381Y27363391D02*
X-21889952Y27339581D01*
X-21889952Y27339581D02*
X-21866143Y27315772D01*
X-21542333Y27017677D02*
X-21485190Y26998629D01*
X-21485190Y26998629D02*
X-21466143Y26979581D01*
X-21466143Y26979581D02*
X-21447095Y26941486D01*
X-21447095Y26941486D02*
X-21447095Y26884343D01*
X-21447095Y26884343D02*
X-21466143Y26846248D01*
X-21466143Y26846248D02*
X-21485190Y26827200D01*
X-21485190Y26827200D02*
X-21523285Y26808153D01*
X-21523285Y26808153D02*
X-21675666Y26808153D01*
X-21675666Y26808153D02*
X-21675666Y27208153D01*
X-21675666Y27208153D02*
X-21542333Y27208153D01*
X-21542333Y27208153D02*
X-21504238Y27189105D01*
X-21504238Y27189105D02*
X-21485190Y27170058D01*
X-21485190Y27170058D02*
X-21466143Y27131962D01*
X-21466143Y27131962D02*
X-21466143Y27093867D01*
X-21466143Y27093867D02*
X-21485190Y27055772D01*
X-21485190Y27055772D02*
X-21504238Y27036724D01*
X-21504238Y27036724D02*
X-21542333Y27017677D01*
X-21542333Y27017677D02*
X-21675666Y27017677D01*
X-20870905Y27125296D02*
X-20704238Y27125296D01*
X-20632810Y26863391D02*
X-20870905Y26863391D01*
X-20870905Y26863391D02*
X-20870905Y27363391D01*
X-20870905Y27363391D02*
X-20632810Y27363391D01*
X-20418524Y26863391D02*
X-20418524Y27363391D01*
X-20418524Y27363391D02*
X-20132810Y26863391D01*
X-20132810Y26863391D02*
X-20132810Y27363391D01*
X-19609000Y26911010D02*
X-19632809Y26887200D01*
X-19632809Y26887200D02*
X-19704238Y26863391D01*
X-19704238Y26863391D02*
X-19751857Y26863391D01*
X-19751857Y26863391D02*
X-19823285Y26887200D01*
X-19823285Y26887200D02*
X-19870904Y26934820D01*
X-19870904Y26934820D02*
X-19894714Y26982439D01*
X-19894714Y26982439D02*
X-19918523Y27077677D01*
X-19918523Y27077677D02*
X-19918523Y27149105D01*
X-19918523Y27149105D02*
X-19894714Y27244343D01*
X-19894714Y27244343D02*
X-19870904Y27291962D01*
X-19870904Y27291962D02*
X-19823285Y27339581D01*
X-19823285Y27339581D02*
X-19751857Y27363391D01*
X-19751857Y27363391D02*
X-19704238Y27363391D01*
X-19704238Y27363391D02*
X-19632809Y27339581D01*
X-19632809Y27339581D02*
X-19609000Y27315772D01*
X-19437571Y26922439D02*
X-19247095Y26922439D01*
X-19475666Y26808153D02*
X-19342333Y27208153D01*
X-19342333Y27208153D02*
X-19209000Y26808153D01*
D14*
X-19031667Y221767D02*
X-19031667Y921767D01*
X-18758334Y931100D02*
X-18731667Y957767D01*
X-18731667Y957767D02*
X-18678334Y984434D01*
X-18678334Y984434D02*
X-18545000Y984434D01*
X-18545000Y984434D02*
X-18491667Y957767D01*
X-18491667Y957767D02*
X-18465000Y931100D01*
X-18465000Y931100D02*
X-18438334Y877767D01*
X-18438334Y877767D02*
X-18438334Y824434D01*
X-18438334Y824434D02*
X-18465000Y744434D01*
X-18465000Y744434D02*
X-18785000Y424434D01*
X-18785000Y424434D02*
X-18438334Y424434D01*
X-17765001Y288434D02*
X-17798334Y255100D01*
X-17798334Y255100D02*
X-17898334Y221767D01*
X-17898334Y221767D02*
X-17965001Y221767D01*
X-17965001Y221767D02*
X-18065001Y255100D01*
X-18065001Y255100D02*
X-18131667Y321767D01*
X-18131667Y321767D02*
X-18165001Y388434D01*
X-18165001Y388434D02*
X-18198334Y521767D01*
X-18198334Y521767D02*
X-18198334Y621767D01*
X-18198334Y621767D02*
X-18165001Y755100D01*
X-18165001Y755100D02*
X-18131667Y821767D01*
X-18131667Y821767D02*
X-18065001Y888434D01*
X-18065001Y888434D02*
X-17965001Y921767D01*
X-17965001Y921767D02*
X-17898334Y921767D01*
X-17898334Y921767D02*
X-17798334Y888434D01*
X-17798334Y888434D02*
X-17765001Y855100D01*
D11*
X-2266999Y25260181D02*
X-2133666Y25260181D01*
X-2133666Y25260181D02*
X-2066999Y25212562D01*
X-2066999Y25212562D02*
X-2000333Y25117324D01*
X-2000333Y25117324D02*
X-1966999Y24926848D01*
X-1966999Y24926848D02*
X-1966999Y24593515D01*
X-1966999Y24593515D02*
X-2000333Y24403039D01*
X-2000333Y24403039D02*
X-2066999Y24307800D01*
X-2066999Y24307800D02*
X-2133666Y24260181D01*
X-2133666Y24260181D02*
X-2266999Y24260181D01*
X-2266999Y24260181D02*
X-2333666Y24307800D01*
X-2333666Y24307800D02*
X-2400333Y24403039D01*
X-2400333Y24403039D02*
X-2433666Y24593515D01*
X-2433666Y24593515D02*
X-2433666Y24926848D01*
X-2433666Y24926848D02*
X-2400333Y25117324D01*
X-2400333Y25117324D02*
X-2333666Y25212562D01*
X-2333666Y25212562D02*
X-2266999Y25260181D01*
X-1667000Y25260181D02*
X-1667000Y24450658D01*
X-1667000Y24450658D02*
X-1633666Y24355420D01*
X-1633666Y24355420D02*
X-1600333Y24307800D01*
X-1600333Y24307800D02*
X-1533666Y24260181D01*
X-1533666Y24260181D02*
X-1400333Y24260181D01*
X-1400333Y24260181D02*
X-1333666Y24307800D01*
X-1333666Y24307800D02*
X-1300333Y24355420D01*
X-1300333Y24355420D02*
X-1267000Y24450658D01*
X-1267000Y24450658D02*
X-1267000Y25260181D01*
X-1033667Y25260181D02*
X-633667Y25260181D01*
X-833667Y24260181D02*
X-833667Y25260181D01*
X-460334Y24378277D02*
X-193667Y24378277D01*
X-513667Y24149705D02*
X-327000Y24949705D01*
X-327000Y24949705D02*
X-140334Y24149705D01*
D12*
X-29276391Y16291810D02*
X-29514486Y16125144D01*
X-29276391Y16006096D02*
X-29776391Y16006096D01*
X-29776391Y16006096D02*
X-29776391Y16196572D01*
X-29776391Y16196572D02*
X-29752581Y16244191D01*
X-29752581Y16244191D02*
X-29728772Y16268001D01*
X-29728772Y16268001D02*
X-29681153Y16291810D01*
X-29681153Y16291810D02*
X-29609724Y16291810D01*
X-29609724Y16291810D02*
X-29562105Y16268001D01*
X-29562105Y16268001D02*
X-29538296Y16244191D01*
X-29538296Y16244191D02*
X-29514486Y16196572D01*
X-29514486Y16196572D02*
X-29514486Y16006096D01*
X-29538296Y16506096D02*
X-29538296Y16672763D01*
X-29276391Y16744191D02*
X-29276391Y16506096D01*
X-29276391Y16506096D02*
X-29776391Y16506096D01*
X-29776391Y16506096D02*
X-29776391Y16744191D01*
X-29300200Y16934668D02*
X-29276391Y17006096D01*
X-29276391Y17006096D02*
X-29276391Y17125144D01*
X-29276391Y17125144D02*
X-29300200Y17172763D01*
X-29300200Y17172763D02*
X-29324010Y17196572D01*
X-29324010Y17196572D02*
X-29371629Y17220382D01*
X-29371629Y17220382D02*
X-29419248Y17220382D01*
X-29419248Y17220382D02*
X-29466867Y17196572D01*
X-29466867Y17196572D02*
X-29490677Y17172763D01*
X-29490677Y17172763D02*
X-29514486Y17125144D01*
X-29514486Y17125144D02*
X-29538296Y17029906D01*
X-29538296Y17029906D02*
X-29562105Y16982287D01*
X-29562105Y16982287D02*
X-29585915Y16958477D01*
X-29585915Y16958477D02*
X-29633534Y16934668D01*
X-29633534Y16934668D02*
X-29681153Y16934668D01*
X-29681153Y16934668D02*
X-29728772Y16958477D01*
X-29728772Y16958477D02*
X-29752581Y16982287D01*
X-29752581Y16982287D02*
X-29776391Y17029906D01*
X-29776391Y17029906D02*
X-29776391Y17148953D01*
X-29776391Y17148953D02*
X-29752581Y17220382D01*
X-29538296Y17434667D02*
X-29538296Y17601334D01*
X-29276391Y17672762D02*
X-29276391Y17434667D01*
X-29276391Y17434667D02*
X-29776391Y17434667D01*
X-29776391Y17434667D02*
X-29776391Y17672762D01*
X-29776391Y17815620D02*
X-29776391Y18101334D01*
X-29276391Y17958477D02*
X-29776391Y17958477D01*
D11*
X-2249999Y13422181D02*
X-2116666Y13422181D01*
X-2116666Y13422181D02*
X-2049999Y13374562D01*
X-2049999Y13374562D02*
X-1983333Y13279324D01*
X-1983333Y13279324D02*
X-1949999Y13088848D01*
X-1949999Y13088848D02*
X-1949999Y12755515D01*
X-1949999Y12755515D02*
X-1983333Y12565039D01*
X-1983333Y12565039D02*
X-2049999Y12469800D01*
X-2049999Y12469800D02*
X-2116666Y12422181D01*
X-2116666Y12422181D02*
X-2249999Y12422181D01*
X-2249999Y12422181D02*
X-2316666Y12469800D01*
X-2316666Y12469800D02*
X-2383333Y12565039D01*
X-2383333Y12565039D02*
X-2416666Y12755515D01*
X-2416666Y12755515D02*
X-2416666Y13088848D01*
X-2416666Y13088848D02*
X-2383333Y13279324D01*
X-2383333Y13279324D02*
X-2316666Y13374562D01*
X-2316666Y13374562D02*
X-2249999Y13422181D01*
X-1650000Y13422181D02*
X-1650000Y12612658D01*
X-1650000Y12612658D02*
X-1616666Y12517420D01*
X-1616666Y12517420D02*
X-1583333Y12469800D01*
X-1583333Y12469800D02*
X-1516666Y12422181D01*
X-1516666Y12422181D02*
X-1383333Y12422181D01*
X-1383333Y12422181D02*
X-1316666Y12469800D01*
X-1316666Y12469800D02*
X-1283333Y12517420D01*
X-1283333Y12517420D02*
X-1250000Y12612658D01*
X-1250000Y12612658D02*
X-1250000Y13422181D01*
X-1016667Y13422181D02*
X-616667Y13422181D01*
X-816667Y12422181D02*
X-816667Y13422181D01*
X-230000Y12730753D02*
X-150000Y12692658D01*
X-150000Y12692658D02*
X-123334Y12654562D01*
X-123334Y12654562D02*
X-96667Y12578372D01*
X-96667Y12578372D02*
X-96667Y12464086D01*
X-96667Y12464086D02*
X-123334Y12387896D01*
X-123334Y12387896D02*
X-150000Y12349800D01*
X-150000Y12349800D02*
X-203334Y12311705D01*
X-203334Y12311705D02*
X-416667Y12311705D01*
X-416667Y12311705D02*
X-416667Y13111705D01*
X-416667Y13111705D02*
X-230000Y13111705D01*
X-230000Y13111705D02*
X-176667Y13073610D01*
X-176667Y13073610D02*
X-150000Y13035515D01*
X-150000Y13035515D02*
X-123334Y12959324D01*
X-123334Y12959324D02*
X-123334Y12883134D01*
X-123334Y12883134D02*
X-150000Y12806943D01*
X-150000Y12806943D02*
X-176667Y12768848D01*
X-176667Y12768848D02*
X-230000Y12730753D01*
X-230000Y12730753D02*
X-416667Y12730753D01*
X-11683905Y25183181D02*
X-11683905Y24373658D01*
X-11683905Y24373658D02*
X-11636286Y24278420D01*
X-11636286Y24278420D02*
X-11588667Y24230800D01*
X-11588667Y24230800D02*
X-11493429Y24183181D01*
X-11493429Y24183181D02*
X-11302953Y24183181D01*
X-11302953Y24183181D02*
X-11207715Y24230800D01*
X-11207715Y24230800D02*
X-11160096Y24278420D01*
X-11160096Y24278420D02*
X-11112477Y24373658D01*
X-11112477Y24373658D02*
X-11112477Y25183181D01*
X-10683905Y25087943D02*
X-10636286Y25135562D01*
X-10636286Y25135562D02*
X-10541048Y25183181D01*
X-10541048Y25183181D02*
X-10302953Y25183181D01*
X-10302953Y25183181D02*
X-10207715Y25135562D01*
X-10207715Y25135562D02*
X-10160096Y25087943D01*
X-10160096Y25087943D02*
X-10112477Y24992705D01*
X-10112477Y24992705D02*
X-10112477Y24897467D01*
X-10112477Y24897467D02*
X-10160096Y24754610D01*
X-10160096Y24754610D02*
X-10731524Y24183181D01*
X-10731524Y24183181D02*
X-10112477Y24183181D01*
X-11937905Y13245181D02*
X-11937905Y12435658D01*
X-11937905Y12435658D02*
X-11890286Y12340420D01*
X-11890286Y12340420D02*
X-11842667Y12292800D01*
X-11842667Y12292800D02*
X-11747429Y12245181D01*
X-11747429Y12245181D02*
X-11556953Y12245181D01*
X-11556953Y12245181D02*
X-11461715Y12292800D01*
X-11461715Y12292800D02*
X-11414096Y12340420D01*
X-11414096Y12340420D02*
X-11366477Y12435658D01*
X-11366477Y12435658D02*
X-11366477Y13245181D01*
X-10414096Y13245181D02*
X-10890286Y13245181D01*
X-10890286Y13245181D02*
X-10937905Y12768991D01*
X-10937905Y12768991D02*
X-10890286Y12816610D01*
X-10890286Y12816610D02*
X-10795048Y12864229D01*
X-10795048Y12864229D02*
X-10556953Y12864229D01*
X-10556953Y12864229D02*
X-10461715Y12816610D01*
X-10461715Y12816610D02*
X-10414096Y12768991D01*
X-10414096Y12768991D02*
X-10366477Y12673753D01*
X-10366477Y12673753D02*
X-10366477Y12435658D01*
X-10366477Y12435658D02*
X-10414096Y12340420D01*
X-10414096Y12340420D02*
X-10461715Y12292800D01*
X-10461715Y12292800D02*
X-10556953Y12245181D01*
X-10556953Y12245181D02*
X-10795048Y12245181D01*
X-10795048Y12245181D02*
X-10890286Y12292800D01*
X-10890286Y12292800D02*
X-10937905Y12340420D01*
X-17833181Y15581334D02*
X-18309372Y15248001D01*
X-17833181Y15009906D02*
X-18833181Y15009906D01*
X-18833181Y15009906D02*
X-18833181Y15390858D01*
X-18833181Y15390858D02*
X-18785562Y15486096D01*
X-18785562Y15486096D02*
X-18737943Y15533715D01*
X-18737943Y15533715D02*
X-18642705Y15581334D01*
X-18642705Y15581334D02*
X-18499848Y15581334D01*
X-18499848Y15581334D02*
X-18404610Y15533715D01*
X-18404610Y15533715D02*
X-18356991Y15486096D01*
X-18356991Y15486096D02*
X-18309372Y15390858D01*
X-18309372Y15390858D02*
X-18309372Y15009906D01*
X-18833181Y16486096D02*
X-18833181Y16009906D01*
X-18833181Y16009906D02*
X-18356991Y15962287D01*
X-18356991Y15962287D02*
X-18404610Y16009906D01*
X-18404610Y16009906D02*
X-18452229Y16105144D01*
X-18452229Y16105144D02*
X-18452229Y16343239D01*
X-18452229Y16343239D02*
X-18404610Y16438477D01*
X-18404610Y16438477D02*
X-18356991Y16486096D01*
X-18356991Y16486096D02*
X-18261753Y16533715D01*
X-18261753Y16533715D02*
X-18023658Y16533715D01*
X-18023658Y16533715D02*
X-17928420Y16486096D01*
X-17928420Y16486096D02*
X-17880800Y16438477D01*
X-17880800Y16438477D02*
X-17833181Y16343239D01*
X-17833181Y16343239D02*
X-17833181Y16105144D01*
X-17833181Y16105144D02*
X-17880800Y16009906D01*
X-17880800Y16009906D02*
X-17928420Y15962287D01*
X-9818667Y4879181D02*
X-10152000Y5355372D01*
X-10390095Y4879181D02*
X-10390095Y5879181D01*
X-10390095Y5879181D02*
X-10009143Y5879181D01*
X-10009143Y5879181D02*
X-9913905Y5831562D01*
X-9913905Y5831562D02*
X-9866286Y5783943D01*
X-9866286Y5783943D02*
X-9818667Y5688705D01*
X-9818667Y5688705D02*
X-9818667Y5545848D01*
X-9818667Y5545848D02*
X-9866286Y5450610D01*
X-9866286Y5450610D02*
X-9913905Y5402991D01*
X-9913905Y5402991D02*
X-10009143Y5355372D01*
X-10009143Y5355372D02*
X-10390095Y5355372D01*
X-8961524Y5545848D02*
X-8961524Y4879181D01*
X-9199619Y5926800D02*
X-9437714Y5212515D01*
X-9437714Y5212515D02*
X-8818667Y5212515D01*
X-17309181Y14970287D02*
X-17309181Y15541715D01*
X-16309181Y15256001D02*
X-17309181Y15256001D01*
X-16309181Y15875049D02*
X-17309181Y15875049D01*
X-16832991Y15875049D02*
X-16832991Y16446477D01*
X-16309181Y16446477D02*
X-17309181Y16446477D01*
X-16309181Y17446477D02*
X-16309181Y16875049D01*
X-16309181Y17160763D02*
X-17309181Y17160763D01*
X-17309181Y17160763D02*
X-17166324Y17065525D01*
X-17166324Y17065525D02*
X-17071086Y16970287D01*
X-17071086Y16970287D02*
X-17023467Y16875049D01*
X-24929181Y17018096D02*
X-24119658Y17018096D01*
X-24119658Y17018096D02*
X-24024420Y17065715D01*
X-24024420Y17065715D02*
X-23976800Y17113334D01*
X-23976800Y17113334D02*
X-23929181Y17208572D01*
X-23929181Y17208572D02*
X-23929181Y17399048D01*
X-23929181Y17399048D02*
X-23976800Y17494286D01*
X-23976800Y17494286D02*
X-24024420Y17541905D01*
X-24024420Y17541905D02*
X-24119658Y17589524D01*
X-24119658Y17589524D02*
X-24929181Y17589524D01*
X-23929181Y18589524D02*
X-23929181Y18018096D01*
X-23929181Y18303810D02*
X-24929181Y18303810D01*
X-24929181Y18303810D02*
X-24786324Y18208572D01*
X-24786324Y18208572D02*
X-24691086Y18113334D01*
X-24691086Y18113334D02*
X-24643467Y18018096D01*
X-2085181Y-3702333D02*
X-1370896Y-3702333D01*
X-1370896Y-3702333D02*
X-1228039Y-3749952D01*
X-1228039Y-3749952D02*
X-1132800Y-3845190D01*
X-1132800Y-3845190D02*
X-1085181Y-3988047D01*
X-1085181Y-3988047D02*
X-1085181Y-4083285D01*
X-1751848Y-2797571D02*
X-1085181Y-2797571D01*
X-2132800Y-3035666D02*
X-1418515Y-3273761D01*
X-1418515Y-3273761D02*
X-1418515Y-2654714D01*
X-22740858Y8022420D02*
X-22788477Y7974800D01*
X-22788477Y7974800D02*
X-22931334Y7927181D01*
X-22931334Y7927181D02*
X-23026572Y7927181D01*
X-23026572Y7927181D02*
X-23169429Y7974800D01*
X-23169429Y7974800D02*
X-23264667Y8070039D01*
X-23264667Y8070039D02*
X-23312286Y8165277D01*
X-23312286Y8165277D02*
X-23359905Y8355753D01*
X-23359905Y8355753D02*
X-23359905Y8498610D01*
X-23359905Y8498610D02*
X-23312286Y8689086D01*
X-23312286Y8689086D02*
X-23264667Y8784324D01*
X-23264667Y8784324D02*
X-23169429Y8879562D01*
X-23169429Y8879562D02*
X-23026572Y8927181D01*
X-23026572Y8927181D02*
X-22931334Y8927181D01*
X-22931334Y8927181D02*
X-22788477Y8879562D01*
X-22788477Y8879562D02*
X-22740858Y8831943D01*
X-21788477Y7927181D02*
X-22359905Y7927181D01*
X-22074191Y7927181D02*
X-22074191Y8927181D01*
X-22074191Y8927181D02*
X-22169429Y8784324D01*
X-22169429Y8784324D02*
X-22264667Y8689086D01*
X-22264667Y8689086D02*
X-22359905Y8641467D01*
X-21407524Y8831943D02*
X-21359905Y8879562D01*
X-21359905Y8879562D02*
X-21264667Y8927181D01*
X-21264667Y8927181D02*
X-21026572Y8927181D01*
X-21026572Y8927181D02*
X-20931334Y8879562D01*
X-20931334Y8879562D02*
X-20883715Y8831943D01*
X-20883715Y8831943D02*
X-20836096Y8736705D01*
X-20836096Y8736705D02*
X-20836096Y8641467D01*
X-20836096Y8641467D02*
X-20883715Y8498610D01*
X-20883715Y8498610D02*
X-21455143Y7927181D01*
X-21455143Y7927181D02*
X-20836096Y7927181D01*
X-8927181Y11938096D02*
X-8117658Y11938096D01*
X-8117658Y11938096D02*
X-8022420Y11985715D01*
X-8022420Y11985715D02*
X-7974800Y12033334D01*
X-7974800Y12033334D02*
X-7927181Y12128572D01*
X-7927181Y12128572D02*
X-7927181Y12319048D01*
X-7927181Y12319048D02*
X-7974800Y12414286D01*
X-7974800Y12414286D02*
X-8022420Y12461905D01*
X-8022420Y12461905D02*
X-8117658Y12509524D01*
X-8117658Y12509524D02*
X-8927181Y12509524D01*
X-8927181Y13414286D02*
X-8927181Y13223810D01*
X-8927181Y13223810D02*
X-8879562Y13128572D01*
X-8879562Y13128572D02*
X-8831943Y13080953D01*
X-8831943Y13080953D02*
X-8689086Y12985715D01*
X-8689086Y12985715D02*
X-8498610Y12938096D01*
X-8498610Y12938096D02*
X-8117658Y12938096D01*
X-8117658Y12938096D02*
X-8022420Y12985715D01*
X-8022420Y12985715D02*
X-7974800Y13033334D01*
X-7974800Y13033334D02*
X-7927181Y13128572D01*
X-7927181Y13128572D02*
X-7927181Y13319048D01*
X-7927181Y13319048D02*
X-7974800Y13414286D01*
X-7974800Y13414286D02*
X-8022420Y13461905D01*
X-8022420Y13461905D02*
X-8117658Y13509524D01*
X-8117658Y13509524D02*
X-8355753Y13509524D01*
X-8355753Y13509524D02*
X-8450991Y13461905D01*
X-8450991Y13461905D02*
X-8498610Y13414286D01*
X-8498610Y13414286D02*
X-8546229Y13319048D01*
X-8546229Y13319048D02*
X-8546229Y13128572D01*
X-8546229Y13128572D02*
X-8498610Y13033334D01*
X-8498610Y13033334D02*
X-8450991Y12985715D01*
X-8450991Y12985715D02*
X-8355753Y12938096D01*
X-8927181Y24384096D02*
X-8117658Y24384096D01*
X-8117658Y24384096D02*
X-8022420Y24431715D01*
X-8022420Y24431715D02*
X-7974800Y24479334D01*
X-7974800Y24479334D02*
X-7927181Y24574572D01*
X-7927181Y24574572D02*
X-7927181Y24765048D01*
X-7927181Y24765048D02*
X-7974800Y24860286D01*
X-7974800Y24860286D02*
X-8022420Y24907905D01*
X-8022420Y24907905D02*
X-8117658Y24955524D01*
X-8117658Y24955524D02*
X-8927181Y24955524D01*
X-8927181Y25336477D02*
X-8927181Y25955524D01*
X-8927181Y25955524D02*
X-8546229Y25622191D01*
X-8546229Y25622191D02*
X-8546229Y25765048D01*
X-8546229Y25765048D02*
X-8498610Y25860286D01*
X-8498610Y25860286D02*
X-8450991Y25907905D01*
X-8450991Y25907905D02*
X-8355753Y25955524D01*
X-8355753Y25955524D02*
X-8117658Y25955524D01*
X-8117658Y25955524D02*
X-8022420Y25907905D01*
X-8022420Y25907905D02*
X-7974800Y25860286D01*
X-7974800Y25860286D02*
X-7927181Y25765048D01*
X-7927181Y25765048D02*
X-7927181Y25479334D01*
X-7927181Y25479334D02*
X-7974800Y25384096D01*
X-7974800Y25384096D02*
X-8022420Y25336477D01*
X-17928420Y6437334D02*
X-17880800Y6389715D01*
X-17880800Y6389715D02*
X-17833181Y6246858D01*
X-17833181Y6246858D02*
X-17833181Y6151620D01*
X-17833181Y6151620D02*
X-17880800Y6008763D01*
X-17880800Y6008763D02*
X-17976039Y5913525D01*
X-17976039Y5913525D02*
X-18071277Y5865906D01*
X-18071277Y5865906D02*
X-18261753Y5818287D01*
X-18261753Y5818287D02*
X-18404610Y5818287D01*
X-18404610Y5818287D02*
X-18595086Y5865906D01*
X-18595086Y5865906D02*
X-18690324Y5913525D01*
X-18690324Y5913525D02*
X-18785562Y6008763D01*
X-18785562Y6008763D02*
X-18833181Y6151620D01*
X-18833181Y6151620D02*
X-18833181Y6246858D01*
X-18833181Y6246858D02*
X-18785562Y6389715D01*
X-18785562Y6389715D02*
X-18737943Y6437334D01*
X-18833181Y7342096D02*
X-18833181Y6865906D01*
X-18833181Y6865906D02*
X-18356991Y6818287D01*
X-18356991Y6818287D02*
X-18404610Y6865906D01*
X-18404610Y6865906D02*
X-18452229Y6961144D01*
X-18452229Y6961144D02*
X-18452229Y7199239D01*
X-18452229Y7199239D02*
X-18404610Y7294477D01*
X-18404610Y7294477D02*
X-18356991Y7342096D01*
X-18356991Y7342096D02*
X-18261753Y7389715D01*
X-18261753Y7389715D02*
X-18023658Y7389715D01*
X-18023658Y7389715D02*
X-17928420Y7342096D01*
X-17928420Y7342096D02*
X-17880800Y7294477D01*
X-17880800Y7294477D02*
X-17833181Y7199239D01*
X-17833181Y7199239D02*
X-17833181Y6961144D01*
X-17833181Y6961144D02*
X-17880800Y6865906D01*
X-17880800Y6865906D02*
X-17928420Y6818287D01*
X-8294667Y31898420D02*
X-8342286Y31850800D01*
X-8342286Y31850800D02*
X-8485143Y31803181D01*
X-8485143Y31803181D02*
X-8580381Y31803181D01*
X-8580381Y31803181D02*
X-8723238Y31850800D01*
X-8723238Y31850800D02*
X-8818476Y31946039D01*
X-8818476Y31946039D02*
X-8866095Y32041277D01*
X-8866095Y32041277D02*
X-8913714Y32231753D01*
X-8913714Y32231753D02*
X-8913714Y32374610D01*
X-8913714Y32374610D02*
X-8866095Y32565086D01*
X-8866095Y32565086D02*
X-8818476Y32660324D01*
X-8818476Y32660324D02*
X-8723238Y32755562D01*
X-8723238Y32755562D02*
X-8580381Y32803181D01*
X-8580381Y32803181D02*
X-8485143Y32803181D01*
X-8485143Y32803181D02*
X-8342286Y32755562D01*
X-8342286Y32755562D02*
X-8294667Y32707943D01*
X-7913714Y32707943D02*
X-7866095Y32755562D01*
X-7866095Y32755562D02*
X-7770857Y32803181D01*
X-7770857Y32803181D02*
X-7532762Y32803181D01*
X-7532762Y32803181D02*
X-7437524Y32755562D01*
X-7437524Y32755562D02*
X-7389905Y32707943D01*
X-7389905Y32707943D02*
X-7342286Y32612705D01*
X-7342286Y32612705D02*
X-7342286Y32517467D01*
X-7342286Y32517467D02*
X-7389905Y32374610D01*
X-7389905Y32374610D02*
X-7961333Y31803181D01*
X-7961333Y31803181D02*
X-7342286Y31803181D01*
X2724666Y25426181D02*
X2724666Y24711896D01*
X2724666Y24711896D02*
X2677047Y24569039D01*
X2677047Y24569039D02*
X2581809Y24473800D01*
X2581809Y24473800D02*
X2438952Y24426181D01*
X2438952Y24426181D02*
X2343714Y24426181D01*
X3724666Y24426181D02*
X3153238Y24426181D01*
X3438952Y24426181D02*
X3438952Y25426181D01*
X3438952Y25426181D02*
X3343714Y25283324D01*
X3343714Y25283324D02*
X3248476Y25188086D01*
X3248476Y25188086D02*
X3153238Y25140467D01*
X2724666Y20346181D02*
X2724666Y19631896D01*
X2724666Y19631896D02*
X2677047Y19489039D01*
X2677047Y19489039D02*
X2581809Y19393800D01*
X2581809Y19393800D02*
X2438952Y19346181D01*
X2438952Y19346181D02*
X2343714Y19346181D01*
X3105619Y20346181D02*
X3772285Y20346181D01*
X3772285Y20346181D02*
X3343714Y19346181D01*
X-29598858Y21644420D02*
X-29646477Y21596800D01*
X-29646477Y21596800D02*
X-29789334Y21549181D01*
X-29789334Y21549181D02*
X-29884572Y21549181D01*
X-29884572Y21549181D02*
X-30027429Y21596800D01*
X-30027429Y21596800D02*
X-30122667Y21692039D01*
X-30122667Y21692039D02*
X-30170286Y21787277D01*
X-30170286Y21787277D02*
X-30217905Y21977753D01*
X-30217905Y21977753D02*
X-30217905Y22120610D01*
X-30217905Y22120610D02*
X-30170286Y22311086D01*
X-30170286Y22311086D02*
X-30122667Y22406324D01*
X-30122667Y22406324D02*
X-30027429Y22501562D01*
X-30027429Y22501562D02*
X-29884572Y22549181D01*
X-29884572Y22549181D02*
X-29789334Y22549181D01*
X-29789334Y22549181D02*
X-29646477Y22501562D01*
X-29646477Y22501562D02*
X-29598858Y22453943D01*
X-28646477Y21549181D02*
X-29217905Y21549181D01*
X-28932191Y21549181D02*
X-28932191Y22549181D01*
X-28932191Y22549181D02*
X-29027429Y22406324D01*
X-29027429Y22406324D02*
X-29122667Y22311086D01*
X-29122667Y22311086D02*
X-29217905Y22263467D01*
X-28027429Y22549181D02*
X-27932191Y22549181D01*
X-27932191Y22549181D02*
X-27836953Y22501562D01*
X-27836953Y22501562D02*
X-27789334Y22453943D01*
X-27789334Y22453943D02*
X-27741715Y22358705D01*
X-27741715Y22358705D02*
X-27694096Y22168229D01*
X-27694096Y22168229D02*
X-27694096Y21930134D01*
X-27694096Y21930134D02*
X-27741715Y21739658D01*
X-27741715Y21739658D02*
X-27789334Y21644420D01*
X-27789334Y21644420D02*
X-27836953Y21596800D01*
X-27836953Y21596800D02*
X-27932191Y21549181D01*
X-27932191Y21549181D02*
X-28027429Y21549181D01*
X-28027429Y21549181D02*
X-28122667Y21596800D01*
X-28122667Y21596800D02*
X-28170286Y21644420D01*
X-28170286Y21644420D02*
X-28217905Y21739658D01*
X-28217905Y21739658D02*
X-28265524Y21930134D01*
X-28265524Y21930134D02*
X-28265524Y22168229D01*
X-28265524Y22168229D02*
X-28217905Y22358705D01*
X-28217905Y22358705D02*
X-28170286Y22453943D01*
X-28170286Y22453943D02*
X-28122667Y22501562D01*
X-28122667Y22501562D02*
X-28027429Y22549181D01*
X-1944667Y29866420D02*
X-1992286Y29818800D01*
X-1992286Y29818800D02*
X-2135143Y29771181D01*
X-2135143Y29771181D02*
X-2230381Y29771181D01*
X-2230381Y29771181D02*
X-2373238Y29818800D01*
X-2373238Y29818800D02*
X-2468476Y29914039D01*
X-2468476Y29914039D02*
X-2516095Y30009277D01*
X-2516095Y30009277D02*
X-2563714Y30199753D01*
X-2563714Y30199753D02*
X-2563714Y30342610D01*
X-2563714Y30342610D02*
X-2516095Y30533086D01*
X-2516095Y30533086D02*
X-2468476Y30628324D01*
X-2468476Y30628324D02*
X-2373238Y30723562D01*
X-2373238Y30723562D02*
X-2230381Y30771181D01*
X-2230381Y30771181D02*
X-2135143Y30771181D01*
X-2135143Y30771181D02*
X-1992286Y30723562D01*
X-1992286Y30723562D02*
X-1944667Y30675943D01*
X-1611333Y30771181D02*
X-992286Y30771181D01*
X-992286Y30771181D02*
X-1325619Y30390229D01*
X-1325619Y30390229D02*
X-1182762Y30390229D01*
X-1182762Y30390229D02*
X-1087524Y30342610D01*
X-1087524Y30342610D02*
X-1039905Y30294991D01*
X-1039905Y30294991D02*
X-992286Y30199753D01*
X-992286Y30199753D02*
X-992286Y29961658D01*
X-992286Y29961658D02*
X-1039905Y29866420D01*
X-1039905Y29866420D02*
X-1087524Y29818800D01*
X-1087524Y29818800D02*
X-1182762Y29771181D01*
X-1182762Y29771181D02*
X-1468476Y29771181D01*
X-1468476Y29771181D02*
X-1563714Y29818800D01*
X-1563714Y29818800D02*
X-1611333Y29866420D01*
X-25058667Y13737420D02*
X-25106286Y13689800D01*
X-25106286Y13689800D02*
X-25249143Y13642181D01*
X-25249143Y13642181D02*
X-25344381Y13642181D01*
X-25344381Y13642181D02*
X-25487238Y13689800D01*
X-25487238Y13689800D02*
X-25582476Y13785039D01*
X-25582476Y13785039D02*
X-25630095Y13880277D01*
X-25630095Y13880277D02*
X-25677714Y14070753D01*
X-25677714Y14070753D02*
X-25677714Y14213610D01*
X-25677714Y14213610D02*
X-25630095Y14404086D01*
X-25630095Y14404086D02*
X-25582476Y14499324D01*
X-25582476Y14499324D02*
X-25487238Y14594562D01*
X-25487238Y14594562D02*
X-25344381Y14642181D01*
X-25344381Y14642181D02*
X-25249143Y14642181D01*
X-25249143Y14642181D02*
X-25106286Y14594562D01*
X-25106286Y14594562D02*
X-25058667Y14546943D01*
X-24106286Y13642181D02*
X-24677714Y13642181D01*
X-24392000Y13642181D02*
X-24392000Y14642181D01*
X-24392000Y14642181D02*
X-24487238Y14499324D01*
X-24487238Y14499324D02*
X-24582476Y14404086D01*
X-24582476Y14404086D02*
X-24677714Y14356467D01*
X-402420Y7707334D02*
X-354800Y7659715D01*
X-354800Y7659715D02*
X-307181Y7516858D01*
X-307181Y7516858D02*
X-307181Y7421620D01*
X-307181Y7421620D02*
X-354800Y7278763D01*
X-354800Y7278763D02*
X-450039Y7183525D01*
X-450039Y7183525D02*
X-545277Y7135906D01*
X-545277Y7135906D02*
X-735753Y7088287D01*
X-735753Y7088287D02*
X-878610Y7088287D01*
X-878610Y7088287D02*
X-1069086Y7135906D01*
X-1069086Y7135906D02*
X-1164324Y7183525D01*
X-1164324Y7183525D02*
X-1259562Y7278763D01*
X-1259562Y7278763D02*
X-1307181Y7421620D01*
X-1307181Y7421620D02*
X-1307181Y7516858D01*
X-1307181Y7516858D02*
X-1259562Y7659715D01*
X-1259562Y7659715D02*
X-1211943Y7707334D01*
X-878610Y8278763D02*
X-926229Y8183525D01*
X-926229Y8183525D02*
X-973848Y8135906D01*
X-973848Y8135906D02*
X-1069086Y8088287D01*
X-1069086Y8088287D02*
X-1116705Y8088287D01*
X-1116705Y8088287D02*
X-1211943Y8135906D01*
X-1211943Y8135906D02*
X-1259562Y8183525D01*
X-1259562Y8183525D02*
X-1307181Y8278763D01*
X-1307181Y8278763D02*
X-1307181Y8469239D01*
X-1307181Y8469239D02*
X-1259562Y8564477D01*
X-1259562Y8564477D02*
X-1211943Y8612096D01*
X-1211943Y8612096D02*
X-1116705Y8659715D01*
X-1116705Y8659715D02*
X-1069086Y8659715D01*
X-1069086Y8659715D02*
X-973848Y8612096D01*
X-973848Y8612096D02*
X-926229Y8564477D01*
X-926229Y8564477D02*
X-878610Y8469239D01*
X-878610Y8469239D02*
X-878610Y8278763D01*
X-878610Y8278763D02*
X-830991Y8183525D01*
X-830991Y8183525D02*
X-783372Y8135906D01*
X-783372Y8135906D02*
X-688134Y8088287D01*
X-688134Y8088287D02*
X-497658Y8088287D01*
X-497658Y8088287D02*
X-402420Y8135906D01*
X-402420Y8135906D02*
X-354800Y8183525D01*
X-354800Y8183525D02*
X-307181Y8278763D01*
X-307181Y8278763D02*
X-307181Y8469239D01*
X-307181Y8469239D02*
X-354800Y8564477D01*
X-354800Y8564477D02*
X-402420Y8612096D01*
X-402420Y8612096D02*
X-497658Y8659715D01*
X-497658Y8659715D02*
X-688134Y8659715D01*
X-688134Y8659715D02*
X-783372Y8612096D01*
X-783372Y8612096D02*
X-830991Y8564477D01*
X-830991Y8564477D02*
X-878610Y8469239D01*
X-29138477Y8943181D02*
X-29471810Y9419372D01*
X-29709905Y8943181D02*
X-29709905Y9943181D01*
X-29709905Y9943181D02*
X-29328953Y9943181D01*
X-29328953Y9943181D02*
X-29233715Y9895562D01*
X-29233715Y9895562D02*
X-29186096Y9847943D01*
X-29186096Y9847943D02*
X-29138477Y9752705D01*
X-29138477Y9752705D02*
X-29138477Y9609848D01*
X-29138477Y9609848D02*
X-29186096Y9514610D01*
X-29186096Y9514610D02*
X-29233715Y9466991D01*
X-29233715Y9466991D02*
X-29328953Y9419372D01*
X-29328953Y9419372D02*
X-29709905Y9419372D01*
X-28709905Y8943181D02*
X-28709905Y9943181D01*
X-28709905Y9943181D02*
X-28138477Y8943181D01*
X-28138477Y8943181D02*
X-28138477Y9943181D01*
X-27757524Y9943181D02*
X-27138477Y9943181D01*
X-27138477Y9943181D02*
X-27471810Y9562229D01*
X-27471810Y9562229D02*
X-27328953Y9562229D01*
X-27328953Y9562229D02*
X-27233715Y9514610D01*
X-27233715Y9514610D02*
X-27186096Y9466991D01*
X-27186096Y9466991D02*
X-27138477Y9371753D01*
X-27138477Y9371753D02*
X-27138477Y9133658D01*
X-27138477Y9133658D02*
X-27186096Y9038420D01*
X-27186096Y9038420D02*
X-27233715Y8990800D01*
X-27233715Y8990800D02*
X-27328953Y8943181D01*
X-27328953Y8943181D02*
X-27614667Y8943181D01*
X-27614667Y8943181D02*
X-27709905Y8990800D01*
X-27709905Y8990800D02*
X-27757524Y9038420D01*
X-27748581Y8356601D02*
X-27510486Y8356601D01*
X-27605724Y8118506D02*
X-27510486Y8356601D01*
X-27510486Y8356601D02*
X-27605724Y8594696D01*
X-27320010Y8213744D02*
X-27510486Y8356601D01*
X-27510486Y8356601D02*
X-27320010Y8499458D01*
X-27748581Y8356601D02*
X-27510486Y8356601D01*
X-27605724Y8118506D02*
X-27510486Y8356601D01*
X-27510486Y8356601D02*
X-27605724Y8594696D01*
X-27320010Y8213744D02*
X-27510486Y8356601D01*
X-27510486Y8356601D02*
X-27320010Y8499458D01*
X-1577181Y7707334D02*
X-2053372Y7374001D01*
X-1577181Y7135906D02*
X-2577181Y7135906D01*
X-2577181Y7135906D02*
X-2577181Y7516858D01*
X-2577181Y7516858D02*
X-2529562Y7612096D01*
X-2529562Y7612096D02*
X-2481943Y7659715D01*
X-2481943Y7659715D02*
X-2386705Y7707334D01*
X-2386705Y7707334D02*
X-2243848Y7707334D01*
X-2243848Y7707334D02*
X-2148610Y7659715D01*
X-2148610Y7659715D02*
X-2100991Y7612096D01*
X-2100991Y7612096D02*
X-2053372Y7516858D01*
X-2053372Y7516858D02*
X-2053372Y7135906D01*
X-2577181Y8040668D02*
X-2577181Y8659715D01*
X-2577181Y8659715D02*
X-2196229Y8326382D01*
X-2196229Y8326382D02*
X-2196229Y8469239D01*
X-2196229Y8469239D02*
X-2148610Y8564477D01*
X-2148610Y8564477D02*
X-2100991Y8612096D01*
X-2100991Y8612096D02*
X-2005753Y8659715D01*
X-2005753Y8659715D02*
X-1767658Y8659715D01*
X-1767658Y8659715D02*
X-1672420Y8612096D01*
X-1672420Y8612096D02*
X-1624800Y8564477D01*
X-1624800Y8564477D02*
X-1577181Y8469239D01*
X-1577181Y8469239D02*
X-1577181Y8183525D01*
X-1577181Y8183525D02*
X-1624800Y8088287D01*
X-1624800Y8088287D02*
X-1672420Y8040668D01*
X-1944667Y31041181D02*
X-2278000Y31517372D01*
X-2516095Y31041181D02*
X-2516095Y32041181D01*
X-2516095Y32041181D02*
X-2135143Y32041181D01*
X-2135143Y32041181D02*
X-2039905Y31993562D01*
X-2039905Y31993562D02*
X-1992286Y31945943D01*
X-1992286Y31945943D02*
X-1944667Y31850705D01*
X-1944667Y31850705D02*
X-1944667Y31707848D01*
X-1944667Y31707848D02*
X-1992286Y31612610D01*
X-1992286Y31612610D02*
X-2039905Y31564991D01*
X-2039905Y31564991D02*
X-2135143Y31517372D01*
X-2135143Y31517372D02*
X-2516095Y31517372D01*
X-1563714Y31945943D02*
X-1516095Y31993562D01*
X-1516095Y31993562D02*
X-1420857Y32041181D01*
X-1420857Y32041181D02*
X-1182762Y32041181D01*
X-1182762Y32041181D02*
X-1087524Y31993562D01*
X-1087524Y31993562D02*
X-1039905Y31945943D01*
X-1039905Y31945943D02*
X-992286Y31850705D01*
X-992286Y31850705D02*
X-992286Y31755467D01*
X-992286Y31755467D02*
X-1039905Y31612610D01*
X-1039905Y31612610D02*
X-1611333Y31041181D01*
X-1611333Y31041181D02*
X-992286Y31041181D01*
X-6008667Y31803181D02*
X-6342000Y32279372D01*
X-6580095Y31803181D02*
X-6580095Y32803181D01*
X-6580095Y32803181D02*
X-6199143Y32803181D01*
X-6199143Y32803181D02*
X-6103905Y32755562D01*
X-6103905Y32755562D02*
X-6056286Y32707943D01*
X-6056286Y32707943D02*
X-6008667Y32612705D01*
X-6008667Y32612705D02*
X-6008667Y32469848D01*
X-6008667Y32469848D02*
X-6056286Y32374610D01*
X-6056286Y32374610D02*
X-6103905Y32326991D01*
X-6103905Y32326991D02*
X-6199143Y32279372D01*
X-6199143Y32279372D02*
X-6580095Y32279372D01*
X-5056286Y31803181D02*
X-5627714Y31803181D01*
X-5342000Y31803181D02*
X-5342000Y32803181D01*
X-5342000Y32803181D02*
X-5437238Y32660324D01*
X-5437238Y32660324D02*
X-5532476Y32565086D01*
X-5532476Y32565086D02*
X-5627714Y32517467D01*
X-25479334Y34625181D02*
X-25479334Y33910896D01*
X-25479334Y33910896D02*
X-25526953Y33768039D01*
X-25526953Y33768039D02*
X-25622191Y33672800D01*
X-25622191Y33672800D02*
X-25765048Y33625181D01*
X-25765048Y33625181D02*
X-25860286Y33625181D01*
X-25098381Y34625181D02*
X-24479334Y34625181D01*
X-24479334Y34625181D02*
X-24812667Y34244229D01*
X-24812667Y34244229D02*
X-24669810Y34244229D01*
X-24669810Y34244229D02*
X-24574572Y34196610D01*
X-24574572Y34196610D02*
X-24526953Y34148991D01*
X-24526953Y34148991D02*
X-24479334Y34053753D01*
X-24479334Y34053753D02*
X-24479334Y33815658D01*
X-24479334Y33815658D02*
X-24526953Y33720420D01*
X-24526953Y33720420D02*
X-24574572Y33672800D01*
X-24574572Y33672800D02*
X-24669810Y33625181D01*
X-24669810Y33625181D02*
X-24955524Y33625181D01*
X-24955524Y33625181D02*
X-25050762Y33672800D01*
X-25050762Y33672800D02*
X-25098381Y33720420D01*
X-9818667Y7768420D02*
X-9866286Y7720800D01*
X-9866286Y7720800D02*
X-10009143Y7673181D01*
X-10009143Y7673181D02*
X-10104381Y7673181D01*
X-10104381Y7673181D02*
X-10247238Y7720800D01*
X-10247238Y7720800D02*
X-10342476Y7816039D01*
X-10342476Y7816039D02*
X-10390095Y7911277D01*
X-10390095Y7911277D02*
X-10437714Y8101753D01*
X-10437714Y8101753D02*
X-10437714Y8244610D01*
X-10437714Y8244610D02*
X-10390095Y8435086D01*
X-10390095Y8435086D02*
X-10342476Y8530324D01*
X-10342476Y8530324D02*
X-10247238Y8625562D01*
X-10247238Y8625562D02*
X-10104381Y8673181D01*
X-10104381Y8673181D02*
X-10009143Y8673181D01*
X-10009143Y8673181D02*
X-9866286Y8625562D01*
X-9866286Y8625562D02*
X-9818667Y8577943D01*
X-9342476Y7673181D02*
X-9152000Y7673181D01*
X-9152000Y7673181D02*
X-9056762Y7720800D01*
X-9056762Y7720800D02*
X-9009143Y7768420D01*
X-9009143Y7768420D02*
X-8913905Y7911277D01*
X-8913905Y7911277D02*
X-8866286Y8101753D01*
X-8866286Y8101753D02*
X-8866286Y8482705D01*
X-8866286Y8482705D02*
X-8913905Y8577943D01*
X-8913905Y8577943D02*
X-8961524Y8625562D01*
X-8961524Y8625562D02*
X-9056762Y8673181D01*
X-9056762Y8673181D02*
X-9247238Y8673181D01*
X-9247238Y8673181D02*
X-9342476Y8625562D01*
X-9342476Y8625562D02*
X-9390095Y8577943D01*
X-9390095Y8577943D02*
X-9437714Y8482705D01*
X-9437714Y8482705D02*
X-9437714Y8244610D01*
X-9437714Y8244610D02*
X-9390095Y8149372D01*
X-9390095Y8149372D02*
X-9342476Y8101753D01*
X-9342476Y8101753D02*
X-9247238Y8054134D01*
X-9247238Y8054134D02*
X-9056762Y8054134D01*
X-9056762Y8054134D02*
X-8961524Y8101753D01*
X-8961524Y8101753D02*
X-8913905Y8149372D01*
X-8913905Y8149372D02*
X-8866286Y8244610D01*
%TO.C,U2*%
X-14013000Y23911000D02*
X-14013000Y23861000D01*
X-14013000Y23911000D02*
X-9863000Y23911000D01*
X-14013000Y23861000D02*
X-15413000Y23861000D01*
X-14013000Y18761000D02*
X-14013000Y18906000D01*
X-14013000Y18761000D02*
X-9863000Y18761000D01*
X-9863000Y23911000D02*
X-9863000Y23766000D01*
X-9863000Y18761000D02*
X-9863000Y18906000D01*
%TO.C,U5*%
X-14013000Y18572000D02*
X-14013000Y18522000D01*
X-14013000Y18572000D02*
X-9863000Y18572000D01*
X-14013000Y18522000D02*
X-15413000Y18522000D01*
X-14013000Y13422000D02*
X-14013000Y13567000D01*
X-14013000Y13422000D02*
X-9863000Y13422000D01*
X-9863000Y18572000D02*
X-9863000Y18427000D01*
X-9863000Y13422000D02*
X-9863000Y13567000D01*
D15*
%TO.C,J2*%
X-21430000Y26673000D02*
X-20320000Y26673000D01*
X-21430000Y25913000D02*
X-21430000Y26673000D01*
X-21430000Y25153000D02*
X-21430000Y22678000D01*
X-21430000Y25153000D02*
X-20883471Y25153000D01*
X-21430000Y22678000D02*
X-20627530Y22678000D01*
X-20012470Y22678000D02*
X-19210000Y22678000D01*
X-19756529Y25153000D02*
X-19210000Y25153000D01*
X-19210000Y25153000D02*
X-19210000Y22678000D01*
%TO.C,R5*%
X-18810500Y18558742D02*
X-18810500Y19033258D01*
X-17765500Y18558742D02*
X-17765500Y19033258D01*
%TO.C,C6*%
X-2030000Y21476580D02*
X-2030000Y21195420D01*
X-3050000Y21476580D02*
X-3050000Y21195420D01*
%TO.C,R4*%
X-6366742Y6081500D02*
X-6841258Y6081500D01*
X-6366742Y7126500D02*
X-6841258Y7126500D01*
%TO.C,TH1*%
X-16241500Y19033258D02*
X-16241500Y18558742D01*
X-17286500Y19033258D02*
X-17286500Y18558742D01*
%TO.C,U1*%
X-25991000Y18796000D02*
X-25991000Y15196000D01*
X-25991000Y18796000D02*
X-25991000Y20996000D01*
X-19221000Y18796000D02*
X-19221000Y16596000D01*
X-19221000Y18796000D02*
X-19221000Y20996000D01*
%TO.C,D5*%
X-28421000Y10453000D02*
X-26951000Y10453000D01*
X-26951000Y10453000D02*
X-26951000Y12738000D01*
X-28421000Y12738000D02*
X-28421000Y10453000D01*
%TO.C,J4*%
X-2540000Y2286000D02*
X-2540000Y1016000D01*
X-3810000Y2286000D02*
X-2540000Y2286000D01*
X-5970000Y-26929D02*
X-5970000Y-424000D01*
X-6730000Y-26929D02*
X-6730000Y-424000D01*
X-3430000Y-94000D02*
X-3430000Y-424000D01*
X-4190000Y-94000D02*
X-4190000Y-424000D01*
X-2480000Y-424000D02*
X-7680000Y-424000D01*
X-5080000Y-424000D02*
X-5080000Y-3084000D01*
X-7680000Y-424000D02*
X-7680000Y-3084000D01*
X-2480000Y-3084000D02*
X-2480000Y-424000D01*
X-3430000Y-3084000D02*
X-3430000Y-9084000D01*
X-3490000Y-3084000D02*
X-3490000Y-9084000D01*
X-3610000Y-3084000D02*
X-3610000Y-9084000D01*
X-3730000Y-3084000D02*
X-3730000Y-9084000D01*
X-3850000Y-3084000D02*
X-3850000Y-9084000D01*
X-3970000Y-3084000D02*
X-3970000Y-9084000D01*
X-4090000Y-3084000D02*
X-4090000Y-9084000D01*
X-5970000Y-3084000D02*
X-5970000Y-9084000D01*
X-7680000Y-3084000D02*
X-2480000Y-3084000D01*
X-3430000Y-9084000D02*
X-4190000Y-9084000D01*
X-4190000Y-9084000D02*
X-4190000Y-3084000D01*
X-5970000Y-9084000D02*
X-6730000Y-9084000D01*
X-6730000Y-9084000D02*
X-6730000Y-3084000D01*
%TO.C,D2*%
X-23849000Y10453000D02*
X-22379000Y10453000D01*
X-22379000Y10453000D02*
X-22379000Y12738000D01*
X-23849000Y12738000D02*
X-23849000Y10453000D01*
%TO.C,C12*%
X-24137252Y7847000D02*
X-23614748Y7847000D01*
X-24137252Y6377000D02*
X-23614748Y6377000D01*
%TO.C,U6*%
X-2774000Y12446000D02*
X-2774000Y15896000D01*
X-2774000Y12446000D02*
X-2774000Y10496000D01*
X-7894000Y12446000D02*
X-7894000Y14396000D01*
X-7894000Y12446000D02*
X-7894000Y10496000D01*
%TO.C,D1*%
X-25373000Y10453000D02*
X-23903000Y10453000D01*
X-23903000Y10453000D02*
X-23903000Y12738000D01*
X-25373000Y12738000D02*
X-25373000Y10453000D01*
%TO.C,U3*%
X-7894000Y25146000D02*
X-7894000Y21696000D01*
X-7894000Y25146000D02*
X-7894000Y27096000D01*
X-2774000Y25146000D02*
X-2774000Y23196000D01*
X-2774000Y25146000D02*
X-2774000Y27096000D01*
%TO.C,C5*%
X-16476000Y-246000D02*
X-16476000Y1004000D01*
X-17101000Y379000D02*
X-15851000Y379000D01*
X-18011563Y1244000D02*
X-15226000Y1244000D01*
X-18011563Y1244000D02*
X-19076000Y2308437D01*
X-9420437Y1244000D02*
X-12206000Y1244000D01*
X-9420437Y1244000D02*
X-8356000Y2308437D01*
X-19076000Y2308437D02*
X-19076000Y11964000D01*
X-8356000Y2308437D02*
X-8356000Y11964000D01*
X-19076000Y11964000D02*
X-15226000Y11964000D01*
X-8356000Y11964000D02*
X-12206000Y11964000D01*
%TO.C,C2*%
X-7876000Y30085420D02*
X-7876000Y30366580D01*
X-6856000Y30085420D02*
X-6856000Y30366580D01*
%TO.C,J1*%
X-2597000Y23881000D02*
X-1327000Y23881000D01*
X-2597000Y22611000D02*
X-2597000Y23881000D01*
X-284071Y20451000D02*
X113000Y20451000D01*
X-284071Y19691000D02*
X113000Y19691000D01*
X-217000Y22991000D02*
X113000Y22991000D01*
X-217000Y22231000D02*
X113000Y22231000D01*
X113000Y23941000D02*
X113000Y18741000D01*
X113000Y21341000D02*
X2773000Y21341000D01*
X113000Y18741000D02*
X2773000Y18741000D01*
X2773000Y23941000D02*
X113000Y23941000D01*
X2773000Y22991000D02*
X8773000Y22991000D01*
X2773000Y22931000D02*
X8773000Y22931000D01*
X2773000Y22811000D02*
X8773000Y22811000D01*
X2773000Y22691000D02*
X8773000Y22691000D01*
X2773000Y22571000D02*
X8773000Y22571000D01*
X2773000Y22451000D02*
X8773000Y22451000D01*
X2773000Y22331000D02*
X8773000Y22331000D01*
X2773000Y20451000D02*
X8773000Y20451000D01*
X2773000Y18741000D02*
X2773000Y23941000D01*
X8773000Y22991000D02*
X8773000Y22231000D01*
X8773000Y22231000D02*
X2773000Y22231000D01*
X8773000Y20451000D02*
X8773000Y19691000D01*
X8773000Y19691000D02*
X2773000Y19691000D01*
%TO.C,J7*%
X-2597000Y18801000D02*
X-1327000Y18801000D01*
X-2597000Y17531000D02*
X-2597000Y18801000D01*
X-284071Y15371000D02*
X113000Y15371000D01*
X-284071Y14611000D02*
X113000Y14611000D01*
X-217000Y17911000D02*
X113000Y17911000D01*
X-217000Y17151000D02*
X113000Y17151000D01*
X113000Y18861000D02*
X113000Y13661000D01*
X113000Y16261000D02*
X2773000Y16261000D01*
X113000Y13661000D02*
X2773000Y13661000D01*
X2773000Y18861000D02*
X113000Y18861000D01*
X2773000Y17911000D02*
X8773000Y17911000D01*
X2773000Y17851000D02*
X8773000Y17851000D01*
X2773000Y17731000D02*
X8773000Y17731000D01*
X2773000Y17611000D02*
X8773000Y17611000D01*
X2773000Y17491000D02*
X8773000Y17491000D01*
X2773000Y17371000D02*
X8773000Y17371000D01*
X2773000Y17251000D02*
X8773000Y17251000D01*
X2773000Y15371000D02*
X8773000Y15371000D01*
X2773000Y13661000D02*
X2773000Y18861000D01*
X8773000Y17911000D02*
X8773000Y17151000D01*
X8773000Y17151000D02*
X2773000Y17151000D01*
X8773000Y15371000D02*
X8773000Y14611000D01*
X8773000Y14611000D02*
X2773000Y14611000D01*
%TO.C,SW1*%
X-26236000Y18968000D02*
X-26886000Y18968000D01*
X-28486000Y18968000D02*
X-29136000Y18968000D01*
X-29136000Y18968000D02*
X-29136000Y15068000D01*
X-26236000Y15068000D02*
X-26236000Y18968000D01*
X-26236000Y15068000D02*
X-26886000Y15068000D01*
X-29136000Y15068000D02*
X-28486000Y15068000D01*
%TO.C,C10*%
X-27572580Y21084000D02*
X-27291420Y21084000D01*
X-27572580Y20064000D02*
X-27291420Y20064000D01*
%TO.C,C3*%
X-4204580Y29847000D02*
X-3923420Y29847000D01*
X-4204580Y28827000D02*
X-3923420Y28827000D01*
%TO.C,D4*%
X-26897000Y10453000D02*
X-25427000Y10453000D01*
X-25427000Y10453000D02*
X-25427000Y12738000D01*
X-26897000Y12738000D02*
X-26897000Y10453000D01*
%TO.C,J5*%
X-31964000Y8146000D02*
X-30544000Y8146000D01*
X-31964000Y-3574000D02*
X-31964000Y8146000D01*
X-30544000Y8146000D02*
X-30544000Y3646000D01*
X-30544000Y3646000D02*
X-25654000Y3646000D01*
X-29704000Y7836000D02*
X-29104000Y7836000D01*
X-29654000Y2536000D02*
X-29654000Y-2964000D01*
X-29654000Y-2964000D02*
X-29154000Y-2964000D01*
X-29404000Y7236000D02*
X-29704000Y7836000D01*
X-29154000Y2536000D02*
X-29654000Y2536000D01*
X-29154000Y-2964000D02*
X-29154000Y2536000D01*
X-29104000Y7836000D02*
X-29404000Y7236000D01*
X-27154000Y2536000D02*
X-27154000Y-2964000D01*
X-27154000Y-2964000D02*
X-26654000Y-2964000D01*
X-26654000Y2536000D02*
X-27154000Y2536000D01*
X-26654000Y-2964000D02*
X-26654000Y2536000D01*
X-25654000Y-3574000D02*
X-31964000Y-3574000D01*
X-25654000Y-3574000D02*
X-19344000Y-3574000D01*
X-24654000Y2536000D02*
X-24654000Y-2964000D01*
X-24654000Y-2964000D02*
X-24154000Y-2964000D01*
X-24154000Y2536000D02*
X-24654000Y2536000D01*
X-24154000Y-2964000D02*
X-24154000Y2536000D01*
X-22154000Y2536000D02*
X-22154000Y-2964000D01*
X-22154000Y-2964000D02*
X-21654000Y-2964000D01*
X-21654000Y2536000D02*
X-22154000Y2536000D01*
X-21654000Y-2964000D02*
X-21654000Y2536000D01*
X-20764000Y8146000D02*
X-20764000Y3646000D01*
X-20764000Y3646000D02*
X-25654000Y3646000D01*
X-19344000Y8146000D02*
X-20764000Y8146000D01*
X-19344000Y-3574000D02*
X-19344000Y8146000D01*
%TO.C,C1*%
X-22746580Y14734000D02*
X-22465420Y14734000D01*
X-22746580Y13714000D02*
X-22465420Y13714000D01*
%TO.C,C8*%
X-2792000Y7506580D02*
X-2792000Y7225420D01*
X-3812000Y7506580D02*
X-3812000Y7225420D01*
D16*
%TO.C,RN3*%
X-24218900Y8923865D02*
X-24218900Y9364135D01*
X-26581100Y9364135D02*
X-26581100Y8923865D01*
D15*
%TO.C,R3*%
X-4049500Y7603258D02*
X-4049500Y7128742D01*
X-5094500Y7603258D02*
X-5094500Y7128742D01*
%TO.C,J6*%
X-23208000Y26673000D02*
X-22098000Y26673000D01*
X-23208000Y25913000D02*
X-23208000Y26673000D01*
X-23208000Y25153000D02*
X-23208000Y22678000D01*
X-23208000Y25153000D02*
X-22661471Y25153000D01*
X-23208000Y22678000D02*
X-22405530Y22678000D01*
X-21790470Y22678000D02*
X-20988000Y22678000D01*
X-21534529Y25153000D02*
X-20988000Y25153000D01*
X-20988000Y25153000D02*
X-20988000Y22678000D01*
%TO.C,R2*%
X-4301258Y31510500D02*
X-3826742Y31510500D01*
X-4301258Y30465500D02*
X-3826742Y30465500D01*
%TO.C,C11*%
X-2030000Y16396580D02*
X-2030000Y16115420D01*
X-3050000Y16396580D02*
X-3050000Y16115420D01*
%TO.C,R1*%
X-6618500Y29988742D02*
X-6618500Y30463258D01*
X-5573500Y29988742D02*
X-5573500Y30463258D01*
%TO.C,J3*%
X-26476000Y33080000D02*
X-25146000Y33080000D01*
X-26476000Y31750000D02*
X-26476000Y33080000D01*
X-26476000Y30480000D02*
X-26476000Y22800000D01*
X-26476000Y30480000D02*
X-23816000Y30480000D01*
X-26476000Y22800000D02*
X-23816000Y22800000D01*
X-23816000Y30480000D02*
X-23816000Y22800000D01*
%TO.C,JP3*%
X-20958000Y12938000D02*
X-18158000Y12938000D01*
X-20958000Y10938000D02*
X-20958000Y12938000D01*
X-18158000Y12938000D02*
X-18158000Y10938000D01*
X-18158000Y10938000D02*
X-20958000Y10938000D01*
%TO.C,C9*%
X-6463420Y7745000D02*
X-6744580Y7745000D01*
X-6463420Y8765000D02*
X-6744580Y8765000D01*
%TD*%
M02*
