%TF.GenerationSoftware,KiCad,Pcbnew,7.0.8*%
%TF.CreationDate,2024-06-01T15:01:05+09:00*%
%TF.ProjectId,BDCM_Driver_v1,4244434d-5f44-4726-9976-65725f76312e,rev?*%
%TF.SameCoordinates,PXaac6430PY8670810*%
%TF.FileFunction,Plated,1,4,PTH,Drill*%
%TF.FilePolarity,Positive*%
%FSLAX46Y46*%
G04 Gerber Fmt 4.6, Leading zero omitted, Abs format (unit mm)*
G04 Created by KiCad (PCBNEW 7.0.8) date 2024-06-01 15:01:05*
%MOMM*%
%LPD*%
G01*
G04 APERTURE LIST*
%TA.AperFunction,ComponentDrill*%
%ADD10C,0.330000*%
%TD*%
%TA.AperFunction,ViaDrill*%
%ADD11C,0.400000*%
%TD*%
%TA.AperFunction,ComponentDrill*%
%ADD12C,0.650000*%
%TD*%
%TA.AperFunction,ComponentDrill*%
%ADD13C,0.950000*%
%TD*%
%TA.AperFunction,ComponentDrill*%
%ADD14C,1.000000*%
%TD*%
G04 APERTURE END LIST*
D10*
%TO.C,U2*%
X-12588000Y22636000D03*
X-12588000Y21336000D03*
X-12588000Y20036000D03*
%TO.C,U5*%
X-12588000Y17297000D03*
X-12588000Y15997000D03*
X-12588000Y14697000D03*
%TO.C,U2*%
X-11288000Y22636000D03*
X-11288000Y21336000D03*
X-11288000Y20036000D03*
%TO.C,U5*%
X-11288000Y17297000D03*
X-11288000Y15997000D03*
X-11288000Y14697000D03*
%TD*%
D11*
X-31496000Y32512000D03*
X-31496000Y30734000D03*
X-31496000Y28956000D03*
X-31496000Y26670000D03*
X-31496000Y24638000D03*
X-31496000Y22352000D03*
X-31496000Y20320000D03*
X-31496000Y17272000D03*
X-31496000Y14478000D03*
X-31496000Y11938000D03*
X-31496000Y9144000D03*
X-31496000Y7112000D03*
X-31496000Y4826000D03*
X-31496000Y2794000D03*
X-31496000Y508000D03*
X-29464000Y32512000D03*
X-28956000Y508000D03*
X-28702000Y13716000D03*
X-27940000Y27940000D03*
X-27940000Y25654000D03*
X-27940000Y23114000D03*
X-27686000Y30734000D03*
X-26924000Y32512000D03*
X-26924000Y21336000D03*
X-25908000Y4064000D03*
X-25615097Y20028500D03*
X-25400000Y18288000D03*
X-25400000Y508000D03*
X-23368000Y32512000D03*
X-23368000Y20066000D03*
X-23368000Y18034000D03*
X-23368000Y4064000D03*
X-23114000Y9144000D03*
X-22606000Y27940000D03*
X-22098000Y29464000D03*
X-22030082Y1524000D03*
X-21844000Y19558000D03*
X-21209000Y25400000D03*
X-20641619Y14629420D03*
X-20574000Y508000D03*
X-20256500Y17939182D03*
X-20066000Y30988000D03*
X-20066000Y27940000D03*
X-20066000Y10160000D03*
X-20066000Y6604000D03*
X-19919040Y2419654D03*
X-19520500Y18695500D03*
X-19050000Y13970000D03*
X-18796000Y29972000D03*
X-18796000Y26670000D03*
X-18415000Y10414000D03*
X-18288000Y23368000D03*
X-18288000Y7620000D03*
X-18034000Y13081000D03*
X-17526000Y28194000D03*
X-17526000Y24892000D03*
X-17526000Y18796000D03*
X-16764000Y26670000D03*
X-16764000Y19621000D03*
X-16764000Y13970000D03*
X-16764000Y9271000D03*
X-16510000Y29972000D03*
X-16256000Y23368000D03*
X-15875000Y7620000D03*
X-15748000Y508000D03*
X-15621000Y10795000D03*
X-15240000Y28448000D03*
X-15240000Y25146000D03*
X-14732000Y12827000D03*
X-14732000Y8890000D03*
X-13970000Y24130000D03*
X-13716000Y29972000D03*
X-13716000Y26670000D03*
X-13716000Y4064000D03*
X-12700000Y12827000D03*
X-12700000Y8890000D03*
X-12192000Y28448000D03*
X-12192000Y25146000D03*
X-11938000Y20947084D03*
X-11938000Y18796000D03*
X-11934887Y16654768D03*
X-11934498Y15350691D03*
X-11930996Y22249993D03*
X-11176000Y23876000D03*
X-10922000Y29972000D03*
X-10922000Y26670000D03*
X-10668000Y30988000D03*
X-10033000Y7620000D03*
X-9652000Y25146000D03*
X-9398000Y28448000D03*
X-8636000Y29972000D03*
X-8382000Y26670000D03*
X-8308233Y21974184D03*
X-8255000Y14097000D03*
X-8128000Y19304000D03*
X-7822066Y31361176D03*
X-7366000Y29951500D03*
X-6350000Y6604000D03*
X-5334000Y4572000D03*
X-3556000Y5588000D03*
X-3302000Y32512000D03*
X-3302000Y27686000D03*
X-2286000Y32512000D03*
X-2286000Y26924000D03*
X-2286000Y11684000D03*
X-2286000Y9906000D03*
X-2032000Y29210000D03*
X-508000Y32512000D03*
X-508000Y30226000D03*
X-508000Y28194000D03*
X-508000Y26162000D03*
X-508000Y11430000D03*
X-508000Y9144000D03*
X-508000Y6858000D03*
X-508000Y4572000D03*
X-508000Y2540000D03*
X-508000Y508000D03*
D12*
%TO.C,J6*%
X-22098000Y25913000D03*
X-22098000Y24643000D03*
X-22098000Y23373000D03*
%TO.C,J2*%
X-20320000Y25913000D03*
X-20320000Y24643000D03*
X-20320000Y23373000D03*
D13*
%TO.C,J5*%
X-29404000Y5736000D03*
X-26904000Y5736000D03*
X-24404000Y5736000D03*
X-21904000Y5736000D03*
D14*
%TO.C,J3*%
X-25146000Y31750000D03*
X-25146000Y29210000D03*
X-25146000Y26670000D03*
X-25146000Y24130000D03*
%TO.C,J4*%
X-6350000Y1016000D03*
X-3810000Y1016000D03*
%TO.C,J1*%
X-1327000Y22611000D03*
X-1327000Y20071000D03*
%TO.C,J7*%
X-1327000Y17531000D03*
X-1327000Y14991000D03*
M02*
