%TF.GenerationSoftware,KiCad,Pcbnew,7.0.8*%
%TF.CreationDate,2024-06-01T15:01:03+09:00*%
%TF.ProjectId,BDCM_Driver_v1,4244434d-5f44-4726-9976-65725f76312e,rev?*%
%TF.SameCoordinates,PXaac6430PY8670810*%
%TF.FileFunction,Copper,L3,Inr*%
%TF.FilePolarity,Positive*%
%FSLAX46Y46*%
G04 Gerber Fmt 4.6, Leading zero omitted, Abs format (unit mm)*
G04 Created by KiCad (PCBNEW 7.0.8) date 2024-06-01 15:01:03*
%MOMM*%
%LPD*%
G01*
G04 APERTURE LIST*
G04 Aperture macros list*
%AMRoundRect*
0 Rectangle with rounded corners*
0 $1 Rounding radius*
0 $2 $3 $4 $5 $6 $7 $8 $9 X,Y pos of 4 corners*
0 Add a 4 corners polygon primitive as box body*
4,1,4,$2,$3,$4,$5,$6,$7,$8,$9,$2,$3,0*
0 Add four circle primitives for the rounded corners*
1,1,$1+$1,$2,$3*
1,1,$1+$1,$4,$5*
1,1,$1+$1,$6,$7*
1,1,$1+$1,$8,$9*
0 Add four rect primitives between the rounded corners*
20,1,$1+$1,$2,$3,$4,$5,0*
20,1,$1+$1,$4,$5,$6,$7,0*
20,1,$1+$1,$6,$7,$8,$9,0*
20,1,$1+$1,$8,$9,$2,$3,0*%
G04 Aperture macros list end*
%TA.AperFunction,ComponentPad*%
%ADD10C,0.630000*%
%TD*%
%TA.AperFunction,ComponentPad*%
%ADD11R,1.000000X1.000000*%
%TD*%
%TA.AperFunction,ComponentPad*%
%ADD12O,1.000000X1.000000*%
%TD*%
%TA.AperFunction,ComponentPad*%
%ADD13R,1.700000X1.700000*%
%TD*%
%TA.AperFunction,ComponentPad*%
%ADD14O,1.700000X1.700000*%
%TD*%
%TA.AperFunction,ComponentPad*%
%ADD15RoundRect,0.250000X-0.600000X-0.725000X0.600000X-0.725000X0.600000X0.725000X-0.600000X0.725000X0*%
%TD*%
%TA.AperFunction,ComponentPad*%
%ADD16O,1.700000X1.950000*%
%TD*%
%TA.AperFunction,ViaPad*%
%ADD17C,0.800000*%
%TD*%
G04 APERTURE END LIST*
D10*
%TO.N,GNDPWR*%
%TO.C,U2*%
X-12588000Y22636000D03*
X-12588000Y21336000D03*
X-12588000Y20036000D03*
X-11288000Y22636000D03*
X-11288000Y21336000D03*
X-11288000Y20036000D03*
%TD*%
%TO.N,GNDPWR*%
%TO.C,U5*%
X-12588000Y17297000D03*
X-12588000Y15997000D03*
X-12588000Y14697000D03*
X-11288000Y17297000D03*
X-11288000Y15997000D03*
X-11288000Y14697000D03*
%TD*%
D11*
%TO.N,GND*%
%TO.C,J2*%
X-20320000Y25913000D03*
D12*
%TO.N,ENC_{1A}*%
X-20320000Y24643000D03*
%TO.N,ENC_{1B}*%
X-20320000Y23373000D03*
%TD*%
D13*
%TO.N,GNDPWR*%
%TO.C,J4*%
X-3810000Y1016000D03*
D14*
%TO.N,Vdrive*%
X-6350000Y1016000D03*
%TD*%
D13*
%TO.N,OUT_A_{2}'*%
%TO.C,J1*%
X-1327000Y22611000D03*
D14*
%TO.N,OUT_A_{1}*%
X-1327000Y20071000D03*
%TD*%
D13*
%TO.N,OUT_B_{2}*%
%TO.C,J7*%
X-1327000Y17531000D03*
D14*
%TO.N,OUT_B_{1}'*%
X-1327000Y14991000D03*
%TD*%
D15*
%TO.N,I^{2}C_{SCL}*%
%TO.C,J5*%
X-29404000Y5736000D03*
D16*
%TO.N,I^{2}C_{SDA}*%
X-26904000Y5736000D03*
%TO.N,+3V3*%
X-24404000Y5736000D03*
%TO.N,GND*%
X-21904000Y5736000D03*
%TD*%
D11*
%TO.N,GND*%
%TO.C,J6*%
X-22098000Y25913000D03*
D12*
%TO.N,ENC_{2A}*%
X-22098000Y24643000D03*
%TO.N,ENC_{2B}*%
X-22098000Y23373000D03*
%TD*%
D13*
%TO.N,+3V3*%
%TO.C,J3*%
X-25146000Y31750000D03*
D14*
%TO.N,SWDCLK*%
X-25146000Y29210000D03*
%TO.N,GND*%
X-25146000Y26670000D03*
%TO.N,SWDIO*%
X-25146000Y24130000D03*
%TD*%
D17*
%TO.N,GNDPWR*%
X-19050000Y13970000D03*
X-16764000Y13970000D03*
%TO.N,+3V3*%
X-20641619Y14629420D03*
X-5334000Y4572000D03*
X-7366000Y29951500D03*
X-16764000Y19621000D03*
X-22030082Y1524000D03*
%TO.N,GND*%
X-23368000Y20066000D03*
X-19919040Y2419654D03*
X-26924000Y32512000D03*
X-31496000Y14478000D03*
X-7822066Y31361176D03*
X-31496000Y508000D03*
X-27940000Y27940000D03*
X-28702000Y13716000D03*
X-3302000Y27686000D03*
X-25908000Y4064000D03*
X-27940000Y25654000D03*
X-31496000Y24638000D03*
X-31496000Y9144000D03*
X-15748000Y508000D03*
X-20066000Y10160000D03*
X-20066000Y27940000D03*
X-27686000Y30734000D03*
X-23368000Y4064000D03*
X-22606000Y27940000D03*
X-31496000Y28956000D03*
X-20066000Y6604000D03*
X-3302000Y32512000D03*
X-3556000Y5588000D03*
X-10668000Y30988000D03*
X-31496000Y4826000D03*
X-27940000Y23114000D03*
X-19520500Y18695500D03*
X-31496000Y20320000D03*
X-21209000Y25400000D03*
X-23114000Y9144000D03*
X-23368000Y32512000D03*
X-22098000Y29464000D03*
X-31496000Y32512000D03*
X-23368000Y18034000D03*
X-26924000Y21336000D03*
X-20574000Y508000D03*
X-25400000Y18288000D03*
X-20066000Y30988000D03*
%TO.N,Vdrive*%
X-8128000Y19304000D03*
X-13716000Y4064000D03*
X-8255000Y14097000D03*
%TO.N,GNDPWR*%
X-16510000Y29972000D03*
X-10922000Y29972000D03*
X-31496000Y26670000D03*
X-12192000Y28448000D03*
X-16256000Y23368000D03*
X-25400000Y508000D03*
X-508000Y30226000D03*
X-9652000Y25146000D03*
X-8636000Y29972000D03*
X-31496000Y30734000D03*
X-11176000Y23876000D03*
X-508000Y32512000D03*
X-15240000Y28448000D03*
X-10033000Y7620000D03*
X-508000Y28194000D03*
X-10922000Y26670000D03*
X-12700000Y8890000D03*
X-508000Y26162000D03*
X-8382000Y26670000D03*
X-31496000Y17272000D03*
X-11938000Y20947084D03*
X-12192000Y25146000D03*
X-31496000Y2794000D03*
X-2286000Y32512000D03*
X-31496000Y11938000D03*
X-18796000Y26670000D03*
X-11934887Y16654768D03*
X-13716000Y26670000D03*
X-29464000Y32512000D03*
X-508000Y6858000D03*
X-31496000Y22352000D03*
X-508000Y9144000D03*
X-13970000Y24130000D03*
X-508000Y508000D03*
X-2286000Y9906000D03*
X-508000Y11430000D03*
X-31496000Y7112000D03*
X-2032000Y29210000D03*
X-9398000Y28448000D03*
X-15875000Y7620000D03*
X-15621000Y10795000D03*
X-508000Y4572000D03*
X-16764000Y26670000D03*
X-11930996Y22249993D03*
X-12700000Y12827000D03*
X-2286000Y26924000D03*
X-28956000Y508000D03*
X-8308233Y21974184D03*
X-18796000Y29972000D03*
X-17526000Y18796000D03*
X-17526000Y28194000D03*
X-508000Y2540000D03*
X-17526000Y24892000D03*
X-2286000Y11684000D03*
X-16764000Y9271000D03*
X-18034000Y13081000D03*
X-18415000Y10414000D03*
X-15240000Y25146000D03*
X-13716000Y29972000D03*
X-18288000Y23368000D03*
X-11938000Y18796000D03*
X-14732000Y12827000D03*
X-11934498Y15350691D03*
X-14732000Y8890000D03*
X-18288000Y7620000D03*
%TO.N,Current_{2}*%
X-25615097Y20028500D03*
X-6350000Y6604000D03*
%TO.N,TEMP*%
X-21844000Y19558000D03*
X-20256500Y17939182D03*
%TD*%
%TA.AperFunction,Conductor*%
%TO.N,GNDPWR*%
G36*
X-27475904Y32999815D02*
G01*
X-27430149Y32947011D01*
X-27420205Y32877853D01*
X-27444567Y32820014D01*
X-27448536Y32814843D01*
X-27509044Y32668763D01*
X-27509045Y32668761D01*
X-27529682Y32512002D01*
X-27529682Y32511999D01*
X-27509045Y32355240D01*
X-27509044Y32355238D01*
X-27448536Y32209159D01*
X-27352282Y32083718D01*
X-27226841Y31987464D01*
X-27080762Y31926956D01*
X-27002381Y31916637D01*
X-26924001Y31906318D01*
X-26924000Y31906318D01*
X-26923999Y31906318D01*
X-26871746Y31913198D01*
X-26767238Y31926956D01*
X-26621159Y31987464D01*
X-26495718Y32083718D01*
X-26418876Y32183862D01*
X-26362448Y32225064D01*
X-26292702Y32229219D01*
X-26231782Y32195007D01*
X-26199029Y32133289D01*
X-26196500Y32108375D01*
X-26196500Y30880248D01*
X-26184869Y30821771D01*
X-26184868Y30821770D01*
X-26140553Y30755448D01*
X-26074231Y30711133D01*
X-26074230Y30711132D01*
X-26015753Y30699501D01*
X-26015750Y30699500D01*
X-26015748Y30699500D01*
X-24276250Y30699500D01*
X-24276249Y30699501D01*
X-24261432Y30702448D01*
X-24217771Y30711132D01*
X-24217771Y30711133D01*
X-24217769Y30711133D01*
X-24151448Y30755448D01*
X-24107133Y30821769D01*
X-24107133Y30821771D01*
X-24107132Y30821771D01*
X-24095501Y30880248D01*
X-24095500Y30880250D01*
X-24095500Y30987999D01*
X-20671682Y30987999D01*
X-20651045Y30831240D01*
X-20651044Y30831238D01*
X-20601295Y30711132D01*
X-20590536Y30685159D01*
X-20494282Y30559718D01*
X-20368841Y30463464D01*
X-20222762Y30402956D01*
X-20144381Y30392637D01*
X-20066001Y30382318D01*
X-20066000Y30382318D01*
X-20065999Y30382318D01*
X-20013746Y30389198D01*
X-19909238Y30402956D01*
X-19763159Y30463464D01*
X-19637718Y30559718D01*
X-19541464Y30685159D01*
X-19480956Y30831238D01*
X-19460318Y30987999D01*
X-11273682Y30987999D01*
X-11253045Y30831240D01*
X-11253044Y30831238D01*
X-11203295Y30711132D01*
X-11192536Y30685159D01*
X-11096282Y30559718D01*
X-10970841Y30463464D01*
X-10824762Y30402956D01*
X-10746381Y30392637D01*
X-10668001Y30382318D01*
X-10668000Y30382318D01*
X-10667999Y30382318D01*
X-10615746Y30389198D01*
X-10511238Y30402956D01*
X-10365159Y30463464D01*
X-10239718Y30559718D01*
X-10143464Y30685159D01*
X-10082956Y30831238D01*
X-10062318Y30988000D01*
X-10082956Y31144762D01*
X-10143464Y31290841D01*
X-10197433Y31361175D01*
X-8427748Y31361175D01*
X-8407111Y31204416D01*
X-8407110Y31204414D01*
X-8346602Y31058335D01*
X-8250348Y30932894D01*
X-8124907Y30836640D01*
X-7978828Y30776132D01*
X-7900447Y30765813D01*
X-7822067Y30755494D01*
X-7822066Y30755494D01*
X-7822065Y30755494D01*
X-7769812Y30762374D01*
X-7665304Y30776132D01*
X-7519225Y30836640D01*
X-7393784Y30932894D01*
X-7297530Y31058335D01*
X-7237022Y31204414D01*
X-7216384Y31361176D01*
X-7237022Y31517938D01*
X-7297530Y31664017D01*
X-7393784Y31789458D01*
X-7519225Y31885712D01*
X-7536960Y31893058D01*
X-7665304Y31946220D01*
X-7665306Y31946221D01*
X-7822065Y31966858D01*
X-7822067Y31966858D01*
X-7978827Y31946221D01*
X-7978829Y31946220D01*
X-8124906Y31885713D01*
X-8250348Y31789458D01*
X-8346603Y31664016D01*
X-8407110Y31517939D01*
X-8407111Y31517937D01*
X-8427748Y31361178D01*
X-8427748Y31361175D01*
X-10197433Y31361175D01*
X-10239718Y31416282D01*
X-10365159Y31512536D01*
X-10378201Y31517938D01*
X-10511238Y31573044D01*
X-10511240Y31573045D01*
X-10667999Y31593682D01*
X-10668001Y31593682D01*
X-10824761Y31573045D01*
X-10824763Y31573044D01*
X-10970840Y31512537D01*
X-11096282Y31416282D01*
X-11192537Y31290840D01*
X-11253044Y31144763D01*
X-11253045Y31144761D01*
X-11273682Y30988002D01*
X-11273682Y30987999D01*
X-19460318Y30987999D01*
X-19460318Y30988000D01*
X-19480956Y31144762D01*
X-19541464Y31290841D01*
X-19637718Y31416282D01*
X-19763159Y31512536D01*
X-19776201Y31517938D01*
X-19909238Y31573044D01*
X-19909240Y31573045D01*
X-20065999Y31593682D01*
X-20066001Y31593682D01*
X-20222761Y31573045D01*
X-20222763Y31573044D01*
X-20368840Y31512537D01*
X-20494282Y31416282D01*
X-20590537Y31290840D01*
X-20651044Y31144763D01*
X-20651045Y31144761D01*
X-20671682Y30988002D01*
X-20671682Y30987999D01*
X-24095500Y30987999D01*
X-24095500Y32108375D01*
X-24075815Y32175414D01*
X-24023011Y32221169D01*
X-23953853Y32231113D01*
X-23890297Y32202088D01*
X-23873126Y32183863D01*
X-23796282Y32083718D01*
X-23670841Y31987464D01*
X-23524762Y31926956D01*
X-23446381Y31916637D01*
X-23368001Y31906318D01*
X-23368000Y31906318D01*
X-23367999Y31906318D01*
X-23315746Y31913198D01*
X-23211238Y31926956D01*
X-23065159Y31987464D01*
X-22939718Y32083718D01*
X-22843464Y32209159D01*
X-22782956Y32355238D01*
X-22762318Y32512000D01*
X-22782956Y32668762D01*
X-22843464Y32814841D01*
X-22843465Y32814842D01*
X-22843465Y32814843D01*
X-22847433Y32820014D01*
X-22872627Y32885183D01*
X-22858588Y32953628D01*
X-22809774Y33003618D01*
X-22749057Y33019500D01*
X-3920943Y33019500D01*
X-3853904Y32999815D01*
X-3808149Y32947011D01*
X-3798205Y32877853D01*
X-3822567Y32820014D01*
X-3826536Y32814843D01*
X-3887044Y32668763D01*
X-3887045Y32668761D01*
X-3907682Y32512002D01*
X-3907682Y32511999D01*
X-3887045Y32355240D01*
X-3887044Y32355238D01*
X-3826536Y32209159D01*
X-3730282Y32083718D01*
X-3604841Y31987464D01*
X-3458762Y31926956D01*
X-3380381Y31916637D01*
X-3302001Y31906318D01*
X-3302000Y31906318D01*
X-3301999Y31906318D01*
X-3249746Y31913198D01*
X-3145238Y31926956D01*
X-2999159Y31987464D01*
X-2873718Y32083718D01*
X-2777464Y32209159D01*
X-2716956Y32355238D01*
X-2696318Y32512000D01*
X-2716956Y32668762D01*
X-2777464Y32814841D01*
X-2777465Y32814842D01*
X-2777465Y32814843D01*
X-2781433Y32820014D01*
X-2806627Y32885183D01*
X-2792588Y32953628D01*
X-2743774Y33003618D01*
X-2683057Y33019500D01*
X-124500Y33019500D01*
X-57461Y32999815D01*
X-11706Y32947011D01*
X-500Y32895500D01*
X-500Y124500D01*
X-20185Y57461D01*
X-72989Y11706D01*
X-124500Y500D01*
X-5584920Y500D01*
X-5651959Y20185D01*
X-5697714Y72989D01*
X-5707658Y142147D01*
X-5678633Y205703D01*
X-5663585Y220353D01*
X-5636659Y242452D01*
X-5603590Y269590D01*
X-5472315Y429550D01*
X-5374768Y612046D01*
X-5314700Y810066D01*
X-5294417Y1016000D01*
X-5314700Y1221934D01*
X-5374768Y1419954D01*
X-5472315Y1602450D01*
X-5536583Y1680761D01*
X-5603590Y1762411D01*
X-5763548Y1893683D01*
X-5763547Y1893683D01*
X-5763550Y1893685D01*
X-5946046Y1991232D01*
X-6144066Y2051300D01*
X-6144068Y2051301D01*
X-6144066Y2051301D01*
X-6350000Y2071583D01*
X-6555933Y2051301D01*
X-6753957Y1991231D01*
X-6826824Y1952282D01*
X-6936450Y1893685D01*
X-6936452Y1893684D01*
X-6936453Y1893683D01*
X-7096411Y1762411D01*
X-7227683Y1602453D01*
X-7325231Y1419957D01*
X-7385301Y1221933D01*
X-7405583Y1016000D01*
X-7385301Y810068D01*
X-7385300Y810066D01*
X-7325232Y612046D01*
X-7227685Y429550D01*
X-7227683Y429548D01*
X-7096410Y269590D01*
X-7036415Y220353D01*
X-6997081Y162608D01*
X-6995210Y92763D01*
X-7031397Y32995D01*
X-7094153Y2279D01*
X-7115080Y500D01*
X-15129057Y500D01*
X-15196096Y20185D01*
X-15241851Y72989D01*
X-15251795Y142147D01*
X-15227433Y199986D01*
X-15223465Y205158D01*
X-15223466Y205158D01*
X-15223464Y205159D01*
X-15162956Y351238D01*
X-15142318Y508000D01*
X-15162956Y664762D01*
X-15223464Y810841D01*
X-15319718Y936282D01*
X-15445159Y1032536D01*
X-15591238Y1093044D01*
X-15591240Y1093045D01*
X-15747999Y1113682D01*
X-15748001Y1113682D01*
X-15904761Y1093045D01*
X-15904763Y1093044D01*
X-16050840Y1032537D01*
X-16176282Y936282D01*
X-16272537Y810840D01*
X-16333044Y664763D01*
X-16333045Y664761D01*
X-16353682Y508002D01*
X-16353682Y507999D01*
X-16333045Y351240D01*
X-16333044Y351238D01*
X-16272536Y205158D01*
X-16268567Y199986D01*
X-16243373Y134817D01*
X-16257412Y66372D01*
X-16306226Y16382D01*
X-16366943Y500D01*
X-19955057Y500D01*
X-20022096Y20185D01*
X-20067851Y72989D01*
X-20077795Y142147D01*
X-20053433Y199986D01*
X-20049465Y205158D01*
X-20049466Y205158D01*
X-20049464Y205159D01*
X-19988956Y351238D01*
X-19968318Y508000D01*
X-19988956Y664762D01*
X-20049464Y810841D01*
X-20145718Y936282D01*
X-20271159Y1032536D01*
X-20417238Y1093044D01*
X-20417240Y1093045D01*
X-20573999Y1113682D01*
X-20574001Y1113682D01*
X-20730761Y1093045D01*
X-20730763Y1093044D01*
X-20876840Y1032537D01*
X-21002282Y936282D01*
X-21098537Y810840D01*
X-21159044Y664763D01*
X-21159045Y664761D01*
X-21179682Y508002D01*
X-21179682Y507999D01*
X-21159045Y351240D01*
X-21159044Y351238D01*
X-21098536Y205158D01*
X-21094567Y199986D01*
X-21069373Y134817D01*
X-21083412Y66372D01*
X-21132226Y16382D01*
X-21192943Y500D01*
X-30877057Y500D01*
X-30944096Y20185D01*
X-30989851Y72989D01*
X-30999795Y142147D01*
X-30975433Y199986D01*
X-30971465Y205158D01*
X-30971466Y205158D01*
X-30971464Y205159D01*
X-30910956Y351238D01*
X-30890318Y508000D01*
X-30910956Y664762D01*
X-30971464Y810841D01*
X-31067718Y936282D01*
X-31193159Y1032536D01*
X-31339238Y1093044D01*
X-31339240Y1093045D01*
X-31495999Y1113682D01*
X-31496001Y1113682D01*
X-31652761Y1093045D01*
X-31652763Y1093044D01*
X-31798843Y1032536D01*
X-31804014Y1028567D01*
X-31869183Y1003373D01*
X-31937628Y1017412D01*
X-31987618Y1066226D01*
X-32003500Y1126943D01*
X-32003500Y1523999D01*
X-22635764Y1523999D01*
X-22615127Y1367240D01*
X-22615126Y1367238D01*
X-22554618Y1221159D01*
X-22458364Y1095718D01*
X-22332923Y999464D01*
X-22186844Y938956D01*
X-22108463Y928637D01*
X-22030083Y918318D01*
X-22030082Y918318D01*
X-22030081Y918318D01*
X-21977828Y925198D01*
X-21873320Y938956D01*
X-21727241Y999464D01*
X-21601800Y1095718D01*
X-21505546Y1221159D01*
X-21445038Y1367238D01*
X-21424400Y1524000D01*
X-21445038Y1680762D01*
X-21505546Y1826841D01*
X-21601800Y1952282D01*
X-21727241Y2048536D01*
X-21733914Y2051300D01*
X-21873320Y2109044D01*
X-21873322Y2109045D01*
X-22030081Y2129682D01*
X-22030083Y2129682D01*
X-22186843Y2109045D01*
X-22186845Y2109044D01*
X-22332922Y2048537D01*
X-22458364Y1952282D01*
X-22554619Y1826840D01*
X-22615126Y1680763D01*
X-22615127Y1680761D01*
X-22635764Y1524002D01*
X-22635764Y1523999D01*
X-32003500Y1523999D01*
X-32003500Y2419653D01*
X-20524722Y2419653D01*
X-20504085Y2262894D01*
X-20504084Y2262892D01*
X-20443576Y2116813D01*
X-20347322Y1991372D01*
X-20221881Y1895118D01*
X-20075802Y1834610D01*
X-19997421Y1824291D01*
X-19919041Y1813972D01*
X-19919040Y1813972D01*
X-19919039Y1813972D01*
X-19866786Y1820852D01*
X-19762278Y1834610D01*
X-19616199Y1895118D01*
X-19490758Y1991372D01*
X-19394504Y2116813D01*
X-19333996Y2262892D01*
X-19313358Y2419654D01*
X-19333996Y2576416D01*
X-19394504Y2722495D01*
X-19490758Y2847936D01*
X-19616199Y2944190D01*
X-19762278Y3004698D01*
X-19762280Y3004699D01*
X-19919039Y3025336D01*
X-19919041Y3025336D01*
X-20075801Y3004699D01*
X-20075803Y3004698D01*
X-20221880Y2944191D01*
X-20347322Y2847936D01*
X-20443577Y2722494D01*
X-20504084Y2576417D01*
X-20504085Y2576415D01*
X-20524722Y2419656D01*
X-20524722Y2419653D01*
X-32003500Y2419653D01*
X-32003500Y4207058D01*
X-31983815Y4274097D01*
X-31931011Y4319852D01*
X-31861853Y4329796D01*
X-31804011Y4305431D01*
X-31798841Y4301464D01*
X-31652762Y4240956D01*
X-31574381Y4230637D01*
X-31496001Y4220318D01*
X-31496000Y4220318D01*
X-31495999Y4220318D01*
X-31443746Y4227198D01*
X-31339238Y4240956D01*
X-31193159Y4301464D01*
X-31067718Y4397718D01*
X-30971464Y4523159D01*
X-30910956Y4669238D01*
X-30890318Y4826000D01*
X-30907529Y4956731D01*
X-30454500Y4956731D01*
X-30451647Y4926301D01*
X-30451647Y4926299D01*
X-30406794Y4798120D01*
X-30406793Y4798118D01*
X-30326150Y4688850D01*
X-30216882Y4608207D01*
X-30180270Y4595396D01*
X-30088701Y4563354D01*
X-30058270Y4560500D01*
X-30058266Y4560500D01*
X-28749730Y4560500D01*
X-28719301Y4563354D01*
X-28719299Y4563354D01*
X-28647332Y4588537D01*
X-28591118Y4608207D01*
X-28481850Y4688850D01*
X-28401207Y4798118D01*
X-28374361Y4874840D01*
X-28356354Y4926299D01*
X-28356354Y4926301D01*
X-28353500Y4956731D01*
X-28353500Y5559396D01*
X-27954500Y5559396D01*
X-27939301Y5405068D01*
X-27922759Y5350537D01*
X-27879232Y5207046D01*
X-27781685Y5024550D01*
X-27781683Y5024548D01*
X-27650411Y4864590D01*
X-27569416Y4798120D01*
X-27490450Y4733315D01*
X-27307954Y4635768D01*
X-27109934Y4575700D01*
X-27109935Y4575700D01*
X-27091471Y4573882D01*
X-26904000Y4555417D01*
X-26698066Y4575700D01*
X-26512399Y4632022D01*
X-26442537Y4632644D01*
X-26383424Y4595396D01*
X-26353833Y4532102D01*
X-26363158Y4462858D01*
X-26378031Y4437875D01*
X-26432536Y4366842D01*
X-26493044Y4220763D01*
X-26493045Y4220761D01*
X-26513682Y4064002D01*
X-26513682Y4063999D01*
X-26493045Y3907240D01*
X-26493044Y3907238D01*
X-26432536Y3761159D01*
X-26336282Y3635718D01*
X-26210841Y3539464D01*
X-26064762Y3478956D01*
X-25986381Y3468637D01*
X-25908001Y3458318D01*
X-25908000Y3458318D01*
X-25907999Y3458318D01*
X-25855746Y3465198D01*
X-25751238Y3478956D01*
X-25605159Y3539464D01*
X-25479718Y3635718D01*
X-25383464Y3761159D01*
X-25322956Y3907238D01*
X-25302318Y4064000D01*
X-25322956Y4220762D01*
X-25383464Y4366841D01*
X-25479718Y4492282D01*
X-25605159Y4588536D01*
X-25751238Y4649044D01*
X-25751240Y4649045D01*
X-25907999Y4669682D01*
X-25908001Y4669682D01*
X-26057723Y4649971D01*
X-26126758Y4660737D01*
X-26179014Y4707117D01*
X-26197899Y4774386D01*
X-26177418Y4841186D01*
X-26161584Y4860597D01*
X-26157596Y4864586D01*
X-26157590Y4864590D01*
X-26026315Y5024550D01*
X-25928768Y5207046D01*
X-25868700Y5405066D01*
X-25853500Y5559392D01*
X-25853500Y5559396D01*
X-25454500Y5559396D01*
X-25439301Y5405068D01*
X-25422759Y5350537D01*
X-25379232Y5207046D01*
X-25281685Y5024550D01*
X-25281683Y5024548D01*
X-25150411Y4864590D01*
X-25069416Y4798120D01*
X-24990450Y4733315D01*
X-24807954Y4635768D01*
X-24609934Y4575700D01*
X-24609935Y4575700D01*
X-24591471Y4573882D01*
X-24404000Y4555417D01*
X-24198066Y4575700D01*
X-24000046Y4635768D01*
X-23974280Y4649541D01*
X-23905880Y4663785D01*
X-23840635Y4638786D01*
X-23799263Y4582483D01*
X-23794898Y4512750D01*
X-23817449Y4464698D01*
X-23892536Y4366843D01*
X-23953044Y4220763D01*
X-23953045Y4220761D01*
X-23973682Y4064002D01*
X-23973682Y4063999D01*
X-23953045Y3907240D01*
X-23953044Y3907238D01*
X-23892536Y3761159D01*
X-23796282Y3635718D01*
X-23670841Y3539464D01*
X-23524762Y3478956D01*
X-23446381Y3468637D01*
X-23368001Y3458318D01*
X-23368000Y3458318D01*
X-23367999Y3458318D01*
X-23315746Y3465198D01*
X-23211238Y3478956D01*
X-23065159Y3539464D01*
X-22939718Y3635718D01*
X-22843464Y3761159D01*
X-22782956Y3907238D01*
X-22762318Y4063999D01*
X-14321682Y4063999D01*
X-14301045Y3907240D01*
X-14301044Y3907238D01*
X-14240536Y3761159D01*
X-14144282Y3635718D01*
X-14018841Y3539464D01*
X-13872762Y3478956D01*
X-13794381Y3468637D01*
X-13716001Y3458318D01*
X-13716000Y3458318D01*
X-13715999Y3458318D01*
X-13663746Y3465198D01*
X-13559238Y3478956D01*
X-13413159Y3539464D01*
X-13287718Y3635718D01*
X-13191464Y3761159D01*
X-13130956Y3907238D01*
X-13110318Y4064000D01*
X-13130956Y4220762D01*
X-13191464Y4366841D01*
X-13287718Y4492282D01*
X-13391608Y4571999D01*
X-5939682Y4571999D01*
X-5919045Y4415240D01*
X-5919044Y4415238D01*
X-5860582Y4274097D01*
X-5858536Y4269159D01*
X-5762282Y4143718D01*
X-5636841Y4047464D01*
X-5490762Y3986956D01*
X-5412381Y3976637D01*
X-5334001Y3966318D01*
X-5334000Y3966318D01*
X-5333999Y3966318D01*
X-5281746Y3973198D01*
X-5177238Y3986956D01*
X-5031159Y4047464D01*
X-4905718Y4143718D01*
X-4809464Y4269159D01*
X-4748956Y4415238D01*
X-4728318Y4572000D01*
X-4736051Y4630735D01*
X-4748956Y4728761D01*
X-4748956Y4728762D01*
X-4809464Y4874841D01*
X-4905718Y5000282D01*
X-5031159Y5096536D01*
X-5109148Y5128840D01*
X-5177238Y5157044D01*
X-5177240Y5157045D01*
X-5333999Y5177682D01*
X-5334001Y5177682D01*
X-5490761Y5157045D01*
X-5490763Y5157044D01*
X-5636840Y5096537D01*
X-5762282Y5000282D01*
X-5858537Y4874840D01*
X-5919044Y4728763D01*
X-5919045Y4728761D01*
X-5939682Y4572002D01*
X-5939682Y4571999D01*
X-13391608Y4571999D01*
X-13413159Y4588536D01*
X-13559238Y4649044D01*
X-13559240Y4649045D01*
X-13715999Y4669682D01*
X-13716001Y4669682D01*
X-13872761Y4649045D01*
X-13872763Y4649044D01*
X-14018840Y4588537D01*
X-14144282Y4492282D01*
X-14240537Y4366840D01*
X-14301044Y4220763D01*
X-14301045Y4220761D01*
X-14321682Y4064002D01*
X-14321682Y4063999D01*
X-22762318Y4063999D01*
X-22762318Y4064000D01*
X-22782956Y4220762D01*
X-22843464Y4366841D01*
X-22939718Y4492282D01*
X-23065159Y4588536D01*
X-23211238Y4649044D01*
X-23211240Y4649045D01*
X-23367999Y4669682D01*
X-23368001Y4669682D01*
X-23524761Y4649045D01*
X-23524766Y4649043D01*
X-23550939Y4638202D01*
X-23620409Y4630735D01*
X-23682887Y4662011D01*
X-23718538Y4722101D01*
X-23716042Y4791926D01*
X-23677053Y4848618D01*
X-23657590Y4864590D01*
X-23526315Y5024550D01*
X-23428768Y5207046D01*
X-23368700Y5405066D01*
X-23353500Y5559392D01*
X-23353500Y5559396D01*
X-22954500Y5559396D01*
X-22939301Y5405068D01*
X-22922759Y5350537D01*
X-22879232Y5207046D01*
X-22781685Y5024550D01*
X-22781683Y5024548D01*
X-22650411Y4864590D01*
X-22569416Y4798120D01*
X-22490450Y4733315D01*
X-22307954Y4635768D01*
X-22109934Y4575700D01*
X-22109935Y4575700D01*
X-22091471Y4573882D01*
X-21904000Y4555417D01*
X-21698066Y4575700D01*
X-21500046Y4635768D01*
X-21317550Y4733315D01*
X-21157590Y4864590D01*
X-21026315Y5024550D01*
X-20928768Y5207046D01*
X-20868700Y5405066D01*
X-20853500Y5559392D01*
X-20853500Y5587999D01*
X-4161682Y5587999D01*
X-4141045Y5431240D01*
X-4141044Y5431238D01*
X-4107617Y5350537D01*
X-4080536Y5285159D01*
X-3984282Y5159718D01*
X-3858841Y5063464D01*
X-3712762Y5002956D01*
X-3634381Y4992637D01*
X-3556001Y4982318D01*
X-3556000Y4982318D01*
X-3555999Y4982318D01*
X-3503746Y4989198D01*
X-3399238Y5002956D01*
X-3253159Y5063464D01*
X-3127718Y5159718D01*
X-3031464Y5285159D01*
X-2970956Y5431238D01*
X-2950318Y5588000D01*
X-2970956Y5744762D01*
X-3031464Y5890841D01*
X-3127718Y6016282D01*
X-3253159Y6112536D01*
X-3399238Y6173044D01*
X-3399240Y6173045D01*
X-3555999Y6193682D01*
X-3556001Y6193682D01*
X-3712761Y6173045D01*
X-3712763Y6173044D01*
X-3858840Y6112537D01*
X-3984282Y6016282D01*
X-4080537Y5890840D01*
X-4141044Y5744763D01*
X-4141045Y5744761D01*
X-4161682Y5588002D01*
X-4161682Y5587999D01*
X-20853500Y5587999D01*
X-20853500Y5912608D01*
X-20868700Y6066934D01*
X-20928768Y6264954D01*
X-21026315Y6447450D01*
X-21106948Y6545702D01*
X-21154790Y6603999D01*
X-20671682Y6603999D01*
X-20651045Y6447240D01*
X-20651044Y6447238D01*
X-20590536Y6301159D01*
X-20494282Y6175718D01*
X-20368841Y6079464D01*
X-20222762Y6018956D01*
X-20144381Y6008637D01*
X-20066001Y5998318D01*
X-20066000Y5998318D01*
X-20065999Y5998318D01*
X-20013746Y6005198D01*
X-19909238Y6018956D01*
X-19763159Y6079464D01*
X-19637718Y6175718D01*
X-19541464Y6301159D01*
X-19480956Y6447238D01*
X-19460318Y6603999D01*
X-6955682Y6603999D01*
X-6935045Y6447240D01*
X-6935044Y6447238D01*
X-6874536Y6301159D01*
X-6778282Y6175718D01*
X-6652841Y6079464D01*
X-6506762Y6018956D01*
X-6428381Y6008637D01*
X-6350001Y5998318D01*
X-6350000Y5998318D01*
X-6349999Y5998318D01*
X-6297746Y6005198D01*
X-6193238Y6018956D01*
X-6047159Y6079464D01*
X-5921718Y6175718D01*
X-5825464Y6301159D01*
X-5764956Y6447238D01*
X-5744318Y6604000D01*
X-5764956Y6760762D01*
X-5825464Y6906841D01*
X-5921718Y7032282D01*
X-6047159Y7128536D01*
X-6193238Y7189044D01*
X-6193240Y7189045D01*
X-6349999Y7209682D01*
X-6350001Y7209682D01*
X-6506761Y7189045D01*
X-6506763Y7189044D01*
X-6652840Y7128537D01*
X-6778282Y7032282D01*
X-6874537Y6906840D01*
X-6935044Y6760763D01*
X-6935045Y6760761D01*
X-6955682Y6604002D01*
X-6955682Y6603999D01*
X-19460318Y6603999D01*
X-19460318Y6604000D01*
X-19480956Y6760762D01*
X-19541464Y6906841D01*
X-19637718Y7032282D01*
X-19763159Y7128536D01*
X-19909238Y7189044D01*
X-19909240Y7189045D01*
X-20065999Y7209682D01*
X-20066001Y7209682D01*
X-20222761Y7189045D01*
X-20222763Y7189044D01*
X-20368840Y7128537D01*
X-20494282Y7032282D01*
X-20590537Y6906840D01*
X-20651044Y6760763D01*
X-20651045Y6760761D01*
X-20671682Y6604002D01*
X-20671682Y6603999D01*
X-21154790Y6603999D01*
X-21157590Y6607411D01*
X-21317548Y6738683D01*
X-21317547Y6738683D01*
X-21317550Y6738685D01*
X-21500046Y6836232D01*
X-21698066Y6896300D01*
X-21698068Y6896301D01*
X-21698066Y6896301D01*
X-21904000Y6916583D01*
X-22109933Y6896301D01*
X-22307957Y6836231D01*
X-22407263Y6783150D01*
X-22490450Y6738685D01*
X-22490452Y6738684D01*
X-22490453Y6738683D01*
X-22650411Y6607411D01*
X-22781683Y6447453D01*
X-22879231Y6264957D01*
X-22939301Y6066933D01*
X-22954500Y5912605D01*
X-22954500Y5559396D01*
X-23353500Y5559396D01*
X-23353500Y5912608D01*
X-23368700Y6066934D01*
X-23428768Y6264954D01*
X-23526315Y6447450D01*
X-23606948Y6545702D01*
X-23657590Y6607411D01*
X-23817548Y6738683D01*
X-23817547Y6738683D01*
X-23817550Y6738685D01*
X-24000046Y6836232D01*
X-24198066Y6896300D01*
X-24198068Y6896301D01*
X-24198066Y6896301D01*
X-24404000Y6916583D01*
X-24609933Y6896301D01*
X-24807957Y6836231D01*
X-24907263Y6783150D01*
X-24990450Y6738685D01*
X-24990452Y6738684D01*
X-24990453Y6738683D01*
X-25150411Y6607411D01*
X-25281683Y6447453D01*
X-25379231Y6264957D01*
X-25439301Y6066933D01*
X-25454500Y5912605D01*
X-25454500Y5559396D01*
X-25853500Y5559396D01*
X-25853500Y5912608D01*
X-25868700Y6066934D01*
X-25928768Y6264954D01*
X-26026315Y6447450D01*
X-26106948Y6545702D01*
X-26157590Y6607411D01*
X-26317548Y6738683D01*
X-26317547Y6738683D01*
X-26317550Y6738685D01*
X-26500046Y6836232D01*
X-26698066Y6896300D01*
X-26698068Y6896301D01*
X-26698066Y6896301D01*
X-26904000Y6916583D01*
X-27109933Y6896301D01*
X-27307957Y6836231D01*
X-27407263Y6783150D01*
X-27490450Y6738685D01*
X-27490452Y6738684D01*
X-27490453Y6738683D01*
X-27650411Y6607411D01*
X-27781683Y6447453D01*
X-27879231Y6264957D01*
X-27939301Y6066933D01*
X-27954500Y5912605D01*
X-27954500Y5559396D01*
X-28353500Y5559396D01*
X-28353500Y6515270D01*
X-28356354Y6545700D01*
X-28356354Y6545702D01*
X-28401207Y6673881D01*
X-28401208Y6673883D01*
X-28481850Y6783150D01*
X-28591118Y6863793D01*
X-28591120Y6863794D01*
X-28719300Y6908647D01*
X-28749730Y6911500D01*
X-28749734Y6911500D01*
X-30058266Y6911500D01*
X-30058270Y6911500D01*
X-30088700Y6908647D01*
X-30088702Y6908647D01*
X-30216881Y6863794D01*
X-30216883Y6863793D01*
X-30326150Y6783150D01*
X-30406793Y6673883D01*
X-30406794Y6673881D01*
X-30451647Y6545702D01*
X-30451647Y6545700D01*
X-30454500Y6515270D01*
X-30454500Y4956731D01*
X-30907529Y4956731D01*
X-30910956Y4982762D01*
X-30971464Y5128841D01*
X-31067718Y5254282D01*
X-31193159Y5350536D01*
X-31339238Y5411044D01*
X-31339240Y5411045D01*
X-31495999Y5431682D01*
X-31496001Y5431682D01*
X-31652761Y5411045D01*
X-31652763Y5411044D01*
X-31798843Y5350536D01*
X-31804014Y5346567D01*
X-31869183Y5321373D01*
X-31937628Y5335412D01*
X-31987618Y5384226D01*
X-32003500Y5444943D01*
X-32003500Y8525058D01*
X-31983815Y8592097D01*
X-31931011Y8637852D01*
X-31861853Y8647796D01*
X-31804011Y8623431D01*
X-31798841Y8619464D01*
X-31652762Y8558956D01*
X-31574381Y8548637D01*
X-31496001Y8538318D01*
X-31496000Y8538318D01*
X-31495999Y8538318D01*
X-31443746Y8545198D01*
X-31339238Y8558956D01*
X-31193159Y8619464D01*
X-31067718Y8715718D01*
X-30971464Y8841159D01*
X-30910956Y8987238D01*
X-30890318Y9143999D01*
X-23719682Y9143999D01*
X-23699045Y8987240D01*
X-23699044Y8987238D01*
X-23638536Y8841159D01*
X-23542282Y8715718D01*
X-23416841Y8619464D01*
X-23270762Y8558956D01*
X-23192381Y8548637D01*
X-23114001Y8538318D01*
X-23114000Y8538318D01*
X-23113999Y8538318D01*
X-23061746Y8545198D01*
X-22957238Y8558956D01*
X-22811159Y8619464D01*
X-22685718Y8715718D01*
X-22589464Y8841159D01*
X-22528956Y8987238D01*
X-22508318Y9144000D01*
X-22528956Y9300762D01*
X-22589464Y9446841D01*
X-22685718Y9572282D01*
X-22811159Y9668536D01*
X-22957238Y9729044D01*
X-22957240Y9729045D01*
X-23113999Y9749682D01*
X-23114001Y9749682D01*
X-23270761Y9729045D01*
X-23270763Y9729044D01*
X-23416840Y9668537D01*
X-23542282Y9572282D01*
X-23638537Y9446840D01*
X-23699044Y9300763D01*
X-23699045Y9300761D01*
X-23719682Y9144002D01*
X-23719682Y9143999D01*
X-30890318Y9143999D01*
X-30890318Y9144000D01*
X-30910956Y9300762D01*
X-30971464Y9446841D01*
X-31067718Y9572282D01*
X-31193159Y9668536D01*
X-31339238Y9729044D01*
X-31339240Y9729045D01*
X-31495999Y9749682D01*
X-31496001Y9749682D01*
X-31652761Y9729045D01*
X-31652763Y9729044D01*
X-31798843Y9668536D01*
X-31804014Y9664567D01*
X-31869183Y9639373D01*
X-31937628Y9653412D01*
X-31987618Y9702226D01*
X-32003500Y9762943D01*
X-32003500Y10159999D01*
X-20671682Y10159999D01*
X-20651045Y10003240D01*
X-20651044Y10003238D01*
X-20590536Y9857159D01*
X-20494282Y9731718D01*
X-20368841Y9635464D01*
X-20222762Y9574956D01*
X-20144381Y9564637D01*
X-20066001Y9554318D01*
X-20066000Y9554318D01*
X-20065999Y9554318D01*
X-20013746Y9561198D01*
X-19909238Y9574956D01*
X-19763159Y9635464D01*
X-19637718Y9731718D01*
X-19541464Y9857159D01*
X-19480956Y10003238D01*
X-19460318Y10160000D01*
X-19480956Y10316762D01*
X-19541464Y10462841D01*
X-19637718Y10588282D01*
X-19763159Y10684536D01*
X-19909238Y10745044D01*
X-19909240Y10745045D01*
X-20065999Y10765682D01*
X-20066001Y10765682D01*
X-20222761Y10745045D01*
X-20222763Y10745044D01*
X-20368840Y10684537D01*
X-20494282Y10588282D01*
X-20590537Y10462840D01*
X-20651044Y10316763D01*
X-20651045Y10316761D01*
X-20671682Y10160002D01*
X-20671682Y10159999D01*
X-32003500Y10159999D01*
X-32003500Y13715999D01*
X-29307682Y13715999D01*
X-29287045Y13559240D01*
X-29287044Y13559238D01*
X-29226536Y13413159D01*
X-29130282Y13287718D01*
X-29004841Y13191464D01*
X-28858762Y13130956D01*
X-28780381Y13120637D01*
X-28702001Y13110318D01*
X-28702000Y13110318D01*
X-28701999Y13110318D01*
X-28649746Y13117198D01*
X-28545238Y13130956D01*
X-28399159Y13191464D01*
X-28273718Y13287718D01*
X-28177464Y13413159D01*
X-28116956Y13559238D01*
X-28096318Y13716000D01*
X-28116956Y13872762D01*
X-28177464Y14018841D01*
X-28273718Y14144282D01*
X-28399159Y14240536D01*
X-28431092Y14253763D01*
X-28545238Y14301044D01*
X-28545240Y14301045D01*
X-28701999Y14321682D01*
X-28702001Y14321682D01*
X-28858761Y14301045D01*
X-28858763Y14301044D01*
X-29004840Y14240537D01*
X-29130282Y14144282D01*
X-29226537Y14018840D01*
X-29287044Y13872763D01*
X-29287045Y13872761D01*
X-29307682Y13716002D01*
X-29307682Y13715999D01*
X-32003500Y13715999D01*
X-32003500Y13859058D01*
X-31983815Y13926097D01*
X-31931011Y13971852D01*
X-31861853Y13981796D01*
X-31804011Y13957431D01*
X-31798841Y13953464D01*
X-31652762Y13892956D01*
X-31574381Y13882637D01*
X-31496001Y13872318D01*
X-31496000Y13872318D01*
X-31495999Y13872318D01*
X-31443746Y13879198D01*
X-31339238Y13892956D01*
X-31193159Y13953464D01*
X-31067718Y14049718D01*
X-30971464Y14175159D01*
X-30910956Y14321238D01*
X-30890318Y14478000D01*
X-30892910Y14497685D01*
X-30910253Y14629419D01*
X-21247301Y14629419D01*
X-21226664Y14472660D01*
X-21226663Y14472658D01*
X-21166155Y14326579D01*
X-21069901Y14201138D01*
X-20944460Y14104884D01*
X-20798381Y14044376D01*
X-20720000Y14034057D01*
X-20641620Y14023738D01*
X-20641619Y14023738D01*
X-20641618Y14023738D01*
X-20589365Y14030618D01*
X-20484857Y14044376D01*
X-20357814Y14096999D01*
X-8860682Y14096999D01*
X-8840045Y13940240D01*
X-8840044Y13940238D01*
X-8812095Y13872762D01*
X-8779536Y13794159D01*
X-8683282Y13668718D01*
X-8557841Y13572464D01*
X-8411762Y13511956D01*
X-8333381Y13501637D01*
X-8255001Y13491318D01*
X-8255000Y13491318D01*
X-8254999Y13491318D01*
X-8202746Y13498198D01*
X-8098238Y13511956D01*
X-8045451Y13533822D01*
X-7975984Y13541290D01*
X-7913505Y13510015D01*
X-7877852Y13449927D01*
X-7874000Y13419260D01*
X-7874000Y10414000D01*
X-2794000Y10414000D01*
X-2794000Y14478000D01*
X-7729287Y14478000D01*
X-7796326Y14497685D01*
X-7820539Y14519961D01*
X-7820967Y14519532D01*
X-7826712Y14525276D01*
X-7826716Y14525279D01*
X-7826718Y14525282D01*
X-7952159Y14621536D01*
X-7971193Y14629420D01*
X-8098238Y14682044D01*
X-8098240Y14682045D01*
X-8254999Y14702682D01*
X-8255001Y14702682D01*
X-8411761Y14682045D01*
X-8411763Y14682044D01*
X-8557840Y14621537D01*
X-8683282Y14525282D01*
X-8779537Y14399840D01*
X-8840044Y14253763D01*
X-8840045Y14253761D01*
X-8860682Y14097002D01*
X-8860682Y14096999D01*
X-20357814Y14096999D01*
X-20338778Y14104884D01*
X-20213337Y14201138D01*
X-20117083Y14326579D01*
X-20056575Y14472658D01*
X-20035937Y14629420D01*
X-20056575Y14786182D01*
X-20117083Y14932261D01*
X-20162155Y14991000D01*
X-2382583Y14991000D01*
X-2362301Y14785068D01*
X-2361018Y14780840D01*
X-2302232Y14587046D01*
X-2204685Y14404550D01*
X-2170031Y14362323D01*
X-2073411Y14244590D01*
X-1988810Y14175161D01*
X-1913450Y14113315D01*
X-1730954Y14015768D01*
X-1532934Y13955700D01*
X-1532935Y13955700D01*
X-1514471Y13953882D01*
X-1327000Y13935417D01*
X-1121066Y13955700D01*
X-923046Y14015768D01*
X-740550Y14113315D01*
X-580590Y14244590D01*
X-449315Y14404550D01*
X-351768Y14587046D01*
X-291700Y14785066D01*
X-271417Y14991000D01*
X-291700Y15196934D01*
X-351768Y15394954D01*
X-449315Y15577450D01*
X-501298Y15640791D01*
X-580590Y15737411D01*
X-740548Y15868683D01*
X-740547Y15868683D01*
X-740550Y15868685D01*
X-923046Y15966232D01*
X-1121066Y16026300D01*
X-1121068Y16026301D01*
X-1121066Y16026301D01*
X-1327000Y16046583D01*
X-1532933Y16026301D01*
X-1730957Y15966231D01*
X-1841102Y15907357D01*
X-1913450Y15868685D01*
X-1913452Y15868684D01*
X-1913453Y15868683D01*
X-2073411Y15737411D01*
X-2204683Y15577453D01*
X-2302231Y15394957D01*
X-2362301Y15196933D01*
X-2382583Y14991000D01*
X-20162155Y14991000D01*
X-20213337Y15057702D01*
X-20338778Y15153956D01*
X-20484857Y15214464D01*
X-20484859Y15214465D01*
X-20641618Y15235102D01*
X-20641620Y15235102D01*
X-20798380Y15214465D01*
X-20798382Y15214464D01*
X-20944459Y15153957D01*
X-21069901Y15057702D01*
X-21166156Y14932260D01*
X-21226663Y14786183D01*
X-21226664Y14786181D01*
X-21247301Y14629422D01*
X-21247301Y14629419D01*
X-30910253Y14629419D01*
X-30910956Y14634761D01*
X-30910956Y14634762D01*
X-30971464Y14780841D01*
X-31067718Y14906282D01*
X-31193159Y15002536D01*
X-31339238Y15063044D01*
X-31339240Y15063045D01*
X-31495999Y15083682D01*
X-31496001Y15083682D01*
X-31652761Y15063045D01*
X-31652763Y15063044D01*
X-31798843Y15002536D01*
X-31804014Y14998567D01*
X-31869183Y14973373D01*
X-31937628Y14987412D01*
X-31987618Y15036226D01*
X-32003500Y15096943D01*
X-32003500Y17057585D01*
X-29215227Y17057585D01*
X-29205304Y16899863D01*
X-29205304Y16899860D01*
X-29180386Y16823172D01*
X-29156467Y16749559D01*
X-29071786Y16616123D01*
X-28956582Y16507938D01*
X-28956580Y16507937D01*
X-28956578Y16507935D01*
X-28879422Y16465519D01*
X-28818092Y16431803D01*
X-28665019Y16392500D01*
X-28665016Y16392500D01*
X-28546652Y16392500D01*
X-28546650Y16392500D01*
X-28546645Y16392501D01*
X-28546641Y16392501D01*
X-28533912Y16394110D01*
X-28429208Y16407336D01*
X-28282268Y16465514D01*
X-28282261Y16465519D01*
X-28154417Y16558403D01*
X-28154416Y16558404D01*
X-28154417Y16558404D01*
X-28154413Y16558406D01*
X-28053676Y16680177D01*
X-27986386Y16823174D01*
X-27956773Y16978412D01*
X-27961754Y17057585D01*
X-27415227Y17057585D01*
X-27405304Y16899863D01*
X-27405304Y16899860D01*
X-27380386Y16823172D01*
X-27356467Y16749559D01*
X-27271786Y16616123D01*
X-27156582Y16507938D01*
X-27156580Y16507937D01*
X-27156578Y16507935D01*
X-27079422Y16465519D01*
X-27018092Y16431803D01*
X-26865019Y16392500D01*
X-26865016Y16392500D01*
X-26746652Y16392500D01*
X-26746650Y16392500D01*
X-26746645Y16392501D01*
X-26746641Y16392501D01*
X-26733912Y16394110D01*
X-26629208Y16407336D01*
X-26482268Y16465514D01*
X-26482261Y16465519D01*
X-26354417Y16558403D01*
X-26354416Y16558404D01*
X-26354417Y16558404D01*
X-26354413Y16558406D01*
X-26269335Y16661248D01*
X-2377500Y16661248D01*
X-2365869Y16602771D01*
X-2365868Y16602770D01*
X-2321553Y16536448D01*
X-2255231Y16492133D01*
X-2255230Y16492132D01*
X-2196753Y16480501D01*
X-2196750Y16480500D01*
X-2196748Y16480500D01*
X-457250Y16480500D01*
X-457249Y16480501D01*
X-442432Y16483448D01*
X-398771Y16492132D01*
X-398771Y16492133D01*
X-398769Y16492133D01*
X-332448Y16536448D01*
X-288133Y16602769D01*
X-288133Y16602771D01*
X-288132Y16602771D01*
X-276501Y16661248D01*
X-276500Y16661250D01*
X-276500Y18400751D01*
X-276501Y18400753D01*
X-288132Y18459230D01*
X-288133Y18459231D01*
X-332448Y18525553D01*
X-398770Y18569868D01*
X-398771Y18569869D01*
X-457248Y18581500D01*
X-457252Y18581500D01*
X-2196748Y18581500D01*
X-2196753Y18581500D01*
X-2255230Y18569869D01*
X-2255231Y18569868D01*
X-2321553Y18525553D01*
X-2365868Y18459231D01*
X-2365869Y18459230D01*
X-2377500Y18400753D01*
X-2377500Y16661248D01*
X-26269335Y16661248D01*
X-26253676Y16680177D01*
X-26186386Y16823174D01*
X-26156773Y16978412D01*
X-26166696Y17136138D01*
X-26215533Y17286441D01*
X-26300214Y17419877D01*
X-26415418Y17528062D01*
X-26415421Y17528064D01*
X-26415423Y17528066D01*
X-26553905Y17604196D01*
X-26553913Y17604199D01*
X-26706979Y17643500D01*
X-26706981Y17643500D01*
X-26825350Y17643500D01*
X-26825360Y17643500D01*
X-26942792Y17628664D01*
X-26942794Y17628664D01*
X-27089731Y17570487D01*
X-27089740Y17570482D01*
X-27217584Y17477598D01*
X-27217585Y17477597D01*
X-27318326Y17355822D01*
X-27385613Y17212829D01*
X-27385615Y17212826D01*
X-27400243Y17136138D01*
X-27415227Y17057588D01*
X-27415227Y17057586D01*
X-27415227Y17057585D01*
X-27961754Y17057585D01*
X-27966696Y17136138D01*
X-28015533Y17286441D01*
X-28100214Y17419877D01*
X-28215418Y17528062D01*
X-28215421Y17528064D01*
X-28215423Y17528066D01*
X-28353905Y17604196D01*
X-28353913Y17604199D01*
X-28506979Y17643500D01*
X-28506981Y17643500D01*
X-28625350Y17643500D01*
X-28625360Y17643500D01*
X-28742792Y17628664D01*
X-28742794Y17628664D01*
X-28889731Y17570487D01*
X-28889740Y17570482D01*
X-29017584Y17477598D01*
X-29017585Y17477597D01*
X-29118326Y17355822D01*
X-29185613Y17212829D01*
X-29185615Y17212826D01*
X-29200243Y17136138D01*
X-29215227Y17057588D01*
X-29215227Y17057586D01*
X-29215227Y17057585D01*
X-32003500Y17057585D01*
X-32003500Y18287999D01*
X-26005682Y18287999D01*
X-25985045Y18131240D01*
X-25985044Y18131238D01*
X-25944768Y18034002D01*
X-25924536Y17985159D01*
X-25828282Y17859718D01*
X-25702841Y17763464D01*
X-25556762Y17702956D01*
X-25478381Y17692637D01*
X-25400001Y17682318D01*
X-25400000Y17682318D01*
X-25399999Y17682318D01*
X-25347746Y17689198D01*
X-25243238Y17702956D01*
X-25097159Y17763464D01*
X-24971718Y17859718D01*
X-24875464Y17985159D01*
X-24855234Y18033999D01*
X-23973682Y18033999D01*
X-23953045Y17877240D01*
X-23953044Y17877238D01*
X-23892536Y17731159D01*
X-23796282Y17605718D01*
X-23670841Y17509464D01*
X-23524762Y17448956D01*
X-23446381Y17438637D01*
X-23368001Y17428318D01*
X-23368000Y17428318D01*
X-23367999Y17428318D01*
X-23315746Y17435198D01*
X-23211238Y17448956D01*
X-23065159Y17509464D01*
X-22939718Y17605718D01*
X-22843464Y17731159D01*
X-22782956Y17877238D01*
X-22774801Y17939181D01*
X-20862182Y17939181D01*
X-20841545Y17782422D01*
X-20841544Y17782420D01*
X-20784002Y17643500D01*
X-20781036Y17636341D01*
X-20684782Y17510900D01*
X-20559341Y17414646D01*
X-20413262Y17354138D01*
X-20334881Y17343819D01*
X-20256501Y17333500D01*
X-20256500Y17333500D01*
X-20256499Y17333500D01*
X-20204246Y17340380D01*
X-20099738Y17354138D01*
X-19953659Y17414646D01*
X-19828218Y17510900D01*
X-19731964Y17636341D01*
X-19671456Y17782420D01*
X-19650818Y17939182D01*
X-19652205Y17949718D01*
X-19641440Y18018753D01*
X-19595060Y18071009D01*
X-19528627Y18089660D01*
X-19528627Y18089818D01*
X-19528062Y18089818D01*
X-19527791Y18089894D01*
X-19526738Y18089818D01*
X-19520500Y18089818D01*
X-19520499Y18089818D01*
X-19468246Y18096698D01*
X-19363738Y18110456D01*
X-19217659Y18170964D01*
X-19092218Y18267218D01*
X-18995964Y18392659D01*
X-18935456Y18538738D01*
X-18914818Y18695500D01*
X-18935456Y18852262D01*
X-18995964Y18998341D01*
X-19092218Y19123782D01*
X-19217659Y19220036D01*
X-19363738Y19280544D01*
X-19363740Y19280545D01*
X-19520499Y19301182D01*
X-19520501Y19301182D01*
X-19677261Y19280545D01*
X-19677263Y19280544D01*
X-19823340Y19220037D01*
X-19948782Y19123782D01*
X-20045037Y18998340D01*
X-20105544Y18852263D01*
X-20105545Y18852261D01*
X-20126182Y18695502D01*
X-20126182Y18695499D01*
X-20124795Y18684960D01*
X-20135564Y18615925D01*
X-20181946Y18563671D01*
X-20248373Y18545026D01*
X-20248373Y18544864D01*
X-20248949Y18544864D01*
X-20249216Y18544789D01*
X-20250264Y18544864D01*
X-20256501Y18544864D01*
X-20413261Y18524227D01*
X-20413263Y18524226D01*
X-20559340Y18463719D01*
X-20684782Y18367464D01*
X-20781037Y18242022D01*
X-20841544Y18095945D01*
X-20841545Y18095943D01*
X-20862182Y17939184D01*
X-20862182Y17939181D01*
X-22774801Y17939181D01*
X-22762318Y18034000D01*
X-22769667Y18089818D01*
X-22782956Y18190761D01*
X-22782956Y18190762D01*
X-22843464Y18336841D01*
X-22939718Y18462282D01*
X-23065159Y18558536D01*
X-23092517Y18569868D01*
X-23211238Y18619044D01*
X-23211240Y18619045D01*
X-23367999Y18639682D01*
X-23368001Y18639682D01*
X-23524761Y18619045D01*
X-23524763Y18619044D01*
X-23670840Y18558537D01*
X-23796282Y18462282D01*
X-23892537Y18336840D01*
X-23953044Y18190763D01*
X-23953045Y18190761D01*
X-23973682Y18034002D01*
X-23973682Y18033999D01*
X-24855234Y18033999D01*
X-24814956Y18131238D01*
X-24794318Y18288000D01*
X-24814956Y18444762D01*
X-24875464Y18590841D01*
X-24971718Y18716282D01*
X-25097159Y18812536D01*
X-25243238Y18873044D01*
X-25243240Y18873045D01*
X-25399999Y18893682D01*
X-25400001Y18893682D01*
X-25556761Y18873045D01*
X-25556763Y18873044D01*
X-25702840Y18812537D01*
X-25828282Y18716282D01*
X-25924537Y18590840D01*
X-25985044Y18444763D01*
X-25985045Y18444761D01*
X-26005682Y18288002D01*
X-26005682Y18287999D01*
X-32003500Y18287999D01*
X-32003500Y19701058D01*
X-31983815Y19768097D01*
X-31931011Y19813852D01*
X-31861853Y19823796D01*
X-31804011Y19799431D01*
X-31798841Y19795464D01*
X-31652762Y19734956D01*
X-31582159Y19725661D01*
X-31496001Y19714318D01*
X-31496000Y19714318D01*
X-31495999Y19714318D01*
X-31443746Y19721198D01*
X-31339238Y19734956D01*
X-31193159Y19795464D01*
X-31067718Y19891718D01*
X-30971464Y20017159D01*
X-30966767Y20028499D01*
X-26220779Y20028499D01*
X-26200142Y19871740D01*
X-26200141Y19871738D01*
X-26142377Y19732282D01*
X-26139633Y19725659D01*
X-26043379Y19600218D01*
X-25917938Y19503964D01*
X-25771859Y19443456D01*
X-25693478Y19433137D01*
X-25615098Y19422818D01*
X-25615097Y19422818D01*
X-25615096Y19422818D01*
X-25562843Y19429698D01*
X-25458335Y19443456D01*
X-25312256Y19503964D01*
X-25186815Y19600218D01*
X-25090561Y19725659D01*
X-25030053Y19871738D01*
X-25009415Y20028500D01*
X-25014352Y20065999D01*
X-23973682Y20065999D01*
X-23953045Y19909240D01*
X-23953044Y19909238D01*
X-23894582Y19768097D01*
X-23892536Y19763159D01*
X-23796282Y19637718D01*
X-23670841Y19541464D01*
X-23524762Y19480956D01*
X-23446381Y19470637D01*
X-23368001Y19460318D01*
X-23368000Y19460318D01*
X-23367999Y19460318D01*
X-23315746Y19467198D01*
X-23211238Y19480956D01*
X-23065159Y19541464D01*
X-23043610Y19557999D01*
X-22449682Y19557999D01*
X-22429045Y19401240D01*
X-22429044Y19401238D01*
X-22388768Y19304002D01*
X-22368536Y19255159D01*
X-22272282Y19129718D01*
X-22146841Y19033464D01*
X-22000762Y18972956D01*
X-21922381Y18962637D01*
X-21844001Y18952318D01*
X-21844000Y18952318D01*
X-21843999Y18952318D01*
X-21791746Y18959198D01*
X-21687238Y18972956D01*
X-21541159Y19033464D01*
X-21415718Y19129718D01*
X-21319464Y19255159D01*
X-21258956Y19401238D01*
X-21238318Y19558000D01*
X-21246612Y19620999D01*
X-17369682Y19620999D01*
X-17349045Y19464240D01*
X-17349044Y19464238D01*
X-17288536Y19318159D01*
X-17192282Y19192718D01*
X-17066841Y19096464D01*
X-16920762Y19035956D01*
X-16918817Y19035700D01*
X-16764001Y19015318D01*
X-16764000Y19015318D01*
X-16763999Y19015318D01*
X-16711746Y19022198D01*
X-16607238Y19035956D01*
X-16461159Y19096464D01*
X-16335718Y19192718D01*
X-16250329Y19303999D01*
X-8733682Y19303999D01*
X-8713045Y19147240D01*
X-8713044Y19147238D01*
X-8666844Y19035700D01*
X-8652536Y19001159D01*
X-8556282Y18875718D01*
X-8430841Y18779464D01*
X-8284762Y18718956D01*
X-8206381Y18708637D01*
X-8128001Y18698318D01*
X-8128000Y18698318D01*
X-8127999Y18698318D01*
X-8075746Y18705198D01*
X-7971238Y18718956D01*
X-7825159Y18779464D01*
X-7699718Y18875718D01*
X-7603464Y19001159D01*
X-7542956Y19147238D01*
X-7522318Y19304000D01*
X-7525029Y19324590D01*
X-7542956Y19460761D01*
X-7542956Y19460762D01*
X-7603464Y19606841D01*
X-7699718Y19732282D01*
X-7825159Y19828536D01*
X-7903148Y19860840D01*
X-7971238Y19889044D01*
X-7971240Y19889045D01*
X-8127999Y19909682D01*
X-8128001Y19909682D01*
X-8284761Y19889045D01*
X-8284763Y19889044D01*
X-8430840Y19828537D01*
X-8556282Y19732282D01*
X-8652537Y19606840D01*
X-8713044Y19460763D01*
X-8713045Y19460761D01*
X-8733682Y19304002D01*
X-8733682Y19303999D01*
X-16250329Y19303999D01*
X-16239464Y19318159D01*
X-16178956Y19464238D01*
X-16158318Y19621000D01*
X-16178956Y19777762D01*
X-16239464Y19923841D01*
X-16335718Y20049282D01*
X-16364022Y20071000D01*
X-2382583Y20071000D01*
X-2362301Y19865068D01*
X-2361018Y19860840D01*
X-2302232Y19667046D01*
X-2204685Y19484550D01*
X-2185163Y19460762D01*
X-2073411Y19324590D01*
X-1988810Y19255161D01*
X-1913450Y19193315D01*
X-1730954Y19095768D01*
X-1532934Y19035700D01*
X-1532935Y19035700D01*
X-1514471Y19033882D01*
X-1327000Y19015417D01*
X-1121066Y19035700D01*
X-923046Y19095768D01*
X-740550Y19193315D01*
X-580590Y19324590D01*
X-449315Y19484550D01*
X-351768Y19667046D01*
X-291700Y19865066D01*
X-271417Y20071000D01*
X-291700Y20276934D01*
X-351768Y20474954D01*
X-449315Y20657450D01*
X-526053Y20750956D01*
X-580590Y20817411D01*
X-712521Y20925682D01*
X-740550Y20948685D01*
X-923046Y21046232D01*
X-1121066Y21106300D01*
X-1121068Y21106301D01*
X-1121066Y21106301D01*
X-1327000Y21126583D01*
X-1532933Y21106301D01*
X-1730957Y21046231D01*
X-1841102Y20987357D01*
X-1913450Y20948685D01*
X-1913452Y20948684D01*
X-1913453Y20948683D01*
X-2073411Y20817411D01*
X-2204683Y20657453D01*
X-2204685Y20657450D01*
X-2228153Y20613545D01*
X-2302231Y20474957D01*
X-2362301Y20276933D01*
X-2382583Y20071000D01*
X-16364022Y20071000D01*
X-16461159Y20145536D01*
X-16607238Y20206044D01*
X-16607240Y20206045D01*
X-16763999Y20226682D01*
X-16764001Y20226682D01*
X-16920761Y20206045D01*
X-16920763Y20206044D01*
X-17066840Y20145537D01*
X-17192282Y20049282D01*
X-17288537Y19923840D01*
X-17349044Y19777763D01*
X-17349045Y19777761D01*
X-17369682Y19621002D01*
X-17369682Y19620999D01*
X-21246612Y19620999D01*
X-21258956Y19714762D01*
X-21319464Y19860841D01*
X-21415718Y19986282D01*
X-21541159Y20082536D01*
X-21687238Y20143044D01*
X-21687240Y20143045D01*
X-21843999Y20163682D01*
X-21844001Y20163682D01*
X-22000761Y20143045D01*
X-22000763Y20143044D01*
X-22146840Y20082537D01*
X-22272282Y19986282D01*
X-22368537Y19860840D01*
X-22429044Y19714763D01*
X-22429045Y19714761D01*
X-22449682Y19558002D01*
X-22449682Y19557999D01*
X-23043610Y19557999D01*
X-22939718Y19637718D01*
X-22843464Y19763159D01*
X-22782956Y19909238D01*
X-22762318Y20066000D01*
X-22782956Y20222762D01*
X-22843464Y20368841D01*
X-22939718Y20494282D01*
X-23065159Y20590536D01*
X-23120708Y20613545D01*
X-23211238Y20651044D01*
X-23211240Y20651045D01*
X-23367999Y20671682D01*
X-23368001Y20671682D01*
X-23524761Y20651045D01*
X-23524763Y20651044D01*
X-23670840Y20590537D01*
X-23796282Y20494282D01*
X-23892537Y20368840D01*
X-23953044Y20222763D01*
X-23953045Y20222761D01*
X-23973682Y20066002D01*
X-23973682Y20065999D01*
X-25014352Y20065999D01*
X-25030053Y20185262D01*
X-25090561Y20331341D01*
X-25186815Y20456782D01*
X-25312256Y20553036D01*
X-25458335Y20613544D01*
X-25458337Y20613545D01*
X-25615096Y20634182D01*
X-25615098Y20634182D01*
X-25771858Y20613545D01*
X-25771860Y20613544D01*
X-25917937Y20553037D01*
X-26043379Y20456782D01*
X-26139634Y20331340D01*
X-26200141Y20185263D01*
X-26200142Y20185261D01*
X-26220779Y20028502D01*
X-26220779Y20028499D01*
X-30966767Y20028499D01*
X-30910956Y20163238D01*
X-30890318Y20320000D01*
X-30910956Y20476762D01*
X-30971464Y20622841D01*
X-31067718Y20748282D01*
X-31193159Y20844536D01*
X-31339238Y20905044D01*
X-31339240Y20905045D01*
X-31495999Y20925682D01*
X-31496001Y20925682D01*
X-31652761Y20905045D01*
X-31652763Y20905044D01*
X-31798843Y20844536D01*
X-31804014Y20840567D01*
X-31869183Y20815373D01*
X-31937628Y20829412D01*
X-31987618Y20878226D01*
X-32003500Y20938943D01*
X-32003500Y21335999D01*
X-27529682Y21335999D01*
X-27509045Y21179240D01*
X-27509044Y21179238D01*
X-27478833Y21106301D01*
X-27448536Y21033159D01*
X-27352282Y20907718D01*
X-27226841Y20811464D01*
X-27080762Y20750956D01*
X-27002381Y20740637D01*
X-26924001Y20730318D01*
X-26924000Y20730318D01*
X-26923999Y20730318D01*
X-26871746Y20737198D01*
X-26767238Y20750956D01*
X-26621159Y20811464D01*
X-26495718Y20907718D01*
X-26399464Y21033159D01*
X-26338956Y21179238D01*
X-26318318Y21336000D01*
X-26338956Y21492762D01*
X-26399464Y21638841D01*
X-26478043Y21741248D01*
X-2377500Y21741248D01*
X-2365869Y21682771D01*
X-2365868Y21682770D01*
X-2321553Y21616448D01*
X-2255231Y21572133D01*
X-2255230Y21572132D01*
X-2196753Y21560501D01*
X-2196750Y21560500D01*
X-2196748Y21560500D01*
X-457250Y21560500D01*
X-457249Y21560501D01*
X-442432Y21563448D01*
X-398771Y21572132D01*
X-398771Y21572133D01*
X-398769Y21572133D01*
X-332448Y21616448D01*
X-288133Y21682769D01*
X-288133Y21682771D01*
X-288132Y21682771D01*
X-276501Y21741248D01*
X-276500Y21741250D01*
X-276500Y23480751D01*
X-276501Y23480753D01*
X-288132Y23539230D01*
X-288133Y23539231D01*
X-332448Y23605553D01*
X-398770Y23649868D01*
X-398771Y23649869D01*
X-457248Y23661500D01*
X-457252Y23661500D01*
X-2196748Y23661500D01*
X-2196753Y23661500D01*
X-2255230Y23649869D01*
X-2255231Y23649868D01*
X-2321553Y23605553D01*
X-2365868Y23539231D01*
X-2365869Y23539230D01*
X-2377500Y23480753D01*
X-2377500Y21741248D01*
X-26478043Y21741248D01*
X-26495718Y21764282D01*
X-26621159Y21860536D01*
X-26767238Y21921044D01*
X-26767240Y21921045D01*
X-26923999Y21941682D01*
X-26924001Y21941682D01*
X-27080761Y21921045D01*
X-27080763Y21921044D01*
X-27226840Y21860537D01*
X-27352282Y21764282D01*
X-27448537Y21638840D01*
X-27509044Y21492763D01*
X-27509045Y21492761D01*
X-27529682Y21336002D01*
X-27529682Y21335999D01*
X-32003500Y21335999D01*
X-32003500Y23114000D01*
X-28545682Y23114000D01*
X-28525045Y22957240D01*
X-28525044Y22957238D01*
X-28464536Y22811159D01*
X-28368282Y22685718D01*
X-28242841Y22589464D01*
X-28096762Y22528956D01*
X-28018381Y22518637D01*
X-27940001Y22508318D01*
X-27940000Y22508318D01*
X-27939999Y22508318D01*
X-27887746Y22515198D01*
X-27783238Y22528956D01*
X-27637159Y22589464D01*
X-27511718Y22685718D01*
X-27415464Y22811159D01*
X-27354956Y22957238D01*
X-27334318Y23114000D01*
X-27346184Y23204128D01*
X-27348077Y23218508D01*
X-27354956Y23270762D01*
X-27415464Y23416841D01*
X-27511718Y23542282D01*
X-27637159Y23638536D01*
X-27664517Y23649868D01*
X-27783238Y23699044D01*
X-27783240Y23699045D01*
X-27939999Y23719682D01*
X-27940001Y23719682D01*
X-28096761Y23699045D01*
X-28096763Y23699044D01*
X-28242840Y23638537D01*
X-28368282Y23542282D01*
X-28464537Y23416840D01*
X-28525044Y23270763D01*
X-28525045Y23270761D01*
X-28545682Y23114002D01*
X-28545682Y23114000D01*
X-32003500Y23114000D01*
X-32003500Y24019058D01*
X-31983815Y24086097D01*
X-31931011Y24131852D01*
X-31861853Y24141796D01*
X-31804011Y24117431D01*
X-31798841Y24113464D01*
X-31652762Y24052956D01*
X-31586549Y24044239D01*
X-31496001Y24032318D01*
X-31496000Y24032318D01*
X-31495999Y24032318D01*
X-31443746Y24039198D01*
X-31339238Y24052956D01*
X-31193159Y24113464D01*
X-31171609Y24130000D01*
X-26201583Y24130000D01*
X-26181301Y23924068D01*
X-26181300Y23924066D01*
X-26121232Y23726046D01*
X-26023685Y23543550D01*
X-25989031Y23501323D01*
X-25892411Y23383590D01*
X-25795791Y23304298D01*
X-25732450Y23252315D01*
X-25549954Y23154768D01*
X-25351934Y23094700D01*
X-25351935Y23094700D01*
X-25333471Y23092882D01*
X-25146000Y23074417D01*
X-24940066Y23094700D01*
X-24742046Y23154768D01*
X-24559550Y23252315D01*
X-24412494Y23373000D01*
X-22803645Y23373000D01*
X-22783141Y23204131D01*
X-22783140Y23204126D01*
X-22722818Y23045069D01*
X-22662193Y22957240D01*
X-22626183Y22905071D01*
X-22520495Y22811440D01*
X-22498850Y22792264D01*
X-22348227Y22713211D01*
X-22348225Y22713210D01*
X-22183056Y22672500D01*
X-22012944Y22672500D01*
X-21847775Y22713210D01*
X-21768308Y22754919D01*
X-21697151Y22792264D01*
X-21697150Y22792266D01*
X-21697148Y22792266D01*
X-21569817Y22905071D01*
X-21473182Y23045070D01*
X-21412860Y23204128D01*
X-21392355Y23373000D01*
X-21412860Y23541872D01*
X-21413496Y23543548D01*
X-21453817Y23649869D01*
X-21473182Y23700930D01*
X-21486126Y23719682D01*
X-21507524Y23750682D01*
X-21569817Y23840929D01*
X-21653637Y23915187D01*
X-21690762Y23974374D01*
X-21689994Y24044239D01*
X-21653637Y24100814D01*
X-21569817Y24175071D01*
X-21473182Y24315070D01*
X-21412860Y24474128D01*
X-21392355Y24643000D01*
X-21394729Y24662548D01*
X-21383269Y24731469D01*
X-21336367Y24783256D01*
X-21268911Y24801464D01*
X-21255451Y24800434D01*
X-21209000Y24794318D01*
X-21162553Y24800433D01*
X-21093519Y24789668D01*
X-21041263Y24743288D01*
X-21022377Y24676019D01*
X-21023272Y24662550D01*
X-21025645Y24643004D01*
X-21025645Y24643001D01*
X-21005141Y24474131D01*
X-21005140Y24474126D01*
X-20944818Y24315069D01*
X-20848182Y24175070D01*
X-20764366Y24100815D01*
X-20727239Y24041626D01*
X-20728007Y23971760D01*
X-20764366Y23915185D01*
X-20848182Y23840931D01*
X-20944818Y23700932D01*
X-21005140Y23541875D01*
X-21005141Y23541870D01*
X-21025645Y23373000D01*
X-21005141Y23204131D01*
X-21005140Y23204126D01*
X-20944818Y23045069D01*
X-20884193Y22957240D01*
X-20848183Y22905071D01*
X-20742495Y22811440D01*
X-20720850Y22792264D01*
X-20570227Y22713211D01*
X-20570225Y22713210D01*
X-20405056Y22672500D01*
X-20234944Y22672500D01*
X-20069775Y22713210D01*
X-19990308Y22754919D01*
X-19919151Y22792264D01*
X-19919150Y22792266D01*
X-19919148Y22792266D01*
X-19791817Y22905071D01*
X-19695182Y23045070D01*
X-19634860Y23204128D01*
X-19614355Y23373000D01*
X-19634860Y23541872D01*
X-19635496Y23543548D01*
X-19675817Y23649869D01*
X-19695182Y23700930D01*
X-19708126Y23719682D01*
X-19729524Y23750682D01*
X-19791817Y23840929D01*
X-19875637Y23915187D01*
X-19912762Y23974374D01*
X-19911994Y24044239D01*
X-19875637Y24100814D01*
X-19842692Y24130000D01*
X-7874000Y24130000D01*
X-6858000Y23114000D01*
X-2794000Y23114000D01*
X-2794000Y27178000D01*
X-2796824Y27180824D01*
X-2830309Y27242147D01*
X-2825325Y27311839D01*
X-2807518Y27343992D01*
X-2799104Y27354957D01*
X-2777464Y27383159D01*
X-2716956Y27529238D01*
X-2696318Y27686000D01*
X-2716956Y27842762D01*
X-2777464Y27988841D01*
X-2873718Y28114282D01*
X-2999159Y28210536D01*
X-3077148Y28242840D01*
X-3145238Y28271044D01*
X-3145240Y28271045D01*
X-3301999Y28291682D01*
X-3302001Y28291682D01*
X-3458761Y28271045D01*
X-3458763Y28271044D01*
X-3604840Y28210537D01*
X-3730282Y28114282D01*
X-3826537Y27988840D01*
X-3887044Y27842763D01*
X-3887045Y27842761D01*
X-3907682Y27686002D01*
X-3907682Y27685999D01*
X-3887045Y27529240D01*
X-3887044Y27529238D01*
X-3826537Y27383160D01*
X-3826536Y27383159D01*
X-3822184Y27377487D01*
X-3796989Y27312319D01*
X-3811027Y27243874D01*
X-3859840Y27193883D01*
X-3920559Y27178000D01*
X-7874000Y27178000D01*
X-7874000Y24130000D01*
X-19842692Y24130000D01*
X-19791817Y24175071D01*
X-19695182Y24315070D01*
X-19634860Y24474128D01*
X-19614355Y24643000D01*
X-19634860Y24811872D01*
X-19636030Y24814956D01*
X-19695183Y24970932D01*
X-19695184Y24970934D01*
X-19743608Y25041087D01*
X-19757984Y25061913D01*
X-19779867Y25128267D01*
X-19762402Y25195918D01*
X-19724825Y25235455D01*
X-19712512Y25243682D01*
X-19675448Y25268448D01*
X-19631133Y25334769D01*
X-19631133Y25334771D01*
X-19631132Y25334771D01*
X-19619501Y25393248D01*
X-19619500Y25393250D01*
X-19619500Y26432751D01*
X-19619501Y26432753D01*
X-19631132Y26491230D01*
X-19631133Y26491231D01*
X-19675448Y26557553D01*
X-19741770Y26601868D01*
X-19741771Y26601869D01*
X-19800248Y26613500D01*
X-19800252Y26613500D01*
X-20839748Y26613500D01*
X-20839753Y26613500D01*
X-20898230Y26601869D01*
X-20898231Y26601868D01*
X-20964553Y26557553D01*
X-21008868Y26491231D01*
X-21008869Y26491230D01*
X-21020500Y26432753D01*
X-21020500Y26122261D01*
X-21040185Y26055222D01*
X-21092989Y26009467D01*
X-21160684Y25999322D01*
X-21208997Y26005682D01*
X-21209003Y26005682D01*
X-21257316Y25999322D01*
X-21326351Y26010088D01*
X-21378607Y26056469D01*
X-21397500Y26122261D01*
X-21397500Y26432751D01*
X-21397501Y26432753D01*
X-21409132Y26491230D01*
X-21409133Y26491231D01*
X-21453448Y26557553D01*
X-21519770Y26601868D01*
X-21519771Y26601869D01*
X-21578248Y26613500D01*
X-21578252Y26613500D01*
X-22617748Y26613500D01*
X-22617753Y26613500D01*
X-22676230Y26601869D01*
X-22676231Y26601868D01*
X-22742553Y26557553D01*
X-22786868Y26491231D01*
X-22786869Y26491230D01*
X-22798500Y26432753D01*
X-22798500Y25393248D01*
X-22786869Y25334771D01*
X-22786868Y25334770D01*
X-22742553Y25268448D01*
X-22693176Y25235455D01*
X-22648371Y25181842D01*
X-22639664Y25112517D01*
X-22660017Y25061913D01*
X-22722817Y24970932D01*
X-22722818Y24970932D01*
X-22783140Y24811875D01*
X-22783141Y24811870D01*
X-22803645Y24643000D01*
X-22783141Y24474131D01*
X-22783140Y24474126D01*
X-22722818Y24315069D01*
X-22626182Y24175070D01*
X-22542366Y24100815D01*
X-22505239Y24041626D01*
X-22506007Y23971760D01*
X-22542366Y23915185D01*
X-22626182Y23840931D01*
X-22722818Y23700932D01*
X-22783140Y23541875D01*
X-22783141Y23541870D01*
X-22803645Y23373000D01*
X-24412494Y23373000D01*
X-24399590Y23383590D01*
X-24268315Y23543550D01*
X-24170768Y23726046D01*
X-24110700Y23924066D01*
X-24090417Y24130000D01*
X-24110700Y24335934D01*
X-24170768Y24533954D01*
X-24268315Y24716450D01*
X-24332583Y24794761D01*
X-24399590Y24876411D01*
X-24559548Y25007683D01*
X-24559547Y25007683D01*
X-24559550Y25007685D01*
X-24742046Y25105232D01*
X-24940066Y25165300D01*
X-24940068Y25165301D01*
X-24940066Y25165301D01*
X-25146000Y25185583D01*
X-25351933Y25165301D01*
X-25549957Y25105231D01*
X-25656432Y25048318D01*
X-25732450Y25007685D01*
X-25732452Y25007684D01*
X-25732453Y25007683D01*
X-25892411Y24876411D01*
X-26023683Y24716453D01*
X-26121231Y24533957D01*
X-26181301Y24335933D01*
X-26201583Y24130000D01*
X-31171609Y24130000D01*
X-31067718Y24209718D01*
X-30971464Y24335159D01*
X-30910956Y24481238D01*
X-30890318Y24638000D01*
X-30910956Y24794762D01*
X-30971464Y24940841D01*
X-31067718Y25066282D01*
X-31193159Y25162536D01*
X-31199832Y25165300D01*
X-31339238Y25223044D01*
X-31339240Y25223045D01*
X-31495999Y25243682D01*
X-31496001Y25243682D01*
X-31652761Y25223045D01*
X-31652763Y25223044D01*
X-31798843Y25162536D01*
X-31804014Y25158567D01*
X-31869183Y25133373D01*
X-31937628Y25147412D01*
X-31987618Y25196226D01*
X-32003500Y25256943D01*
X-32003500Y25653999D01*
X-28545682Y25653999D01*
X-28525045Y25497240D01*
X-28525044Y25497238D01*
X-28464536Y25351159D01*
X-28368282Y25225718D01*
X-28242841Y25129464D01*
X-28096762Y25068956D01*
X-28043265Y25061913D01*
X-27940001Y25048318D01*
X-27940000Y25048318D01*
X-27939999Y25048318D01*
X-27887746Y25055198D01*
X-27783238Y25068956D01*
X-27637159Y25129464D01*
X-27511718Y25225718D01*
X-27415464Y25351159D01*
X-27354956Y25497238D01*
X-27334318Y25654000D01*
X-27354956Y25810762D01*
X-27415464Y25956841D01*
X-27511718Y26082282D01*
X-27637159Y26178536D01*
X-27783238Y26239044D01*
X-27783240Y26239045D01*
X-27939999Y26259682D01*
X-27940001Y26259682D01*
X-28096761Y26239045D01*
X-28096763Y26239044D01*
X-28242840Y26178537D01*
X-28368282Y26082282D01*
X-28464537Y25956840D01*
X-28525044Y25810763D01*
X-28525045Y25810761D01*
X-28545682Y25654002D01*
X-28545682Y25653999D01*
X-32003500Y25653999D01*
X-32003500Y26670000D01*
X-26201583Y26670000D01*
X-26181301Y26464068D01*
X-26171801Y26432751D01*
X-26121232Y26266046D01*
X-26023685Y26083550D01*
X-26023683Y26083548D01*
X-25892411Y25923590D01*
X-25795791Y25844298D01*
X-25732450Y25792315D01*
X-25549954Y25694768D01*
X-25351934Y25634700D01*
X-25351935Y25634700D01*
X-25333471Y25632882D01*
X-25146000Y25614417D01*
X-24940066Y25634700D01*
X-24742046Y25694768D01*
X-24559550Y25792315D01*
X-24399590Y25923590D01*
X-24268315Y26083550D01*
X-24170768Y26266046D01*
X-24110700Y26464066D01*
X-24090417Y26670000D01*
X-24110700Y26875934D01*
X-24170768Y27073954D01*
X-24268315Y27256450D01*
X-24349157Y27354957D01*
X-24399590Y27416411D01*
X-24559548Y27547683D01*
X-24559547Y27547683D01*
X-24559550Y27547685D01*
X-24742046Y27645232D01*
X-24940066Y27705300D01*
X-24940068Y27705301D01*
X-24940066Y27705301D01*
X-25146000Y27725583D01*
X-25351933Y27705301D01*
X-25549957Y27645231D01*
X-25660102Y27586357D01*
X-25732450Y27547685D01*
X-25732452Y27547684D01*
X-25732453Y27547683D01*
X-25892411Y27416411D01*
X-26023683Y27256453D01*
X-26121231Y27073957D01*
X-26181301Y26875933D01*
X-26201583Y26670000D01*
X-32003500Y26670000D01*
X-32003500Y27939999D01*
X-28545682Y27939999D01*
X-28525045Y27783240D01*
X-28525044Y27783238D01*
X-28484768Y27686002D01*
X-28464536Y27637159D01*
X-28368282Y27511718D01*
X-28242841Y27415464D01*
X-28096762Y27354956D01*
X-28018381Y27344637D01*
X-27940001Y27334318D01*
X-27940000Y27334318D01*
X-27939999Y27334318D01*
X-27887746Y27341198D01*
X-27783238Y27354956D01*
X-27637159Y27415464D01*
X-27511718Y27511718D01*
X-27415464Y27637159D01*
X-27354956Y27783238D01*
X-27334318Y27939999D01*
X-23211682Y27939999D01*
X-23191045Y27783240D01*
X-23191044Y27783238D01*
X-23150768Y27686002D01*
X-23130536Y27637159D01*
X-23034282Y27511718D01*
X-22908841Y27415464D01*
X-22762762Y27354956D01*
X-22684381Y27344637D01*
X-22606001Y27334318D01*
X-22606000Y27334318D01*
X-22605999Y27334318D01*
X-22553746Y27341198D01*
X-22449238Y27354956D01*
X-22303159Y27415464D01*
X-22177718Y27511718D01*
X-22081464Y27637159D01*
X-22020956Y27783238D01*
X-22000318Y27939999D01*
X-20671682Y27939999D01*
X-20651045Y27783240D01*
X-20651044Y27783238D01*
X-20610768Y27686002D01*
X-20590536Y27637159D01*
X-20494282Y27511718D01*
X-20368841Y27415464D01*
X-20222762Y27354956D01*
X-20144381Y27344637D01*
X-20066001Y27334318D01*
X-20066000Y27334318D01*
X-20065999Y27334318D01*
X-20013746Y27341198D01*
X-19909238Y27354956D01*
X-19763159Y27415464D01*
X-19637718Y27511718D01*
X-19541464Y27637159D01*
X-19480956Y27783238D01*
X-19460318Y27940000D01*
X-19480956Y28096762D01*
X-19541464Y28242841D01*
X-19637718Y28368282D01*
X-19763159Y28464536D01*
X-19909238Y28525044D01*
X-19909240Y28525045D01*
X-20065999Y28545682D01*
X-20066001Y28545682D01*
X-20222761Y28525045D01*
X-20222763Y28525044D01*
X-20368840Y28464537D01*
X-20494282Y28368282D01*
X-20590537Y28242840D01*
X-20651044Y28096763D01*
X-20651045Y28096761D01*
X-20671682Y27940002D01*
X-20671682Y27939999D01*
X-22000318Y27939999D01*
X-22000318Y27940000D01*
X-22020956Y28096762D01*
X-22081464Y28242841D01*
X-22177718Y28368282D01*
X-22303159Y28464536D01*
X-22449238Y28525044D01*
X-22449240Y28525045D01*
X-22605999Y28545682D01*
X-22606001Y28545682D01*
X-22762761Y28525045D01*
X-22762763Y28525044D01*
X-22908840Y28464537D01*
X-23034282Y28368282D01*
X-23130537Y28242840D01*
X-23191044Y28096763D01*
X-23191045Y28096761D01*
X-23211682Y27940002D01*
X-23211682Y27939999D01*
X-27334318Y27939999D01*
X-27334318Y27940000D01*
X-27354956Y28096762D01*
X-27415464Y28242841D01*
X-27511718Y28368282D01*
X-27637159Y28464536D01*
X-27783238Y28525044D01*
X-27783240Y28525045D01*
X-27939999Y28545682D01*
X-27940001Y28545682D01*
X-28096761Y28525045D01*
X-28096763Y28525044D01*
X-28242840Y28464537D01*
X-28368282Y28368282D01*
X-28464537Y28242840D01*
X-28525044Y28096763D01*
X-28525045Y28096761D01*
X-28545682Y27940002D01*
X-28545682Y27939999D01*
X-32003500Y27939999D01*
X-32003500Y28337058D01*
X-31983815Y28404097D01*
X-31931011Y28449852D01*
X-31861853Y28459796D01*
X-31804011Y28435431D01*
X-31798841Y28431464D01*
X-31652762Y28370956D01*
X-31574381Y28360637D01*
X-31496001Y28350318D01*
X-31496000Y28350318D01*
X-31495999Y28350318D01*
X-31443746Y28357198D01*
X-31339238Y28370956D01*
X-31193159Y28431464D01*
X-31067718Y28527718D01*
X-30971464Y28653159D01*
X-30910956Y28799238D01*
X-30890318Y28956000D01*
X-30910956Y29112762D01*
X-30951233Y29210000D01*
X-26201583Y29210000D01*
X-26181301Y29004068D01*
X-26151266Y28905056D01*
X-26121232Y28806046D01*
X-26023685Y28623550D01*
X-26023683Y28623548D01*
X-25892411Y28463590D01*
X-25819917Y28404097D01*
X-25732450Y28332315D01*
X-25549954Y28234768D01*
X-25351934Y28174700D01*
X-25351935Y28174700D01*
X-25333471Y28172882D01*
X-25146000Y28154417D01*
X-24940066Y28174700D01*
X-24742046Y28234768D01*
X-24559550Y28332315D01*
X-24399590Y28463590D01*
X-24268315Y28623550D01*
X-24170768Y28806046D01*
X-24110700Y29004066D01*
X-24090417Y29210000D01*
X-24110700Y29415934D01*
X-24125280Y29463999D01*
X-22703682Y29463999D01*
X-22683045Y29307240D01*
X-22683044Y29307238D01*
X-22622536Y29161159D01*
X-22526282Y29035718D01*
X-22400841Y28939464D01*
X-22254762Y28878956D01*
X-22176381Y28868637D01*
X-22098001Y28858318D01*
X-22098000Y28858318D01*
X-22097999Y28858318D01*
X-22045746Y28865198D01*
X-21941238Y28878956D01*
X-21795159Y28939464D01*
X-21669718Y29035718D01*
X-21573464Y29161159D01*
X-21512956Y29307238D01*
X-21492318Y29464000D01*
X-21512956Y29620762D01*
X-21573464Y29766841D01*
X-21669718Y29892282D01*
X-21746891Y29951499D01*
X-7971682Y29951499D01*
X-7951045Y29794740D01*
X-7951044Y29794738D01*
X-7890536Y29648659D01*
X-7794282Y29523218D01*
X-7668841Y29426964D01*
X-7522762Y29366456D01*
X-7444381Y29356137D01*
X-7366001Y29345818D01*
X-7366000Y29345818D01*
X-7365999Y29345818D01*
X-7313746Y29352698D01*
X-7209238Y29366456D01*
X-7063159Y29426964D01*
X-6937718Y29523218D01*
X-6841464Y29648659D01*
X-6780956Y29794738D01*
X-6760318Y29951500D01*
X-6760965Y29956411D01*
X-6780956Y30108261D01*
X-6780956Y30108262D01*
X-6841464Y30254341D01*
X-6937718Y30379782D01*
X-7063159Y30476036D01*
X-7209238Y30536544D01*
X-7209240Y30536545D01*
X-7365999Y30557182D01*
X-7366001Y30557182D01*
X-7522761Y30536545D01*
X-7522763Y30536544D01*
X-7668840Y30476037D01*
X-7794282Y30379782D01*
X-7890537Y30254340D01*
X-7951044Y30108263D01*
X-7951045Y30108261D01*
X-7971682Y29951502D01*
X-7971682Y29951499D01*
X-21746891Y29951499D01*
X-21795159Y29988536D01*
X-21941238Y30049044D01*
X-21941240Y30049045D01*
X-22097999Y30069682D01*
X-22098001Y30069682D01*
X-22254761Y30049045D01*
X-22254763Y30049044D01*
X-22400840Y29988537D01*
X-22526282Y29892282D01*
X-22622537Y29766840D01*
X-22683044Y29620763D01*
X-22683045Y29620761D01*
X-22703682Y29464002D01*
X-22703682Y29463999D01*
X-24125280Y29463999D01*
X-24170768Y29613954D01*
X-24268315Y29796450D01*
X-24346962Y29892282D01*
X-24399590Y29956411D01*
X-24559548Y30087683D01*
X-24559547Y30087683D01*
X-24559550Y30087685D01*
X-24742046Y30185232D01*
X-24940066Y30245300D01*
X-24940068Y30245301D01*
X-24940066Y30245301D01*
X-25146000Y30265583D01*
X-25351933Y30245301D01*
X-25549957Y30185231D01*
X-25617821Y30148956D01*
X-25732450Y30087685D01*
X-25732452Y30087684D01*
X-25732453Y30087683D01*
X-25892411Y29956411D01*
X-26023683Y29796453D01*
X-26121231Y29613957D01*
X-26181301Y29415933D01*
X-26201583Y29210000D01*
X-30951233Y29210000D01*
X-30971464Y29258841D01*
X-31067718Y29384282D01*
X-31193159Y29480536D01*
X-31339238Y29541044D01*
X-31339240Y29541045D01*
X-31495999Y29561682D01*
X-31496001Y29561682D01*
X-31652761Y29541045D01*
X-31652763Y29541044D01*
X-31798843Y29480536D01*
X-31804014Y29476567D01*
X-31869183Y29451373D01*
X-31937628Y29465412D01*
X-31987618Y29514226D01*
X-32003500Y29574943D01*
X-32003500Y30733999D01*
X-28291682Y30733999D01*
X-28271045Y30577240D01*
X-28271044Y30577238D01*
X-28210536Y30431159D01*
X-28114282Y30305718D01*
X-27988841Y30209464D01*
X-27842762Y30148956D01*
X-27764381Y30138637D01*
X-27686001Y30128318D01*
X-27686000Y30128318D01*
X-27685999Y30128318D01*
X-27633746Y30135198D01*
X-27529238Y30148956D01*
X-27383159Y30209464D01*
X-27257718Y30305718D01*
X-27161464Y30431159D01*
X-27100956Y30577238D01*
X-27080318Y30734000D01*
X-27083142Y30755448D01*
X-27100956Y30890761D01*
X-27100956Y30890762D01*
X-27161464Y31036841D01*
X-27257718Y31162282D01*
X-27383159Y31258536D01*
X-27461148Y31290840D01*
X-27529238Y31319044D01*
X-27529240Y31319045D01*
X-27685999Y31339682D01*
X-27686001Y31339682D01*
X-27842761Y31319045D01*
X-27842763Y31319044D01*
X-27988840Y31258537D01*
X-28114282Y31162282D01*
X-28210537Y31036840D01*
X-28271044Y30890763D01*
X-28271045Y30890761D01*
X-28291682Y30734002D01*
X-28291682Y30733999D01*
X-32003500Y30733999D01*
X-32003500Y31893058D01*
X-31983815Y31960097D01*
X-31931011Y32005852D01*
X-31861853Y32015796D01*
X-31804011Y31991431D01*
X-31798841Y31987464D01*
X-31652762Y31926956D01*
X-31574381Y31916637D01*
X-31496001Y31906318D01*
X-31496000Y31906318D01*
X-31495999Y31906318D01*
X-31443746Y31913198D01*
X-31339238Y31926956D01*
X-31193159Y31987464D01*
X-31067718Y32083718D01*
X-30971464Y32209159D01*
X-30910956Y32355238D01*
X-30890318Y32512000D01*
X-30910956Y32668762D01*
X-30971464Y32814841D01*
X-30971465Y32814842D01*
X-30971465Y32814843D01*
X-30975433Y32820014D01*
X-31000627Y32885183D01*
X-30986588Y32953628D01*
X-30937774Y33003618D01*
X-30877057Y33019500D01*
X-27542943Y33019500D01*
X-27475904Y32999815D01*
G37*
%TD.AperFunction*%
%TD*%
M02*
