%TF.GenerationSoftware,KiCad,Pcbnew,8.0.6*%
%TF.CreationDate,2024-12-16T13:19:03+09:00*%
%TF.ProjectId,BDCM_Driver_v1,4244434d-5f44-4726-9976-65725f76312e,rev?*%
%TF.SameCoordinates,PXaac6430PY8670810*%
%TF.FileFunction,Legend,Bot*%
%TF.FilePolarity,Positive*%
%FSLAX46Y46*%
G04 Gerber Fmt 4.6, Leading zero omitted, Abs format (unit mm)*
G04 Created by KiCad (PCBNEW 8.0.6) date 2024-12-16 13:19:03*
%MOMM*%
%LPD*%
G01*
G04 APERTURE LIST*
%ADD10C,0.150000*%
%ADD11C,0.100000*%
%ADD12C,0.010000*%
G04 APERTURE END LIST*
D10*
X-2051256Y6717359D02*
X-2158399Y6681645D01*
X-2158399Y6681645D02*
X-2194113Y6645931D01*
X-2194113Y6645931D02*
X-2229827Y6574502D01*
X-2229827Y6574502D02*
X-2229827Y6467359D01*
X-2229827Y6467359D02*
X-2194113Y6395931D01*
X-2194113Y6395931D02*
X-2158399Y6360216D01*
X-2158399Y6360216D02*
X-2086970Y6324502D01*
X-2086970Y6324502D02*
X-1801256Y6324502D01*
X-1801256Y6324502D02*
X-1801256Y7074502D01*
X-1801256Y7074502D02*
X-2051256Y7074502D01*
X-2051256Y7074502D02*
X-2122684Y7038788D01*
X-2122684Y7038788D02*
X-2158399Y7003074D01*
X-2158399Y7003074D02*
X-2194113Y6931645D01*
X-2194113Y6931645D02*
X-2194113Y6860216D01*
X-2194113Y6860216D02*
X-2158399Y6788788D01*
X-2158399Y6788788D02*
X-2122684Y6753074D01*
X-2122684Y6753074D02*
X-2051256Y6717359D01*
X-2051256Y6717359D02*
X-1801256Y6717359D01*
X-2551256Y6324502D02*
X-2551256Y7074502D01*
X-2551256Y7074502D02*
X-2729827Y7074502D01*
X-2729827Y7074502D02*
X-2836970Y7038788D01*
X-2836970Y7038788D02*
X-2908399Y6967359D01*
X-2908399Y6967359D02*
X-2944113Y6895931D01*
X-2944113Y6895931D02*
X-2979827Y6753074D01*
X-2979827Y6753074D02*
X-2979827Y6645931D01*
X-2979827Y6645931D02*
X-2944113Y6503074D01*
X-2944113Y6503074D02*
X-2908399Y6431645D01*
X-2908399Y6431645D02*
X-2836970Y6360216D01*
X-2836970Y6360216D02*
X-2729827Y6324502D01*
X-2729827Y6324502D02*
X-2551256Y6324502D01*
X-3729827Y6395931D02*
X-3694113Y6360216D01*
X-3694113Y6360216D02*
X-3586970Y6324502D01*
X-3586970Y6324502D02*
X-3515542Y6324502D01*
X-3515542Y6324502D02*
X-3408399Y6360216D01*
X-3408399Y6360216D02*
X-3336970Y6431645D01*
X-3336970Y6431645D02*
X-3301256Y6503074D01*
X-3301256Y6503074D02*
X-3265542Y6645931D01*
X-3265542Y6645931D02*
X-3265542Y6753074D01*
X-3265542Y6753074D02*
X-3301256Y6895931D01*
X-3301256Y6895931D02*
X-3336970Y6967359D01*
X-3336970Y6967359D02*
X-3408399Y7038788D01*
X-3408399Y7038788D02*
X-3515542Y7074502D01*
X-3515542Y7074502D02*
X-3586970Y7074502D01*
X-3586970Y7074502D02*
X-3694113Y7038788D01*
X-3694113Y7038788D02*
X-3729827Y7003074D01*
X-4051256Y6324502D02*
X-4051256Y7074502D01*
X-4051256Y7074502D02*
X-4301256Y6538788D01*
X-4301256Y6538788D02*
X-4551256Y7074502D01*
X-4551256Y7074502D02*
X-4551256Y6324502D01*
X-4729827Y6253074D02*
X-5301256Y6253074D01*
X-5479828Y6324502D02*
X-5479828Y7074502D01*
X-5479828Y7074502D02*
X-5658399Y7074502D01*
X-5658399Y7074502D02*
X-5765542Y7038788D01*
X-5765542Y7038788D02*
X-5836971Y6967359D01*
X-5836971Y6967359D02*
X-5872685Y6895931D01*
X-5872685Y6895931D02*
X-5908399Y6753074D01*
X-5908399Y6753074D02*
X-5908399Y6645931D01*
X-5908399Y6645931D02*
X-5872685Y6503074D01*
X-5872685Y6503074D02*
X-5836971Y6431645D01*
X-5836971Y6431645D02*
X-5765542Y6360216D01*
X-5765542Y6360216D02*
X-5658399Y6324502D01*
X-5658399Y6324502D02*
X-5479828Y6324502D01*
X-6229828Y6324502D02*
X-6229828Y6824502D01*
X-6229828Y6681645D02*
X-6265542Y6753074D01*
X-6265542Y6753074D02*
X-6301256Y6788788D01*
X-6301256Y6788788D02*
X-6372685Y6824502D01*
X-6372685Y6824502D02*
X-6444114Y6824502D01*
X-6694114Y6324502D02*
X-6694114Y6824502D01*
X-6694114Y7074502D02*
X-6658400Y7038788D01*
X-6658400Y7038788D02*
X-6694114Y7003074D01*
X-6694114Y7003074D02*
X-6729828Y7038788D01*
X-6729828Y7038788D02*
X-6694114Y7074502D01*
X-6694114Y7074502D02*
X-6694114Y7003074D01*
X-6979828Y6824502D02*
X-7158400Y6324502D01*
X-7158400Y6324502D02*
X-7336971Y6824502D01*
X-7908400Y6360216D02*
X-7836972Y6324502D01*
X-7836972Y6324502D02*
X-7694114Y6324502D01*
X-7694114Y6324502D02*
X-7622686Y6360216D01*
X-7622686Y6360216D02*
X-7586972Y6431645D01*
X-7586972Y6431645D02*
X-7586972Y6717359D01*
X-7586972Y6717359D02*
X-7622686Y6788788D01*
X-7622686Y6788788D02*
X-7694114Y6824502D01*
X-7694114Y6824502D02*
X-7836972Y6824502D01*
X-7836972Y6824502D02*
X-7908400Y6788788D01*
X-7908400Y6788788D02*
X-7944114Y6717359D01*
X-7944114Y6717359D02*
X-7944114Y6645931D01*
X-7944114Y6645931D02*
X-7586972Y6574502D01*
X-8265543Y6324502D02*
X-8265543Y6824502D01*
X-8265543Y6681645D02*
X-8301257Y6753074D01*
X-8301257Y6753074D02*
X-8336971Y6788788D01*
X-8336971Y6788788D02*
X-8408400Y6824502D01*
X-8408400Y6824502D02*
X-8479829Y6824502D01*
X-8551257Y6253074D02*
X-9122686Y6253074D01*
X-9229829Y6824502D02*
X-9408401Y6324502D01*
X-9408401Y6324502D02*
X-9586972Y6824502D01*
X-9836973Y7003074D02*
X-9872687Y7038788D01*
X-9872687Y7038788D02*
X-9944115Y7074502D01*
X-9944115Y7074502D02*
X-10122687Y7074502D01*
X-10122687Y7074502D02*
X-10194115Y7038788D01*
X-10194115Y7038788D02*
X-10229830Y7003074D01*
X-10229830Y7003074D02*
X-10265544Y6931645D01*
X-10265544Y6931645D02*
X-10265544Y6860216D01*
X-10265544Y6860216D02*
X-10229830Y6753074D01*
X-10229830Y6753074D02*
X-9801258Y6324502D01*
X-9801258Y6324502D02*
X-10265544Y6324502D01*
X-10586973Y6395931D02*
X-10622687Y6360216D01*
X-10622687Y6360216D02*
X-10586973Y6324502D01*
X-10586973Y6324502D02*
X-10551259Y6360216D01*
X-10551259Y6360216D02*
X-10586973Y6395931D01*
X-10586973Y6395931D02*
X-10586973Y6324502D01*
X-11086973Y7074502D02*
X-11158402Y7074502D01*
X-11158402Y7074502D02*
X-11229830Y7038788D01*
X-11229830Y7038788D02*
X-11265544Y7003074D01*
X-11265544Y7003074D02*
X-11301259Y6931645D01*
X-11301259Y6931645D02*
X-11336973Y6788788D01*
X-11336973Y6788788D02*
X-11336973Y6610216D01*
X-11336973Y6610216D02*
X-11301259Y6467359D01*
X-11301259Y6467359D02*
X-11265544Y6395931D01*
X-11265544Y6395931D02*
X-11229830Y6360216D01*
X-11229830Y6360216D02*
X-11158402Y6324502D01*
X-11158402Y6324502D02*
X-11086973Y6324502D01*
X-11086973Y6324502D02*
X-11015544Y6360216D01*
X-11015544Y6360216D02*
X-10979830Y6395931D01*
X-10979830Y6395931D02*
X-10944116Y6467359D01*
X-10944116Y6467359D02*
X-10908402Y6610216D01*
X-10908402Y6610216D02*
X-10908402Y6788788D01*
X-10908402Y6788788D02*
X-10944116Y6931645D01*
X-10944116Y6931645D02*
X-10979830Y7003074D01*
X-10979830Y7003074D02*
X-11015544Y7038788D01*
X-11015544Y7038788D02*
X-11086973Y7074502D01*
X-1765542Y5795616D02*
X-1801256Y5831330D01*
X-1801256Y5831330D02*
X-1872684Y5867044D01*
X-1872684Y5867044D02*
X-2051256Y5867044D01*
X-2051256Y5867044D02*
X-2122684Y5831330D01*
X-2122684Y5831330D02*
X-2158399Y5795616D01*
X-2158399Y5795616D02*
X-2194113Y5724187D01*
X-2194113Y5724187D02*
X-2194113Y5652758D01*
X-2194113Y5652758D02*
X-2158399Y5545616D01*
X-2158399Y5545616D02*
X-1729827Y5117044D01*
X-1729827Y5117044D02*
X-2194113Y5117044D01*
X-2658399Y5867044D02*
X-2729828Y5867044D01*
X-2729828Y5867044D02*
X-2801256Y5831330D01*
X-2801256Y5831330D02*
X-2836970Y5795616D01*
X-2836970Y5795616D02*
X-2872685Y5724187D01*
X-2872685Y5724187D02*
X-2908399Y5581330D01*
X-2908399Y5581330D02*
X-2908399Y5402758D01*
X-2908399Y5402758D02*
X-2872685Y5259901D01*
X-2872685Y5259901D02*
X-2836970Y5188473D01*
X-2836970Y5188473D02*
X-2801256Y5152758D01*
X-2801256Y5152758D02*
X-2729828Y5117044D01*
X-2729828Y5117044D02*
X-2658399Y5117044D01*
X-2658399Y5117044D02*
X-2586970Y5152758D01*
X-2586970Y5152758D02*
X-2551256Y5188473D01*
X-2551256Y5188473D02*
X-2515542Y5259901D01*
X-2515542Y5259901D02*
X-2479828Y5402758D01*
X-2479828Y5402758D02*
X-2479828Y5581330D01*
X-2479828Y5581330D02*
X-2515542Y5724187D01*
X-2515542Y5724187D02*
X-2551256Y5795616D01*
X-2551256Y5795616D02*
X-2586970Y5831330D01*
X-2586970Y5831330D02*
X-2658399Y5867044D01*
X-3194114Y5795616D02*
X-3229828Y5831330D01*
X-3229828Y5831330D02*
X-3301256Y5867044D01*
X-3301256Y5867044D02*
X-3479828Y5867044D01*
X-3479828Y5867044D02*
X-3551256Y5831330D01*
X-3551256Y5831330D02*
X-3586971Y5795616D01*
X-3586971Y5795616D02*
X-3622685Y5724187D01*
X-3622685Y5724187D02*
X-3622685Y5652758D01*
X-3622685Y5652758D02*
X-3586971Y5545616D01*
X-3586971Y5545616D02*
X-3158399Y5117044D01*
X-3158399Y5117044D02*
X-3622685Y5117044D01*
X-4265542Y5617044D02*
X-4265542Y5117044D01*
X-4086971Y5902758D02*
X-3908400Y5367044D01*
X-3908400Y5367044D02*
X-4372685Y5367044D01*
X-4658400Y5402758D02*
X-5229828Y5402758D01*
X-5979828Y5117044D02*
X-5551257Y5117044D01*
X-5765542Y5117044D02*
X-5765542Y5867044D01*
X-5765542Y5867044D02*
X-5694114Y5759901D01*
X-5694114Y5759901D02*
X-5622685Y5688473D01*
X-5622685Y5688473D02*
X-5551257Y5652758D01*
X-6265543Y5795616D02*
X-6301257Y5831330D01*
X-6301257Y5831330D02*
X-6372685Y5867044D01*
X-6372685Y5867044D02*
X-6551257Y5867044D01*
X-6551257Y5867044D02*
X-6622685Y5831330D01*
X-6622685Y5831330D02*
X-6658400Y5795616D01*
X-6658400Y5795616D02*
X-6694114Y5724187D01*
X-6694114Y5724187D02*
X-6694114Y5652758D01*
X-6694114Y5652758D02*
X-6658400Y5545616D01*
X-6658400Y5545616D02*
X-6229828Y5117044D01*
X-6229828Y5117044D02*
X-6694114Y5117044D01*
X-7015543Y5402758D02*
X-7586971Y5402758D01*
X-8086971Y5867044D02*
X-8158400Y5867044D01*
X-8158400Y5867044D02*
X-8229828Y5831330D01*
X-8229828Y5831330D02*
X-8265542Y5795616D01*
X-8265542Y5795616D02*
X-8301257Y5724187D01*
X-8301257Y5724187D02*
X-8336971Y5581330D01*
X-8336971Y5581330D02*
X-8336971Y5402758D01*
X-8336971Y5402758D02*
X-8301257Y5259901D01*
X-8301257Y5259901D02*
X-8265542Y5188473D01*
X-8265542Y5188473D02*
X-8229828Y5152758D01*
X-8229828Y5152758D02*
X-8158400Y5117044D01*
X-8158400Y5117044D02*
X-8086971Y5117044D01*
X-8086971Y5117044D02*
X-8015542Y5152758D01*
X-8015542Y5152758D02*
X-7979828Y5188473D01*
X-7979828Y5188473D02*
X-7944114Y5259901D01*
X-7944114Y5259901D02*
X-7908400Y5402758D01*
X-7908400Y5402758D02*
X-7908400Y5581330D01*
X-7908400Y5581330D02*
X-7944114Y5724187D01*
X-7944114Y5724187D02*
X-7979828Y5795616D01*
X-7979828Y5795616D02*
X-8015542Y5831330D01*
X-8015542Y5831330D02*
X-8086971Y5867044D01*
X-8586971Y5867044D02*
X-9086971Y5867044D01*
X-9086971Y5867044D02*
X-8765543Y5117044D01*
X-1765542Y4588158D02*
X-1801256Y4623872D01*
X-1801256Y4623872D02*
X-1872684Y4659586D01*
X-1872684Y4659586D02*
X-2051256Y4659586D01*
X-2051256Y4659586D02*
X-2122684Y4623872D01*
X-2122684Y4623872D02*
X-2158399Y4588158D01*
X-2158399Y4588158D02*
X-2194113Y4516729D01*
X-2194113Y4516729D02*
X-2194113Y4445300D01*
X-2194113Y4445300D02*
X-2158399Y4338158D01*
X-2158399Y4338158D02*
X-1729827Y3909586D01*
X-1729827Y3909586D02*
X-2194113Y3909586D01*
X-2515542Y3981015D02*
X-2551256Y3945300D01*
X-2551256Y3945300D02*
X-2515542Y3909586D01*
X-2515542Y3909586D02*
X-2479828Y3945300D01*
X-2479828Y3945300D02*
X-2515542Y3981015D01*
X-2515542Y3981015D02*
X-2515542Y3909586D01*
X-3229828Y4659586D02*
X-2872685Y4659586D01*
X-2872685Y4659586D02*
X-2836971Y4302443D01*
X-2836971Y4302443D02*
X-2872685Y4338158D01*
X-2872685Y4338158D02*
X-2944113Y4373872D01*
X-2944113Y4373872D02*
X-3122685Y4373872D01*
X-3122685Y4373872D02*
X-3194113Y4338158D01*
X-3194113Y4338158D02*
X-3229828Y4302443D01*
X-3229828Y4302443D02*
X-3265542Y4231015D01*
X-3265542Y4231015D02*
X-3265542Y4052443D01*
X-3265542Y4052443D02*
X-3229828Y3981015D01*
X-3229828Y3981015D02*
X-3194113Y3945300D01*
X-3194113Y3945300D02*
X-3122685Y3909586D01*
X-3122685Y3909586D02*
X-2944113Y3909586D01*
X-2944113Y3909586D02*
X-2872685Y3945300D01*
X-2872685Y3945300D02*
X-2836971Y3981015D01*
X-3586971Y4195300D02*
X-4158399Y4195300D01*
X-4908399Y3909586D02*
X-4479828Y3909586D01*
X-4694113Y3909586D02*
X-4694113Y4659586D01*
X-4694113Y4659586D02*
X-4622685Y4552443D01*
X-4622685Y4552443D02*
X-4551256Y4481015D01*
X-4551256Y4481015D02*
X-4479828Y4445300D01*
X-5586971Y4659586D02*
X-5229828Y4659586D01*
X-5229828Y4659586D02*
X-5194114Y4302443D01*
X-5194114Y4302443D02*
X-5229828Y4338158D01*
X-5229828Y4338158D02*
X-5301256Y4373872D01*
X-5301256Y4373872D02*
X-5479828Y4373872D01*
X-5479828Y4373872D02*
X-5551256Y4338158D01*
X-5551256Y4338158D02*
X-5586971Y4302443D01*
X-5586971Y4302443D02*
X-5622685Y4231015D01*
X-5622685Y4231015D02*
X-5622685Y4052443D01*
X-5622685Y4052443D02*
X-5586971Y3981015D01*
X-5586971Y3981015D02*
X-5551256Y3945300D01*
X-5551256Y3945300D02*
X-5479828Y3909586D01*
X-5479828Y3909586D02*
X-5301256Y3909586D01*
X-5301256Y3909586D02*
X-5229828Y3945300D01*
X-5229828Y3945300D02*
X-5194114Y3981015D01*
X-5836971Y4659586D02*
X-6086971Y3909586D01*
X-6086971Y3909586D02*
X-6336971Y4659586D01*
X-7122685Y4695300D02*
X-6479828Y3731015D01*
X-7301256Y4659586D02*
X-7765542Y4659586D01*
X-7765542Y4659586D02*
X-7515542Y4373872D01*
X-7515542Y4373872D02*
X-7622685Y4373872D01*
X-7622685Y4373872D02*
X-7694113Y4338158D01*
X-7694113Y4338158D02*
X-7729828Y4302443D01*
X-7729828Y4302443D02*
X-7765542Y4231015D01*
X-7765542Y4231015D02*
X-7765542Y4052443D01*
X-7765542Y4052443D02*
X-7729828Y3981015D01*
X-7729828Y3981015D02*
X-7694113Y3945300D01*
X-7694113Y3945300D02*
X-7622685Y3909586D01*
X-7622685Y3909586D02*
X-7408399Y3909586D01*
X-7408399Y3909586D02*
X-7336971Y3945300D01*
X-7336971Y3945300D02*
X-7301256Y3981015D01*
X-8086971Y3981015D02*
X-8122685Y3945300D01*
X-8122685Y3945300D02*
X-8086971Y3909586D01*
X-8086971Y3909586D02*
X-8051257Y3945300D01*
X-8051257Y3945300D02*
X-8086971Y3981015D01*
X-8086971Y3981015D02*
X-8086971Y3909586D01*
X-8408400Y4588158D02*
X-8444114Y4623872D01*
X-8444114Y4623872D02*
X-8515542Y4659586D01*
X-8515542Y4659586D02*
X-8694114Y4659586D01*
X-8694114Y4659586D02*
X-8765542Y4623872D01*
X-8765542Y4623872D02*
X-8801257Y4588158D01*
X-8801257Y4588158D02*
X-8836971Y4516729D01*
X-8836971Y4516729D02*
X-8836971Y4445300D01*
X-8836971Y4445300D02*
X-8801257Y4338158D01*
X-8801257Y4338158D02*
X-8372685Y3909586D01*
X-8372685Y3909586D02*
X-8836971Y3909586D01*
X-9122686Y4123872D02*
X-9479828Y4123872D01*
X-9051257Y3909586D02*
X-9301257Y4659586D01*
X-9301257Y4659586D02*
X-9551257Y3909586D01*
X-9765543Y4226729D02*
X-9765543Y3626729D01*
X-9765543Y4198158D02*
X-9822685Y4226729D01*
X-9822685Y4226729D02*
X-9936971Y4226729D01*
X-9936971Y4226729D02*
X-9994114Y4198158D01*
X-9994114Y4198158D02*
X-10022685Y4169586D01*
X-10022685Y4169586D02*
X-10051257Y4112443D01*
X-10051257Y4112443D02*
X-10051257Y3941015D01*
X-10051257Y3941015D02*
X-10022685Y3883872D01*
X-10022685Y3883872D02*
X-9994114Y3855300D01*
X-9994114Y3855300D02*
X-9936971Y3826729D01*
X-9936971Y3826729D02*
X-9822685Y3826729D01*
X-9822685Y3826729D02*
X-9765543Y3855300D01*
X-10536971Y3855300D02*
X-10479828Y3826729D01*
X-10479828Y3826729D02*
X-10365542Y3826729D01*
X-10365542Y3826729D02*
X-10308400Y3855300D01*
X-10308400Y3855300D02*
X-10279828Y3912443D01*
X-10279828Y3912443D02*
X-10279828Y4141015D01*
X-10279828Y4141015D02*
X-10308400Y4198158D01*
X-10308400Y4198158D02*
X-10365542Y4226729D01*
X-10365542Y4226729D02*
X-10479828Y4226729D01*
X-10479828Y4226729D02*
X-10536971Y4198158D01*
X-10536971Y4198158D02*
X-10565542Y4141015D01*
X-10565542Y4141015D02*
X-10565542Y4083872D01*
X-10565542Y4083872D02*
X-10279828Y4026729D01*
X-11079828Y3826729D02*
X-11079828Y4141015D01*
X-11079828Y4141015D02*
X-11051257Y4198158D01*
X-11051257Y4198158D02*
X-10994114Y4226729D01*
X-10994114Y4226729D02*
X-10879828Y4226729D01*
X-10879828Y4226729D02*
X-10822686Y4198158D01*
X-11079828Y3855300D02*
X-11022686Y3826729D01*
X-11022686Y3826729D02*
X-10879828Y3826729D01*
X-10879828Y3826729D02*
X-10822686Y3855300D01*
X-10822686Y3855300D02*
X-10794114Y3912443D01*
X-10794114Y3912443D02*
X-10794114Y3969586D01*
X-10794114Y3969586D02*
X-10822686Y4026729D01*
X-10822686Y4026729D02*
X-10879828Y4055300D01*
X-10879828Y4055300D02*
X-11022686Y4055300D01*
X-11022686Y4055300D02*
X-11079828Y4083872D01*
X-11365543Y3826729D02*
X-11365543Y4426729D01*
X-11422685Y4055300D02*
X-11594114Y3826729D01*
X-11594114Y4226729D02*
X-11365543Y3998158D01*
D11*
X-1904075Y3443105D02*
X-1904075Y2871677D01*
X-1904075Y2871677D02*
X-1875504Y2757391D01*
X-1875504Y2757391D02*
X-1818361Y2681200D01*
X-1818361Y2681200D02*
X-1732647Y2643105D01*
X-1732647Y2643105D02*
X-1675504Y2643105D01*
X-2475504Y2643105D02*
X-2189790Y2643105D01*
X-2189790Y2643105D02*
X-2189790Y3443105D01*
X-3018361Y2719296D02*
X-2989789Y2681200D01*
X-2989789Y2681200D02*
X-2904075Y2643105D01*
X-2904075Y2643105D02*
X-2846932Y2643105D01*
X-2846932Y2643105D02*
X-2761218Y2681200D01*
X-2761218Y2681200D02*
X-2704075Y2757391D01*
X-2704075Y2757391D02*
X-2675504Y2833581D01*
X-2675504Y2833581D02*
X-2646932Y2985962D01*
X-2646932Y2985962D02*
X-2646932Y3100248D01*
X-2646932Y3100248D02*
X-2675504Y3252629D01*
X-2675504Y3252629D02*
X-2704075Y3328820D01*
X-2704075Y3328820D02*
X-2761218Y3405010D01*
X-2761218Y3405010D02*
X-2846932Y3443105D01*
X-2846932Y3443105D02*
X-2904075Y3443105D01*
X-2904075Y3443105D02*
X-2989789Y3405010D01*
X-2989789Y3405010D02*
X-3018361Y3366915D01*
X-3446932Y3443105D02*
X-3446932Y2871677D01*
X-3446932Y2871677D02*
X-3418361Y2757391D01*
X-3418361Y2757391D02*
X-3361218Y2681200D01*
X-3361218Y2681200D02*
X-3275504Y2643105D01*
X-3275504Y2643105D02*
X-3218361Y2643105D01*
X-4018361Y2643105D02*
X-3732647Y2643105D01*
X-3732647Y2643105D02*
X-3732647Y3443105D01*
X-4561218Y2719296D02*
X-4532646Y2681200D01*
X-4532646Y2681200D02*
X-4446932Y2643105D01*
X-4446932Y2643105D02*
X-4389789Y2643105D01*
X-4389789Y2643105D02*
X-4304075Y2681200D01*
X-4304075Y2681200D02*
X-4246932Y2757391D01*
X-4246932Y2757391D02*
X-4218361Y2833581D01*
X-4218361Y2833581D02*
X-4189789Y2985962D01*
X-4189789Y2985962D02*
X-4189789Y3100248D01*
X-4189789Y3100248D02*
X-4218361Y3252629D01*
X-4218361Y3252629D02*
X-4246932Y3328820D01*
X-4246932Y3328820D02*
X-4304075Y3405010D01*
X-4304075Y3405010D02*
X-4389789Y3443105D01*
X-4389789Y3443105D02*
X-4446932Y3443105D01*
X-4446932Y3443105D02*
X-4532646Y3405010D01*
X-4532646Y3405010D02*
X-4561218Y3366915D01*
X-4989789Y3443105D02*
X-4989789Y2871677D01*
X-4989789Y2871677D02*
X-4961218Y2757391D01*
X-4961218Y2757391D02*
X-4904075Y2681200D01*
X-4904075Y2681200D02*
X-4818361Y2643105D01*
X-4818361Y2643105D02*
X-4761218Y2643105D01*
X-5561218Y2643105D02*
X-5275504Y2643105D01*
X-5275504Y2643105D02*
X-5275504Y3443105D01*
X-6104075Y2719296D02*
X-6075503Y2681200D01*
X-6075503Y2681200D02*
X-5989789Y2643105D01*
X-5989789Y2643105D02*
X-5932646Y2643105D01*
X-5932646Y2643105D02*
X-5846932Y2681200D01*
X-5846932Y2681200D02*
X-5789789Y2757391D01*
X-5789789Y2757391D02*
X-5761218Y2833581D01*
X-5761218Y2833581D02*
X-5732646Y2985962D01*
X-5732646Y2985962D02*
X-5732646Y3100248D01*
X-5732646Y3100248D02*
X-5761218Y3252629D01*
X-5761218Y3252629D02*
X-5789789Y3328820D01*
X-5789789Y3328820D02*
X-5846932Y3405010D01*
X-5846932Y3405010D02*
X-5932646Y3443105D01*
X-5932646Y3443105D02*
X-5989789Y3443105D01*
X-5989789Y3443105D02*
X-6075503Y3405010D01*
X-6075503Y3405010D02*
X-6104075Y3366915D01*
X-6532646Y3443105D02*
X-6532646Y2871677D01*
X-6532646Y2871677D02*
X-6504075Y2757391D01*
X-6504075Y2757391D02*
X-6446932Y2681200D01*
X-6446932Y2681200D02*
X-6361218Y2643105D01*
X-6361218Y2643105D02*
X-6304075Y2643105D01*
X-7104075Y2643105D02*
X-6818361Y2643105D01*
X-6818361Y2643105D02*
X-6818361Y3443105D01*
X-7646932Y2719296D02*
X-7618360Y2681200D01*
X-7618360Y2681200D02*
X-7532646Y2643105D01*
X-7532646Y2643105D02*
X-7475503Y2643105D01*
X-7475503Y2643105D02*
X-7389789Y2681200D01*
X-7389789Y2681200D02*
X-7332646Y2757391D01*
X-7332646Y2757391D02*
X-7304075Y2833581D01*
X-7304075Y2833581D02*
X-7275503Y2985962D01*
X-7275503Y2985962D02*
X-7275503Y3100248D01*
X-7275503Y3100248D02*
X-7304075Y3252629D01*
X-7304075Y3252629D02*
X-7332646Y3328820D01*
X-7332646Y3328820D02*
X-7389789Y3405010D01*
X-7389789Y3405010D02*
X-7475503Y3443105D01*
X-7475503Y3443105D02*
X-7532646Y3443105D01*
X-7532646Y3443105D02*
X-7618360Y3405010D01*
X-7618360Y3405010D02*
X-7646932Y3366915D01*
D12*
%TO.C,G\u002A\u002A\u002A*%
X-19710400Y804334D02*
X-20252266Y804334D01*
X-20252266Y922867D01*
X-19710400Y922867D01*
X-19710400Y804334D01*
G36*
X-19710400Y804334D02*
G01*
X-20252266Y804334D01*
X-20252266Y922867D01*
X-19710400Y922867D01*
X-19710400Y804334D01*
G37*
X-19879733Y279401D02*
X-20082933Y279401D01*
X-20082933Y736601D01*
X-19879733Y736601D01*
X-19879733Y279401D01*
G36*
X-19879733Y279401D02*
G01*
X-20082933Y279401D01*
X-20082933Y736601D01*
X-19879733Y736601D01*
X-19879733Y279401D01*
G37*
X-18931466Y1430867D02*
X-19388666Y1430867D01*
X-19388666Y2887134D01*
X-18931466Y2887134D01*
X-18931466Y1430867D01*
G36*
X-18931466Y1430867D02*
G01*
X-19388666Y1430867D01*
X-19388666Y2887134D01*
X-18931466Y2887134D01*
X-18931466Y1430867D01*
G37*
X-17272000Y279401D02*
X-17475200Y279401D01*
X-17475200Y922867D01*
X-17272000Y922867D01*
X-17272000Y279401D01*
G36*
X-17272000Y279401D02*
G01*
X-17475200Y279401D01*
X-17475200Y922867D01*
X-17272000Y922867D01*
X-17272000Y279401D01*
G37*
X-16069733Y1430867D02*
X-16543866Y1430867D01*
X-16543866Y2887134D01*
X-16069733Y2887134D01*
X-16069733Y1430867D01*
G36*
X-16069733Y1430867D02*
G01*
X-16543866Y1430867D01*
X-16543866Y2887134D01*
X-16069733Y2887134D01*
X-16069733Y1430867D01*
G37*
X-15053733Y279401D02*
X-15239999Y279401D01*
X-15239999Y922867D01*
X-15053733Y922867D01*
X-15053733Y279401D01*
G36*
X-15053733Y279401D02*
G01*
X-15239999Y279401D01*
X-15239999Y922867D01*
X-15053733Y922867D01*
X-15053733Y279401D01*
G37*
X-14325599Y9042401D02*
X-14334066Y9033934D01*
X-14342533Y9042401D01*
X-14334066Y9050867D01*
X-14325599Y9042401D01*
G36*
X-14325599Y9042401D02*
G01*
X-14334066Y9033934D01*
X-14342533Y9042401D01*
X-14334066Y9050867D01*
X-14325599Y9042401D01*
G37*
X-13682133Y804334D02*
X-14207066Y804334D01*
X-14207066Y922867D01*
X-13682133Y922867D01*
X-13682133Y804334D01*
G36*
X-13682133Y804334D02*
G01*
X-14207066Y804334D01*
X-14207066Y922867D01*
X-13682133Y922867D01*
X-13682133Y804334D01*
G37*
X-13851466Y279401D02*
X-14037733Y279401D01*
X-14037733Y736601D01*
X-13851466Y736601D01*
X-13851466Y279401D01*
G36*
X-13851466Y279401D02*
G01*
X-14037733Y279401D01*
X-14037733Y736601D01*
X-13851466Y736601D01*
X-13851466Y279401D01*
G37*
X-12547600Y279401D02*
X-12733866Y279401D01*
X-12733866Y922867D01*
X-12547600Y922867D01*
X-12547600Y279401D01*
G36*
X-12547600Y279401D02*
G01*
X-12733866Y279401D01*
X-12733866Y922867D01*
X-12547600Y922867D01*
X-12547600Y279401D01*
G37*
X-11819466Y279401D02*
X-12005733Y279401D01*
X-12005733Y922867D01*
X-11819466Y922867D01*
X-11819466Y279401D01*
G36*
X-11819466Y279401D02*
G01*
X-12005733Y279401D01*
X-12005733Y922867D01*
X-11819466Y922867D01*
X-11819466Y279401D01*
G37*
X-16594666Y279401D02*
X-16780933Y279401D01*
X-16780933Y550334D01*
X-16984133Y550334D01*
X-16984133Y651934D01*
X-16780933Y651934D01*
X-16780933Y922867D01*
X-16594666Y922867D01*
X-16594666Y279401D01*
G36*
X-16594666Y279401D02*
G01*
X-16780933Y279401D01*
X-16780933Y550334D01*
X-16984133Y550334D01*
X-16984133Y651934D01*
X-16780933Y651934D01*
X-16780933Y922867D01*
X-16594666Y922867D01*
X-16594666Y279401D01*
G37*
X-12186237Y402167D02*
X-12190508Y391984D01*
X-12211640Y343840D01*
X-12228302Y309034D01*
X-12243470Y292695D01*
X-12277314Y282345D01*
X-12336345Y279401D01*
X-12428698Y279401D01*
X-12337344Y465667D01*
X-12159861Y465667D01*
X-12186237Y402167D01*
G36*
X-12186237Y402167D02*
G01*
X-12190508Y391984D01*
X-12211640Y343840D01*
X-12228302Y309034D01*
X-12243470Y292695D01*
X-12277314Y282345D01*
X-12336345Y279401D01*
X-12428698Y279401D01*
X-12337344Y465667D01*
X-12159861Y465667D01*
X-12186237Y402167D01*
G37*
X-14440468Y732880D02*
X-14430302Y704570D01*
X-14400780Y622835D01*
X-14367376Y530837D01*
X-14335544Y443615D01*
X-14274767Y277630D01*
X-14362927Y282748D01*
X-14451088Y287867D01*
X-14507249Y462481D01*
X-14563411Y637094D01*
X-14484615Y856160D01*
X-14440468Y732880D01*
G36*
X-14440468Y732880D02*
G01*
X-14430302Y704570D01*
X-14400780Y622835D01*
X-14367376Y530837D01*
X-14335544Y443615D01*
X-14274767Y277630D01*
X-14362927Y282748D01*
X-14451088Y287867D01*
X-14507249Y462481D01*
X-14563411Y637094D01*
X-14484615Y856160D01*
X-14440468Y732880D01*
G37*
X-20685457Y824177D02*
X-20638288Y725487D01*
X-20676882Y635771D01*
X-20715477Y546056D01*
X-20804737Y721761D01*
X-20837928Y787887D01*
X-20867250Y847952D01*
X-20887263Y890872D01*
X-20894865Y910167D01*
X-20890276Y914486D01*
X-20861247Y920505D01*
X-20814180Y922867D01*
X-20732627Y922867D01*
X-20685457Y824177D01*
G36*
X-20685457Y824177D02*
G01*
X-20638288Y725487D01*
X-20676882Y635771D01*
X-20715477Y546056D01*
X-20804737Y721761D01*
X-20837928Y787887D01*
X-20867250Y847952D01*
X-20887263Y890872D01*
X-20894865Y910167D01*
X-20890276Y914486D01*
X-20861247Y920505D01*
X-20814180Y922867D01*
X-20732627Y922867D01*
X-20685457Y824177D01*
G37*
X-17695221Y465266D02*
X-17661287Y460992D01*
X-17647278Y448458D01*
X-17644533Y423334D01*
X-17641754Y398396D01*
X-17625346Y384163D01*
X-17585266Y381001D01*
X-17546061Y378330D01*
X-17529303Y364331D01*
X-17526000Y330201D01*
X-17526000Y279401D01*
X-17813866Y279401D01*
X-17813866Y465667D01*
X-17729200Y465667D01*
X-17695221Y465266D01*
G36*
X-17695221Y465266D02*
G01*
X-17661287Y460992D01*
X-17647278Y448458D01*
X-17644533Y423334D01*
X-17641754Y398396D01*
X-17625346Y384163D01*
X-17585266Y381001D01*
X-17546061Y378330D01*
X-17529303Y364331D01*
X-17526000Y330201D01*
X-17526000Y279401D01*
X-17813866Y279401D01*
X-17813866Y465667D01*
X-17729200Y465667D01*
X-17695221Y465266D01*
G37*
X-15460021Y465266D02*
X-15426087Y460992D01*
X-15412078Y448458D01*
X-15409333Y423334D01*
X-15406554Y398396D01*
X-15390146Y384163D01*
X-15350066Y381001D01*
X-15310861Y378330D01*
X-15294103Y364331D01*
X-15290800Y330201D01*
X-15290800Y279401D01*
X-15578666Y279401D01*
X-15578666Y465667D01*
X-15494000Y465667D01*
X-15460021Y465266D01*
G36*
X-15460021Y465266D02*
G01*
X-15426087Y460992D01*
X-15412078Y448458D01*
X-15409333Y423334D01*
X-15406554Y398396D01*
X-15390146Y384163D01*
X-15350066Y381001D01*
X-15310861Y378330D01*
X-15294103Y364331D01*
X-15290800Y330201D01*
X-15290800Y279401D01*
X-15578666Y279401D01*
X-15578666Y465667D01*
X-15494000Y465667D01*
X-15460021Y465266D01*
G37*
X-16831733Y872067D02*
X-16831840Y861159D01*
X-16836728Y834144D01*
X-16856035Y823273D01*
X-16899466Y821267D01*
X-16938562Y819350D01*
X-16961519Y809557D01*
X-16967200Y787401D01*
X-16968193Y775519D01*
X-16978473Y761359D01*
X-17006511Y755004D01*
X-17060333Y753534D01*
X-17153466Y753534D01*
X-17153466Y922867D01*
X-16831733Y922867D01*
X-16831733Y872067D01*
G36*
X-16831733Y872067D02*
G01*
X-16831840Y861159D01*
X-16836728Y834144D01*
X-16856035Y823273D01*
X-16899466Y821267D01*
X-16938562Y819350D01*
X-16961519Y809557D01*
X-16967200Y787401D01*
X-16968193Y775519D01*
X-16978473Y761359D01*
X-17006511Y755004D01*
X-17060333Y753534D01*
X-17153466Y753534D01*
X-17153466Y922867D01*
X-16831733Y922867D01*
X-16831733Y872067D01*
G37*
X-17027659Y448373D02*
X-16988720Y444634D01*
X-16971242Y434439D01*
X-16967200Y414867D01*
X-16963365Y395319D01*
X-16943780Y383841D01*
X-16899466Y381001D01*
X-16884922Y380920D01*
X-16848902Y377254D01*
X-16834408Y362774D01*
X-16831733Y330201D01*
X-16831733Y279401D01*
X-17153466Y279401D01*
X-17153466Y448734D01*
X-17060333Y448734D01*
X-17027659Y448373D01*
G36*
X-17027659Y448373D02*
G01*
X-16988720Y444634D01*
X-16971242Y434439D01*
X-16967200Y414867D01*
X-16963365Y395319D01*
X-16943780Y383841D01*
X-16899466Y381001D01*
X-16884922Y380920D01*
X-16848902Y377254D01*
X-16834408Y362774D01*
X-16831733Y330201D01*
X-16831733Y279401D01*
X-17153466Y279401D01*
X-17153466Y448734D01*
X-17060333Y448734D01*
X-17027659Y448373D01*
G37*
X-16282658Y752080D02*
X-16233337Y581292D01*
X-16272373Y460088D01*
X-16311409Y338885D01*
X-16400011Y592776D01*
X-16417554Y643129D01*
X-16447252Y728747D01*
X-16472456Y801890D01*
X-16490932Y856062D01*
X-16500447Y884767D01*
X-16504931Y903503D01*
X-16499107Y916612D01*
X-16473924Y921891D01*
X-16422131Y922867D01*
X-16331980Y922867D01*
X-16282658Y752080D01*
G36*
X-16282658Y752080D02*
G01*
X-16233337Y581292D01*
X-16272373Y460088D01*
X-16311409Y338885D01*
X-16400011Y592776D01*
X-16417554Y643129D01*
X-16447252Y728747D01*
X-16472456Y801890D01*
X-16490932Y856062D01*
X-16500447Y884767D01*
X-16504931Y903503D01*
X-16499107Y916612D01*
X-16473924Y921891D01*
X-16422131Y922867D01*
X-16331980Y922867D01*
X-16282658Y752080D01*
G37*
X-18883988Y921514D02*
X-18857892Y915708D01*
X-18848214Y900625D01*
X-18846800Y872067D01*
X-18846906Y861159D01*
X-18851795Y834144D01*
X-18871102Y823273D01*
X-18914533Y821267D01*
X-18982266Y821267D01*
X-18982266Y685801D01*
X-19185466Y685801D01*
X-19185466Y738533D01*
X-19180700Y771420D01*
X-19158741Y810123D01*
X-19113500Y856372D01*
X-19083697Y882335D01*
X-19044733Y908195D01*
X-19003470Y919435D01*
X-18944166Y922173D01*
X-18934656Y922238D01*
X-18883988Y921514D01*
G36*
X-18883988Y921514D02*
G01*
X-18857892Y915708D01*
X-18848214Y900625D01*
X-18846800Y872067D01*
X-18846906Y861159D01*
X-18851795Y834144D01*
X-18871102Y823273D01*
X-18914533Y821267D01*
X-18982266Y821267D01*
X-18982266Y685801D01*
X-19185466Y685801D01*
X-19185466Y738533D01*
X-19180700Y771420D01*
X-19158741Y810123D01*
X-19113500Y856372D01*
X-19083697Y882335D01*
X-19044733Y908195D01*
X-19003470Y919435D01*
X-18944166Y922173D01*
X-18934656Y922238D01*
X-18883988Y921514D01*
G37*
X-18726169Y919984D02*
X-18696341Y897317D01*
X-18657013Y860164D01*
X-18592800Y797461D01*
X-18592800Y407828D01*
X-18655503Y343614D01*
X-18680346Y320309D01*
X-18720086Y290898D01*
X-18748636Y279401D01*
X-18759043Y281477D01*
X-18766911Y290783D01*
X-18772406Y311758D01*
X-18775950Y348841D01*
X-18777961Y406472D01*
X-18778860Y489090D01*
X-18779066Y601134D01*
X-18778700Y718618D01*
X-18776703Y810129D01*
X-18771763Y873239D01*
X-18762568Y910729D01*
X-18747807Y925383D01*
X-18726169Y919984D01*
G36*
X-18726169Y919984D02*
G01*
X-18696341Y897317D01*
X-18657013Y860164D01*
X-18592800Y797461D01*
X-18592800Y407828D01*
X-18655503Y343614D01*
X-18680346Y320309D01*
X-18720086Y290898D01*
X-18748636Y279401D01*
X-18759043Y281477D01*
X-18766911Y290783D01*
X-18772406Y311758D01*
X-18775950Y348841D01*
X-18777961Y406472D01*
X-18778860Y489090D01*
X-18779066Y601134D01*
X-18778700Y718618D01*
X-18776703Y810129D01*
X-18771763Y873239D01*
X-18762568Y910729D01*
X-18747807Y925383D01*
X-18726169Y919984D01*
G37*
X-15908581Y921330D02*
X-15876519Y914632D01*
X-15870784Y901701D01*
X-15870791Y901683D01*
X-15878749Y879569D01*
X-15896093Y830943D01*
X-15920902Y761203D01*
X-15951258Y675745D01*
X-15985239Y579967D01*
X-16091819Y279401D01*
X-16173909Y279401D01*
X-16202023Y280172D01*
X-16240791Y284754D01*
X-16256000Y292089D01*
X-16255969Y292489D01*
X-16250101Y314008D01*
X-16235214Y362069D01*
X-16212964Y431504D01*
X-16185005Y517145D01*
X-16152992Y613822D01*
X-16049985Y922867D01*
X-15956447Y922867D01*
X-15908581Y921330D01*
G36*
X-15908581Y921330D02*
G01*
X-15876519Y914632D01*
X-15870784Y901701D01*
X-15870791Y901683D01*
X-15878749Y879569D01*
X-15896093Y830943D01*
X-15920902Y761203D01*
X-15951258Y675745D01*
X-15985239Y579967D01*
X-16091819Y279401D01*
X-16173909Y279401D01*
X-16202023Y280172D01*
X-16240791Y284754D01*
X-16256000Y292089D01*
X-16255969Y292489D01*
X-16250101Y314008D01*
X-16235214Y362069D01*
X-16212964Y431504D01*
X-16185005Y517145D01*
X-16152992Y613822D01*
X-16049985Y922867D01*
X-15956447Y922867D01*
X-15908581Y921330D01*
G37*
X-18982266Y431801D02*
X-18982159Y420892D01*
X-18977271Y393877D01*
X-18957964Y383007D01*
X-18914533Y381001D01*
X-18899988Y380920D01*
X-18863969Y377254D01*
X-18849474Y362774D01*
X-18846800Y330201D01*
X-18846806Y324854D01*
X-18848958Y298655D01*
X-18860604Y285153D01*
X-18889868Y280137D01*
X-18944874Y279401D01*
X-18999449Y280896D01*
X-19038272Y289497D01*
X-19071863Y311202D01*
X-19114207Y352008D01*
X-19158694Y400802D01*
X-19183585Y440654D01*
X-19179830Y465765D01*
X-19146800Y478843D01*
X-19083866Y482601D01*
X-18982266Y482601D01*
X-18982266Y431801D01*
G36*
X-18982266Y431801D02*
G01*
X-18982159Y420892D01*
X-18977271Y393877D01*
X-18957964Y383007D01*
X-18914533Y381001D01*
X-18899988Y380920D01*
X-18863969Y377254D01*
X-18849474Y362774D01*
X-18846800Y330201D01*
X-18846806Y324854D01*
X-18848958Y298655D01*
X-18860604Y285153D01*
X-18889868Y280137D01*
X-18944874Y279401D01*
X-18999449Y280896D01*
X-19038272Y289497D01*
X-19071863Y311202D01*
X-19114207Y352008D01*
X-19158694Y400802D01*
X-19183585Y440654D01*
X-19179830Y465765D01*
X-19146800Y478843D01*
X-19083866Y482601D01*
X-18982266Y482601D01*
X-18982266Y431801D01*
G37*
X-20357038Y922506D02*
X-20318278Y920327D01*
X-20303066Y916830D01*
X-20303810Y914545D01*
X-20314874Y889330D01*
X-20337134Y841112D01*
X-20367946Y775573D01*
X-20404666Y698399D01*
X-20427056Y651254D01*
X-20461978Y574584D01*
X-20484957Y516859D01*
X-20498397Y470613D01*
X-20504699Y428382D01*
X-20506266Y382702D01*
X-20506266Y279401D01*
X-20692533Y279401D01*
X-20692533Y367568D01*
X-20692222Y383490D01*
X-20687911Y423337D01*
X-20676744Y467421D01*
X-20656469Y522164D01*
X-20624831Y593983D01*
X-20579577Y689301D01*
X-20466621Y922867D01*
X-20384844Y922867D01*
X-20357038Y922506D01*
G36*
X-20357038Y922506D02*
G01*
X-20318278Y920327D01*
X-20303066Y916830D01*
X-20303810Y914545D01*
X-20314874Y889330D01*
X-20337134Y841112D01*
X-20367946Y775573D01*
X-20404666Y698399D01*
X-20427056Y651254D01*
X-20461978Y574584D01*
X-20484957Y516859D01*
X-20498397Y470613D01*
X-20504699Y428382D01*
X-20506266Y382702D01*
X-20506266Y279401D01*
X-20692533Y279401D01*
X-20692533Y367568D01*
X-20692222Y383490D01*
X-20687911Y423337D01*
X-20676744Y467421D01*
X-20656469Y522164D01*
X-20624831Y593983D01*
X-20579577Y689301D01*
X-20466621Y922867D01*
X-20384844Y922867D01*
X-20357038Y922506D01*
G37*
X-17764058Y2751589D02*
X-17755276Y2734188D01*
X-17736200Y2688766D01*
X-17708197Y2618817D01*
X-17672633Y2527835D01*
X-17630875Y2419314D01*
X-17584290Y2296746D01*
X-17534245Y2163628D01*
X-17314333Y1575588D01*
X-17309464Y1731828D01*
X-17304595Y1888067D01*
X-16882533Y1888067D01*
X-16882533Y1701801D01*
X-16645466Y1701801D01*
X-16645466Y1430385D01*
X-17173847Y1434859D01*
X-17702227Y1439334D01*
X-17832682Y1842874D01*
X-17963136Y2246414D01*
X-17868743Y2499041D01*
X-17847909Y2554146D01*
X-17817324Y2632545D01*
X-17791713Y2695161D01*
X-17773285Y2736650D01*
X-17764253Y2751667D01*
X-17764058Y2751589D01*
G36*
X-17764058Y2751589D02*
G01*
X-17755276Y2734188D01*
X-17736200Y2688766D01*
X-17708197Y2618817D01*
X-17672633Y2527835D01*
X-17630875Y2419314D01*
X-17584290Y2296746D01*
X-17534245Y2163628D01*
X-17314333Y1575588D01*
X-17309464Y1731828D01*
X-17304595Y1888067D01*
X-16882533Y1888067D01*
X-16882533Y1701801D01*
X-16645466Y1701801D01*
X-16645466Y1430385D01*
X-17173847Y1434859D01*
X-17702227Y1439334D01*
X-17832682Y1842874D01*
X-17963136Y2246414D01*
X-17868743Y2499041D01*
X-17847909Y2554146D01*
X-17817324Y2632545D01*
X-17791713Y2695161D01*
X-17773285Y2736650D01*
X-17764253Y2751667D01*
X-17764058Y2751589D01*
G37*
X-18247685Y922607D02*
X-18216759Y917721D01*
X-18205118Y900612D01*
X-18203333Y863601D01*
X-18205318Y828688D01*
X-18217038Y808762D01*
X-18245666Y804334D01*
X-18288000Y804334D01*
X-18288000Y397934D01*
X-18245666Y397934D01*
X-18220729Y395155D01*
X-18206496Y378747D01*
X-18203333Y338667D01*
X-18203595Y317098D01*
X-18209274Y290872D01*
X-18229761Y280948D01*
X-18274586Y279401D01*
X-18276376Y279404D01*
X-18325049Y284270D01*
X-18364762Y302927D01*
X-18410052Y342104D01*
X-18474266Y404807D01*
X-18474266Y794439D01*
X-18411563Y858653D01*
X-18404236Y866078D01*
X-18362782Y902177D01*
X-18324867Y918832D01*
X-18276096Y922867D01*
X-18247685Y922607D01*
G36*
X-18247685Y922607D02*
G01*
X-18216759Y917721D01*
X-18205118Y900612D01*
X-18203333Y863601D01*
X-18205318Y828688D01*
X-18217038Y808762D01*
X-18245666Y804334D01*
X-18288000Y804334D01*
X-18288000Y397934D01*
X-18245666Y397934D01*
X-18220729Y395155D01*
X-18206496Y378747D01*
X-18203333Y338667D01*
X-18203595Y317098D01*
X-18209274Y290872D01*
X-18229761Y280948D01*
X-18274586Y279401D01*
X-18276376Y279404D01*
X-18325049Y284270D01*
X-18364762Y302927D01*
X-18410052Y342104D01*
X-18474266Y404807D01*
X-18474266Y794439D01*
X-18411563Y858653D01*
X-18404236Y866078D01*
X-18362782Y902177D01*
X-18324867Y918832D01*
X-18276096Y922867D01*
X-18247685Y922607D01*
G37*
X-18079490Y922864D02*
X-18030817Y917998D01*
X-17991104Y899340D01*
X-17945813Y860164D01*
X-17881600Y797461D01*
X-17881600Y407828D01*
X-17944303Y343614D01*
X-17951629Y336189D01*
X-17993084Y300091D01*
X-18030999Y283436D01*
X-18079769Y279401D01*
X-18108180Y279661D01*
X-18139107Y284547D01*
X-18150748Y301656D01*
X-18152533Y338667D01*
X-18150548Y373580D01*
X-18138828Y393506D01*
X-18110200Y397934D01*
X-18067866Y397934D01*
X-18067866Y804334D01*
X-18110200Y804334D01*
X-18135137Y807113D01*
X-18149370Y823521D01*
X-18152533Y863601D01*
X-18152270Y885169D01*
X-18146592Y911396D01*
X-18126104Y921320D01*
X-18081280Y922867D01*
X-18079490Y922864D01*
G36*
X-18079490Y922864D02*
G01*
X-18030817Y917998D01*
X-17991104Y899340D01*
X-17945813Y860164D01*
X-17881600Y797461D01*
X-17881600Y407828D01*
X-17944303Y343614D01*
X-17951629Y336189D01*
X-17993084Y300091D01*
X-18030999Y283436D01*
X-18079769Y279401D01*
X-18108180Y279661D01*
X-18139107Y284547D01*
X-18150748Y301656D01*
X-18152533Y338667D01*
X-18150548Y373580D01*
X-18138828Y393506D01*
X-18110200Y397934D01*
X-18067866Y397934D01*
X-18067866Y804334D01*
X-18110200Y804334D01*
X-18135137Y807113D01*
X-18149370Y823521D01*
X-18152533Y863601D01*
X-18152270Y885169D01*
X-18146592Y911396D01*
X-18126104Y921320D01*
X-18081280Y922867D01*
X-18079490Y922864D01*
G37*
X-11833590Y2104364D02*
X-11805168Y2029050D01*
X-11753528Y1892070D01*
X-11706432Y1766967D01*
X-11665119Y1657039D01*
X-11630828Y1565588D01*
X-11604797Y1495914D01*
X-11588264Y1451318D01*
X-11582468Y1435101D01*
X-11582911Y1434828D01*
X-11603698Y1433280D01*
X-11650994Y1432022D01*
X-11718473Y1431176D01*
X-11799813Y1430867D01*
X-12017227Y1430867D01*
X-12146947Y1826493D01*
X-12173779Y1908642D01*
X-12206992Y2011281D01*
X-12235346Y2100010D01*
X-12257398Y2170269D01*
X-12271706Y2217494D01*
X-12276826Y2237126D01*
X-12274330Y2247355D01*
X-12261917Y2285473D01*
X-12240868Y2345857D01*
X-12213172Y2422843D01*
X-12180815Y2510764D01*
X-12084643Y2769395D01*
X-11833590Y2104364D01*
G36*
X-11833590Y2104364D02*
G01*
X-11805168Y2029050D01*
X-11753528Y1892070D01*
X-11706432Y1766967D01*
X-11665119Y1657039D01*
X-11630828Y1565588D01*
X-11604797Y1495914D01*
X-11588264Y1451318D01*
X-11582468Y1435101D01*
X-11582911Y1434828D01*
X-11603698Y1433280D01*
X-11650994Y1432022D01*
X-11718473Y1431176D01*
X-11799813Y1430867D01*
X-12017227Y1430867D01*
X-12146947Y1826493D01*
X-12173779Y1908642D01*
X-12206992Y2011281D01*
X-12235346Y2100010D01*
X-12257398Y2170269D01*
X-12271706Y2217494D01*
X-12276826Y2237126D01*
X-12274330Y2247355D01*
X-12261917Y2285473D01*
X-12240868Y2345857D01*
X-12213172Y2422843D01*
X-12180815Y2510764D01*
X-12084643Y2769395D01*
X-11833590Y2104364D01*
G37*
X-11480442Y922802D02*
X-11445742Y918905D01*
X-11432266Y902253D01*
X-11430000Y863601D01*
X-11431985Y828688D01*
X-11443705Y808762D01*
X-11472333Y804334D01*
X-11514666Y804334D01*
X-11514666Y397934D01*
X-11472333Y397934D01*
X-11447395Y395155D01*
X-11433162Y378747D01*
X-11430000Y338667D01*
X-11430070Y325961D01*
X-11434292Y293931D01*
X-11452333Y281492D01*
X-11494207Y279401D01*
X-11506291Y279649D01*
X-11546202Y286973D01*
X-11583500Y309040D01*
X-11629674Y352008D01*
X-11700933Y424616D01*
X-11700933Y777652D01*
X-11629674Y850260D01*
X-11616315Y863647D01*
X-11573521Y900653D01*
X-11536648Y918340D01*
X-11494207Y922867D01*
X-11480442Y922802D01*
G36*
X-11480442Y922802D02*
G01*
X-11445742Y918905D01*
X-11432266Y902253D01*
X-11430000Y863601D01*
X-11431985Y828688D01*
X-11443705Y808762D01*
X-11472333Y804334D01*
X-11514666Y804334D01*
X-11514666Y397934D01*
X-11472333Y397934D01*
X-11447395Y395155D01*
X-11433162Y378747D01*
X-11430000Y338667D01*
X-11430070Y325961D01*
X-11434292Y293931D01*
X-11452333Y281492D01*
X-11494207Y279401D01*
X-11506291Y279649D01*
X-11546202Y286973D01*
X-11583500Y309040D01*
X-11629674Y352008D01*
X-11700933Y424616D01*
X-11700933Y777652D01*
X-11629674Y850260D01*
X-11616315Y863647D01*
X-11573521Y900653D01*
X-11536648Y918340D01*
X-11494207Y922867D01*
X-11480442Y922802D01*
G37*
X-11292607Y922782D02*
X-11251032Y916067D01*
X-11211958Y894349D01*
X-11163940Y851608D01*
X-11091333Y780349D01*
X-11091333Y424616D01*
X-11162592Y352008D01*
X-11175951Y338620D01*
X-11218745Y301615D01*
X-11255618Y283928D01*
X-11298058Y279401D01*
X-11311824Y279465D01*
X-11346524Y283362D01*
X-11360000Y300015D01*
X-11362266Y338667D01*
X-11360281Y373580D01*
X-11348561Y393506D01*
X-11319933Y397934D01*
X-11277600Y397934D01*
X-11277600Y804334D01*
X-11319933Y804334D01*
X-11344870Y807113D01*
X-11359103Y823521D01*
X-11362266Y863601D01*
X-11362219Y874260D01*
X-11358267Y907622D01*
X-11340702Y920645D01*
X-11299407Y922867D01*
X-11292607Y922782D01*
G36*
X-11292607Y922782D02*
G01*
X-11251032Y916067D01*
X-11211958Y894349D01*
X-11163940Y851608D01*
X-11091333Y780349D01*
X-11091333Y424616D01*
X-11162592Y352008D01*
X-11175951Y338620D01*
X-11218745Y301615D01*
X-11255618Y283928D01*
X-11298058Y279401D01*
X-11311824Y279465D01*
X-11346524Y283362D01*
X-11360000Y300015D01*
X-11362266Y338667D01*
X-11360281Y373580D01*
X-11348561Y393506D01*
X-11319933Y397934D01*
X-11277600Y397934D01*
X-11277600Y804334D01*
X-11319933Y804334D01*
X-11344870Y807113D01*
X-11359103Y823521D01*
X-11362266Y863601D01*
X-11362219Y874260D01*
X-11358267Y907622D01*
X-11340702Y920645D01*
X-11299407Y922867D01*
X-11292607Y922782D01*
G37*
X-19490266Y2616201D02*
X-19862800Y2616201D01*
X-19862800Y2277534D01*
X-19490266Y2277534D01*
X-19490266Y2040467D01*
X-19862800Y2040467D01*
X-19862800Y1701801D01*
X-19490266Y1701801D01*
X-19490266Y1430867D01*
X-20039930Y1430867D01*
X-20188431Y1578681D01*
X-20336933Y1726494D01*
X-20336933Y1851359D01*
X-20336687Y1897647D01*
X-20333353Y1946718D01*
X-20322529Y1982190D01*
X-20299795Y2016224D01*
X-20260733Y2060977D01*
X-20222597Y2104957D01*
X-20195048Y2139762D01*
X-20184533Y2157306D01*
X-20193550Y2171602D01*
X-20221106Y2203076D01*
X-20260733Y2243667D01*
X-20336933Y2318452D01*
X-20336933Y2590131D01*
X-20189119Y2738632D01*
X-20041306Y2887134D01*
X-19490266Y2887134D01*
X-19490266Y2616201D01*
G36*
X-19490266Y2616201D02*
G01*
X-19862800Y2616201D01*
X-19862800Y2277534D01*
X-19490266Y2277534D01*
X-19490266Y2040467D01*
X-19862800Y2040467D01*
X-19862800Y1701801D01*
X-19490266Y1701801D01*
X-19490266Y1430867D01*
X-20039930Y1430867D01*
X-20188431Y1578681D01*
X-20336933Y1726494D01*
X-20336933Y1851359D01*
X-20336687Y1897647D01*
X-20333353Y1946718D01*
X-20322529Y1982190D01*
X-20299795Y2016224D01*
X-20260733Y2060977D01*
X-20222597Y2104957D01*
X-20195048Y2139762D01*
X-20184533Y2157306D01*
X-20193550Y2171602D01*
X-20221106Y2203076D01*
X-20260733Y2243667D01*
X-20336933Y2318452D01*
X-20336933Y2590131D01*
X-20189119Y2738632D01*
X-20041306Y2887134D01*
X-19490266Y2887134D01*
X-19490266Y2616201D01*
G37*
X-14389578Y2883392D02*
X-14165690Y2878667D01*
X-14049557Y2497667D01*
X-13933423Y2116667D01*
X-14032145Y1825462D01*
X-14062962Y1736697D01*
X-14091912Y1657543D01*
X-14115963Y1596190D01*
X-14133232Y1557432D01*
X-14141837Y1546062D01*
X-14144245Y1550822D01*
X-14156873Y1582481D01*
X-14178513Y1640055D01*
X-14207701Y1719423D01*
X-14242971Y1816466D01*
X-14282859Y1927065D01*
X-14325900Y2047101D01*
X-14370629Y2172454D01*
X-14415582Y2299005D01*
X-14459293Y2422635D01*
X-14500298Y2539224D01*
X-14537133Y2644654D01*
X-14568331Y2734804D01*
X-14592430Y2805557D01*
X-14607963Y2852791D01*
X-14613466Y2872389D01*
X-14613352Y2872937D01*
X-14594728Y2878645D01*
X-14547814Y2882458D01*
X-14477725Y2884124D01*
X-14389578Y2883392D01*
G36*
X-14389578Y2883392D02*
G01*
X-14165690Y2878667D01*
X-14049557Y2497667D01*
X-13933423Y2116667D01*
X-14032145Y1825462D01*
X-14062962Y1736697D01*
X-14091912Y1657543D01*
X-14115963Y1596190D01*
X-14133232Y1557432D01*
X-14141837Y1546062D01*
X-14144245Y1550822D01*
X-14156873Y1582481D01*
X-14178513Y1640055D01*
X-14207701Y1719423D01*
X-14242971Y1816466D01*
X-14282859Y1927065D01*
X-14325900Y2047101D01*
X-14370629Y2172454D01*
X-14415582Y2299005D01*
X-14459293Y2422635D01*
X-14500298Y2539224D01*
X-14537133Y2644654D01*
X-14568331Y2734804D01*
X-14592430Y2805557D01*
X-14607963Y2852791D01*
X-14613466Y2872389D01*
X-14613352Y2872937D01*
X-14594728Y2878645D01*
X-14547814Y2882458D01*
X-14477725Y2884124D01*
X-14389578Y2883392D01*
G37*
X-12073466Y872067D02*
X-12073897Y852902D01*
X-12080617Y831242D01*
X-12102810Y822740D01*
X-12149666Y821267D01*
X-12225866Y821267D01*
X-12225866Y584201D01*
X-12149666Y584201D01*
X-12119627Y583893D01*
X-12087848Y579248D01*
X-12075528Y563931D01*
X-12073466Y531589D01*
X-12074356Y507935D01*
X-12082400Y488397D01*
X-12103100Y491561D01*
X-12125091Y498269D01*
X-12174098Y508918D01*
X-12233669Y519025D01*
X-12240394Y520050D01*
X-12327453Y542612D01*
X-12385911Y579952D01*
X-12418779Y635025D01*
X-12429066Y710783D01*
X-12427760Y755527D01*
X-12419161Y791462D01*
X-12396713Y821963D01*
X-12353874Y860015D01*
X-12319020Y887841D01*
X-12279745Y910893D01*
X-12237178Y920772D01*
X-12176074Y922867D01*
X-12073466Y922867D01*
X-12073466Y872067D01*
G36*
X-12073466Y872067D02*
G01*
X-12073897Y852902D01*
X-12080617Y831242D01*
X-12102810Y822740D01*
X-12149666Y821267D01*
X-12225866Y821267D01*
X-12225866Y584201D01*
X-12149666Y584201D01*
X-12119627Y583893D01*
X-12087848Y579248D01*
X-12075528Y563931D01*
X-12073466Y531589D01*
X-12074356Y507935D01*
X-12082400Y488397D01*
X-12103100Y491561D01*
X-12125091Y498269D01*
X-12174098Y508918D01*
X-12233669Y519025D01*
X-12240394Y520050D01*
X-12327453Y542612D01*
X-12385911Y579952D01*
X-12418779Y635025D01*
X-12429066Y710783D01*
X-12427760Y755527D01*
X-12419161Y791462D01*
X-12396713Y821963D01*
X-12353874Y860015D01*
X-12319020Y887841D01*
X-12279745Y910893D01*
X-12237178Y920772D01*
X-12176074Y922867D01*
X-12073466Y922867D01*
X-12073466Y872067D01*
G37*
X-13156076Y2705101D02*
X-13159537Y2695496D01*
X-13188157Y2616009D01*
X-13223194Y2518620D01*
X-13263157Y2407477D01*
X-13306557Y2286727D01*
X-13351905Y2160518D01*
X-13397711Y2032997D01*
X-13442486Y1908313D01*
X-13484740Y1790612D01*
X-13522984Y1684043D01*
X-13555728Y1592753D01*
X-13581483Y1520890D01*
X-13598760Y1472601D01*
X-13606068Y1452034D01*
X-13607503Y1449519D01*
X-13626254Y1440869D01*
X-13668196Y1435095D01*
X-13736868Y1431870D01*
X-13835813Y1430867D01*
X-13899097Y1431157D01*
X-13974148Y1432977D01*
X-14021782Y1436804D01*
X-14045934Y1443027D01*
X-14050541Y1452034D01*
X-14046784Y1462738D01*
X-14032805Y1503007D01*
X-14009752Y1569605D01*
X-13978785Y1659177D01*
X-13941064Y1768367D01*
X-13897746Y1893821D01*
X-13849993Y2032183D01*
X-13798963Y2180097D01*
X-13555133Y2886994D01*
X-13322804Y2887064D01*
X-13090474Y2887134D01*
X-13156076Y2705101D01*
G36*
X-13156076Y2705101D02*
G01*
X-13159537Y2695496D01*
X-13188157Y2616009D01*
X-13223194Y2518620D01*
X-13263157Y2407477D01*
X-13306557Y2286727D01*
X-13351905Y2160518D01*
X-13397711Y2032997D01*
X-13442486Y1908313D01*
X-13484740Y1790612D01*
X-13522984Y1684043D01*
X-13555728Y1592753D01*
X-13581483Y1520890D01*
X-13598760Y1472601D01*
X-13606068Y1452034D01*
X-13607503Y1449519D01*
X-13626254Y1440869D01*
X-13668196Y1435095D01*
X-13736868Y1431870D01*
X-13835813Y1430867D01*
X-13899097Y1431157D01*
X-13974148Y1432977D01*
X-14021782Y1436804D01*
X-14045934Y1443027D01*
X-14050541Y1452034D01*
X-14046784Y1462738D01*
X-14032805Y1503007D01*
X-14009752Y1569605D01*
X-13978785Y1659177D01*
X-13941064Y1768367D01*
X-13897746Y1893821D01*
X-13849993Y2032183D01*
X-13798963Y2180097D01*
X-13555133Y2886994D01*
X-13322804Y2887064D01*
X-13090474Y2887134D01*
X-13156076Y2705101D01*
G37*
X-19304000Y863601D02*
X-19304045Y858203D01*
X-19310613Y817186D01*
X-19329400Y804334D01*
X-19339429Y800275D01*
X-19347125Y783132D01*
X-19351820Y747681D01*
X-19354163Y688742D01*
X-19354800Y601134D01*
X-19354292Y520898D01*
X-19352149Y459330D01*
X-19347718Y421767D01*
X-19340351Y403029D01*
X-19329400Y397934D01*
X-19327086Y397827D01*
X-19309507Y382502D01*
X-19304000Y338667D01*
X-19304000Y279401D01*
X-19608800Y279401D01*
X-19608800Y338667D01*
X-19608754Y344065D01*
X-19602186Y385082D01*
X-19583400Y397934D01*
X-19573370Y401992D01*
X-19565674Y419136D01*
X-19560979Y454587D01*
X-19558636Y513526D01*
X-19558000Y601134D01*
X-19558507Y681370D01*
X-19560650Y742938D01*
X-19565081Y780501D01*
X-19572448Y799239D01*
X-19583400Y804334D01*
X-19585713Y804441D01*
X-19603292Y819766D01*
X-19608800Y863601D01*
X-19608800Y922867D01*
X-19304000Y922867D01*
X-19304000Y863601D01*
G36*
X-19304000Y863601D02*
G01*
X-19304045Y858203D01*
X-19310613Y817186D01*
X-19329400Y804334D01*
X-19339429Y800275D01*
X-19347125Y783132D01*
X-19351820Y747681D01*
X-19354163Y688742D01*
X-19354800Y601134D01*
X-19354292Y520898D01*
X-19352149Y459330D01*
X-19347718Y421767D01*
X-19340351Y403029D01*
X-19329400Y397934D01*
X-19327086Y397827D01*
X-19309507Y382502D01*
X-19304000Y338667D01*
X-19304000Y279401D01*
X-19608800Y279401D01*
X-19608800Y338667D01*
X-19608754Y344065D01*
X-19602186Y385082D01*
X-19583400Y397934D01*
X-19573370Y401992D01*
X-19565674Y419136D01*
X-19560979Y454587D01*
X-19558636Y513526D01*
X-19558000Y601134D01*
X-19558507Y681370D01*
X-19560650Y742938D01*
X-19565081Y780501D01*
X-19572448Y799239D01*
X-19583400Y804334D01*
X-19585713Y804441D01*
X-19603292Y819766D01*
X-19608800Y863601D01*
X-19608800Y922867D01*
X-19304000Y922867D01*
X-19304000Y863601D01*
G37*
X-14570298Y817034D02*
X-14592588Y758027D01*
X-14624594Y673290D01*
X-14654206Y594884D01*
X-14657223Y586881D01*
X-14677948Y530987D01*
X-14692586Y489934D01*
X-14698133Y472118D01*
X-14697586Y471246D01*
X-14677813Y467279D01*
X-14638447Y465667D01*
X-14613349Y464555D01*
X-14580943Y452801D01*
X-14562247Y422231D01*
X-14551103Y390978D01*
X-14545733Y371431D01*
X-14556807Y368093D01*
X-14593512Y365186D01*
X-14647010Y364067D01*
X-14699369Y363170D01*
X-14733298Y358051D01*
X-14750194Y345355D01*
X-14758913Y321734D01*
X-14764610Y303861D01*
X-14778867Y287725D01*
X-14808304Y280845D01*
X-14862246Y279401D01*
X-14900304Y280811D01*
X-14937275Y286429D01*
X-14949311Y294867D01*
X-14949104Y295426D01*
X-14940511Y317892D01*
X-14921837Y366360D01*
X-14895063Y435700D01*
X-14862168Y520783D01*
X-14825133Y616480D01*
X-14706599Y922625D01*
X-14530317Y922867D01*
X-14570298Y817034D01*
G36*
X-14570298Y817034D02*
G01*
X-14592588Y758027D01*
X-14624594Y673290D01*
X-14654206Y594884D01*
X-14657223Y586881D01*
X-14677948Y530987D01*
X-14692586Y489934D01*
X-14698133Y472118D01*
X-14697586Y471246D01*
X-14677813Y467279D01*
X-14638447Y465667D01*
X-14613349Y464555D01*
X-14580943Y452801D01*
X-14562247Y422231D01*
X-14551103Y390978D01*
X-14545733Y371431D01*
X-14556807Y368093D01*
X-14593512Y365186D01*
X-14647010Y364067D01*
X-14699369Y363170D01*
X-14733298Y358051D01*
X-14750194Y345355D01*
X-14758913Y321734D01*
X-14764610Y303861D01*
X-14778867Y287725D01*
X-14808304Y280845D01*
X-14862246Y279401D01*
X-14900304Y280811D01*
X-14937275Y286429D01*
X-14949311Y294867D01*
X-14949104Y295426D01*
X-14940511Y317892D01*
X-14921837Y366360D01*
X-14895063Y435700D01*
X-14862168Y520783D01*
X-14825133Y616480D01*
X-14706599Y922625D01*
X-14530317Y922867D01*
X-14570298Y817034D01*
G37*
X-13258800Y863601D02*
X-13259907Y836845D01*
X-13269325Y810963D01*
X-13292666Y804334D01*
X-13302637Y803612D01*
X-13313734Y797173D01*
X-13320736Y779317D01*
X-13324580Y744434D01*
X-13326201Y686910D01*
X-13326533Y601134D01*
X-13326412Y541312D01*
X-13325339Y474730D01*
X-13322363Y432713D01*
X-13316550Y409650D01*
X-13306962Y399927D01*
X-13292666Y397934D01*
X-13277377Y395997D01*
X-13262588Y379515D01*
X-13258800Y338667D01*
X-13258800Y279401D01*
X-13580533Y279401D01*
X-13580533Y338667D01*
X-13579426Y365423D01*
X-13570008Y391304D01*
X-13546666Y397934D01*
X-13536696Y398656D01*
X-13525599Y405095D01*
X-13518596Y422950D01*
X-13514752Y457834D01*
X-13513132Y515357D01*
X-13512799Y601134D01*
X-13512920Y660956D01*
X-13513993Y727538D01*
X-13516969Y769554D01*
X-13522783Y792618D01*
X-13532370Y802340D01*
X-13546666Y804334D01*
X-13561955Y806271D01*
X-13576744Y822753D01*
X-13580533Y863601D01*
X-13580533Y922867D01*
X-13258800Y922867D01*
X-13258800Y863601D01*
G36*
X-13258800Y863601D02*
G01*
X-13259907Y836845D01*
X-13269325Y810963D01*
X-13292666Y804334D01*
X-13302637Y803612D01*
X-13313734Y797173D01*
X-13320736Y779317D01*
X-13324580Y744434D01*
X-13326201Y686910D01*
X-13326533Y601134D01*
X-13326412Y541312D01*
X-13325339Y474730D01*
X-13322363Y432713D01*
X-13316550Y409650D01*
X-13306962Y399927D01*
X-13292666Y397934D01*
X-13277377Y395997D01*
X-13262588Y379515D01*
X-13258800Y338667D01*
X-13258800Y279401D01*
X-13580533Y279401D01*
X-13580533Y338667D01*
X-13579426Y365423D01*
X-13570008Y391304D01*
X-13546666Y397934D01*
X-13536696Y398656D01*
X-13525599Y405095D01*
X-13518596Y422950D01*
X-13514752Y457834D01*
X-13513132Y515357D01*
X-13512799Y601134D01*
X-13512920Y660956D01*
X-13513993Y727538D01*
X-13516969Y769554D01*
X-13522783Y792618D01*
X-13532370Y802340D01*
X-13546666Y804334D01*
X-13561955Y806271D01*
X-13576744Y822753D01*
X-13580533Y863601D01*
X-13580533Y922867D01*
X-13258800Y922867D01*
X-13258800Y863601D01*
G37*
X-18051183Y2887114D02*
X-17971662Y2886220D01*
X-17907029Y2884186D01*
X-17863611Y2881286D01*
X-17847733Y2877791D01*
X-17848738Y2874218D01*
X-17859188Y2844907D01*
X-17879791Y2789547D01*
X-17909060Y2712061D01*
X-17945508Y2616373D01*
X-17987650Y2506405D01*
X-18034000Y2386081D01*
X-18052957Y2336903D01*
X-18097861Y2219710D01*
X-18137947Y2114101D01*
X-18171723Y2024073D01*
X-18197696Y1953620D01*
X-18214375Y1906738D01*
X-18220266Y1887423D01*
X-18219396Y1885531D01*
X-18197155Y1878182D01*
X-18150767Y1873058D01*
X-18088133Y1871134D01*
X-17955999Y1871134D01*
X-17917587Y1756834D01*
X-17916834Y1754593D01*
X-17896615Y1695092D01*
X-17880053Y1647464D01*
X-17870667Y1621840D01*
X-17872299Y1615414D01*
X-17891758Y1608233D01*
X-17934491Y1602933D01*
X-18004028Y1599130D01*
X-18103895Y1596440D01*
X-18345631Y1591734D01*
X-18370588Y1511301D01*
X-18395545Y1430867D01*
X-18859937Y1430867D01*
X-18623121Y2027767D01*
X-18568643Y2165098D01*
X-18514740Y2301014D01*
X-18464410Y2427950D01*
X-18419438Y2541406D01*
X-18381607Y2636883D01*
X-18352701Y2709881D01*
X-18334503Y2755901D01*
X-18282701Y2887134D01*
X-18065217Y2887134D01*
X-18051183Y2887114D01*
G36*
X-18051183Y2887114D02*
G01*
X-17971662Y2886220D01*
X-17907029Y2884186D01*
X-17863611Y2881286D01*
X-17847733Y2877791D01*
X-17848738Y2874218D01*
X-17859188Y2844907D01*
X-17879791Y2789547D01*
X-17909060Y2712061D01*
X-17945508Y2616373D01*
X-17987650Y2506405D01*
X-18034000Y2386081D01*
X-18052957Y2336903D01*
X-18097861Y2219710D01*
X-18137947Y2114101D01*
X-18171723Y2024073D01*
X-18197696Y1953620D01*
X-18214375Y1906738D01*
X-18220266Y1887423D01*
X-18219396Y1885531D01*
X-18197155Y1878182D01*
X-18150767Y1873058D01*
X-18088133Y1871134D01*
X-17955999Y1871134D01*
X-17917587Y1756834D01*
X-17916834Y1754593D01*
X-17896615Y1695092D01*
X-17880053Y1647464D01*
X-17870667Y1621840D01*
X-17872299Y1615414D01*
X-17891758Y1608233D01*
X-17934491Y1602933D01*
X-18004028Y1599130D01*
X-18103895Y1596440D01*
X-18345631Y1591734D01*
X-18370588Y1511301D01*
X-18395545Y1430867D01*
X-18859937Y1430867D01*
X-18623121Y2027767D01*
X-18568643Y2165098D01*
X-18514740Y2301014D01*
X-18464410Y2427950D01*
X-18419438Y2541406D01*
X-18381607Y2636883D01*
X-18352701Y2709881D01*
X-18334503Y2755901D01*
X-18282701Y2887134D01*
X-18065217Y2887134D01*
X-18051183Y2887114D01*
G37*
X-12784666Y872067D02*
X-12785617Y846981D01*
X-12794219Y829201D01*
X-12819212Y822377D01*
X-12869333Y821267D01*
X-12954000Y821267D01*
X-12954000Y651934D01*
X-12869333Y651934D01*
X-12827522Y651363D01*
X-12797889Y646202D01*
X-12786516Y631206D01*
X-12784666Y601134D01*
X-12785617Y576048D01*
X-12794219Y558268D01*
X-12819212Y551444D01*
X-12869333Y550334D01*
X-12954000Y550334D01*
X-12954000Y381001D01*
X-12869333Y381001D01*
X-12827522Y380430D01*
X-12797889Y375269D01*
X-12786516Y360273D01*
X-12784666Y330201D01*
X-12784666Y279401D01*
X-12898252Y279401D01*
X-12913203Y279427D01*
X-12970180Y281396D01*
X-13008107Y289603D01*
X-13039294Y308392D01*
X-13076052Y342104D01*
X-13112356Y381538D01*
X-13134391Y421625D01*
X-13140266Y467030D01*
X-13140162Y472873D01*
X-13132084Y519773D01*
X-13114866Y550334D01*
X-13101680Y565626D01*
X-13089466Y601134D01*
X-13093182Y619647D01*
X-13114866Y651934D01*
X-13117191Y654117D01*
X-13133563Y687175D01*
X-13140266Y733727D01*
X-13137090Y767216D01*
X-13118462Y810171D01*
X-13077563Y858653D01*
X-13065565Y870840D01*
X-13033129Y900068D01*
X-13002639Y915608D01*
X-12962163Y921771D01*
X-12899763Y922867D01*
X-12784666Y922867D01*
X-12784666Y872067D01*
G36*
X-12784666Y872067D02*
G01*
X-12785617Y846981D01*
X-12794219Y829201D01*
X-12819212Y822377D01*
X-12869333Y821267D01*
X-12954000Y821267D01*
X-12954000Y651934D01*
X-12869333Y651934D01*
X-12827522Y651363D01*
X-12797889Y646202D01*
X-12786516Y631206D01*
X-12784666Y601134D01*
X-12785617Y576048D01*
X-12794219Y558268D01*
X-12819212Y551444D01*
X-12869333Y550334D01*
X-12954000Y550334D01*
X-12954000Y381001D01*
X-12869333Y381001D01*
X-12827522Y380430D01*
X-12797889Y375269D01*
X-12786516Y360273D01*
X-12784666Y330201D01*
X-12784666Y279401D01*
X-12898252Y279401D01*
X-12913203Y279427D01*
X-12970180Y281396D01*
X-13008107Y289603D01*
X-13039294Y308392D01*
X-13076052Y342104D01*
X-13112356Y381538D01*
X-13134391Y421625D01*
X-13140266Y467030D01*
X-13140162Y472873D01*
X-13132084Y519773D01*
X-13114866Y550334D01*
X-13101680Y565626D01*
X-13089466Y601134D01*
X-13093182Y619647D01*
X-13114866Y651934D01*
X-13117191Y654117D01*
X-13133563Y687175D01*
X-13140266Y733727D01*
X-13137090Y767216D01*
X-13118462Y810171D01*
X-13077563Y858653D01*
X-13065565Y870840D01*
X-13033129Y900068D01*
X-13002639Y915608D01*
X-12962163Y921771D01*
X-12899763Y922867D01*
X-12784666Y922867D01*
X-12784666Y872067D01*
G37*
X-12375010Y2883428D02*
X-12162835Y2878667D01*
X-12380566Y2311401D01*
X-12427621Y2188306D01*
X-12474063Y2065755D01*
X-12515139Y1956261D01*
X-12549477Y1863530D01*
X-12575705Y1791267D01*
X-12592452Y1743178D01*
X-12598348Y1722967D01*
X-12589268Y1713297D01*
X-12558026Y1706614D01*
X-12500732Y1702930D01*
X-12413513Y1701801D01*
X-12228627Y1701801D01*
X-12190902Y1587501D01*
X-12190234Y1585475D01*
X-12170428Y1525819D01*
X-12154333Y1477938D01*
X-12145377Y1452034D01*
X-12145181Y1450223D01*
X-12153704Y1444377D01*
X-12178940Y1439755D01*
X-12223748Y1436239D01*
X-12290984Y1433711D01*
X-12383509Y1432052D01*
X-12504179Y1431144D01*
X-12655854Y1430867D01*
X-12712055Y1430903D01*
X-12836171Y1431246D01*
X-12946910Y1431916D01*
X-13040173Y1432864D01*
X-13111863Y1434043D01*
X-13157883Y1435405D01*
X-13174133Y1436903D01*
X-13173482Y1439483D01*
X-13163640Y1466847D01*
X-13143152Y1520506D01*
X-13113558Y1596608D01*
X-13076395Y1691300D01*
X-13033203Y1800727D01*
X-12985518Y1921037D01*
X-12934881Y2048376D01*
X-12882828Y2178892D01*
X-12830898Y2308730D01*
X-12780630Y2434038D01*
X-12733561Y2550962D01*
X-12691230Y2655649D01*
X-12655175Y2744246D01*
X-12626934Y2812899D01*
X-12608046Y2857755D01*
X-12600049Y2874961D01*
X-12599474Y2875418D01*
X-12575912Y2879973D01*
X-12526031Y2883000D01*
X-12456755Y2884239D01*
X-12375010Y2883428D01*
G36*
X-12375010Y2883428D02*
G01*
X-12162835Y2878667D01*
X-12380566Y2311401D01*
X-12427621Y2188306D01*
X-12474063Y2065755D01*
X-12515139Y1956261D01*
X-12549477Y1863530D01*
X-12575705Y1791267D01*
X-12592452Y1743178D01*
X-12598348Y1722967D01*
X-12589268Y1713297D01*
X-12558026Y1706614D01*
X-12500732Y1702930D01*
X-12413513Y1701801D01*
X-12228627Y1701801D01*
X-12190902Y1587501D01*
X-12190234Y1585475D01*
X-12170428Y1525819D01*
X-12154333Y1477938D01*
X-12145377Y1452034D01*
X-12145181Y1450223D01*
X-12153704Y1444377D01*
X-12178940Y1439755D01*
X-12223748Y1436239D01*
X-12290984Y1433711D01*
X-12383509Y1432052D01*
X-12504179Y1431144D01*
X-12655854Y1430867D01*
X-12712055Y1430903D01*
X-12836171Y1431246D01*
X-12946910Y1431916D01*
X-13040173Y1432864D01*
X-13111863Y1434043D01*
X-13157883Y1435405D01*
X-13174133Y1436903D01*
X-13173482Y1439483D01*
X-13163640Y1466847D01*
X-13143152Y1520506D01*
X-13113558Y1596608D01*
X-13076395Y1691300D01*
X-13033203Y1800727D01*
X-12985518Y1921037D01*
X-12934881Y2048376D01*
X-12882828Y2178892D01*
X-12830898Y2308730D01*
X-12780630Y2434038D01*
X-12733561Y2550962D01*
X-12691230Y2655649D01*
X-12655175Y2744246D01*
X-12626934Y2812899D01*
X-12608046Y2857755D01*
X-12600049Y2874961D01*
X-12599474Y2875418D01*
X-12575912Y2879973D01*
X-12526031Y2883000D01*
X-12456755Y2884239D01*
X-12375010Y2883428D01*
G37*
X-14342165Y9015757D02*
X-14341066Y8990903D01*
X-14340040Y8934880D01*
X-14339096Y8849837D01*
X-14338242Y8737924D01*
X-14337485Y8601289D01*
X-14336832Y8442081D01*
X-14336293Y8262451D01*
X-14335875Y8064546D01*
X-14335586Y7850516D01*
X-14335433Y7622510D01*
X-14335425Y7382677D01*
X-14335569Y7133167D01*
X-14337224Y5249334D01*
X-14399234Y5113867D01*
X-14435517Y5035837D01*
X-14492331Y4920409D01*
X-14542795Y4828256D01*
X-14590027Y4753847D01*
X-14637142Y4691650D01*
X-14659054Y4666359D01*
X-14780912Y4554760D01*
X-14923481Y4463980D01*
X-15079072Y4398227D01*
X-15239999Y4361707D01*
X-15250412Y4360576D01*
X-15302667Y4357143D01*
X-15379466Y4354141D01*
X-15476639Y4351579D01*
X-15590012Y4349466D01*
X-15715413Y4347811D01*
X-15848672Y4346624D01*
X-15985616Y4345914D01*
X-16122073Y4345689D01*
X-16253871Y4345959D01*
X-16376838Y4346733D01*
X-16486803Y4348021D01*
X-16579594Y4349830D01*
X-16651038Y4352171D01*
X-16696964Y4355052D01*
X-16713200Y4358483D01*
X-16712444Y4360862D01*
X-16700293Y4387456D01*
X-16674090Y4441471D01*
X-16634848Y4520919D01*
X-16583577Y4623813D01*
X-16521289Y4748165D01*
X-16448996Y4891988D01*
X-16367709Y5053293D01*
X-16278440Y5230092D01*
X-16182200Y5420400D01*
X-16080001Y5622226D01*
X-15972855Y5833585D01*
X-15861773Y6052488D01*
X-15747767Y6276947D01*
X-15631848Y6504976D01*
X-15515028Y6734585D01*
X-15398318Y6963788D01*
X-15282730Y7190597D01*
X-15169276Y7413024D01*
X-15058967Y7629081D01*
X-14952815Y7836782D01*
X-14851831Y8034137D01*
X-14757026Y8219160D01*
X-14669414Y8389862D01*
X-14590004Y8544257D01*
X-14519809Y8680356D01*
X-14459840Y8796172D01*
X-14411108Y8889716D01*
X-14374626Y8959003D01*
X-14351405Y9002042D01*
X-14342457Y9016848D01*
X-14342165Y9015757D01*
G36*
X-14342165Y9015757D02*
G01*
X-14341066Y8990903D01*
X-14340040Y8934880D01*
X-14339096Y8849837D01*
X-14338242Y8737924D01*
X-14337485Y8601289D01*
X-14336832Y8442081D01*
X-14336293Y8262451D01*
X-14335875Y8064546D01*
X-14335586Y7850516D01*
X-14335433Y7622510D01*
X-14335425Y7382677D01*
X-14335569Y7133167D01*
X-14337224Y5249334D01*
X-14399234Y5113867D01*
X-14435517Y5035837D01*
X-14492331Y4920409D01*
X-14542795Y4828256D01*
X-14590027Y4753847D01*
X-14637142Y4691650D01*
X-14659054Y4666359D01*
X-14780912Y4554760D01*
X-14923481Y4463980D01*
X-15079072Y4398227D01*
X-15239999Y4361707D01*
X-15250412Y4360576D01*
X-15302667Y4357143D01*
X-15379466Y4354141D01*
X-15476639Y4351579D01*
X-15590012Y4349466D01*
X-15715413Y4347811D01*
X-15848672Y4346624D01*
X-15985616Y4345914D01*
X-16122073Y4345689D01*
X-16253871Y4345959D01*
X-16376838Y4346733D01*
X-16486803Y4348021D01*
X-16579594Y4349830D01*
X-16651038Y4352171D01*
X-16696964Y4355052D01*
X-16713200Y4358483D01*
X-16712444Y4360862D01*
X-16700293Y4387456D01*
X-16674090Y4441471D01*
X-16634848Y4520919D01*
X-16583577Y4623813D01*
X-16521289Y4748165D01*
X-16448996Y4891988D01*
X-16367709Y5053293D01*
X-16278440Y5230092D01*
X-16182200Y5420400D01*
X-16080001Y5622226D01*
X-15972855Y5833585D01*
X-15861773Y6052488D01*
X-15747767Y6276947D01*
X-15631848Y6504976D01*
X-15515028Y6734585D01*
X-15398318Y6963788D01*
X-15282730Y7190597D01*
X-15169276Y7413024D01*
X-15058967Y7629081D01*
X-14952815Y7836782D01*
X-14851831Y8034137D01*
X-14757026Y8219160D01*
X-14669414Y8389862D01*
X-14590004Y8544257D01*
X-14519809Y8680356D01*
X-14459840Y8796172D01*
X-14411108Y8889716D01*
X-14374626Y8959003D01*
X-14351405Y9002042D01*
X-14342457Y9016848D01*
X-14342165Y9015757D01*
G37*
X-13572066Y11979918D02*
X-13095119Y11078426D01*
X-13017056Y10930351D01*
X-12933199Y10770091D01*
X-12854465Y10618390D01*
X-12782403Y10478291D01*
X-12718561Y10352841D01*
X-12664487Y10245082D01*
X-12621729Y10158059D01*
X-12591836Y10094817D01*
X-12576355Y10058401D01*
X-12522651Y9875265D01*
X-12482816Y9634923D01*
X-12475299Y9390885D01*
X-12500163Y9146955D01*
X-12557469Y8906934D01*
X-12558692Y8903188D01*
X-12575813Y8860045D01*
X-12607306Y8788590D01*
X-12652369Y8690494D01*
X-12710202Y8567428D01*
X-12780005Y8421062D01*
X-12860977Y8253067D01*
X-12952317Y8065114D01*
X-13053224Y7858874D01*
X-13162898Y7636017D01*
X-13280538Y7398213D01*
X-13286110Y7386978D01*
X-13385721Y7186190D01*
X-13480926Y6994430D01*
X-13570660Y6813830D01*
X-13653863Y6646521D01*
X-13729472Y6494636D01*
X-13796423Y6360307D01*
X-13853655Y6245665D01*
X-13900104Y6152843D01*
X-13934709Y6083972D01*
X-13956406Y6041185D01*
X-13964133Y6026613D01*
X-13964176Y6027233D01*
X-13960743Y6048933D01*
X-13951774Y6097924D01*
X-13938220Y6169188D01*
X-13921032Y6257709D01*
X-13901164Y6358467D01*
X-13894885Y6390150D01*
X-13859304Y6573017D01*
X-13830431Y6729510D01*
X-13807596Y6865375D01*
X-13790128Y6986360D01*
X-13777356Y7098210D01*
X-13768609Y7206672D01*
X-13763216Y7317494D01*
X-13760506Y7436421D01*
X-13759808Y7569200D01*
X-13761570Y7721825D01*
X-13772882Y7962303D01*
X-13795859Y8184990D01*
X-13831882Y8399175D01*
X-13882331Y8614149D01*
X-13948586Y8839201D01*
X-13965134Y8889627D01*
X-13985389Y8947753D01*
X-14008095Y9008647D01*
X-14034240Y9074421D01*
X-14064814Y9147185D01*
X-14100807Y9229050D01*
X-14143207Y9322127D01*
X-14193004Y9428526D01*
X-14251187Y9550359D01*
X-14318745Y9689735D01*
X-14396668Y9848765D01*
X-14485945Y10029561D01*
X-14587564Y10234233D01*
X-14702516Y10464892D01*
X-14831790Y10723648D01*
X-15460178Y11980334D01*
X-13572066Y11979918D01*
G36*
X-13572066Y11979918D02*
G01*
X-13095119Y11078426D01*
X-13017056Y10930351D01*
X-12933199Y10770091D01*
X-12854465Y10618390D01*
X-12782403Y10478291D01*
X-12718561Y10352841D01*
X-12664487Y10245082D01*
X-12621729Y10158059D01*
X-12591836Y10094817D01*
X-12576355Y10058401D01*
X-12522651Y9875265D01*
X-12482816Y9634923D01*
X-12475299Y9390885D01*
X-12500163Y9146955D01*
X-12557469Y8906934D01*
X-12558692Y8903188D01*
X-12575813Y8860045D01*
X-12607306Y8788590D01*
X-12652369Y8690494D01*
X-12710202Y8567428D01*
X-12780005Y8421062D01*
X-12860977Y8253067D01*
X-12952317Y8065114D01*
X-13053224Y7858874D01*
X-13162898Y7636017D01*
X-13280538Y7398213D01*
X-13286110Y7386978D01*
X-13385721Y7186190D01*
X-13480926Y6994430D01*
X-13570660Y6813830D01*
X-13653863Y6646521D01*
X-13729472Y6494636D01*
X-13796423Y6360307D01*
X-13853655Y6245665D01*
X-13900104Y6152843D01*
X-13934709Y6083972D01*
X-13956406Y6041185D01*
X-13964133Y6026613D01*
X-13964176Y6027233D01*
X-13960743Y6048933D01*
X-13951774Y6097924D01*
X-13938220Y6169188D01*
X-13921032Y6257709D01*
X-13901164Y6358467D01*
X-13894885Y6390150D01*
X-13859304Y6573017D01*
X-13830431Y6729510D01*
X-13807596Y6865375D01*
X-13790128Y6986360D01*
X-13777356Y7098210D01*
X-13768609Y7206672D01*
X-13763216Y7317494D01*
X-13760506Y7436421D01*
X-13759808Y7569200D01*
X-13761570Y7721825D01*
X-13772882Y7962303D01*
X-13795859Y8184990D01*
X-13831882Y8399175D01*
X-13882331Y8614149D01*
X-13948586Y8839201D01*
X-13965134Y8889627D01*
X-13985389Y8947753D01*
X-14008095Y9008647D01*
X-14034240Y9074421D01*
X-14064814Y9147185D01*
X-14100807Y9229050D01*
X-14143207Y9322127D01*
X-14193004Y9428526D01*
X-14251187Y9550359D01*
X-14318745Y9689735D01*
X-14396668Y9848765D01*
X-14485945Y10029561D01*
X-14587564Y10234233D01*
X-14702516Y10464892D01*
X-14831790Y10723648D01*
X-15460178Y11980334D01*
X-13572066Y11979918D01*
G37*
X-17886234Y13579077D02*
X-17889750Y13549105D01*
X-17898506Y13492761D01*
X-17911687Y13414930D01*
X-17928476Y13320496D01*
X-17948056Y13214342D01*
X-17951830Y13194217D01*
X-17982676Y13029305D01*
X-18007915Y12891969D01*
X-18028109Y12777065D01*
X-18043820Y12679448D01*
X-18055610Y12593975D01*
X-18064041Y12515500D01*
X-18069675Y12438881D01*
X-18073074Y12358972D01*
X-18074801Y12270630D01*
X-18075417Y12168710D01*
X-18075484Y12048067D01*
X-18075255Y11958007D01*
X-18073259Y11800980D01*
X-18068609Y11666798D01*
X-18060586Y11548155D01*
X-18048471Y11437746D01*
X-18031543Y11328266D01*
X-18009083Y11212408D01*
X-17980370Y11082867D01*
X-17965530Y11020161D01*
X-17944723Y10938012D01*
X-17922268Y10857285D01*
X-17897179Y10775725D01*
X-17868474Y10691078D01*
X-17835167Y10601087D01*
X-17796275Y10503498D01*
X-17750813Y10396057D01*
X-17697796Y10276507D01*
X-17636242Y10142594D01*
X-17565164Y9992063D01*
X-17483580Y9822659D01*
X-17390504Y9632127D01*
X-17284953Y9418212D01*
X-17165942Y9178658D01*
X-17032487Y8911211D01*
X-16965471Y8777068D01*
X-16871304Y8588417D01*
X-16782366Y8410051D01*
X-16699759Y8244191D01*
X-16624587Y8093061D01*
X-16557952Y7958883D01*
X-16500959Y7843879D01*
X-16454711Y7750270D01*
X-16420311Y7680280D01*
X-16398861Y7636131D01*
X-16391466Y7620044D01*
X-16399035Y7618970D01*
X-16436618Y7617458D01*
X-16502981Y7616065D01*
X-16595087Y7614819D01*
X-16709900Y7613745D01*
X-16844384Y7612871D01*
X-16995503Y7612223D01*
X-17160220Y7611829D01*
X-17335500Y7611714D01*
X-18279533Y7611895D01*
X-18749009Y8496481D01*
X-18820237Y8630977D01*
X-18903826Y8789562D01*
X-18982441Y8939512D01*
X-19054513Y9077792D01*
X-19118473Y9201369D01*
X-19172752Y9307209D01*
X-19215782Y9392279D01*
X-19245992Y9453544D01*
X-19261814Y9487971D01*
X-19261868Y9488104D01*
X-19308741Y9615358D01*
X-19342137Y9736290D01*
X-19363774Y9860784D01*
X-19375370Y9998726D01*
X-19378644Y10160001D01*
X-19378089Y10251647D01*
X-19375917Y10338594D01*
X-19371232Y10407664D01*
X-19363118Y10467601D01*
X-19350654Y10527151D01*
X-19332921Y10595060D01*
X-19325612Y10620556D01*
X-19294409Y10716896D01*
X-19257931Y10815948D01*
X-19222639Y10899860D01*
X-19201817Y10943945D01*
X-19167220Y11015681D01*
X-19121566Y11109376D01*
X-19066160Y11222416D01*
X-19002304Y11352184D01*
X-18931302Y11496064D01*
X-18854455Y11651439D01*
X-18773068Y11815694D01*
X-18688442Y11986213D01*
X-18601881Y12160379D01*
X-18514689Y12335577D01*
X-18428167Y12509189D01*
X-18343619Y12678601D01*
X-18262348Y12841196D01*
X-18185656Y12994357D01*
X-18114848Y13135470D01*
X-18051225Y13261917D01*
X-17996090Y13371083D01*
X-17950747Y13460351D01*
X-17916499Y13527105D01*
X-17894648Y13568730D01*
X-17886497Y13582609D01*
X-17886234Y13579077D01*
G36*
X-17886234Y13579077D02*
G01*
X-17889750Y13549105D01*
X-17898506Y13492761D01*
X-17911687Y13414930D01*
X-17928476Y13320496D01*
X-17948056Y13214342D01*
X-17951830Y13194217D01*
X-17982676Y13029305D01*
X-18007915Y12891969D01*
X-18028109Y12777065D01*
X-18043820Y12679448D01*
X-18055610Y12593975D01*
X-18064041Y12515500D01*
X-18069675Y12438881D01*
X-18073074Y12358972D01*
X-18074801Y12270630D01*
X-18075417Y12168710D01*
X-18075484Y12048067D01*
X-18075255Y11958007D01*
X-18073259Y11800980D01*
X-18068609Y11666798D01*
X-18060586Y11548155D01*
X-18048471Y11437746D01*
X-18031543Y11328266D01*
X-18009083Y11212408D01*
X-17980370Y11082867D01*
X-17965530Y11020161D01*
X-17944723Y10938012D01*
X-17922268Y10857285D01*
X-17897179Y10775725D01*
X-17868474Y10691078D01*
X-17835167Y10601087D01*
X-17796275Y10503498D01*
X-17750813Y10396057D01*
X-17697796Y10276507D01*
X-17636242Y10142594D01*
X-17565164Y9992063D01*
X-17483580Y9822659D01*
X-17390504Y9632127D01*
X-17284953Y9418212D01*
X-17165942Y9178658D01*
X-17032487Y8911211D01*
X-16965471Y8777068D01*
X-16871304Y8588417D01*
X-16782366Y8410051D01*
X-16699759Y8244191D01*
X-16624587Y8093061D01*
X-16557952Y7958883D01*
X-16500959Y7843879D01*
X-16454711Y7750270D01*
X-16420311Y7680280D01*
X-16398861Y7636131D01*
X-16391466Y7620044D01*
X-16399035Y7618970D01*
X-16436618Y7617458D01*
X-16502981Y7616065D01*
X-16595087Y7614819D01*
X-16709900Y7613745D01*
X-16844384Y7612871D01*
X-16995503Y7612223D01*
X-17160220Y7611829D01*
X-17335500Y7611714D01*
X-18279533Y7611895D01*
X-18749009Y8496481D01*
X-18820237Y8630977D01*
X-18903826Y8789562D01*
X-18982441Y8939512D01*
X-19054513Y9077792D01*
X-19118473Y9201369D01*
X-19172752Y9307209D01*
X-19215782Y9392279D01*
X-19245992Y9453544D01*
X-19261814Y9487971D01*
X-19261868Y9488104D01*
X-19308741Y9615358D01*
X-19342137Y9736290D01*
X-19363774Y9860784D01*
X-19375370Y9998726D01*
X-19378644Y10160001D01*
X-19378089Y10251647D01*
X-19375917Y10338594D01*
X-19371232Y10407664D01*
X-19363118Y10467601D01*
X-19350654Y10527151D01*
X-19332921Y10595060D01*
X-19325612Y10620556D01*
X-19294409Y10716896D01*
X-19257931Y10815948D01*
X-19222639Y10899860D01*
X-19201817Y10943945D01*
X-19167220Y11015681D01*
X-19121566Y11109376D01*
X-19066160Y11222416D01*
X-19002304Y11352184D01*
X-18931302Y11496064D01*
X-18854455Y11651439D01*
X-18773068Y11815694D01*
X-18688442Y11986213D01*
X-18601881Y12160379D01*
X-18514689Y12335577D01*
X-18428167Y12509189D01*
X-18343619Y12678601D01*
X-18262348Y12841196D01*
X-18185656Y12994357D01*
X-18114848Y13135470D01*
X-18051225Y13261917D01*
X-17996090Y13371083D01*
X-17950747Y13460351D01*
X-17916499Y13527105D01*
X-17894648Y13568730D01*
X-17886497Y13582609D01*
X-17886234Y13579077D01*
G37*
X-15530672Y14461067D02*
X-15547761Y14427200D01*
X-15564849Y14393334D01*
X-15565284Y14392471D01*
X-15581967Y14359467D01*
X-15599086Y14325600D01*
X-15616204Y14291734D01*
X-15633322Y14257867D01*
X-15650440Y14224000D01*
X-15660388Y14204317D01*
X-15667568Y14190134D01*
X-15684711Y14156267D01*
X-15701854Y14122400D01*
X-15718996Y14088534D01*
X-15736139Y14054667D01*
X-15753282Y14020800D01*
X-15761316Y14004927D01*
X-15770436Y13986934D01*
X-15787601Y13953067D01*
X-15804765Y13919200D01*
X-15821928Y13885334D01*
X-15839092Y13851467D01*
X-15856256Y13817600D01*
X-15867027Y13796347D01*
X-15873428Y13783734D01*
X-15890612Y13749867D01*
X-15907796Y13716000D01*
X-15924979Y13682134D01*
X-15942163Y13648267D01*
X-15959346Y13614401D01*
X-15976484Y13580624D01*
X-15976530Y13580534D01*
X-15993734Y13546667D01*
X-16010936Y13512801D01*
X-16028138Y13478934D01*
X-16045340Y13445067D01*
X-16062541Y13411201D01*
X-16079743Y13377334D01*
X-16088646Y13359806D01*
X-16096954Y13343467D01*
X-16114174Y13309601D01*
X-16131394Y13275734D01*
X-16148614Y13241867D01*
X-16165833Y13208001D01*
X-16183053Y13174134D01*
X-16200273Y13140267D01*
X-16202474Y13135937D01*
X-16217508Y13106401D01*
X-16234746Y13072534D01*
X-16251984Y13038667D01*
X-16269221Y13004801D01*
X-16286458Y12970934D01*
X-16303695Y12937067D01*
X-16316928Y12911066D01*
X-16320936Y12903201D01*
X-16338192Y12869334D01*
X-16355448Y12835467D01*
X-16372703Y12801601D01*
X-16389958Y12767734D01*
X-16407213Y12733867D01*
X-16424467Y12700001D01*
X-16430969Y12687239D01*
X-16441735Y12666134D01*
X-16459010Y12632267D01*
X-16476284Y12598400D01*
X-16493557Y12564534D01*
X-16510831Y12530667D01*
X-16528105Y12496800D01*
X-16543558Y12466502D01*
X-16545381Y12462934D01*
X-16562676Y12429067D01*
X-16579971Y12395200D01*
X-16597265Y12361334D01*
X-16614559Y12327467D01*
X-16631853Y12293600D01*
X-16649146Y12259734D01*
X-16653655Y12250903D01*
X-16666457Y12225867D01*
X-16683774Y12192000D01*
X-16701090Y12158134D01*
X-16718407Y12124267D01*
X-16735723Y12090400D01*
X-16753039Y12056534D01*
X-16760221Y12042487D01*
X-16770371Y12022667D01*
X-16787713Y11988800D01*
X-16805054Y11954934D01*
X-16822396Y11921067D01*
X-16839738Y11887200D01*
X-16857079Y11853334D01*
X-16862216Y11843302D01*
X-16874443Y11819467D01*
X-16891815Y11785600D01*
X-16909186Y11751734D01*
X-16926557Y11717867D01*
X-16943928Y11684000D01*
X-16958601Y11655394D01*
X-16961305Y11650134D01*
X-16978713Y11616267D01*
X-16996120Y11582400D01*
X-17013527Y11548534D01*
X-17030934Y11514667D01*
X-17048336Y11480810D01*
X-17048342Y11480800D01*
X-17065794Y11446934D01*
X-17083246Y11413067D01*
X-17100698Y11379200D01*
X-17118149Y11345334D01*
X-17130381Y11321596D01*
X-17135619Y11311467D01*
X-17153131Y11277600D01*
X-17170642Y11243734D01*
X-17188153Y11209867D01*
X-17203699Y11179800D01*
X-17205674Y11176000D01*
X-17223266Y11142134D01*
X-17240859Y11108267D01*
X-17258452Y11074400D01*
X-17267248Y11057467D01*
X-17276031Y11040594D01*
X-17276063Y11040534D01*
X-17293577Y11006667D01*
X-17311090Y10972800D01*
X-17324391Y10947079D01*
X-17328553Y10938934D01*
X-17345858Y10905067D01*
X-17363163Y10871200D01*
X-17367348Y10863008D01*
X-17380268Y10837334D01*
X-17397310Y10803467D01*
X-17402317Y10793515D01*
X-17426709Y10743735D01*
X-17437937Y10718800D01*
X-17438463Y10719140D01*
X-17440068Y10741926D01*
X-17440882Y10769149D01*
X-17432866Y10761134D01*
X-17424400Y10769600D01*
X-17432866Y10778067D01*
X-17440908Y10770025D01*
X-17441678Y10795798D01*
X-17441826Y10803467D01*
X-17441333Y10803467D01*
X-17432866Y10795000D01*
X-17424400Y10803467D01*
X-17432866Y10811934D01*
X-17441333Y10803467D01*
X-17441826Y10803467D01*
X-17442479Y10837334D01*
X-17441333Y10837334D01*
X-17432866Y10828867D01*
X-17424400Y10837334D01*
X-17432866Y10845800D01*
X-17441333Y10837334D01*
X-17442479Y10837334D01*
X-17443132Y10871200D01*
X-17441333Y10871200D01*
X-17432866Y10862734D01*
X-17424400Y10871200D01*
X-17432866Y10879667D01*
X-17441333Y10871200D01*
X-17443132Y10871200D01*
X-17443276Y10878667D01*
X-17443653Y10905067D01*
X-17441333Y10905067D01*
X-17432866Y10896600D01*
X-17424400Y10905067D01*
X-17432866Y10913534D01*
X-17441333Y10905067D01*
X-17443653Y10905067D01*
X-17444137Y10938934D01*
X-17441333Y10938934D01*
X-17432866Y10930467D01*
X-17424400Y10938934D01*
X-17432866Y10947400D01*
X-17441333Y10938934D01*
X-17444137Y10938934D01*
X-17444621Y10972800D01*
X-17441333Y10972800D01*
X-17432866Y10964334D01*
X-17424400Y10972800D01*
X-17432866Y10981267D01*
X-17441333Y10972800D01*
X-17444621Y10972800D01*
X-17444844Y10988442D01*
X-17445049Y11006667D01*
X-17441333Y11006667D01*
X-17432866Y10998200D01*
X-17424400Y11006667D01*
X-17432866Y11015134D01*
X-17441333Y11006667D01*
X-17445049Y11006667D01*
X-17445431Y11040534D01*
X-17441333Y11040534D01*
X-17432866Y11032067D01*
X-17424400Y11040534D01*
X-17432866Y11049000D01*
X-17441333Y11040534D01*
X-17445431Y11040534D01*
X-17445813Y11074400D01*
X-17441333Y11074400D01*
X-17432866Y11065934D01*
X-17424400Y11074400D01*
X-17432866Y11082867D01*
X-17441333Y11074400D01*
X-17445813Y11074400D01*
X-17446195Y11108267D01*
X-17441333Y11108267D01*
X-17432866Y11099800D01*
X-17424400Y11108267D01*
X-17432866Y11116734D01*
X-17441333Y11108267D01*
X-17446195Y11108267D01*
X-17446362Y11123034D01*
X-17446538Y11142134D01*
X-17441333Y11142134D01*
X-17432866Y11133667D01*
X-17424400Y11142134D01*
X-17432866Y11150600D01*
X-17441333Y11142134D01*
X-17446538Y11142134D01*
X-17446851Y11176000D01*
X-17441333Y11176000D01*
X-17432866Y11167534D01*
X-17424400Y11176000D01*
X-17432866Y11184467D01*
X-17441333Y11176000D01*
X-17446851Y11176000D01*
X-17447163Y11209867D01*
X-17441333Y11209867D01*
X-17432866Y11201400D01*
X-17424400Y11209867D01*
X-17432866Y11218334D01*
X-17441333Y11209867D01*
X-17447163Y11209867D01*
X-17447476Y11243734D01*
X-17441333Y11243734D01*
X-17432866Y11235267D01*
X-17424400Y11243734D01*
X-17432866Y11252200D01*
X-17441333Y11243734D01*
X-17447476Y11243734D01*
X-17447789Y11277600D01*
X-17441333Y11277600D01*
X-17432866Y11269134D01*
X-17424400Y11277600D01*
X-17432866Y11286067D01*
X-17441333Y11277600D01*
X-17447789Y11277600D01*
X-17447814Y11280352D01*
X-17448053Y11311467D01*
X-17441333Y11311467D01*
X-17432866Y11303000D01*
X-17424400Y11311467D01*
X-17432866Y11319934D01*
X-17441333Y11311467D01*
X-17448053Y11311467D01*
X-17448314Y11345334D01*
X-17441333Y11345334D01*
X-17432866Y11336867D01*
X-17424400Y11345334D01*
X-17432866Y11353800D01*
X-17441333Y11345334D01*
X-17448314Y11345334D01*
X-17448574Y11379200D01*
X-17441333Y11379200D01*
X-17432866Y11370734D01*
X-17424400Y11379200D01*
X-17432866Y11387667D01*
X-17441333Y11379200D01*
X-17448574Y11379200D01*
X-17448834Y11413067D01*
X-17441333Y11413067D01*
X-17432866Y11404600D01*
X-17424400Y11413067D01*
X-17432866Y11421534D01*
X-17441333Y11413067D01*
X-17448834Y11413067D01*
X-17449094Y11446934D01*
X-17441333Y11446934D01*
X-17432866Y11438467D01*
X-17424400Y11446934D01*
X-17432866Y11455400D01*
X-17441333Y11446934D01*
X-17449094Y11446934D01*
X-17449181Y11458307D01*
X-17449325Y11480800D01*
X-17441333Y11480800D01*
X-17432866Y11472334D01*
X-17424400Y11480800D01*
X-17432866Y11489267D01*
X-17441333Y11480800D01*
X-17449325Y11480800D01*
X-17449543Y11514667D01*
X-17441333Y11514667D01*
X-17432866Y11506200D01*
X-17424400Y11514667D01*
X-17432866Y11523134D01*
X-17441333Y11514667D01*
X-17449543Y11514667D01*
X-17449761Y11548534D01*
X-17441333Y11548534D01*
X-17432866Y11540067D01*
X-17424400Y11548534D01*
X-17432866Y11557000D01*
X-17441333Y11548534D01*
X-17449761Y11548534D01*
X-17449979Y11582400D01*
X-17441333Y11582400D01*
X-17432866Y11573934D01*
X-17424400Y11582400D01*
X-17432866Y11590867D01*
X-17441333Y11582400D01*
X-17449979Y11582400D01*
X-17450197Y11616267D01*
X-17441333Y11616267D01*
X-17432866Y11607800D01*
X-17424400Y11616267D01*
X-17432866Y11624734D01*
X-17441333Y11616267D01*
X-17450197Y11616267D01*
X-17450415Y11650134D01*
X-17441333Y11650134D01*
X-17432866Y11641667D01*
X-17424400Y11650134D01*
X-17432866Y11658600D01*
X-17441333Y11650134D01*
X-17450415Y11650134D01*
X-17450445Y11654809D01*
X-17450601Y11684000D01*
X-17441333Y11684000D01*
X-17432866Y11675534D01*
X-17424400Y11684000D01*
X-17432866Y11692467D01*
X-17441333Y11684000D01*
X-17450601Y11684000D01*
X-17450783Y11717867D01*
X-17441333Y11717867D01*
X-17432866Y11709400D01*
X-17424400Y11717867D01*
X-17432866Y11726334D01*
X-17441333Y11717867D01*
X-17450783Y11717867D01*
X-17450964Y11751734D01*
X-17441333Y11751734D01*
X-17432866Y11743267D01*
X-17424400Y11751734D01*
X-17432866Y11760200D01*
X-17441333Y11751734D01*
X-17450964Y11751734D01*
X-17451146Y11785600D01*
X-17441333Y11785600D01*
X-17432866Y11777134D01*
X-17424400Y11785600D01*
X-17432866Y11794067D01*
X-17441333Y11785600D01*
X-17451146Y11785600D01*
X-17451328Y11819467D01*
X-17441333Y11819467D01*
X-17432866Y11811000D01*
X-17424400Y11819467D01*
X-17432866Y11827934D01*
X-17441333Y11819467D01*
X-17451328Y11819467D01*
X-17451510Y11853334D01*
X-17441333Y11853334D01*
X-17432866Y11844867D01*
X-17424400Y11853334D01*
X-17432866Y11861800D01*
X-17441333Y11853334D01*
X-17451510Y11853334D01*
X-17451587Y11867768D01*
X-17451673Y11887200D01*
X-17441333Y11887200D01*
X-17432866Y11878734D01*
X-17424400Y11887200D01*
X-17432866Y11895667D01*
X-17441333Y11887200D01*
X-17451673Y11887200D01*
X-17451822Y11921067D01*
X-17441333Y11921067D01*
X-17432866Y11912600D01*
X-17424400Y11921067D01*
X-17432866Y11929534D01*
X-17441333Y11921067D01*
X-17451822Y11921067D01*
X-17451972Y11954934D01*
X-17441333Y11954934D01*
X-17432866Y11946467D01*
X-17424400Y11954934D01*
X-17432866Y11963400D01*
X-17441333Y11954934D01*
X-17451972Y11954934D01*
X-17452121Y11988800D01*
X-17441333Y11988800D01*
X-17432866Y11980334D01*
X-17424400Y11988800D01*
X-17432866Y11997267D01*
X-17441333Y11988800D01*
X-17452121Y11988800D01*
X-17452271Y12022667D01*
X-17441333Y12022667D01*
X-17432866Y12014200D01*
X-17424400Y12022667D01*
X-17432866Y12031134D01*
X-17441333Y12022667D01*
X-17452271Y12022667D01*
X-17452420Y12056534D01*
X-17441333Y12056534D01*
X-17432866Y12048067D01*
X-17424400Y12056534D01*
X-17432866Y12065000D01*
X-17441333Y12056534D01*
X-17452420Y12056534D01*
X-17452569Y12090400D01*
X-17441333Y12090400D01*
X-17432866Y12081934D01*
X-17424400Y12090400D01*
X-17432866Y12098867D01*
X-17441333Y12090400D01*
X-17452569Y12090400D01*
X-17452590Y12095095D01*
X-17452693Y12124267D01*
X-17441333Y12124267D01*
X-17432866Y12115800D01*
X-17424400Y12124267D01*
X-17432866Y12132734D01*
X-17441333Y12124267D01*
X-17452693Y12124267D01*
X-17452812Y12158134D01*
X-17441333Y12158134D01*
X-17432866Y12149667D01*
X-17424400Y12158134D01*
X-17432866Y12166600D01*
X-17441333Y12158134D01*
X-17452812Y12158134D01*
X-17452932Y12192000D01*
X-17441333Y12192000D01*
X-17432866Y12183534D01*
X-17424400Y12192000D01*
X-17432866Y12200467D01*
X-17441333Y12192000D01*
X-17452932Y12192000D01*
X-17453051Y12225867D01*
X-17441333Y12225867D01*
X-17432866Y12217400D01*
X-17424400Y12225867D01*
X-17432866Y12234334D01*
X-17441333Y12225867D01*
X-17453051Y12225867D01*
X-17453171Y12259734D01*
X-17441333Y12259734D01*
X-17432866Y12251267D01*
X-17424400Y12259734D01*
X-17432866Y12268200D01*
X-17441333Y12259734D01*
X-17453171Y12259734D01*
X-17453290Y12293600D01*
X-17441333Y12293600D01*
X-17432866Y12285134D01*
X-17424400Y12293600D01*
X-17432866Y12302067D01*
X-17441333Y12293600D01*
X-17453290Y12293600D01*
X-17453410Y12327467D01*
X-17441333Y12327467D01*
X-17432866Y12319000D01*
X-17424400Y12327467D01*
X-17432866Y12335934D01*
X-17441333Y12327467D01*
X-17453410Y12327467D01*
X-17453436Y12334698D01*
X-17453507Y12361334D01*
X-17441333Y12361334D01*
X-17432866Y12352867D01*
X-17424400Y12361334D01*
X-17432866Y12369800D01*
X-17441333Y12361334D01*
X-17453507Y12361334D01*
X-17453598Y12395200D01*
X-17441333Y12395200D01*
X-17432866Y12386734D01*
X-17424400Y12395200D01*
X-17432866Y12403667D01*
X-17441333Y12395200D01*
X-17453598Y12395200D01*
X-17453688Y12429067D01*
X-17441333Y12429067D01*
X-17432866Y12420600D01*
X-17424400Y12429067D01*
X-17432866Y12437534D01*
X-17441333Y12429067D01*
X-17453688Y12429067D01*
X-17453779Y12462934D01*
X-17441333Y12462934D01*
X-17432866Y12454467D01*
X-17424400Y12462934D01*
X-17432866Y12471400D01*
X-17441333Y12462934D01*
X-17453779Y12462934D01*
X-17453870Y12496800D01*
X-17441333Y12496800D01*
X-17432866Y12488334D01*
X-17424400Y12496800D01*
X-17432866Y12505267D01*
X-17441333Y12496800D01*
X-17453870Y12496800D01*
X-17453961Y12530667D01*
X-17441333Y12530667D01*
X-17432866Y12522200D01*
X-17424400Y12530667D01*
X-17432866Y12539134D01*
X-17441333Y12530667D01*
X-17453961Y12530667D01*
X-17454052Y12564534D01*
X-17441333Y12564534D01*
X-17432866Y12556067D01*
X-17424400Y12564534D01*
X-17432866Y12573000D01*
X-17441333Y12564534D01*
X-17454052Y12564534D01*
X-17454106Y12584490D01*
X-17454137Y12598400D01*
X-17441333Y12598400D01*
X-17432866Y12589934D01*
X-17424400Y12598400D01*
X-17432866Y12606867D01*
X-17441333Y12598400D01*
X-17454137Y12598400D01*
X-17454214Y12632267D01*
X-17441333Y12632267D01*
X-17432866Y12623800D01*
X-17424400Y12632267D01*
X-17432866Y12640734D01*
X-17441333Y12632267D01*
X-17454214Y12632267D01*
X-17454290Y12666134D01*
X-17441333Y12666134D01*
X-17432866Y12657667D01*
X-17424400Y12666134D01*
X-17432866Y12674600D01*
X-17441333Y12666134D01*
X-17454290Y12666134D01*
X-17454367Y12700001D01*
X-17441333Y12700001D01*
X-17432866Y12691534D01*
X-17424400Y12700001D01*
X-17432866Y12708467D01*
X-17441333Y12700001D01*
X-17454367Y12700001D01*
X-17454443Y12733867D01*
X-17441333Y12733867D01*
X-17432866Y12725401D01*
X-17424400Y12733867D01*
X-17432866Y12742334D01*
X-17441333Y12733867D01*
X-17454443Y12733867D01*
X-17454520Y12767734D01*
X-17441333Y12767734D01*
X-17432866Y12759267D01*
X-17424400Y12767734D01*
X-17432866Y12776201D01*
X-17441333Y12767734D01*
X-17454520Y12767734D01*
X-17454596Y12801601D01*
X-17441333Y12801601D01*
X-17432866Y12793134D01*
X-17424400Y12801601D01*
X-17432866Y12810067D01*
X-17441333Y12801601D01*
X-17454596Y12801601D01*
X-17454673Y12835467D01*
X-17441333Y12835467D01*
X-17432866Y12827001D01*
X-17424400Y12835467D01*
X-17432866Y12843934D01*
X-17441333Y12835467D01*
X-17454673Y12835467D01*
X-17454749Y12869334D01*
X-17441333Y12869334D01*
X-17432866Y12860867D01*
X-17424400Y12869334D01*
X-17432866Y12877801D01*
X-17441333Y12869334D01*
X-17454749Y12869334D01*
X-17454826Y12903201D01*
X-17441333Y12903201D01*
X-17432866Y12894734D01*
X-17424400Y12903201D01*
X-17432866Y12911667D01*
X-17441333Y12903201D01*
X-17454826Y12903201D01*
X-17454902Y12937067D01*
X-17441333Y12937067D01*
X-17432866Y12928601D01*
X-17424400Y12937067D01*
X-17432866Y12945534D01*
X-17441333Y12937067D01*
X-17454902Y12937067D01*
X-17454979Y12970934D01*
X-17441333Y12970934D01*
X-17432866Y12962467D01*
X-17424400Y12970934D01*
X-17432866Y12979401D01*
X-17441333Y12970934D01*
X-17454979Y12970934D01*
X-17455055Y13004801D01*
X-17441333Y13004801D01*
X-17432866Y12996334D01*
X-17424400Y13004801D01*
X-17432866Y13013267D01*
X-17441333Y13004801D01*
X-17455055Y13004801D01*
X-17455132Y13038667D01*
X-17441333Y13038667D01*
X-17432866Y13030201D01*
X-17424400Y13038667D01*
X-17432866Y13047134D01*
X-17441333Y13038667D01*
X-17455132Y13038667D01*
X-17455208Y13072534D01*
X-17441333Y13072534D01*
X-17432866Y13064067D01*
X-17424400Y13072534D01*
X-17432866Y13081001D01*
X-17441333Y13072534D01*
X-17455208Y13072534D01*
X-17455285Y13106401D01*
X-17441333Y13106401D01*
X-17432866Y13097934D01*
X-17424400Y13106401D01*
X-17432866Y13114867D01*
X-17441333Y13106401D01*
X-17455285Y13106401D01*
X-17455361Y13140267D01*
X-17441333Y13140267D01*
X-17432866Y13131801D01*
X-17424400Y13140267D01*
X-17432866Y13148734D01*
X-17441333Y13140267D01*
X-17455361Y13140267D01*
X-17455438Y13174134D01*
X-17441333Y13174134D01*
X-17432866Y13165667D01*
X-17424400Y13174134D01*
X-17432866Y13182601D01*
X-17441333Y13174134D01*
X-17455438Y13174134D01*
X-17455514Y13208001D01*
X-17441333Y13208001D01*
X-17432866Y13199534D01*
X-17424400Y13208001D01*
X-17432866Y13216467D01*
X-17441333Y13208001D01*
X-17455514Y13208001D01*
X-17455591Y13241867D01*
X-17441333Y13241867D01*
X-17432866Y13233401D01*
X-17424400Y13241867D01*
X-17432866Y13250334D01*
X-17441333Y13241867D01*
X-17455591Y13241867D01*
X-17455667Y13275734D01*
X-17441333Y13275734D01*
X-17432866Y13267267D01*
X-17424400Y13275734D01*
X-17432866Y13284201D01*
X-17441333Y13275734D01*
X-17455667Y13275734D01*
X-17455744Y13309601D01*
X-17441333Y13309601D01*
X-17432866Y13301134D01*
X-17424400Y13309601D01*
X-17432866Y13318067D01*
X-17441333Y13309601D01*
X-17455744Y13309601D01*
X-17455820Y13343467D01*
X-17441333Y13343467D01*
X-17432866Y13335001D01*
X-17424400Y13343467D01*
X-17432866Y13351934D01*
X-17441333Y13343467D01*
X-17455820Y13343467D01*
X-17455897Y13377334D01*
X-17441333Y13377334D01*
X-17432866Y13368867D01*
X-17424400Y13377334D01*
X-17432866Y13385801D01*
X-17441333Y13377334D01*
X-17455897Y13377334D01*
X-17455973Y13411201D01*
X-17441333Y13411201D01*
X-17432866Y13402734D01*
X-17424400Y13411201D01*
X-17432866Y13419667D01*
X-17441333Y13411201D01*
X-17455973Y13411201D01*
X-17456050Y13445067D01*
X-17441333Y13445067D01*
X-17432866Y13436601D01*
X-17424400Y13445067D01*
X-17432866Y13453534D01*
X-17441333Y13445067D01*
X-17456050Y13445067D01*
X-17456127Y13478934D01*
X-17441333Y13478934D01*
X-17432866Y13470467D01*
X-17424400Y13478934D01*
X-17432866Y13487401D01*
X-17441333Y13478934D01*
X-17456127Y13478934D01*
X-17456204Y13512801D01*
X-17441333Y13512801D01*
X-17432866Y13504334D01*
X-17424400Y13512801D01*
X-17432866Y13521267D01*
X-17441333Y13512801D01*
X-17456204Y13512801D01*
X-17456281Y13546667D01*
X-17441333Y13546667D01*
X-17432866Y13538201D01*
X-17424400Y13546667D01*
X-17432866Y13555134D01*
X-17441333Y13546667D01*
X-17456281Y13546667D01*
X-17456358Y13580534D01*
X-17441333Y13580534D01*
X-17432866Y13572067D01*
X-17424400Y13580534D01*
X-17432866Y13589001D01*
X-17441333Y13580534D01*
X-17456358Y13580534D01*
X-17456435Y13614401D01*
X-17441333Y13614401D01*
X-17432866Y13605934D01*
X-17424400Y13614401D01*
X-17432866Y13622867D01*
X-17441333Y13614401D01*
X-17456435Y13614401D01*
X-17456512Y13648267D01*
X-17441333Y13648267D01*
X-17432866Y13639800D01*
X-17424400Y13648267D01*
X-17432866Y13656734D01*
X-17441333Y13648267D01*
X-17456512Y13648267D01*
X-17456589Y13682134D01*
X-17441333Y13682134D01*
X-17432866Y13673667D01*
X-17424400Y13682134D01*
X-17432866Y13690600D01*
X-17441333Y13682134D01*
X-17456589Y13682134D01*
X-17456666Y13716000D01*
X-17441333Y13716000D01*
X-17432866Y13707534D01*
X-17424400Y13716000D01*
X-17432866Y13724467D01*
X-17441333Y13716000D01*
X-17456666Y13716000D01*
X-17456743Y13749867D01*
X-17441333Y13749867D01*
X-17432866Y13741400D01*
X-17424400Y13749867D01*
X-17432866Y13758334D01*
X-17441333Y13749867D01*
X-17456743Y13749867D01*
X-17456820Y13783734D01*
X-17441333Y13783734D01*
X-17432866Y13775267D01*
X-17424400Y13783734D01*
X-17432866Y13792200D01*
X-17441333Y13783734D01*
X-17456820Y13783734D01*
X-17456897Y13817600D01*
X-17441333Y13817600D01*
X-17432866Y13809134D01*
X-17424400Y13817600D01*
X-17432866Y13826067D01*
X-17441333Y13817600D01*
X-17456897Y13817600D01*
X-17456974Y13851467D01*
X-17441333Y13851467D01*
X-17432866Y13843000D01*
X-17424400Y13851467D01*
X-17432866Y13859934D01*
X-17441333Y13851467D01*
X-17456974Y13851467D01*
X-17457051Y13885334D01*
X-17441333Y13885334D01*
X-17432866Y13876867D01*
X-17424400Y13885334D01*
X-17432866Y13893800D01*
X-17441333Y13885334D01*
X-17457051Y13885334D01*
X-17457128Y13919200D01*
X-17441333Y13919200D01*
X-17432866Y13910734D01*
X-17424400Y13919200D01*
X-17432866Y13927667D01*
X-17441333Y13919200D01*
X-17457128Y13919200D01*
X-17457205Y13953067D01*
X-17441333Y13953067D01*
X-17432866Y13944600D01*
X-17424400Y13953067D01*
X-17432866Y13961534D01*
X-17441333Y13953067D01*
X-17457205Y13953067D01*
X-17457282Y13986934D01*
X-17441333Y13986934D01*
X-17432866Y13978467D01*
X-17424400Y13986934D01*
X-17432866Y13995400D01*
X-17441333Y13986934D01*
X-17457282Y13986934D01*
X-17457359Y14020800D01*
X-17441333Y14020800D01*
X-17432866Y14012334D01*
X-17424400Y14020800D01*
X-17432866Y14029267D01*
X-17441333Y14020800D01*
X-17457359Y14020800D01*
X-17457436Y14054667D01*
X-17441333Y14054667D01*
X-17432866Y14046200D01*
X-17424400Y14054667D01*
X-17432866Y14063134D01*
X-17441333Y14054667D01*
X-17457436Y14054667D01*
X-17457513Y14088534D01*
X-17441333Y14088534D01*
X-17432866Y14080067D01*
X-17424400Y14088534D01*
X-17432866Y14097000D01*
X-17441333Y14088534D01*
X-17457513Y14088534D01*
X-17457590Y14122400D01*
X-17441333Y14122400D01*
X-17432866Y14113934D01*
X-17424400Y14122400D01*
X-17432866Y14130867D01*
X-17441333Y14122400D01*
X-17457590Y14122400D01*
X-17457667Y14156267D01*
X-17441333Y14156267D01*
X-17432866Y14147800D01*
X-17424400Y14156267D01*
X-17432866Y14164734D01*
X-17441333Y14156267D01*
X-17457667Y14156267D01*
X-17457744Y14190134D01*
X-17441333Y14190134D01*
X-17432866Y14181667D01*
X-17424400Y14190134D01*
X-17432866Y14198600D01*
X-17441333Y14190134D01*
X-17457744Y14190134D01*
X-17457821Y14224000D01*
X-17441333Y14224000D01*
X-17432866Y14215534D01*
X-17424400Y14224000D01*
X-17432866Y14232467D01*
X-17441333Y14224000D01*
X-17457821Y14224000D01*
X-17457898Y14257867D01*
X-17441333Y14257867D01*
X-17432866Y14249400D01*
X-17424400Y14257867D01*
X-17432866Y14266334D01*
X-17441333Y14257867D01*
X-17457898Y14257867D01*
X-17457975Y14291734D01*
X-17441333Y14291734D01*
X-17432866Y14283267D01*
X-17424400Y14291734D01*
X-17432866Y14300200D01*
X-17441333Y14291734D01*
X-17457975Y14291734D01*
X-17458052Y14325600D01*
X-17441333Y14325600D01*
X-17432866Y14317134D01*
X-17424400Y14325600D01*
X-17432866Y14334067D01*
X-17441333Y14325600D01*
X-17458052Y14325600D01*
X-17458129Y14359467D01*
X-17441333Y14359467D01*
X-17432866Y14351000D01*
X-17424400Y14359467D01*
X-17432866Y14367934D01*
X-17441333Y14359467D01*
X-17458129Y14359467D01*
X-17458206Y14393334D01*
X-17441333Y14393334D01*
X-17432866Y14384867D01*
X-17424400Y14393334D01*
X-17432866Y14401800D01*
X-17441333Y14393334D01*
X-17458206Y14393334D01*
X-17458283Y14427200D01*
X-17441333Y14427200D01*
X-17432866Y14418734D01*
X-17424400Y14427200D01*
X-17432866Y14435667D01*
X-17441333Y14427200D01*
X-17458283Y14427200D01*
X-17458360Y14461067D01*
X-17441333Y14461067D01*
X-17432866Y14452600D01*
X-17424400Y14461067D01*
X-17432866Y14469534D01*
X-17441333Y14461067D01*
X-17458360Y14461067D01*
X-17458412Y14484045D01*
X-17452931Y14494934D01*
X-17441333Y14494934D01*
X-17432866Y14486467D01*
X-17424400Y14494934D01*
X-17432866Y14503400D01*
X-17441333Y14494934D01*
X-17452931Y14494934D01*
X-17373670Y14652398D01*
X-17362770Y14673722D01*
X-17267320Y14833962D01*
X-17161371Y14964617D01*
X-17041222Y15068977D01*
X-16903169Y15150329D01*
X-16743510Y15211961D01*
X-16730005Y15216006D01*
X-16700177Y15223843D01*
X-16667316Y15230391D01*
X-16627995Y15235839D01*
X-16578790Y15240373D01*
X-16516275Y15244180D01*
X-16437023Y15247447D01*
X-16337610Y15250360D01*
X-16214609Y15253108D01*
X-16064596Y15255876D01*
X-15884143Y15258852D01*
X-15706575Y15261529D01*
X-15552519Y15263444D01*
X-15427302Y15264436D01*
X-15328368Y15264473D01*
X-15253158Y15263521D01*
X-15199114Y15261548D01*
X-15163679Y15258518D01*
X-15144293Y15254401D01*
X-15138399Y15249162D01*
X-15138843Y15247597D01*
X-15149936Y15223013D01*
X-15175169Y15170819D01*
X-15213502Y15093063D01*
X-15263896Y14991790D01*
X-15325310Y14869048D01*
X-15396706Y14726883D01*
X-15477044Y14567342D01*
X-15513583Y14494934D01*
X-15530672Y14461067D01*
G36*
X-15530672Y14461067D02*
G01*
X-15547761Y14427200D01*
X-15564849Y14393334D01*
X-15565284Y14392471D01*
X-15581967Y14359467D01*
X-15599086Y14325600D01*
X-15616204Y14291734D01*
X-15633322Y14257867D01*
X-15650440Y14224000D01*
X-15660388Y14204317D01*
X-15667568Y14190134D01*
X-15684711Y14156267D01*
X-15701854Y14122400D01*
X-15718996Y14088534D01*
X-15736139Y14054667D01*
X-15753282Y14020800D01*
X-15761316Y14004927D01*
X-15770436Y13986934D01*
X-15787601Y13953067D01*
X-15804765Y13919200D01*
X-15821928Y13885334D01*
X-15839092Y13851467D01*
X-15856256Y13817600D01*
X-15867027Y13796347D01*
X-15873428Y13783734D01*
X-15890612Y13749867D01*
X-15907796Y13716000D01*
X-15924979Y13682134D01*
X-15942163Y13648267D01*
X-15959346Y13614401D01*
X-15976484Y13580624D01*
X-15976530Y13580534D01*
X-15993734Y13546667D01*
X-16010936Y13512801D01*
X-16028138Y13478934D01*
X-16045340Y13445067D01*
X-16062541Y13411201D01*
X-16079743Y13377334D01*
X-16088646Y13359806D01*
X-16096954Y13343467D01*
X-16114174Y13309601D01*
X-16131394Y13275734D01*
X-16148614Y13241867D01*
X-16165833Y13208001D01*
X-16183053Y13174134D01*
X-16200273Y13140267D01*
X-16202474Y13135937D01*
X-16217508Y13106401D01*
X-16234746Y13072534D01*
X-16251984Y13038667D01*
X-16269221Y13004801D01*
X-16286458Y12970934D01*
X-16303695Y12937067D01*
X-16316928Y12911066D01*
X-16320936Y12903201D01*
X-16338192Y12869334D01*
X-16355448Y12835467D01*
X-16372703Y12801601D01*
X-16389958Y12767734D01*
X-16407213Y12733867D01*
X-16424467Y12700001D01*
X-16430969Y12687239D01*
X-16441735Y12666134D01*
X-16459010Y12632267D01*
X-16476284Y12598400D01*
X-16493557Y12564534D01*
X-16510831Y12530667D01*
X-16528105Y12496800D01*
X-16543558Y12466502D01*
X-16545381Y12462934D01*
X-16562676Y12429067D01*
X-16579971Y12395200D01*
X-16597265Y12361334D01*
X-16614559Y12327467D01*
X-16631853Y12293600D01*
X-16649146Y12259734D01*
X-16653655Y12250903D01*
X-16666457Y12225867D01*
X-16683774Y12192000D01*
X-16701090Y12158134D01*
X-16718407Y12124267D01*
X-16735723Y12090400D01*
X-16753039Y12056534D01*
X-16760221Y12042487D01*
X-16770371Y12022667D01*
X-16787713Y11988800D01*
X-16805054Y11954934D01*
X-16822396Y11921067D01*
X-16839738Y11887200D01*
X-16857079Y11853334D01*
X-16862216Y11843302D01*
X-16874443Y11819467D01*
X-16891815Y11785600D01*
X-16909186Y11751734D01*
X-16926557Y11717867D01*
X-16943928Y11684000D01*
X-16958601Y11655394D01*
X-16961305Y11650134D01*
X-16978713Y11616267D01*
X-16996120Y11582400D01*
X-17013527Y11548534D01*
X-17030934Y11514667D01*
X-17048336Y11480810D01*
X-17048342Y11480800D01*
X-17065794Y11446934D01*
X-17083246Y11413067D01*
X-17100698Y11379200D01*
X-17118149Y11345334D01*
X-17130381Y11321596D01*
X-17135619Y11311467D01*
X-17153131Y11277600D01*
X-17170642Y11243734D01*
X-17188153Y11209867D01*
X-17203699Y11179800D01*
X-17205674Y11176000D01*
X-17223266Y11142134D01*
X-17240859Y11108267D01*
X-17258452Y11074400D01*
X-17267248Y11057467D01*
X-17276031Y11040594D01*
X-17276063Y11040534D01*
X-17293577Y11006667D01*
X-17311090Y10972800D01*
X-17324391Y10947079D01*
X-17328553Y10938934D01*
X-17345858Y10905067D01*
X-17363163Y10871200D01*
X-17367348Y10863008D01*
X-17380268Y10837334D01*
X-17397310Y10803467D01*
X-17402317Y10793515D01*
X-17426709Y10743735D01*
X-17437937Y10718800D01*
X-17438463Y10719140D01*
X-17440068Y10741926D01*
X-17440882Y10769149D01*
X-17432866Y10761134D01*
X-17424400Y10769600D01*
X-17432866Y10778067D01*
X-17440908Y10770025D01*
X-17441678Y10795798D01*
X-17441826Y10803467D01*
X-17441333Y10803467D01*
X-17432866Y10795000D01*
X-17424400Y10803467D01*
X-17432866Y10811934D01*
X-17441333Y10803467D01*
X-17441826Y10803467D01*
X-17442479Y10837334D01*
X-17441333Y10837334D01*
X-17432866Y10828867D01*
X-17424400Y10837334D01*
X-17432866Y10845800D01*
X-17441333Y10837334D01*
X-17442479Y10837334D01*
X-17443132Y10871200D01*
X-17441333Y10871200D01*
X-17432866Y10862734D01*
X-17424400Y10871200D01*
X-17432866Y10879667D01*
X-17441333Y10871200D01*
X-17443132Y10871200D01*
X-17443276Y10878667D01*
X-17443653Y10905067D01*
X-17441333Y10905067D01*
X-17432866Y10896600D01*
X-17424400Y10905067D01*
X-17432866Y10913534D01*
X-17441333Y10905067D01*
X-17443653Y10905067D01*
X-17444137Y10938934D01*
X-17441333Y10938934D01*
X-17432866Y10930467D01*
X-17424400Y10938934D01*
X-17432866Y10947400D01*
X-17441333Y10938934D01*
X-17444137Y10938934D01*
X-17444621Y10972800D01*
X-17441333Y10972800D01*
X-17432866Y10964334D01*
X-17424400Y10972800D01*
X-17432866Y10981267D01*
X-17441333Y10972800D01*
X-17444621Y10972800D01*
X-17444844Y10988442D01*
X-17445049Y11006667D01*
X-17441333Y11006667D01*
X-17432866Y10998200D01*
X-17424400Y11006667D01*
X-17432866Y11015134D01*
X-17441333Y11006667D01*
X-17445049Y11006667D01*
X-17445431Y11040534D01*
X-17441333Y11040534D01*
X-17432866Y11032067D01*
X-17424400Y11040534D01*
X-17432866Y11049000D01*
X-17441333Y11040534D01*
X-17445431Y11040534D01*
X-17445813Y11074400D01*
X-17441333Y11074400D01*
X-17432866Y11065934D01*
X-17424400Y11074400D01*
X-17432866Y11082867D01*
X-17441333Y11074400D01*
X-17445813Y11074400D01*
X-17446195Y11108267D01*
X-17441333Y11108267D01*
X-17432866Y11099800D01*
X-17424400Y11108267D01*
X-17432866Y11116734D01*
X-17441333Y11108267D01*
X-17446195Y11108267D01*
X-17446362Y11123034D01*
X-17446538Y11142134D01*
X-17441333Y11142134D01*
X-17432866Y11133667D01*
X-17424400Y11142134D01*
X-17432866Y11150600D01*
X-17441333Y11142134D01*
X-17446538Y11142134D01*
X-17446851Y11176000D01*
X-17441333Y11176000D01*
X-17432866Y11167534D01*
X-17424400Y11176000D01*
X-17432866Y11184467D01*
X-17441333Y11176000D01*
X-17446851Y11176000D01*
X-17447163Y11209867D01*
X-17441333Y11209867D01*
X-17432866Y11201400D01*
X-17424400Y11209867D01*
X-17432866Y11218334D01*
X-17441333Y11209867D01*
X-17447163Y11209867D01*
X-17447476Y11243734D01*
X-17441333Y11243734D01*
X-17432866Y11235267D01*
X-17424400Y11243734D01*
X-17432866Y11252200D01*
X-17441333Y11243734D01*
X-17447476Y11243734D01*
X-17447789Y11277600D01*
X-17441333Y11277600D01*
X-17432866Y11269134D01*
X-17424400Y11277600D01*
X-17432866Y11286067D01*
X-17441333Y11277600D01*
X-17447789Y11277600D01*
X-17447814Y11280352D01*
X-17448053Y11311467D01*
X-17441333Y11311467D01*
X-17432866Y11303000D01*
X-17424400Y11311467D01*
X-17432866Y11319934D01*
X-17441333Y11311467D01*
X-17448053Y11311467D01*
X-17448314Y11345334D01*
X-17441333Y11345334D01*
X-17432866Y11336867D01*
X-17424400Y11345334D01*
X-17432866Y11353800D01*
X-17441333Y11345334D01*
X-17448314Y11345334D01*
X-17448574Y11379200D01*
X-17441333Y11379200D01*
X-17432866Y11370734D01*
X-17424400Y11379200D01*
X-17432866Y11387667D01*
X-17441333Y11379200D01*
X-17448574Y11379200D01*
X-17448834Y11413067D01*
X-17441333Y11413067D01*
X-17432866Y11404600D01*
X-17424400Y11413067D01*
X-17432866Y11421534D01*
X-17441333Y11413067D01*
X-17448834Y11413067D01*
X-17449094Y11446934D01*
X-17441333Y11446934D01*
X-17432866Y11438467D01*
X-17424400Y11446934D01*
X-17432866Y11455400D01*
X-17441333Y11446934D01*
X-17449094Y11446934D01*
X-17449181Y11458307D01*
X-17449325Y11480800D01*
X-17441333Y11480800D01*
X-17432866Y11472334D01*
X-17424400Y11480800D01*
X-17432866Y11489267D01*
X-17441333Y11480800D01*
X-17449325Y11480800D01*
X-17449543Y11514667D01*
X-17441333Y11514667D01*
X-17432866Y11506200D01*
X-17424400Y11514667D01*
X-17432866Y11523134D01*
X-17441333Y11514667D01*
X-17449543Y11514667D01*
X-17449761Y11548534D01*
X-17441333Y11548534D01*
X-17432866Y11540067D01*
X-17424400Y11548534D01*
X-17432866Y11557000D01*
X-17441333Y11548534D01*
X-17449761Y11548534D01*
X-17449979Y11582400D01*
X-17441333Y11582400D01*
X-17432866Y11573934D01*
X-17424400Y11582400D01*
X-17432866Y11590867D01*
X-17441333Y11582400D01*
X-17449979Y11582400D01*
X-17450197Y11616267D01*
X-17441333Y11616267D01*
X-17432866Y11607800D01*
X-17424400Y11616267D01*
X-17432866Y11624734D01*
X-17441333Y11616267D01*
X-17450197Y11616267D01*
X-17450415Y11650134D01*
X-17441333Y11650134D01*
X-17432866Y11641667D01*
X-17424400Y11650134D01*
X-17432866Y11658600D01*
X-17441333Y11650134D01*
X-17450415Y11650134D01*
X-17450445Y11654809D01*
X-17450601Y11684000D01*
X-17441333Y11684000D01*
X-17432866Y11675534D01*
X-17424400Y11684000D01*
X-17432866Y11692467D01*
X-17441333Y11684000D01*
X-17450601Y11684000D01*
X-17450783Y11717867D01*
X-17441333Y11717867D01*
X-17432866Y11709400D01*
X-17424400Y11717867D01*
X-17432866Y11726334D01*
X-17441333Y11717867D01*
X-17450783Y11717867D01*
X-17450964Y11751734D01*
X-17441333Y11751734D01*
X-17432866Y11743267D01*
X-17424400Y11751734D01*
X-17432866Y11760200D01*
X-17441333Y11751734D01*
X-17450964Y11751734D01*
X-17451146Y11785600D01*
X-17441333Y11785600D01*
X-17432866Y11777134D01*
X-17424400Y11785600D01*
X-17432866Y11794067D01*
X-17441333Y11785600D01*
X-17451146Y11785600D01*
X-17451328Y11819467D01*
X-17441333Y11819467D01*
X-17432866Y11811000D01*
X-17424400Y11819467D01*
X-17432866Y11827934D01*
X-17441333Y11819467D01*
X-17451328Y11819467D01*
X-17451510Y11853334D01*
X-17441333Y11853334D01*
X-17432866Y11844867D01*
X-17424400Y11853334D01*
X-17432866Y11861800D01*
X-17441333Y11853334D01*
X-17451510Y11853334D01*
X-17451587Y11867768D01*
X-17451673Y11887200D01*
X-17441333Y11887200D01*
X-17432866Y11878734D01*
X-17424400Y11887200D01*
X-17432866Y11895667D01*
X-17441333Y11887200D01*
X-17451673Y11887200D01*
X-17451822Y11921067D01*
X-17441333Y11921067D01*
X-17432866Y11912600D01*
X-17424400Y11921067D01*
X-17432866Y11929534D01*
X-17441333Y11921067D01*
X-17451822Y11921067D01*
X-17451972Y11954934D01*
X-17441333Y11954934D01*
X-17432866Y11946467D01*
X-17424400Y11954934D01*
X-17432866Y11963400D01*
X-17441333Y11954934D01*
X-17451972Y11954934D01*
X-17452121Y11988800D01*
X-17441333Y11988800D01*
X-17432866Y11980334D01*
X-17424400Y11988800D01*
X-17432866Y11997267D01*
X-17441333Y11988800D01*
X-17452121Y11988800D01*
X-17452271Y12022667D01*
X-17441333Y12022667D01*
X-17432866Y12014200D01*
X-17424400Y12022667D01*
X-17432866Y12031134D01*
X-17441333Y12022667D01*
X-17452271Y12022667D01*
X-17452420Y12056534D01*
X-17441333Y12056534D01*
X-17432866Y12048067D01*
X-17424400Y12056534D01*
X-17432866Y12065000D01*
X-17441333Y12056534D01*
X-17452420Y12056534D01*
X-17452569Y12090400D01*
X-17441333Y12090400D01*
X-17432866Y12081934D01*
X-17424400Y12090400D01*
X-17432866Y12098867D01*
X-17441333Y12090400D01*
X-17452569Y12090400D01*
X-17452590Y12095095D01*
X-17452693Y12124267D01*
X-17441333Y12124267D01*
X-17432866Y12115800D01*
X-17424400Y12124267D01*
X-17432866Y12132734D01*
X-17441333Y12124267D01*
X-17452693Y12124267D01*
X-17452812Y12158134D01*
X-17441333Y12158134D01*
X-17432866Y12149667D01*
X-17424400Y12158134D01*
X-17432866Y12166600D01*
X-17441333Y12158134D01*
X-17452812Y12158134D01*
X-17452932Y12192000D01*
X-17441333Y12192000D01*
X-17432866Y12183534D01*
X-17424400Y12192000D01*
X-17432866Y12200467D01*
X-17441333Y12192000D01*
X-17452932Y12192000D01*
X-17453051Y12225867D01*
X-17441333Y12225867D01*
X-17432866Y12217400D01*
X-17424400Y12225867D01*
X-17432866Y12234334D01*
X-17441333Y12225867D01*
X-17453051Y12225867D01*
X-17453171Y12259734D01*
X-17441333Y12259734D01*
X-17432866Y12251267D01*
X-17424400Y12259734D01*
X-17432866Y12268200D01*
X-17441333Y12259734D01*
X-17453171Y12259734D01*
X-17453290Y12293600D01*
X-17441333Y12293600D01*
X-17432866Y12285134D01*
X-17424400Y12293600D01*
X-17432866Y12302067D01*
X-17441333Y12293600D01*
X-17453290Y12293600D01*
X-17453410Y12327467D01*
X-17441333Y12327467D01*
X-17432866Y12319000D01*
X-17424400Y12327467D01*
X-17432866Y12335934D01*
X-17441333Y12327467D01*
X-17453410Y12327467D01*
X-17453436Y12334698D01*
X-17453507Y12361334D01*
X-17441333Y12361334D01*
X-17432866Y12352867D01*
X-17424400Y12361334D01*
X-17432866Y12369800D01*
X-17441333Y12361334D01*
X-17453507Y12361334D01*
X-17453598Y12395200D01*
X-17441333Y12395200D01*
X-17432866Y12386734D01*
X-17424400Y12395200D01*
X-17432866Y12403667D01*
X-17441333Y12395200D01*
X-17453598Y12395200D01*
X-17453688Y12429067D01*
X-17441333Y12429067D01*
X-17432866Y12420600D01*
X-17424400Y12429067D01*
X-17432866Y12437534D01*
X-17441333Y12429067D01*
X-17453688Y12429067D01*
X-17453779Y12462934D01*
X-17441333Y12462934D01*
X-17432866Y12454467D01*
X-17424400Y12462934D01*
X-17432866Y12471400D01*
X-17441333Y12462934D01*
X-17453779Y12462934D01*
X-17453870Y12496800D01*
X-17441333Y12496800D01*
X-17432866Y12488334D01*
X-17424400Y12496800D01*
X-17432866Y12505267D01*
X-17441333Y12496800D01*
X-17453870Y12496800D01*
X-17453961Y12530667D01*
X-17441333Y12530667D01*
X-17432866Y12522200D01*
X-17424400Y12530667D01*
X-17432866Y12539134D01*
X-17441333Y12530667D01*
X-17453961Y12530667D01*
X-17454052Y12564534D01*
X-17441333Y12564534D01*
X-17432866Y12556067D01*
X-17424400Y12564534D01*
X-17432866Y12573000D01*
X-17441333Y12564534D01*
X-17454052Y12564534D01*
X-17454106Y12584490D01*
X-17454137Y12598400D01*
X-17441333Y12598400D01*
X-17432866Y12589934D01*
X-17424400Y12598400D01*
X-17432866Y12606867D01*
X-17441333Y12598400D01*
X-17454137Y12598400D01*
X-17454214Y12632267D01*
X-17441333Y12632267D01*
X-17432866Y12623800D01*
X-17424400Y12632267D01*
X-17432866Y12640734D01*
X-17441333Y12632267D01*
X-17454214Y12632267D01*
X-17454290Y12666134D01*
X-17441333Y12666134D01*
X-17432866Y12657667D01*
X-17424400Y12666134D01*
X-17432866Y12674600D01*
X-17441333Y12666134D01*
X-17454290Y12666134D01*
X-17454367Y12700001D01*
X-17441333Y12700001D01*
X-17432866Y12691534D01*
X-17424400Y12700001D01*
X-17432866Y12708467D01*
X-17441333Y12700001D01*
X-17454367Y12700001D01*
X-17454443Y12733867D01*
X-17441333Y12733867D01*
X-17432866Y12725401D01*
X-17424400Y12733867D01*
X-17432866Y12742334D01*
X-17441333Y12733867D01*
X-17454443Y12733867D01*
X-17454520Y12767734D01*
X-17441333Y12767734D01*
X-17432866Y12759267D01*
X-17424400Y12767734D01*
X-17432866Y12776201D01*
X-17441333Y12767734D01*
X-17454520Y12767734D01*
X-17454596Y12801601D01*
X-17441333Y12801601D01*
X-17432866Y12793134D01*
X-17424400Y12801601D01*
X-17432866Y12810067D01*
X-17441333Y12801601D01*
X-17454596Y12801601D01*
X-17454673Y12835467D01*
X-17441333Y12835467D01*
X-17432866Y12827001D01*
X-17424400Y12835467D01*
X-17432866Y12843934D01*
X-17441333Y12835467D01*
X-17454673Y12835467D01*
X-17454749Y12869334D01*
X-17441333Y12869334D01*
X-17432866Y12860867D01*
X-17424400Y12869334D01*
X-17432866Y12877801D01*
X-17441333Y12869334D01*
X-17454749Y12869334D01*
X-17454826Y12903201D01*
X-17441333Y12903201D01*
X-17432866Y12894734D01*
X-17424400Y12903201D01*
X-17432866Y12911667D01*
X-17441333Y12903201D01*
X-17454826Y12903201D01*
X-17454902Y12937067D01*
X-17441333Y12937067D01*
X-17432866Y12928601D01*
X-17424400Y12937067D01*
X-17432866Y12945534D01*
X-17441333Y12937067D01*
X-17454902Y12937067D01*
X-17454979Y12970934D01*
X-17441333Y12970934D01*
X-17432866Y12962467D01*
X-17424400Y12970934D01*
X-17432866Y12979401D01*
X-17441333Y12970934D01*
X-17454979Y12970934D01*
X-17455055Y13004801D01*
X-17441333Y13004801D01*
X-17432866Y12996334D01*
X-17424400Y13004801D01*
X-17432866Y13013267D01*
X-17441333Y13004801D01*
X-17455055Y13004801D01*
X-17455132Y13038667D01*
X-17441333Y13038667D01*
X-17432866Y13030201D01*
X-17424400Y13038667D01*
X-17432866Y13047134D01*
X-17441333Y13038667D01*
X-17455132Y13038667D01*
X-17455208Y13072534D01*
X-17441333Y13072534D01*
X-17432866Y13064067D01*
X-17424400Y13072534D01*
X-17432866Y13081001D01*
X-17441333Y13072534D01*
X-17455208Y13072534D01*
X-17455285Y13106401D01*
X-17441333Y13106401D01*
X-17432866Y13097934D01*
X-17424400Y13106401D01*
X-17432866Y13114867D01*
X-17441333Y13106401D01*
X-17455285Y13106401D01*
X-17455361Y13140267D01*
X-17441333Y13140267D01*
X-17432866Y13131801D01*
X-17424400Y13140267D01*
X-17432866Y13148734D01*
X-17441333Y13140267D01*
X-17455361Y13140267D01*
X-17455438Y13174134D01*
X-17441333Y13174134D01*
X-17432866Y13165667D01*
X-17424400Y13174134D01*
X-17432866Y13182601D01*
X-17441333Y13174134D01*
X-17455438Y13174134D01*
X-17455514Y13208001D01*
X-17441333Y13208001D01*
X-17432866Y13199534D01*
X-17424400Y13208001D01*
X-17432866Y13216467D01*
X-17441333Y13208001D01*
X-17455514Y13208001D01*
X-17455591Y13241867D01*
X-17441333Y13241867D01*
X-17432866Y13233401D01*
X-17424400Y13241867D01*
X-17432866Y13250334D01*
X-17441333Y13241867D01*
X-17455591Y13241867D01*
X-17455667Y13275734D01*
X-17441333Y13275734D01*
X-17432866Y13267267D01*
X-17424400Y13275734D01*
X-17432866Y13284201D01*
X-17441333Y13275734D01*
X-17455667Y13275734D01*
X-17455744Y13309601D01*
X-17441333Y13309601D01*
X-17432866Y13301134D01*
X-17424400Y13309601D01*
X-17432866Y13318067D01*
X-17441333Y13309601D01*
X-17455744Y13309601D01*
X-17455820Y13343467D01*
X-17441333Y13343467D01*
X-17432866Y13335001D01*
X-17424400Y13343467D01*
X-17432866Y13351934D01*
X-17441333Y13343467D01*
X-17455820Y13343467D01*
X-17455897Y13377334D01*
X-17441333Y13377334D01*
X-17432866Y13368867D01*
X-17424400Y13377334D01*
X-17432866Y13385801D01*
X-17441333Y13377334D01*
X-17455897Y13377334D01*
X-17455973Y13411201D01*
X-17441333Y13411201D01*
X-17432866Y13402734D01*
X-17424400Y13411201D01*
X-17432866Y13419667D01*
X-17441333Y13411201D01*
X-17455973Y13411201D01*
X-17456050Y13445067D01*
X-17441333Y13445067D01*
X-17432866Y13436601D01*
X-17424400Y13445067D01*
X-17432866Y13453534D01*
X-17441333Y13445067D01*
X-17456050Y13445067D01*
X-17456127Y13478934D01*
X-17441333Y13478934D01*
X-17432866Y13470467D01*
X-17424400Y13478934D01*
X-17432866Y13487401D01*
X-17441333Y13478934D01*
X-17456127Y13478934D01*
X-17456204Y13512801D01*
X-17441333Y13512801D01*
X-17432866Y13504334D01*
X-17424400Y13512801D01*
X-17432866Y13521267D01*
X-17441333Y13512801D01*
X-17456204Y13512801D01*
X-17456281Y13546667D01*
X-17441333Y13546667D01*
X-17432866Y13538201D01*
X-17424400Y13546667D01*
X-17432866Y13555134D01*
X-17441333Y13546667D01*
X-17456281Y13546667D01*
X-17456358Y13580534D01*
X-17441333Y13580534D01*
X-17432866Y13572067D01*
X-17424400Y13580534D01*
X-17432866Y13589001D01*
X-17441333Y13580534D01*
X-17456358Y13580534D01*
X-17456435Y13614401D01*
X-17441333Y13614401D01*
X-17432866Y13605934D01*
X-17424400Y13614401D01*
X-17432866Y13622867D01*
X-17441333Y13614401D01*
X-17456435Y13614401D01*
X-17456512Y13648267D01*
X-17441333Y13648267D01*
X-17432866Y13639800D01*
X-17424400Y13648267D01*
X-17432866Y13656734D01*
X-17441333Y13648267D01*
X-17456512Y13648267D01*
X-17456589Y13682134D01*
X-17441333Y13682134D01*
X-17432866Y13673667D01*
X-17424400Y13682134D01*
X-17432866Y13690600D01*
X-17441333Y13682134D01*
X-17456589Y13682134D01*
X-17456666Y13716000D01*
X-17441333Y13716000D01*
X-17432866Y13707534D01*
X-17424400Y13716000D01*
X-17432866Y13724467D01*
X-17441333Y13716000D01*
X-17456666Y13716000D01*
X-17456743Y13749867D01*
X-17441333Y13749867D01*
X-17432866Y13741400D01*
X-17424400Y13749867D01*
X-17432866Y13758334D01*
X-17441333Y13749867D01*
X-17456743Y13749867D01*
X-17456820Y13783734D01*
X-17441333Y13783734D01*
X-17432866Y13775267D01*
X-17424400Y13783734D01*
X-17432866Y13792200D01*
X-17441333Y13783734D01*
X-17456820Y13783734D01*
X-17456897Y13817600D01*
X-17441333Y13817600D01*
X-17432866Y13809134D01*
X-17424400Y13817600D01*
X-17432866Y13826067D01*
X-17441333Y13817600D01*
X-17456897Y13817600D01*
X-17456974Y13851467D01*
X-17441333Y13851467D01*
X-17432866Y13843000D01*
X-17424400Y13851467D01*
X-17432866Y13859934D01*
X-17441333Y13851467D01*
X-17456974Y13851467D01*
X-17457051Y13885334D01*
X-17441333Y13885334D01*
X-17432866Y13876867D01*
X-17424400Y13885334D01*
X-17432866Y13893800D01*
X-17441333Y13885334D01*
X-17457051Y13885334D01*
X-17457128Y13919200D01*
X-17441333Y13919200D01*
X-17432866Y13910734D01*
X-17424400Y13919200D01*
X-17432866Y13927667D01*
X-17441333Y13919200D01*
X-17457128Y13919200D01*
X-17457205Y13953067D01*
X-17441333Y13953067D01*
X-17432866Y13944600D01*
X-17424400Y13953067D01*
X-17432866Y13961534D01*
X-17441333Y13953067D01*
X-17457205Y13953067D01*
X-17457282Y13986934D01*
X-17441333Y13986934D01*
X-17432866Y13978467D01*
X-17424400Y13986934D01*
X-17432866Y13995400D01*
X-17441333Y13986934D01*
X-17457282Y13986934D01*
X-17457359Y14020800D01*
X-17441333Y14020800D01*
X-17432866Y14012334D01*
X-17424400Y14020800D01*
X-17432866Y14029267D01*
X-17441333Y14020800D01*
X-17457359Y14020800D01*
X-17457436Y14054667D01*
X-17441333Y14054667D01*
X-17432866Y14046200D01*
X-17424400Y14054667D01*
X-17432866Y14063134D01*
X-17441333Y14054667D01*
X-17457436Y14054667D01*
X-17457513Y14088534D01*
X-17441333Y14088534D01*
X-17432866Y14080067D01*
X-17424400Y14088534D01*
X-17432866Y14097000D01*
X-17441333Y14088534D01*
X-17457513Y14088534D01*
X-17457590Y14122400D01*
X-17441333Y14122400D01*
X-17432866Y14113934D01*
X-17424400Y14122400D01*
X-17432866Y14130867D01*
X-17441333Y14122400D01*
X-17457590Y14122400D01*
X-17457667Y14156267D01*
X-17441333Y14156267D01*
X-17432866Y14147800D01*
X-17424400Y14156267D01*
X-17432866Y14164734D01*
X-17441333Y14156267D01*
X-17457667Y14156267D01*
X-17457744Y14190134D01*
X-17441333Y14190134D01*
X-17432866Y14181667D01*
X-17424400Y14190134D01*
X-17432866Y14198600D01*
X-17441333Y14190134D01*
X-17457744Y14190134D01*
X-17457821Y14224000D01*
X-17441333Y14224000D01*
X-17432866Y14215534D01*
X-17424400Y14224000D01*
X-17432866Y14232467D01*
X-17441333Y14224000D01*
X-17457821Y14224000D01*
X-17457898Y14257867D01*
X-17441333Y14257867D01*
X-17432866Y14249400D01*
X-17424400Y14257867D01*
X-17432866Y14266334D01*
X-17441333Y14257867D01*
X-17457898Y14257867D01*
X-17457975Y14291734D01*
X-17441333Y14291734D01*
X-17432866Y14283267D01*
X-17424400Y14291734D01*
X-17432866Y14300200D01*
X-17441333Y14291734D01*
X-17457975Y14291734D01*
X-17458052Y14325600D01*
X-17441333Y14325600D01*
X-17432866Y14317134D01*
X-17424400Y14325600D01*
X-17432866Y14334067D01*
X-17441333Y14325600D01*
X-17458052Y14325600D01*
X-17458129Y14359467D01*
X-17441333Y14359467D01*
X-17432866Y14351000D01*
X-17424400Y14359467D01*
X-17432866Y14367934D01*
X-17441333Y14359467D01*
X-17458129Y14359467D01*
X-17458206Y14393334D01*
X-17441333Y14393334D01*
X-17432866Y14384867D01*
X-17424400Y14393334D01*
X-17432866Y14401800D01*
X-17441333Y14393334D01*
X-17458206Y14393334D01*
X-17458283Y14427200D01*
X-17441333Y14427200D01*
X-17432866Y14418734D01*
X-17424400Y14427200D01*
X-17432866Y14435667D01*
X-17441333Y14427200D01*
X-17458283Y14427200D01*
X-17458360Y14461067D01*
X-17441333Y14461067D01*
X-17432866Y14452600D01*
X-17424400Y14461067D01*
X-17432866Y14469534D01*
X-17441333Y14461067D01*
X-17458360Y14461067D01*
X-17458412Y14484045D01*
X-17452931Y14494934D01*
X-17441333Y14494934D01*
X-17432866Y14486467D01*
X-17424400Y14494934D01*
X-17432866Y14503400D01*
X-17441333Y14494934D01*
X-17452931Y14494934D01*
X-17373670Y14652398D01*
X-17362770Y14673722D01*
X-17267320Y14833962D01*
X-17161371Y14964617D01*
X-17041222Y15068977D01*
X-16903169Y15150329D01*
X-16743510Y15211961D01*
X-16730005Y15216006D01*
X-16700177Y15223843D01*
X-16667316Y15230391D01*
X-16627995Y15235839D01*
X-16578790Y15240373D01*
X-16516275Y15244180D01*
X-16437023Y15247447D01*
X-16337610Y15250360D01*
X-16214609Y15253108D01*
X-16064596Y15255876D01*
X-15884143Y15258852D01*
X-15706575Y15261529D01*
X-15552519Y15263444D01*
X-15427302Y15264436D01*
X-15328368Y15264473D01*
X-15253158Y15263521D01*
X-15199114Y15261548D01*
X-15163679Y15258518D01*
X-15144293Y15254401D01*
X-15138399Y15249162D01*
X-15138843Y15247597D01*
X-15149936Y15223013D01*
X-15175169Y15170819D01*
X-15213502Y15093063D01*
X-15263896Y14991790D01*
X-15325310Y14869048D01*
X-15396706Y14726883D01*
X-15477044Y14567342D01*
X-15513583Y14494934D01*
X-15530672Y14461067D01*
G37*
%TD*%
M02*
