%TF.GenerationSoftware,KiCad,Pcbnew,8.0.6*%
%TF.CreationDate,2024-12-16T13:19:03+09:00*%
%TF.ProjectId,BDCM_Driver_v1,4244434d-5f44-4726-9976-65725f76312e,rev?*%
%TF.SameCoordinates,PXaac6430PY8670810*%
%TF.FileFunction,Legend,Top*%
%TF.FilePolarity,Positive*%
%FSLAX46Y46*%
G04 Gerber Fmt 4.6, Leading zero omitted, Abs format (unit mm)*
G04 Created by KiCad (PCBNEW 8.0.6) date 2024-12-16 13:19:03*
%MOMM*%
%LPD*%
G01*
G04 APERTURE LIST*
%ADD10C,0.300000*%
%ADD11C,0.150000*%
%ADD12C,0.100000*%
%ADD13C,0.125000*%
%ADD14C,0.175000*%
%ADD15C,0.120000*%
%ADD16C,0.152400*%
G04 APERTURE END LIST*
D10*
X-9652000Y18806994D02*
X321695Y18806994D01*
D11*
X-2540000Y23876000D02*
X3810000Y23876000D01*
X3810000Y13716000D01*
X-2540000Y13716000D01*
X-2540000Y23876000D01*
X-6812143Y3593044D02*
X-6812143Y4343044D01*
X-6812143Y4343044D02*
X-6526429Y4343044D01*
X-6526429Y4343044D02*
X-6455000Y4307330D01*
X-6455000Y4307330D02*
X-6419286Y4271616D01*
X-6419286Y4271616D02*
X-6383572Y4200187D01*
X-6383572Y4200187D02*
X-6383572Y4093044D01*
X-6383572Y4093044D02*
X-6419286Y4021616D01*
X-6419286Y4021616D02*
X-6455000Y3985901D01*
X-6455000Y3985901D02*
X-6526429Y3950187D01*
X-6526429Y3950187D02*
X-6812143Y3950187D01*
X-5919286Y4343044D02*
X-5776429Y4343044D01*
X-5776429Y4343044D02*
X-5705000Y4307330D01*
X-5705000Y4307330D02*
X-5633572Y4235901D01*
X-5633572Y4235901D02*
X-5597857Y4093044D01*
X-5597857Y4093044D02*
X-5597857Y3843044D01*
X-5597857Y3843044D02*
X-5633572Y3700187D01*
X-5633572Y3700187D02*
X-5705000Y3628758D01*
X-5705000Y3628758D02*
X-5776429Y3593044D01*
X-5776429Y3593044D02*
X-5919286Y3593044D01*
X-5919286Y3593044D02*
X-5990714Y3628758D01*
X-5990714Y3628758D02*
X-6062143Y3700187D01*
X-6062143Y3700187D02*
X-6097857Y3843044D01*
X-6097857Y3843044D02*
X-6097857Y4093044D01*
X-6097857Y4093044D02*
X-6062143Y4235901D01*
X-6062143Y4235901D02*
X-5990714Y4307330D01*
X-5990714Y4307330D02*
X-5919286Y4343044D01*
X-5347858Y4343044D02*
X-5169286Y3593044D01*
X-5169286Y3593044D02*
X-5026429Y4128758D01*
X-5026429Y4128758D02*
X-4883572Y3593044D01*
X-4883572Y3593044D02*
X-4705000Y4343044D01*
X-4419286Y3985901D02*
X-4169286Y3985901D01*
X-4062143Y3593044D02*
X-4419286Y3593044D01*
X-4419286Y3593044D02*
X-4419286Y4343044D01*
X-4419286Y4343044D02*
X-4062143Y4343044D01*
X-3312144Y3593044D02*
X-3562144Y3950187D01*
X-3740715Y3593044D02*
X-3740715Y4343044D01*
X-3740715Y4343044D02*
X-3455001Y4343044D01*
X-3455001Y4343044D02*
X-3383572Y4307330D01*
X-3383572Y4307330D02*
X-3347858Y4271616D01*
X-3347858Y4271616D02*
X-3312144Y4200187D01*
X-3312144Y4200187D02*
X-3312144Y4093044D01*
X-3312144Y4093044D02*
X-3347858Y4021616D01*
X-3347858Y4021616D02*
X-3383572Y3985901D01*
X-3383572Y3985901D02*
X-3455001Y3950187D01*
X-3455001Y3950187D02*
X-3740715Y3950187D01*
X-7330000Y3064158D02*
X-7294286Y3099872D01*
X-7294286Y3099872D02*
X-7222857Y3135586D01*
X-7222857Y3135586D02*
X-7044286Y3135586D01*
X-7044286Y3135586D02*
X-6972857Y3099872D01*
X-6972857Y3099872D02*
X-6937143Y3064158D01*
X-6937143Y3064158D02*
X-6901429Y2992729D01*
X-6901429Y2992729D02*
X-6901429Y2921300D01*
X-6901429Y2921300D02*
X-6937143Y2814158D01*
X-6937143Y2814158D02*
X-7365715Y2385586D01*
X-7365715Y2385586D02*
X-6901429Y2385586D01*
X-6580000Y2457015D02*
X-6544286Y2421300D01*
X-6544286Y2421300D02*
X-6580000Y2385586D01*
X-6580000Y2385586D02*
X-6615714Y2421300D01*
X-6615714Y2421300D02*
X-6580000Y2457015D01*
X-6580000Y2457015D02*
X-6580000Y2385586D01*
X-5865714Y3135586D02*
X-6222857Y3135586D01*
X-6222857Y3135586D02*
X-6258571Y2778443D01*
X-6258571Y2778443D02*
X-6222857Y2814158D01*
X-6222857Y2814158D02*
X-6151428Y2849872D01*
X-6151428Y2849872D02*
X-5972857Y2849872D01*
X-5972857Y2849872D02*
X-5901428Y2814158D01*
X-5901428Y2814158D02*
X-5865714Y2778443D01*
X-5865714Y2778443D02*
X-5830000Y2707015D01*
X-5830000Y2707015D02*
X-5830000Y2528443D01*
X-5830000Y2528443D02*
X-5865714Y2457015D01*
X-5865714Y2457015D02*
X-5901428Y2421300D01*
X-5901428Y2421300D02*
X-5972857Y2385586D01*
X-5972857Y2385586D02*
X-6151428Y2385586D01*
X-6151428Y2385586D02*
X-6222857Y2421300D01*
X-6222857Y2421300D02*
X-6258571Y2457015D01*
X-5508571Y2671300D02*
X-4937142Y2671300D01*
X-4187143Y2385586D02*
X-4615714Y2385586D01*
X-4401429Y2385586D02*
X-4401429Y3135586D01*
X-4401429Y3135586D02*
X-4472857Y3028443D01*
X-4472857Y3028443D02*
X-4544286Y2957015D01*
X-4544286Y2957015D02*
X-4615714Y2921300D01*
X-3508571Y3135586D02*
X-3865714Y3135586D01*
X-3865714Y3135586D02*
X-3901428Y2778443D01*
X-3901428Y2778443D02*
X-3865714Y2814158D01*
X-3865714Y2814158D02*
X-3794285Y2849872D01*
X-3794285Y2849872D02*
X-3615714Y2849872D01*
X-3615714Y2849872D02*
X-3544285Y2814158D01*
X-3544285Y2814158D02*
X-3508571Y2778443D01*
X-3508571Y2778443D02*
X-3472857Y2707015D01*
X-3472857Y2707015D02*
X-3472857Y2528443D01*
X-3472857Y2528443D02*
X-3508571Y2457015D01*
X-3508571Y2457015D02*
X-3544285Y2421300D01*
X-3544285Y2421300D02*
X-3615714Y2385586D01*
X-3615714Y2385586D02*
X-3794285Y2385586D01*
X-3794285Y2385586D02*
X-3865714Y2421300D01*
X-3865714Y2421300D02*
X-3901428Y2457015D01*
X-3258571Y3135586D02*
X-3008571Y2385586D01*
X-3008571Y2385586D02*
X-2758571Y3135586D01*
D12*
X-23484783Y31937307D02*
X-23175259Y31937307D01*
X-23175259Y31937307D02*
X-23341926Y31746831D01*
X-23341926Y31746831D02*
X-23270497Y31746831D01*
X-23270497Y31746831D02*
X-23222878Y31723021D01*
X-23222878Y31723021D02*
X-23199069Y31699212D01*
X-23199069Y31699212D02*
X-23175259Y31651593D01*
X-23175259Y31651593D02*
X-23175259Y31532545D01*
X-23175259Y31532545D02*
X-23199069Y31484926D01*
X-23199069Y31484926D02*
X-23222878Y31461116D01*
X-23222878Y31461116D02*
X-23270497Y31437307D01*
X-23270497Y31437307D02*
X-23413354Y31437307D01*
X-23413354Y31437307D02*
X-23460973Y31461116D01*
X-23460973Y31461116D02*
X-23484783Y31484926D01*
X-23032402Y31937307D02*
X-22865736Y31437307D01*
X-22865736Y31437307D02*
X-22699069Y31937307D01*
X-22580022Y31937307D02*
X-22270498Y31937307D01*
X-22270498Y31937307D02*
X-22437165Y31746831D01*
X-22437165Y31746831D02*
X-22365736Y31746831D01*
X-22365736Y31746831D02*
X-22318117Y31723021D01*
X-22318117Y31723021D02*
X-22294308Y31699212D01*
X-22294308Y31699212D02*
X-22270498Y31651593D01*
X-22270498Y31651593D02*
X-22270498Y31532545D01*
X-22270498Y31532545D02*
X-22294308Y31484926D01*
X-22294308Y31484926D02*
X-22318117Y31461116D01*
X-22318117Y31461116D02*
X-22365736Y31437307D01*
X-22365736Y31437307D02*
X-22508593Y31437307D01*
X-22508593Y31437307D02*
X-22556212Y31461116D01*
X-22556212Y31461116D02*
X-22580022Y31484926D01*
X-23151450Y30679954D02*
X-23175259Y30656144D01*
X-23175259Y30656144D02*
X-23246688Y30632335D01*
X-23246688Y30632335D02*
X-23294307Y30632335D01*
X-23294307Y30632335D02*
X-23365735Y30656144D01*
X-23365735Y30656144D02*
X-23413354Y30703764D01*
X-23413354Y30703764D02*
X-23437164Y30751383D01*
X-23437164Y30751383D02*
X-23460973Y30846621D01*
X-23460973Y30846621D02*
X-23460973Y30918049D01*
X-23460973Y30918049D02*
X-23437164Y31013287D01*
X-23437164Y31013287D02*
X-23413354Y31060906D01*
X-23413354Y31060906D02*
X-23365735Y31108525D01*
X-23365735Y31108525D02*
X-23294307Y31132335D01*
X-23294307Y31132335D02*
X-23246688Y31132335D01*
X-23246688Y31132335D02*
X-23175259Y31108525D01*
X-23175259Y31108525D02*
X-23151450Y31084716D01*
X-22699069Y30632335D02*
X-22937164Y30632335D01*
X-22937164Y30632335D02*
X-22937164Y31132335D01*
X-22532402Y30632335D02*
X-22532402Y31132335D01*
X-22246688Y30632335D02*
X-22460973Y30918049D01*
X-22246688Y31132335D02*
X-22532402Y30846621D01*
X-23175259Y30303553D02*
X-23222878Y30327363D01*
X-23222878Y30327363D02*
X-23294307Y30327363D01*
X-23294307Y30327363D02*
X-23365735Y30303553D01*
X-23365735Y30303553D02*
X-23413354Y30255934D01*
X-23413354Y30255934D02*
X-23437164Y30208315D01*
X-23437164Y30208315D02*
X-23460973Y30113077D01*
X-23460973Y30113077D02*
X-23460973Y30041649D01*
X-23460973Y30041649D02*
X-23437164Y29946411D01*
X-23437164Y29946411D02*
X-23413354Y29898792D01*
X-23413354Y29898792D02*
X-23365735Y29851172D01*
X-23365735Y29851172D02*
X-23294307Y29827363D01*
X-23294307Y29827363D02*
X-23246688Y29827363D01*
X-23246688Y29827363D02*
X-23175259Y29851172D01*
X-23175259Y29851172D02*
X-23151450Y29874982D01*
X-23151450Y29874982D02*
X-23151450Y30041649D01*
X-23151450Y30041649D02*
X-23246688Y30041649D01*
X-22937164Y29827363D02*
X-22937164Y30327363D01*
X-22937164Y30327363D02*
X-22651450Y29827363D01*
X-22651450Y29827363D02*
X-22651450Y30327363D01*
X-22413354Y29827363D02*
X-22413354Y30327363D01*
X-22413354Y30327363D02*
X-22294306Y30327363D01*
X-22294306Y30327363D02*
X-22222878Y30303553D01*
X-22222878Y30303553D02*
X-22175259Y30255934D01*
X-22175259Y30255934D02*
X-22151449Y30208315D01*
X-22151449Y30208315D02*
X-22127640Y30113077D01*
X-22127640Y30113077D02*
X-22127640Y30041649D01*
X-22127640Y30041649D02*
X-22151449Y29946411D01*
X-22151449Y29946411D02*
X-22175259Y29898792D01*
X-22175259Y29898792D02*
X-22222878Y29851172D01*
X-22222878Y29851172D02*
X-22294306Y29827363D01*
X-22294306Y29827363D02*
X-22413354Y29827363D01*
X-23437164Y29022391D02*
X-23437164Y29522391D01*
X-23103831Y29522391D02*
X-23008593Y29522391D01*
X-23008593Y29522391D02*
X-22960974Y29498581D01*
X-22960974Y29498581D02*
X-22913355Y29450962D01*
X-22913355Y29450962D02*
X-22889545Y29355724D01*
X-22889545Y29355724D02*
X-22889545Y29189058D01*
X-22889545Y29189058D02*
X-22913355Y29093820D01*
X-22913355Y29093820D02*
X-22960974Y29046200D01*
X-22960974Y29046200D02*
X-23008593Y29022391D01*
X-23008593Y29022391D02*
X-23103831Y29022391D01*
X-23103831Y29022391D02*
X-23151450Y29046200D01*
X-23151450Y29046200D02*
X-23199069Y29093820D01*
X-23199069Y29093820D02*
X-23222878Y29189058D01*
X-23222878Y29189058D02*
X-23222878Y29355724D01*
X-23222878Y29355724D02*
X-23199069Y29450962D01*
X-23199069Y29450962D02*
X-23151450Y29498581D01*
X-23151450Y29498581D02*
X-23103831Y29522391D01*
D13*
X-26795500Y22942001D02*
X-26762167Y23042001D01*
X-26762167Y23042001D02*
X-26762167Y23208667D01*
X-26762167Y23208667D02*
X-26795500Y23275334D01*
X-26795500Y23275334D02*
X-26828834Y23308667D01*
X-26828834Y23308667D02*
X-26895500Y23342001D01*
X-26895500Y23342001D02*
X-26962167Y23342001D01*
X-26962167Y23342001D02*
X-27028834Y23308667D01*
X-27028834Y23308667D02*
X-27062167Y23275334D01*
X-27062167Y23275334D02*
X-27095500Y23208667D01*
X-27095500Y23208667D02*
X-27128834Y23075334D01*
X-27128834Y23075334D02*
X-27162167Y23008667D01*
X-27162167Y23008667D02*
X-27195500Y22975334D01*
X-27195500Y22975334D02*
X-27262167Y22942001D01*
X-27262167Y22942001D02*
X-27328834Y22942001D01*
X-27328834Y22942001D02*
X-27395500Y22975334D01*
X-27395500Y22975334D02*
X-27428834Y23008667D01*
X-27428834Y23008667D02*
X-27462167Y23075334D01*
X-27462167Y23075334D02*
X-27462167Y23242001D01*
X-27462167Y23242001D02*
X-27428834Y23342001D01*
X-27462167Y23542001D02*
X-27462167Y23942001D01*
X-26762167Y23742001D02*
X-27462167Y23742001D01*
X-27028834Y24175334D02*
X-27028834Y24708667D01*
X-26762167Y25375334D02*
X-26762167Y25042001D01*
X-26762167Y25042001D02*
X-27462167Y25042001D01*
X-26762167Y25608668D02*
X-27228834Y25608668D01*
X-27462167Y25608668D02*
X-27428834Y25575335D01*
X-27428834Y25575335D02*
X-27395500Y25608668D01*
X-27395500Y25608668D02*
X-27428834Y25642001D01*
X-27428834Y25642001D02*
X-27462167Y25608668D01*
X-27462167Y25608668D02*
X-27395500Y25608668D01*
X-27228834Y25942001D02*
X-26762167Y25942001D01*
X-27162167Y25942001D02*
X-27195500Y25975334D01*
X-27195500Y25975334D02*
X-27228834Y26042001D01*
X-27228834Y26042001D02*
X-27228834Y26142001D01*
X-27228834Y26142001D02*
X-27195500Y26208668D01*
X-27195500Y26208668D02*
X-27128834Y26242001D01*
X-27128834Y26242001D02*
X-26762167Y26242001D01*
X-26762167Y26575334D02*
X-27462167Y26575334D01*
X-27028834Y26642001D02*
X-26762167Y26842001D01*
X-27228834Y26842001D02*
X-26962167Y26575334D01*
D12*
X-23128048Y27125296D02*
X-22961381Y27125296D01*
X-22889953Y26863391D02*
X-23128048Y26863391D01*
X-23128048Y26863391D02*
X-23128048Y27363391D01*
X-23128048Y27363391D02*
X-22889953Y27363391D01*
X-22675667Y26863391D02*
X-22675667Y27363391D01*
X-22675667Y27363391D02*
X-22389953Y26863391D01*
X-22389953Y26863391D02*
X-22389953Y27363391D01*
X-21866143Y26911010D02*
X-21889952Y26887200D01*
X-21889952Y26887200D02*
X-21961381Y26863391D01*
X-21961381Y26863391D02*
X-22009000Y26863391D01*
X-22009000Y26863391D02*
X-22080428Y26887200D01*
X-22080428Y26887200D02*
X-22128047Y26934820D01*
X-22128047Y26934820D02*
X-22151857Y26982439D01*
X-22151857Y26982439D02*
X-22175666Y27077677D01*
X-22175666Y27077677D02*
X-22175666Y27149105D01*
X-22175666Y27149105D02*
X-22151857Y27244343D01*
X-22151857Y27244343D02*
X-22128047Y27291962D01*
X-22128047Y27291962D02*
X-22080428Y27339581D01*
X-22080428Y27339581D02*
X-22009000Y27363391D01*
X-22009000Y27363391D02*
X-21961381Y27363391D01*
X-21961381Y27363391D02*
X-21889952Y27339581D01*
X-21889952Y27339581D02*
X-21866143Y27315772D01*
X-21542333Y27017677D02*
X-21485190Y26998629D01*
X-21485190Y26998629D02*
X-21466143Y26979581D01*
X-21466143Y26979581D02*
X-21447095Y26941486D01*
X-21447095Y26941486D02*
X-21447095Y26884343D01*
X-21447095Y26884343D02*
X-21466143Y26846248D01*
X-21466143Y26846248D02*
X-21485190Y26827200D01*
X-21485190Y26827200D02*
X-21523285Y26808153D01*
X-21523285Y26808153D02*
X-21675666Y26808153D01*
X-21675666Y26808153D02*
X-21675666Y27208153D01*
X-21675666Y27208153D02*
X-21542333Y27208153D01*
X-21542333Y27208153D02*
X-21504238Y27189105D01*
X-21504238Y27189105D02*
X-21485190Y27170058D01*
X-21485190Y27170058D02*
X-21466143Y27131962D01*
X-21466143Y27131962D02*
X-21466143Y27093867D01*
X-21466143Y27093867D02*
X-21485190Y27055772D01*
X-21485190Y27055772D02*
X-21504238Y27036724D01*
X-21504238Y27036724D02*
X-21542333Y27017677D01*
X-21542333Y27017677D02*
X-21675666Y27017677D01*
X-20870905Y27125296D02*
X-20704238Y27125296D01*
X-20632810Y26863391D02*
X-20870905Y26863391D01*
X-20870905Y26863391D02*
X-20870905Y27363391D01*
X-20870905Y27363391D02*
X-20632810Y27363391D01*
X-20418524Y26863391D02*
X-20418524Y27363391D01*
X-20418524Y27363391D02*
X-20132810Y26863391D01*
X-20132810Y26863391D02*
X-20132810Y27363391D01*
X-19609000Y26911010D02*
X-19632809Y26887200D01*
X-19632809Y26887200D02*
X-19704238Y26863391D01*
X-19704238Y26863391D02*
X-19751857Y26863391D01*
X-19751857Y26863391D02*
X-19823285Y26887200D01*
X-19823285Y26887200D02*
X-19870904Y26934820D01*
X-19870904Y26934820D02*
X-19894714Y26982439D01*
X-19894714Y26982439D02*
X-19918523Y27077677D01*
X-19918523Y27077677D02*
X-19918523Y27149105D01*
X-19918523Y27149105D02*
X-19894714Y27244343D01*
X-19894714Y27244343D02*
X-19870904Y27291962D01*
X-19870904Y27291962D02*
X-19823285Y27339581D01*
X-19823285Y27339581D02*
X-19751857Y27363391D01*
X-19751857Y27363391D02*
X-19704238Y27363391D01*
X-19704238Y27363391D02*
X-19632809Y27339581D01*
X-19632809Y27339581D02*
X-19609000Y27315772D01*
X-19437571Y26922439D02*
X-19247095Y26922439D01*
X-19475666Y26808153D02*
X-19342333Y27208153D01*
X-19342333Y27208153D02*
X-19209000Y26808153D01*
D14*
X-19031667Y221767D02*
X-19031667Y921767D01*
X-18758334Y931100D02*
X-18731667Y957767D01*
X-18731667Y957767D02*
X-18678334Y984434D01*
X-18678334Y984434D02*
X-18545000Y984434D01*
X-18545000Y984434D02*
X-18491667Y957767D01*
X-18491667Y957767D02*
X-18465000Y931100D01*
X-18465000Y931100D02*
X-18438334Y877767D01*
X-18438334Y877767D02*
X-18438334Y824434D01*
X-18438334Y824434D02*
X-18465000Y744434D01*
X-18465000Y744434D02*
X-18785000Y424434D01*
X-18785000Y424434D02*
X-18438334Y424434D01*
X-17765001Y288434D02*
X-17798334Y255100D01*
X-17798334Y255100D02*
X-17898334Y221767D01*
X-17898334Y221767D02*
X-17965001Y221767D01*
X-17965001Y221767D02*
X-18065001Y255100D01*
X-18065001Y255100D02*
X-18131667Y321767D01*
X-18131667Y321767D02*
X-18165001Y388434D01*
X-18165001Y388434D02*
X-18198334Y521767D01*
X-18198334Y521767D02*
X-18198334Y621767D01*
X-18198334Y621767D02*
X-18165001Y755100D01*
X-18165001Y755100D02*
X-18131667Y821767D01*
X-18131667Y821767D02*
X-18065001Y888434D01*
X-18065001Y888434D02*
X-17965001Y921767D01*
X-17965001Y921767D02*
X-17898334Y921767D01*
X-17898334Y921767D02*
X-17798334Y888434D01*
X-17798334Y888434D02*
X-17765001Y855100D01*
D11*
X-2266999Y25260181D02*
X-2133666Y25260181D01*
X-2133666Y25260181D02*
X-2066999Y25212562D01*
X-2066999Y25212562D02*
X-2000333Y25117324D01*
X-2000333Y25117324D02*
X-1966999Y24926848D01*
X-1966999Y24926848D02*
X-1966999Y24593515D01*
X-1966999Y24593515D02*
X-2000333Y24403039D01*
X-2000333Y24403039D02*
X-2066999Y24307800D01*
X-2066999Y24307800D02*
X-2133666Y24260181D01*
X-2133666Y24260181D02*
X-2266999Y24260181D01*
X-2266999Y24260181D02*
X-2333666Y24307800D01*
X-2333666Y24307800D02*
X-2400333Y24403039D01*
X-2400333Y24403039D02*
X-2433666Y24593515D01*
X-2433666Y24593515D02*
X-2433666Y24926848D01*
X-2433666Y24926848D02*
X-2400333Y25117324D01*
X-2400333Y25117324D02*
X-2333666Y25212562D01*
X-2333666Y25212562D02*
X-2266999Y25260181D01*
X-1667000Y25260181D02*
X-1667000Y24450658D01*
X-1667000Y24450658D02*
X-1633666Y24355420D01*
X-1633666Y24355420D02*
X-1600333Y24307800D01*
X-1600333Y24307800D02*
X-1533666Y24260181D01*
X-1533666Y24260181D02*
X-1400333Y24260181D01*
X-1400333Y24260181D02*
X-1333666Y24307800D01*
X-1333666Y24307800D02*
X-1300333Y24355420D01*
X-1300333Y24355420D02*
X-1267000Y24450658D01*
X-1267000Y24450658D02*
X-1267000Y25260181D01*
X-1033667Y25260181D02*
X-633667Y25260181D01*
X-833667Y24260181D02*
X-833667Y25260181D01*
X-460334Y24378277D02*
X-193667Y24378277D01*
X-513667Y24149705D02*
X-327000Y24949705D01*
X-327000Y24949705D02*
X-140334Y24149705D01*
D12*
X-29276391Y16291810D02*
X-29514486Y16125144D01*
X-29276391Y16006096D02*
X-29776391Y16006096D01*
X-29776391Y16006096D02*
X-29776391Y16196572D01*
X-29776391Y16196572D02*
X-29752581Y16244191D01*
X-29752581Y16244191D02*
X-29728772Y16268001D01*
X-29728772Y16268001D02*
X-29681153Y16291810D01*
X-29681153Y16291810D02*
X-29609724Y16291810D01*
X-29609724Y16291810D02*
X-29562105Y16268001D01*
X-29562105Y16268001D02*
X-29538296Y16244191D01*
X-29538296Y16244191D02*
X-29514486Y16196572D01*
X-29514486Y16196572D02*
X-29514486Y16006096D01*
X-29538296Y16506096D02*
X-29538296Y16672763D01*
X-29276391Y16744191D02*
X-29276391Y16506096D01*
X-29276391Y16506096D02*
X-29776391Y16506096D01*
X-29776391Y16506096D02*
X-29776391Y16744191D01*
X-29300200Y16934668D02*
X-29276391Y17006096D01*
X-29276391Y17006096D02*
X-29276391Y17125144D01*
X-29276391Y17125144D02*
X-29300200Y17172763D01*
X-29300200Y17172763D02*
X-29324010Y17196572D01*
X-29324010Y17196572D02*
X-29371629Y17220382D01*
X-29371629Y17220382D02*
X-29419248Y17220382D01*
X-29419248Y17220382D02*
X-29466867Y17196572D01*
X-29466867Y17196572D02*
X-29490677Y17172763D01*
X-29490677Y17172763D02*
X-29514486Y17125144D01*
X-29514486Y17125144D02*
X-29538296Y17029906D01*
X-29538296Y17029906D02*
X-29562105Y16982287D01*
X-29562105Y16982287D02*
X-29585915Y16958477D01*
X-29585915Y16958477D02*
X-29633534Y16934668D01*
X-29633534Y16934668D02*
X-29681153Y16934668D01*
X-29681153Y16934668D02*
X-29728772Y16958477D01*
X-29728772Y16958477D02*
X-29752581Y16982287D01*
X-29752581Y16982287D02*
X-29776391Y17029906D01*
X-29776391Y17029906D02*
X-29776391Y17148953D01*
X-29776391Y17148953D02*
X-29752581Y17220382D01*
X-29538296Y17434667D02*
X-29538296Y17601334D01*
X-29276391Y17672762D02*
X-29276391Y17434667D01*
X-29276391Y17434667D02*
X-29776391Y17434667D01*
X-29776391Y17434667D02*
X-29776391Y17672762D01*
X-29776391Y17815620D02*
X-29776391Y18101334D01*
X-29276391Y17958477D02*
X-29776391Y17958477D01*
D11*
X-2249999Y13422181D02*
X-2116666Y13422181D01*
X-2116666Y13422181D02*
X-2049999Y13374562D01*
X-2049999Y13374562D02*
X-1983333Y13279324D01*
X-1983333Y13279324D02*
X-1949999Y13088848D01*
X-1949999Y13088848D02*
X-1949999Y12755515D01*
X-1949999Y12755515D02*
X-1983333Y12565039D01*
X-1983333Y12565039D02*
X-2049999Y12469800D01*
X-2049999Y12469800D02*
X-2116666Y12422181D01*
X-2116666Y12422181D02*
X-2249999Y12422181D01*
X-2249999Y12422181D02*
X-2316666Y12469800D01*
X-2316666Y12469800D02*
X-2383333Y12565039D01*
X-2383333Y12565039D02*
X-2416666Y12755515D01*
X-2416666Y12755515D02*
X-2416666Y13088848D01*
X-2416666Y13088848D02*
X-2383333Y13279324D01*
X-2383333Y13279324D02*
X-2316666Y13374562D01*
X-2316666Y13374562D02*
X-2249999Y13422181D01*
X-1650000Y13422181D02*
X-1650000Y12612658D01*
X-1650000Y12612658D02*
X-1616666Y12517420D01*
X-1616666Y12517420D02*
X-1583333Y12469800D01*
X-1583333Y12469800D02*
X-1516666Y12422181D01*
X-1516666Y12422181D02*
X-1383333Y12422181D01*
X-1383333Y12422181D02*
X-1316666Y12469800D01*
X-1316666Y12469800D02*
X-1283333Y12517420D01*
X-1283333Y12517420D02*
X-1250000Y12612658D01*
X-1250000Y12612658D02*
X-1250000Y13422181D01*
X-1016667Y13422181D02*
X-616667Y13422181D01*
X-816667Y12422181D02*
X-816667Y13422181D01*
X-230000Y12730753D02*
X-150000Y12692658D01*
X-150000Y12692658D02*
X-123334Y12654562D01*
X-123334Y12654562D02*
X-96667Y12578372D01*
X-96667Y12578372D02*
X-96667Y12464086D01*
X-96667Y12464086D02*
X-123334Y12387896D01*
X-123334Y12387896D02*
X-150000Y12349800D01*
X-150000Y12349800D02*
X-203334Y12311705D01*
X-203334Y12311705D02*
X-416667Y12311705D01*
X-416667Y12311705D02*
X-416667Y13111705D01*
X-416667Y13111705D02*
X-230000Y13111705D01*
X-230000Y13111705D02*
X-176667Y13073610D01*
X-176667Y13073610D02*
X-150000Y13035515D01*
X-150000Y13035515D02*
X-123334Y12959324D01*
X-123334Y12959324D02*
X-123334Y12883134D01*
X-123334Y12883134D02*
X-150000Y12806943D01*
X-150000Y12806943D02*
X-176667Y12768848D01*
X-176667Y12768848D02*
X-230000Y12730753D01*
X-230000Y12730753D02*
X-416667Y12730753D01*
X-13985714Y25945181D02*
X-13414286Y25945181D01*
X-13700000Y24945181D02*
X-13700000Y25945181D01*
X-13080952Y24945181D02*
X-13080952Y25945181D01*
X-13080952Y25468991D02*
X-12509524Y25468991D01*
X-12509524Y24945181D02*
X-12509524Y25945181D01*
X-11509524Y24945181D02*
X-12080952Y24945181D01*
X-11795238Y24945181D02*
X-11795238Y25945181D01*
X-11795238Y25945181D02*
X-11890476Y25802324D01*
X-11890476Y25802324D02*
X-11985714Y25707086D01*
X-11985714Y25707086D02*
X-12080952Y25659467D01*
X-13374667Y23515181D02*
X-13708000Y23991372D01*
X-13946095Y23515181D02*
X-13946095Y24515181D01*
X-13946095Y24515181D02*
X-13565143Y24515181D01*
X-13565143Y24515181D02*
X-13469905Y24467562D01*
X-13469905Y24467562D02*
X-13422286Y24419943D01*
X-13422286Y24419943D02*
X-13374667Y24324705D01*
X-13374667Y24324705D02*
X-13374667Y24181848D01*
X-13374667Y24181848D02*
X-13422286Y24086610D01*
X-13422286Y24086610D02*
X-13469905Y24038991D01*
X-13469905Y24038991D02*
X-13565143Y23991372D01*
X-13565143Y23991372D02*
X-13946095Y23991372D01*
X-12469905Y24515181D02*
X-12946095Y24515181D01*
X-12946095Y24515181D02*
X-12993714Y24038991D01*
X-12993714Y24038991D02*
X-12946095Y24086610D01*
X-12946095Y24086610D02*
X-12850857Y24134229D01*
X-12850857Y24134229D02*
X-12612762Y24134229D01*
X-12612762Y24134229D02*
X-12517524Y24086610D01*
X-12517524Y24086610D02*
X-12469905Y24038991D01*
X-12469905Y24038991D02*
X-12422286Y23943753D01*
X-12422286Y23943753D02*
X-12422286Y23705658D01*
X-12422286Y23705658D02*
X-12469905Y23610420D01*
X-12469905Y23610420D02*
X-12517524Y23562800D01*
X-12517524Y23562800D02*
X-12612762Y23515181D01*
X-12612762Y23515181D02*
X-12850857Y23515181D01*
X-12850857Y23515181D02*
X-12946095Y23562800D01*
X-12946095Y23562800D02*
X-12993714Y23610420D01*
X-24929181Y17018096D02*
X-24119658Y17018096D01*
X-24119658Y17018096D02*
X-24024420Y17065715D01*
X-24024420Y17065715D02*
X-23976800Y17113334D01*
X-23976800Y17113334D02*
X-23929181Y17208572D01*
X-23929181Y17208572D02*
X-23929181Y17399048D01*
X-23929181Y17399048D02*
X-23976800Y17494286D01*
X-23976800Y17494286D02*
X-24024420Y17541905D01*
X-24024420Y17541905D02*
X-24119658Y17589524D01*
X-24119658Y17589524D02*
X-24929181Y17589524D01*
X-23929181Y18589524D02*
X-23929181Y18018096D01*
X-23929181Y18303810D02*
X-24929181Y18303810D01*
X-24929181Y18303810D02*
X-24786324Y18208572D01*
X-24786324Y18208572D02*
X-24691086Y18113334D01*
X-24691086Y18113334D02*
X-24643467Y18018096D01*
X-11429905Y24421181D02*
X-11429905Y23611658D01*
X-11429905Y23611658D02*
X-11382286Y23516420D01*
X-11382286Y23516420D02*
X-11334667Y23468800D01*
X-11334667Y23468800D02*
X-11239429Y23421181D01*
X-11239429Y23421181D02*
X-11048953Y23421181D01*
X-11048953Y23421181D02*
X-10953715Y23468800D01*
X-10953715Y23468800D02*
X-10906096Y23516420D01*
X-10906096Y23516420D02*
X-10858477Y23611658D01*
X-10858477Y23611658D02*
X-10858477Y24421181D01*
X-9953715Y24087848D02*
X-9953715Y23421181D01*
X-10191810Y24468800D02*
X-10429905Y23754515D01*
X-10429905Y23754515D02*
X-9810858Y23754515D01*
X-2085181Y-3702333D02*
X-1370896Y-3702333D01*
X-1370896Y-3702333D02*
X-1228039Y-3749952D01*
X-1228039Y-3749952D02*
X-1132800Y-3845190D01*
X-1132800Y-3845190D02*
X-1085181Y-3988047D01*
X-1085181Y-3988047D02*
X-1085181Y-4083285D01*
X-1751848Y-2797571D02*
X-1085181Y-2797571D01*
X-2132800Y-3035666D02*
X-1418515Y-3273761D01*
X-1418515Y-3273761D02*
X-1418515Y-2654714D01*
X-22994858Y8276420D02*
X-23042477Y8228800D01*
X-23042477Y8228800D02*
X-23185334Y8181181D01*
X-23185334Y8181181D02*
X-23280572Y8181181D01*
X-23280572Y8181181D02*
X-23423429Y8228800D01*
X-23423429Y8228800D02*
X-23518667Y8324039D01*
X-23518667Y8324039D02*
X-23566286Y8419277D01*
X-23566286Y8419277D02*
X-23613905Y8609753D01*
X-23613905Y8609753D02*
X-23613905Y8752610D01*
X-23613905Y8752610D02*
X-23566286Y8943086D01*
X-23566286Y8943086D02*
X-23518667Y9038324D01*
X-23518667Y9038324D02*
X-23423429Y9133562D01*
X-23423429Y9133562D02*
X-23280572Y9181181D01*
X-23280572Y9181181D02*
X-23185334Y9181181D01*
X-23185334Y9181181D02*
X-23042477Y9133562D01*
X-23042477Y9133562D02*
X-22994858Y9085943D01*
X-22042477Y8181181D02*
X-22613905Y8181181D01*
X-22328191Y8181181D02*
X-22328191Y9181181D01*
X-22328191Y9181181D02*
X-22423429Y9038324D01*
X-22423429Y9038324D02*
X-22518667Y8943086D01*
X-22518667Y8943086D02*
X-22613905Y8895467D01*
X-21661524Y9085943D02*
X-21613905Y9133562D01*
X-21613905Y9133562D02*
X-21518667Y9181181D01*
X-21518667Y9181181D02*
X-21280572Y9181181D01*
X-21280572Y9181181D02*
X-21185334Y9133562D01*
X-21185334Y9133562D02*
X-21137715Y9085943D01*
X-21137715Y9085943D02*
X-21090096Y8990705D01*
X-21090096Y8990705D02*
X-21090096Y8895467D01*
X-21090096Y8895467D02*
X-21137715Y8752610D01*
X-21137715Y8752610D02*
X-21709143Y8181181D01*
X-21709143Y8181181D02*
X-21090096Y8181181D01*
X-8927181Y11938096D02*
X-8117658Y11938096D01*
X-8117658Y11938096D02*
X-8022420Y11985715D01*
X-8022420Y11985715D02*
X-7974800Y12033334D01*
X-7974800Y12033334D02*
X-7927181Y12128572D01*
X-7927181Y12128572D02*
X-7927181Y12319048D01*
X-7927181Y12319048D02*
X-7974800Y12414286D01*
X-7974800Y12414286D02*
X-8022420Y12461905D01*
X-8022420Y12461905D02*
X-8117658Y12509524D01*
X-8117658Y12509524D02*
X-8927181Y12509524D01*
X-8927181Y13414286D02*
X-8927181Y13223810D01*
X-8927181Y13223810D02*
X-8879562Y13128572D01*
X-8879562Y13128572D02*
X-8831943Y13080953D01*
X-8831943Y13080953D02*
X-8689086Y12985715D01*
X-8689086Y12985715D02*
X-8498610Y12938096D01*
X-8498610Y12938096D02*
X-8117658Y12938096D01*
X-8117658Y12938096D02*
X-8022420Y12985715D01*
X-8022420Y12985715D02*
X-7974800Y13033334D01*
X-7974800Y13033334D02*
X-7927181Y13128572D01*
X-7927181Y13128572D02*
X-7927181Y13319048D01*
X-7927181Y13319048D02*
X-7974800Y13414286D01*
X-7974800Y13414286D02*
X-8022420Y13461905D01*
X-8022420Y13461905D02*
X-8117658Y13509524D01*
X-8117658Y13509524D02*
X-8355753Y13509524D01*
X-8355753Y13509524D02*
X-8450991Y13461905D01*
X-8450991Y13461905D02*
X-8498610Y13414286D01*
X-8498610Y13414286D02*
X-8546229Y13319048D01*
X-8546229Y13319048D02*
X-8546229Y13128572D01*
X-8546229Y13128572D02*
X-8498610Y13033334D01*
X-8498610Y13033334D02*
X-8450991Y12985715D01*
X-8450991Y12985715D02*
X-8355753Y12938096D01*
X-8927181Y24384096D02*
X-8117658Y24384096D01*
X-8117658Y24384096D02*
X-8022420Y24431715D01*
X-8022420Y24431715D02*
X-7974800Y24479334D01*
X-7974800Y24479334D02*
X-7927181Y24574572D01*
X-7927181Y24574572D02*
X-7927181Y24765048D01*
X-7927181Y24765048D02*
X-7974800Y24860286D01*
X-7974800Y24860286D02*
X-8022420Y24907905D01*
X-8022420Y24907905D02*
X-8117658Y24955524D01*
X-8117658Y24955524D02*
X-8927181Y24955524D01*
X-8927181Y25336477D02*
X-8927181Y25955524D01*
X-8927181Y25955524D02*
X-8546229Y25622191D01*
X-8546229Y25622191D02*
X-8546229Y25765048D01*
X-8546229Y25765048D02*
X-8498610Y25860286D01*
X-8498610Y25860286D02*
X-8450991Y25907905D01*
X-8450991Y25907905D02*
X-8355753Y25955524D01*
X-8355753Y25955524D02*
X-8117658Y25955524D01*
X-8117658Y25955524D02*
X-8022420Y25907905D01*
X-8022420Y25907905D02*
X-7974800Y25860286D01*
X-7974800Y25860286D02*
X-7927181Y25765048D01*
X-7927181Y25765048D02*
X-7927181Y25479334D01*
X-7927181Y25479334D02*
X-7974800Y25384096D01*
X-7974800Y25384096D02*
X-8022420Y25336477D01*
X-17928420Y6437334D02*
X-17880800Y6389715D01*
X-17880800Y6389715D02*
X-17833181Y6246858D01*
X-17833181Y6246858D02*
X-17833181Y6151620D01*
X-17833181Y6151620D02*
X-17880800Y6008763D01*
X-17880800Y6008763D02*
X-17976039Y5913525D01*
X-17976039Y5913525D02*
X-18071277Y5865906D01*
X-18071277Y5865906D02*
X-18261753Y5818287D01*
X-18261753Y5818287D02*
X-18404610Y5818287D01*
X-18404610Y5818287D02*
X-18595086Y5865906D01*
X-18595086Y5865906D02*
X-18690324Y5913525D01*
X-18690324Y5913525D02*
X-18785562Y6008763D01*
X-18785562Y6008763D02*
X-18833181Y6151620D01*
X-18833181Y6151620D02*
X-18833181Y6246858D01*
X-18833181Y6246858D02*
X-18785562Y6389715D01*
X-18785562Y6389715D02*
X-18737943Y6437334D01*
X-18833181Y7342096D02*
X-18833181Y6865906D01*
X-18833181Y6865906D02*
X-18356991Y6818287D01*
X-18356991Y6818287D02*
X-18404610Y6865906D01*
X-18404610Y6865906D02*
X-18452229Y6961144D01*
X-18452229Y6961144D02*
X-18452229Y7199239D01*
X-18452229Y7199239D02*
X-18404610Y7294477D01*
X-18404610Y7294477D02*
X-18356991Y7342096D01*
X-18356991Y7342096D02*
X-18261753Y7389715D01*
X-18261753Y7389715D02*
X-18023658Y7389715D01*
X-18023658Y7389715D02*
X-17928420Y7342096D01*
X-17928420Y7342096D02*
X-17880800Y7294477D01*
X-17880800Y7294477D02*
X-17833181Y7199239D01*
X-17833181Y7199239D02*
X-17833181Y6961144D01*
X-17833181Y6961144D02*
X-17880800Y6865906D01*
X-17880800Y6865906D02*
X-17928420Y6818287D01*
X-9564667Y30247420D02*
X-9612286Y30199800D01*
X-9612286Y30199800D02*
X-9755143Y30152181D01*
X-9755143Y30152181D02*
X-9850381Y30152181D01*
X-9850381Y30152181D02*
X-9993238Y30199800D01*
X-9993238Y30199800D02*
X-10088476Y30295039D01*
X-10088476Y30295039D02*
X-10136095Y30390277D01*
X-10136095Y30390277D02*
X-10183714Y30580753D01*
X-10183714Y30580753D02*
X-10183714Y30723610D01*
X-10183714Y30723610D02*
X-10136095Y30914086D01*
X-10136095Y30914086D02*
X-10088476Y31009324D01*
X-10088476Y31009324D02*
X-9993238Y31104562D01*
X-9993238Y31104562D02*
X-9850381Y31152181D01*
X-9850381Y31152181D02*
X-9755143Y31152181D01*
X-9755143Y31152181D02*
X-9612286Y31104562D01*
X-9612286Y31104562D02*
X-9564667Y31056943D01*
X-9183714Y31056943D02*
X-9136095Y31104562D01*
X-9136095Y31104562D02*
X-9040857Y31152181D01*
X-9040857Y31152181D02*
X-8802762Y31152181D01*
X-8802762Y31152181D02*
X-8707524Y31104562D01*
X-8707524Y31104562D02*
X-8659905Y31056943D01*
X-8659905Y31056943D02*
X-8612286Y30961705D01*
X-8612286Y30961705D02*
X-8612286Y30866467D01*
X-8612286Y30866467D02*
X-8659905Y30723610D01*
X-8659905Y30723610D02*
X-9231333Y30152181D01*
X-9231333Y30152181D02*
X-8612286Y30152181D01*
X2781666Y20341181D02*
X2781666Y19626896D01*
X2781666Y19626896D02*
X2734047Y19484039D01*
X2734047Y19484039D02*
X2638809Y19388800D01*
X2638809Y19388800D02*
X2495952Y19341181D01*
X2495952Y19341181D02*
X2400714Y19341181D01*
X3781666Y19341181D02*
X3210238Y19341181D01*
X3495952Y19341181D02*
X3495952Y20341181D01*
X3495952Y20341181D02*
X3400714Y20198324D01*
X3400714Y20198324D02*
X3305476Y20103086D01*
X3305476Y20103086D02*
X3210238Y20055467D01*
X2781666Y25421181D02*
X2781666Y24706896D01*
X2781666Y24706896D02*
X2734047Y24564039D01*
X2734047Y24564039D02*
X2638809Y24468800D01*
X2638809Y24468800D02*
X2495952Y24421181D01*
X2495952Y24421181D02*
X2400714Y24421181D01*
X3162619Y25421181D02*
X3829285Y25421181D01*
X3829285Y25421181D02*
X3400714Y24421181D01*
X-29598858Y21644420D02*
X-29646477Y21596800D01*
X-29646477Y21596800D02*
X-29789334Y21549181D01*
X-29789334Y21549181D02*
X-29884572Y21549181D01*
X-29884572Y21549181D02*
X-30027429Y21596800D01*
X-30027429Y21596800D02*
X-30122667Y21692039D01*
X-30122667Y21692039D02*
X-30170286Y21787277D01*
X-30170286Y21787277D02*
X-30217905Y21977753D01*
X-30217905Y21977753D02*
X-30217905Y22120610D01*
X-30217905Y22120610D02*
X-30170286Y22311086D01*
X-30170286Y22311086D02*
X-30122667Y22406324D01*
X-30122667Y22406324D02*
X-30027429Y22501562D01*
X-30027429Y22501562D02*
X-29884572Y22549181D01*
X-29884572Y22549181D02*
X-29789334Y22549181D01*
X-29789334Y22549181D02*
X-29646477Y22501562D01*
X-29646477Y22501562D02*
X-29598858Y22453943D01*
X-28646477Y21549181D02*
X-29217905Y21549181D01*
X-28932191Y21549181D02*
X-28932191Y22549181D01*
X-28932191Y22549181D02*
X-29027429Y22406324D01*
X-29027429Y22406324D02*
X-29122667Y22311086D01*
X-29122667Y22311086D02*
X-29217905Y22263467D01*
X-28027429Y22549181D02*
X-27932191Y22549181D01*
X-27932191Y22549181D02*
X-27836953Y22501562D01*
X-27836953Y22501562D02*
X-27789334Y22453943D01*
X-27789334Y22453943D02*
X-27741715Y22358705D01*
X-27741715Y22358705D02*
X-27694096Y22168229D01*
X-27694096Y22168229D02*
X-27694096Y21930134D01*
X-27694096Y21930134D02*
X-27741715Y21739658D01*
X-27741715Y21739658D02*
X-27789334Y21644420D01*
X-27789334Y21644420D02*
X-27836953Y21596800D01*
X-27836953Y21596800D02*
X-27932191Y21549181D01*
X-27932191Y21549181D02*
X-28027429Y21549181D01*
X-28027429Y21549181D02*
X-28122667Y21596800D01*
X-28122667Y21596800D02*
X-28170286Y21644420D01*
X-28170286Y21644420D02*
X-28217905Y21739658D01*
X-28217905Y21739658D02*
X-28265524Y21930134D01*
X-28265524Y21930134D02*
X-28265524Y22168229D01*
X-28265524Y22168229D02*
X-28217905Y22358705D01*
X-28217905Y22358705D02*
X-28170286Y22453943D01*
X-28170286Y22453943D02*
X-28122667Y22501562D01*
X-28122667Y22501562D02*
X-28027429Y22549181D01*
X-1944667Y29739420D02*
X-1992286Y29691800D01*
X-1992286Y29691800D02*
X-2135143Y29644181D01*
X-2135143Y29644181D02*
X-2230381Y29644181D01*
X-2230381Y29644181D02*
X-2373238Y29691800D01*
X-2373238Y29691800D02*
X-2468476Y29787039D01*
X-2468476Y29787039D02*
X-2516095Y29882277D01*
X-2516095Y29882277D02*
X-2563714Y30072753D01*
X-2563714Y30072753D02*
X-2563714Y30215610D01*
X-2563714Y30215610D02*
X-2516095Y30406086D01*
X-2516095Y30406086D02*
X-2468476Y30501324D01*
X-2468476Y30501324D02*
X-2373238Y30596562D01*
X-2373238Y30596562D02*
X-2230381Y30644181D01*
X-2230381Y30644181D02*
X-2135143Y30644181D01*
X-2135143Y30644181D02*
X-1992286Y30596562D01*
X-1992286Y30596562D02*
X-1944667Y30548943D01*
X-1611333Y30644181D02*
X-992286Y30644181D01*
X-992286Y30644181D02*
X-1325619Y30263229D01*
X-1325619Y30263229D02*
X-1182762Y30263229D01*
X-1182762Y30263229D02*
X-1087524Y30215610D01*
X-1087524Y30215610D02*
X-1039905Y30167991D01*
X-1039905Y30167991D02*
X-992286Y30072753D01*
X-992286Y30072753D02*
X-992286Y29834658D01*
X-992286Y29834658D02*
X-1039905Y29739420D01*
X-1039905Y29739420D02*
X-1087524Y29691800D01*
X-1087524Y29691800D02*
X-1182762Y29644181D01*
X-1182762Y29644181D02*
X-1468476Y29644181D01*
X-1468476Y29644181D02*
X-1563714Y29691800D01*
X-1563714Y29691800D02*
X-1611333Y29739420D01*
X-18944420Y13041334D02*
X-18896800Y12993715D01*
X-18896800Y12993715D02*
X-18849181Y12850858D01*
X-18849181Y12850858D02*
X-18849181Y12755620D01*
X-18849181Y12755620D02*
X-18896800Y12612763D01*
X-18896800Y12612763D02*
X-18992039Y12517525D01*
X-18992039Y12517525D02*
X-19087277Y12469906D01*
X-19087277Y12469906D02*
X-19277753Y12422287D01*
X-19277753Y12422287D02*
X-19420610Y12422287D01*
X-19420610Y12422287D02*
X-19611086Y12469906D01*
X-19611086Y12469906D02*
X-19706324Y12517525D01*
X-19706324Y12517525D02*
X-19801562Y12612763D01*
X-19801562Y12612763D02*
X-19849181Y12755620D01*
X-19849181Y12755620D02*
X-19849181Y12850858D01*
X-19849181Y12850858D02*
X-19801562Y12993715D01*
X-19801562Y12993715D02*
X-19753943Y13041334D01*
X-19515848Y13898477D02*
X-18849181Y13898477D01*
X-19896800Y13660382D02*
X-19182515Y13422287D01*
X-19182515Y13422287D02*
X-19182515Y14041334D01*
X-12358667Y13356420D02*
X-12406286Y13308800D01*
X-12406286Y13308800D02*
X-12549143Y13261181D01*
X-12549143Y13261181D02*
X-12644381Y13261181D01*
X-12644381Y13261181D02*
X-12787238Y13308800D01*
X-12787238Y13308800D02*
X-12882476Y13404039D01*
X-12882476Y13404039D02*
X-12930095Y13499277D01*
X-12930095Y13499277D02*
X-12977714Y13689753D01*
X-12977714Y13689753D02*
X-12977714Y13832610D01*
X-12977714Y13832610D02*
X-12930095Y14023086D01*
X-12930095Y14023086D02*
X-12882476Y14118324D01*
X-12882476Y14118324D02*
X-12787238Y14213562D01*
X-12787238Y14213562D02*
X-12644381Y14261181D01*
X-12644381Y14261181D02*
X-12549143Y14261181D01*
X-12549143Y14261181D02*
X-12406286Y14213562D01*
X-12406286Y14213562D02*
X-12358667Y14165943D01*
X-12025333Y14261181D02*
X-11358667Y14261181D01*
X-11358667Y14261181D02*
X-11787238Y13261181D01*
X-25058667Y13737420D02*
X-25106286Y13689800D01*
X-25106286Y13689800D02*
X-25249143Y13642181D01*
X-25249143Y13642181D02*
X-25344381Y13642181D01*
X-25344381Y13642181D02*
X-25487238Y13689800D01*
X-25487238Y13689800D02*
X-25582476Y13785039D01*
X-25582476Y13785039D02*
X-25630095Y13880277D01*
X-25630095Y13880277D02*
X-25677714Y14070753D01*
X-25677714Y14070753D02*
X-25677714Y14213610D01*
X-25677714Y14213610D02*
X-25630095Y14404086D01*
X-25630095Y14404086D02*
X-25582476Y14499324D01*
X-25582476Y14499324D02*
X-25487238Y14594562D01*
X-25487238Y14594562D02*
X-25344381Y14642181D01*
X-25344381Y14642181D02*
X-25249143Y14642181D01*
X-25249143Y14642181D02*
X-25106286Y14594562D01*
X-25106286Y14594562D02*
X-25058667Y14546943D01*
X-24106286Y13642181D02*
X-24677714Y13642181D01*
X-24392000Y13642181D02*
X-24392000Y14642181D01*
X-24392000Y14642181D02*
X-24487238Y14499324D01*
X-24487238Y14499324D02*
X-24582476Y14404086D01*
X-24582476Y14404086D02*
X-24677714Y14356467D01*
X-4230667Y6244420D02*
X-4278286Y6196800D01*
X-4278286Y6196800D02*
X-4421143Y6149181D01*
X-4421143Y6149181D02*
X-4516381Y6149181D01*
X-4516381Y6149181D02*
X-4659238Y6196800D01*
X-4659238Y6196800D02*
X-4754476Y6292039D01*
X-4754476Y6292039D02*
X-4802095Y6387277D01*
X-4802095Y6387277D02*
X-4849714Y6577753D01*
X-4849714Y6577753D02*
X-4849714Y6720610D01*
X-4849714Y6720610D02*
X-4802095Y6911086D01*
X-4802095Y6911086D02*
X-4754476Y7006324D01*
X-4754476Y7006324D02*
X-4659238Y7101562D01*
X-4659238Y7101562D02*
X-4516381Y7149181D01*
X-4516381Y7149181D02*
X-4421143Y7149181D01*
X-4421143Y7149181D02*
X-4278286Y7101562D01*
X-4278286Y7101562D02*
X-4230667Y7053943D01*
X-3659238Y6720610D02*
X-3754476Y6768229D01*
X-3754476Y6768229D02*
X-3802095Y6815848D01*
X-3802095Y6815848D02*
X-3849714Y6911086D01*
X-3849714Y6911086D02*
X-3849714Y6958705D01*
X-3849714Y6958705D02*
X-3802095Y7053943D01*
X-3802095Y7053943D02*
X-3754476Y7101562D01*
X-3754476Y7101562D02*
X-3659238Y7149181D01*
X-3659238Y7149181D02*
X-3468762Y7149181D01*
X-3468762Y7149181D02*
X-3373524Y7101562D01*
X-3373524Y7101562D02*
X-3325905Y7053943D01*
X-3325905Y7053943D02*
X-3278286Y6958705D01*
X-3278286Y6958705D02*
X-3278286Y6911086D01*
X-3278286Y6911086D02*
X-3325905Y6815848D01*
X-3325905Y6815848D02*
X-3373524Y6768229D01*
X-3373524Y6768229D02*
X-3468762Y6720610D01*
X-3468762Y6720610D02*
X-3659238Y6720610D01*
X-3659238Y6720610D02*
X-3754476Y6672991D01*
X-3754476Y6672991D02*
X-3802095Y6625372D01*
X-3802095Y6625372D02*
X-3849714Y6530134D01*
X-3849714Y6530134D02*
X-3849714Y6339658D01*
X-3849714Y6339658D02*
X-3802095Y6244420D01*
X-3802095Y6244420D02*
X-3754476Y6196800D01*
X-3754476Y6196800D02*
X-3659238Y6149181D01*
X-3659238Y6149181D02*
X-3468762Y6149181D01*
X-3468762Y6149181D02*
X-3373524Y6196800D01*
X-3373524Y6196800D02*
X-3325905Y6244420D01*
X-3325905Y6244420D02*
X-3278286Y6339658D01*
X-3278286Y6339658D02*
X-3278286Y6530134D01*
X-3278286Y6530134D02*
X-3325905Y6625372D01*
X-3325905Y6625372D02*
X-3373524Y6672991D01*
X-3373524Y6672991D02*
X-3468762Y6720610D01*
X-23042477Y9197181D02*
X-23375810Y9673372D01*
X-23613905Y9197181D02*
X-23613905Y10197181D01*
X-23613905Y10197181D02*
X-23232953Y10197181D01*
X-23232953Y10197181D02*
X-23137715Y10149562D01*
X-23137715Y10149562D02*
X-23090096Y10101943D01*
X-23090096Y10101943D02*
X-23042477Y10006705D01*
X-23042477Y10006705D02*
X-23042477Y9863848D01*
X-23042477Y9863848D02*
X-23090096Y9768610D01*
X-23090096Y9768610D02*
X-23137715Y9720991D01*
X-23137715Y9720991D02*
X-23232953Y9673372D01*
X-23232953Y9673372D02*
X-23613905Y9673372D01*
X-22613905Y9197181D02*
X-22613905Y10197181D01*
X-22613905Y10197181D02*
X-22042477Y9197181D01*
X-22042477Y9197181D02*
X-22042477Y10197181D01*
X-21661524Y10197181D02*
X-21042477Y10197181D01*
X-21042477Y10197181D02*
X-21375810Y9816229D01*
X-21375810Y9816229D02*
X-21232953Y9816229D01*
X-21232953Y9816229D02*
X-21137715Y9768610D01*
X-21137715Y9768610D02*
X-21090096Y9720991D01*
X-21090096Y9720991D02*
X-21042477Y9625753D01*
X-21042477Y9625753D02*
X-21042477Y9387658D01*
X-21042477Y9387658D02*
X-21090096Y9292420D01*
X-21090096Y9292420D02*
X-21137715Y9244800D01*
X-21137715Y9244800D02*
X-21232953Y9197181D01*
X-21232953Y9197181D02*
X-21518667Y9197181D01*
X-21518667Y9197181D02*
X-21613905Y9244800D01*
X-21613905Y9244800D02*
X-21661524Y9292420D01*
X-27748581Y8356601D02*
X-27510486Y8356601D01*
X-27605724Y8118506D02*
X-27510486Y8356601D01*
X-27510486Y8356601D02*
X-27605724Y8594696D01*
X-27320010Y8213744D02*
X-27510486Y8356601D01*
X-27510486Y8356601D02*
X-27320010Y8499458D01*
X-27748581Y8356601D02*
X-27510486Y8356601D01*
X-27605724Y8118506D02*
X-27510486Y8356601D01*
X-27510486Y8356601D02*
X-27605724Y8594696D01*
X-27320010Y8213744D02*
X-27510486Y8356601D01*
X-27510486Y8356601D02*
X-27320010Y8499458D01*
X-25479334Y34625181D02*
X-25479334Y33910896D01*
X-25479334Y33910896D02*
X-25526953Y33768039D01*
X-25526953Y33768039D02*
X-25622191Y33672800D01*
X-25622191Y33672800D02*
X-25765048Y33625181D01*
X-25765048Y33625181D02*
X-25860286Y33625181D01*
X-25098381Y34625181D02*
X-24479334Y34625181D01*
X-24479334Y34625181D02*
X-24812667Y34244229D01*
X-24812667Y34244229D02*
X-24669810Y34244229D01*
X-24669810Y34244229D02*
X-24574572Y34196610D01*
X-24574572Y34196610D02*
X-24526953Y34148991D01*
X-24526953Y34148991D02*
X-24479334Y34053753D01*
X-24479334Y34053753D02*
X-24479334Y33815658D01*
X-24479334Y33815658D02*
X-24526953Y33720420D01*
X-24526953Y33720420D02*
X-24574572Y33672800D01*
X-24574572Y33672800D02*
X-24669810Y33625181D01*
X-24669810Y33625181D02*
X-24955524Y33625181D01*
X-24955524Y33625181D02*
X-25050762Y33672800D01*
X-25050762Y33672800D02*
X-25098381Y33720420D01*
X-4230667Y7768420D02*
X-4278286Y7720800D01*
X-4278286Y7720800D02*
X-4421143Y7673181D01*
X-4421143Y7673181D02*
X-4516381Y7673181D01*
X-4516381Y7673181D02*
X-4659238Y7720800D01*
X-4659238Y7720800D02*
X-4754476Y7816039D01*
X-4754476Y7816039D02*
X-4802095Y7911277D01*
X-4802095Y7911277D02*
X-4849714Y8101753D01*
X-4849714Y8101753D02*
X-4849714Y8244610D01*
X-4849714Y8244610D02*
X-4802095Y8435086D01*
X-4802095Y8435086D02*
X-4754476Y8530324D01*
X-4754476Y8530324D02*
X-4659238Y8625562D01*
X-4659238Y8625562D02*
X-4516381Y8673181D01*
X-4516381Y8673181D02*
X-4421143Y8673181D01*
X-4421143Y8673181D02*
X-4278286Y8625562D01*
X-4278286Y8625562D02*
X-4230667Y8577943D01*
X-3754476Y7673181D02*
X-3564000Y7673181D01*
X-3564000Y7673181D02*
X-3468762Y7720800D01*
X-3468762Y7720800D02*
X-3421143Y7768420D01*
X-3421143Y7768420D02*
X-3325905Y7911277D01*
X-3325905Y7911277D02*
X-3278286Y8101753D01*
X-3278286Y8101753D02*
X-3278286Y8482705D01*
X-3278286Y8482705D02*
X-3325905Y8577943D01*
X-3325905Y8577943D02*
X-3373524Y8625562D01*
X-3373524Y8625562D02*
X-3468762Y8673181D01*
X-3468762Y8673181D02*
X-3659238Y8673181D01*
X-3659238Y8673181D02*
X-3754476Y8625562D01*
X-3754476Y8625562D02*
X-3802095Y8577943D01*
X-3802095Y8577943D02*
X-3849714Y8482705D01*
X-3849714Y8482705D02*
X-3849714Y8244610D01*
X-3849714Y8244610D02*
X-3802095Y8149372D01*
X-3802095Y8149372D02*
X-3754476Y8101753D01*
X-3754476Y8101753D02*
X-3659238Y8054134D01*
X-3659238Y8054134D02*
X-3468762Y8054134D01*
X-3468762Y8054134D02*
X-3373524Y8101753D01*
X-3373524Y8101753D02*
X-3325905Y8149372D01*
X-3325905Y8149372D02*
X-3278286Y8244610D01*
D15*
%TO.C,J2*%
X-21430000Y26673000D02*
X-20320000Y26673000D01*
X-21430000Y25913000D02*
X-21430000Y26673000D01*
X-21430000Y25153000D02*
X-21430000Y22678000D01*
X-21430000Y25153000D02*
X-20883471Y25153000D01*
X-21430000Y22678000D02*
X-20627530Y22678000D01*
X-20012470Y22678000D02*
X-19210000Y22678000D01*
X-19756529Y25153000D02*
X-19210000Y25153000D01*
X-19210000Y25153000D02*
X-19210000Y22678000D01*
%TO.C,C6*%
X-3050000Y16396580D02*
X-3050000Y16115420D01*
X-2030000Y16396580D02*
X-2030000Y16115420D01*
%TO.C,TH1*%
X-15731258Y24652500D02*
X-15256742Y24652500D01*
X-15731258Y23607500D02*
X-15256742Y23607500D01*
%TO.C,R5*%
X-15256742Y25922500D02*
X-15731258Y25922500D01*
X-15256742Y24877500D02*
X-15731258Y24877500D01*
%TO.C,U1*%
X-25991000Y18796000D02*
X-25991000Y20996000D01*
X-25991000Y18796000D02*
X-25991000Y15196000D01*
X-19221000Y18796000D02*
X-19221000Y20996000D01*
X-19221000Y18796000D02*
X-19221000Y16596000D01*
%TO.C,D5*%
X-28421000Y12738000D02*
X-28421000Y10453000D01*
X-28421000Y10453000D02*
X-26951000Y10453000D01*
X-26951000Y10453000D02*
X-26951000Y12738000D01*
D11*
%TO.C,U4*%
X-15575000Y23121000D02*
X-15575000Y22896000D01*
X-15575000Y14471000D02*
X-15575000Y14696000D01*
X-9825000Y23121000D02*
X-15575000Y23121000D01*
X-9825000Y23121000D02*
X-9825000Y22896000D01*
X-9825000Y14471000D02*
X-15575000Y14471000D01*
X-9825000Y14471000D02*
X-9825000Y14696000D01*
D15*
X-9085000Y14391000D02*
X-9565000Y14391000D01*
X-9325000Y14721000D01*
X-9085000Y14391000D01*
G36*
X-9085000Y14391000D02*
G01*
X-9565000Y14391000D01*
X-9325000Y14721000D01*
X-9085000Y14391000D01*
G37*
%TO.C,J4*%
X-7680000Y-424000D02*
X-7680000Y-3084000D01*
X-7680000Y-3084000D02*
X-2480000Y-3084000D01*
X-6730000Y-26929D02*
X-6730000Y-424000D01*
X-6730000Y-9084000D02*
X-6730000Y-3084000D01*
X-5970000Y-26929D02*
X-5970000Y-424000D01*
X-5970000Y-3084000D02*
X-5970000Y-9084000D01*
X-5970000Y-9084000D02*
X-6730000Y-9084000D01*
X-5080000Y-424000D02*
X-5080000Y-3084000D01*
X-4190000Y-94000D02*
X-4190000Y-424000D01*
X-4190000Y-9084000D02*
X-4190000Y-3084000D01*
X-4090000Y-3084000D02*
X-4090000Y-9084000D01*
X-3970000Y-3084000D02*
X-3970000Y-9084000D01*
X-3850000Y-3084000D02*
X-3850000Y-9084000D01*
X-3810000Y2286000D02*
X-2540000Y2286000D01*
X-3730000Y-3084000D02*
X-3730000Y-9084000D01*
X-3610000Y-3084000D02*
X-3610000Y-9084000D01*
X-3490000Y-3084000D02*
X-3490000Y-9084000D01*
X-3430000Y-94000D02*
X-3430000Y-424000D01*
X-3430000Y-3084000D02*
X-3430000Y-9084000D01*
X-3430000Y-9084000D02*
X-4190000Y-9084000D01*
X-2540000Y2286000D02*
X-2540000Y1016000D01*
X-2480000Y-424000D02*
X-7680000Y-424000D01*
X-2480000Y-3084000D02*
X-2480000Y-424000D01*
%TO.C,D2*%
X-23849000Y12738000D02*
X-23849000Y10453000D01*
X-23849000Y10453000D02*
X-22379000Y10453000D01*
X-22379000Y10453000D02*
X-22379000Y12738000D01*
%TO.C,C12*%
X-23375252Y7847000D02*
X-22852748Y7847000D01*
X-23375252Y6377000D02*
X-22852748Y6377000D01*
%TO.C,U6*%
X-7894000Y12446000D02*
X-7894000Y14396000D01*
X-7894000Y12446000D02*
X-7894000Y10496000D01*
X-2774000Y12446000D02*
X-2774000Y15896000D01*
X-2774000Y12446000D02*
X-2774000Y10496000D01*
%TO.C,D1*%
X-25373000Y12738000D02*
X-25373000Y10453000D01*
X-25373000Y10453000D02*
X-23903000Y10453000D01*
X-23903000Y10453000D02*
X-23903000Y12738000D01*
%TO.C,U3*%
X-7894000Y25146000D02*
X-7894000Y27096000D01*
X-7894000Y25146000D02*
X-7894000Y21696000D01*
X-2774000Y25146000D02*
X-2774000Y27096000D01*
X-2774000Y25146000D02*
X-2774000Y23196000D01*
%TO.C,C5*%
X-19076000Y11964000D02*
X-15226000Y11964000D01*
X-19076000Y2308437D02*
X-19076000Y11964000D01*
X-18011563Y1244000D02*
X-19076000Y2308437D01*
X-18011563Y1244000D02*
X-15226000Y1244000D01*
X-17101000Y379000D02*
X-15851000Y379000D01*
X-16476000Y-246000D02*
X-16476000Y1004000D01*
X-9420437Y1244000D02*
X-12206000Y1244000D01*
X-9420437Y1244000D02*
X-8356000Y2308437D01*
X-8356000Y11964000D02*
X-12206000Y11964000D01*
X-8356000Y2308437D02*
X-8356000Y11964000D01*
%TO.C,C2*%
X-9146000Y28434420D02*
X-9146000Y28715580D01*
X-8126000Y28434420D02*
X-8126000Y28715580D01*
%TO.C,J1*%
X-2540000Y18796000D02*
X-1270000Y18796000D01*
X-2540000Y17526000D02*
X-2540000Y18796000D01*
X-227071Y15366000D02*
X170000Y15366000D01*
X-227071Y14606000D02*
X170000Y14606000D01*
X-160000Y17906000D02*
X170000Y17906000D01*
X-160000Y17146000D02*
X170000Y17146000D01*
X170000Y18856000D02*
X170000Y13656000D01*
X170000Y16256000D02*
X2830000Y16256000D01*
X170000Y13656000D02*
X2830000Y13656000D01*
X2830000Y18856000D02*
X170000Y18856000D01*
X2830000Y17906000D02*
X8830000Y17906000D01*
X2830000Y17846000D02*
X8830000Y17846000D01*
X2830000Y17726000D02*
X8830000Y17726000D01*
X2830000Y17606000D02*
X8830000Y17606000D01*
X2830000Y17486000D02*
X8830000Y17486000D01*
X2830000Y17366000D02*
X8830000Y17366000D01*
X2830000Y17246000D02*
X8830000Y17246000D01*
X2830000Y15366000D02*
X8830000Y15366000D01*
X2830000Y13656000D02*
X2830000Y18856000D01*
X8830000Y17906000D02*
X8830000Y17146000D01*
X8830000Y17146000D02*
X2830000Y17146000D01*
X8830000Y15366000D02*
X8830000Y14606000D01*
X8830000Y14606000D02*
X2830000Y14606000D01*
%TO.C,J7*%
X-2540000Y23876000D02*
X-1270000Y23876000D01*
X-2540000Y22606000D02*
X-2540000Y23876000D01*
X-227071Y20446000D02*
X170000Y20446000D01*
X-227071Y19686000D02*
X170000Y19686000D01*
X-160000Y22986000D02*
X170000Y22986000D01*
X-160000Y22226000D02*
X170000Y22226000D01*
X170000Y23936000D02*
X170000Y18736000D01*
X170000Y21336000D02*
X2830000Y21336000D01*
X170000Y18736000D02*
X2830000Y18736000D01*
X2830000Y23936000D02*
X170000Y23936000D01*
X2830000Y22986000D02*
X8830000Y22986000D01*
X2830000Y22926000D02*
X8830000Y22926000D01*
X2830000Y22806000D02*
X8830000Y22806000D01*
X2830000Y22686000D02*
X8830000Y22686000D01*
X2830000Y22566000D02*
X8830000Y22566000D01*
X2830000Y22446000D02*
X8830000Y22446000D01*
X2830000Y22326000D02*
X8830000Y22326000D01*
X2830000Y20446000D02*
X8830000Y20446000D01*
X2830000Y18736000D02*
X2830000Y23936000D01*
X8830000Y22986000D02*
X8830000Y22226000D01*
X8830000Y22226000D02*
X2830000Y22226000D01*
X8830000Y20446000D02*
X8830000Y19686000D01*
X8830000Y19686000D02*
X2830000Y19686000D01*
%TO.C,SW1*%
X-29136000Y18968000D02*
X-29136000Y15068000D01*
X-29136000Y15068000D02*
X-28486000Y15068000D01*
X-28486000Y18968000D02*
X-29136000Y18968000D01*
X-26236000Y18968000D02*
X-26886000Y18968000D01*
X-26236000Y15068000D02*
X-26886000Y15068000D01*
X-26236000Y15068000D02*
X-26236000Y18968000D01*
%TO.C,C10*%
X-27572580Y21084000D02*
X-27291420Y21084000D01*
X-27572580Y20064000D02*
X-27291420Y20064000D01*
%TO.C,C3*%
X-4204580Y29720000D02*
X-3923420Y29720000D01*
X-4204580Y28700000D02*
X-3923420Y28700000D01*
%TO.C,D4*%
X-26897000Y12738000D02*
X-26897000Y10453000D01*
X-26897000Y10453000D02*
X-25427000Y10453000D01*
X-25427000Y10453000D02*
X-25427000Y12738000D01*
%TO.C,C4*%
X-18535395Y15008982D02*
X-18535395Y14727822D01*
X-17515395Y15008982D02*
X-17515395Y14727822D01*
%TO.C,C7*%
X-14872580Y14353000D02*
X-14591420Y14353000D01*
X-14872580Y13333000D02*
X-14591420Y13333000D01*
%TO.C,J5*%
X-31964000Y8146000D02*
X-30544000Y8146000D01*
X-31964000Y-3574000D02*
X-31964000Y8146000D01*
X-30544000Y8146000D02*
X-30544000Y3646000D01*
X-30544000Y3646000D02*
X-25654000Y3646000D01*
X-29704000Y7836000D02*
X-29104000Y7836000D01*
X-29654000Y2536000D02*
X-29654000Y-2964000D01*
X-29654000Y-2964000D02*
X-29154000Y-2964000D01*
X-29404000Y7236000D02*
X-29704000Y7836000D01*
X-29154000Y2536000D02*
X-29654000Y2536000D01*
X-29154000Y-2964000D02*
X-29154000Y2536000D01*
X-29104000Y7836000D02*
X-29404000Y7236000D01*
X-27154000Y2536000D02*
X-27154000Y-2964000D01*
X-27154000Y-2964000D02*
X-26654000Y-2964000D01*
X-26654000Y2536000D02*
X-27154000Y2536000D01*
X-26654000Y-2964000D02*
X-26654000Y2536000D01*
X-25654000Y-3574000D02*
X-31964000Y-3574000D01*
X-25654000Y-3574000D02*
X-19344000Y-3574000D01*
X-24654000Y2536000D02*
X-24654000Y-2964000D01*
X-24654000Y-2964000D02*
X-24154000Y-2964000D01*
X-24154000Y2536000D02*
X-24654000Y2536000D01*
X-24154000Y-2964000D02*
X-24154000Y2536000D01*
X-22154000Y2536000D02*
X-22154000Y-2964000D01*
X-22154000Y-2964000D02*
X-21654000Y-2964000D01*
X-21654000Y2536000D02*
X-22154000Y2536000D01*
X-21654000Y-2964000D02*
X-21654000Y2536000D01*
X-20764000Y8146000D02*
X-20764000Y3646000D01*
X-20764000Y3646000D02*
X-25654000Y3646000D01*
X-19344000Y8146000D02*
X-20764000Y8146000D01*
X-19344000Y-3574000D02*
X-19344000Y8146000D01*
%TO.C,C1*%
X-22746580Y14734000D02*
X-22465420Y14734000D01*
X-22746580Y13714000D02*
X-22465420Y13714000D01*
%TO.C,C8*%
X-6463420Y7622000D02*
X-6744580Y7622000D01*
X-6463420Y6602000D02*
X-6744580Y6602000D01*
D16*
%TO.C,RN3*%
X-26581100Y9364135D02*
X-26581100Y8923865D01*
X-24218900Y8923865D02*
X-24218900Y9364135D01*
D15*
%TO.C,J6*%
X-23208000Y26673000D02*
X-22098000Y26673000D01*
X-23208000Y25913000D02*
X-23208000Y26673000D01*
X-23208000Y25153000D02*
X-23208000Y22678000D01*
X-23208000Y25153000D02*
X-22661471Y25153000D01*
X-23208000Y22678000D02*
X-22405530Y22678000D01*
X-21790470Y22678000D02*
X-20988000Y22678000D01*
X-21534529Y25153000D02*
X-20988000Y25153000D01*
X-20988000Y25153000D02*
X-20988000Y22678000D01*
%TO.C,C11*%
X-3050000Y21476580D02*
X-3050000Y21195420D01*
X-2030000Y21476580D02*
X-2030000Y21195420D01*
%TO.C,J3*%
X-26476000Y33080000D02*
X-25146000Y33080000D01*
X-26476000Y31750000D02*
X-26476000Y33080000D01*
X-26476000Y30480000D02*
X-26476000Y22800000D01*
X-26476000Y30480000D02*
X-23816000Y30480000D01*
X-26476000Y22800000D02*
X-23816000Y22800000D01*
X-23816000Y30480000D02*
X-23816000Y22800000D01*
%TO.C,JP3*%
X-18418000Y3540000D02*
X-15618000Y3540000D01*
X-18418000Y1540000D02*
X-18418000Y3540000D01*
X-15618000Y3540000D02*
X-15618000Y1540000D01*
X-15618000Y1540000D02*
X-18418000Y1540000D01*
%TO.C,C9*%
X-6463420Y8892000D02*
X-6744580Y8892000D01*
X-6463420Y7872000D02*
X-6744580Y7872000D01*
%TD*%
M02*
