M48
; DRILL file {KiCad 8.0.6} date 2024-12-16T13:19:22+0900
; FORMAT={-:-/ absolute / metric / decimal}
; #@! TF.CreationDate,2024-12-16T13:19:22+09:00
; #@! TF.GenerationSoftware,Kicad,Pcbnew,8.0.6
; #@! TF.FileFunction,Plated,1,4,PTH
FMAT,2
METRIC
; #@! TA.AperFunction,Plated,PTH,ViaDrill
T1C0.400
; #@! TA.AperFunction,Plated,PTH,ComponentDrill
T2C0.650
; #@! TA.AperFunction,Plated,PTH,ComponentDrill
T3C0.950
; #@! TA.AperFunction,Plated,PTH,ComponentDrill
T4C1.000
%
G90
G05
T1
X-31.496Y32.512
X-31.496Y30.988
X-31.496Y29.464
X-31.496Y27.94
X-31.496Y26.416
X-31.496Y24.892
X-31.496Y23.368
X-31.496Y21.844
X-31.496Y20.32
X-31.496Y18.796
X-31.496Y17.272
X-31.496Y15.748
X-31.496Y14.224
X-31.496Y12.7
X-31.496Y11.176
X-31.496Y9.652
X-31.496Y8.128
X-31.496Y6.604
X-31.496Y5.08
X-31.496Y3.556
X-31.496Y2.032
X-31.496Y0.508
X-29.972Y32.512
X-29.972Y0.508
X-28.448Y32.512
X-28.448Y13.716
X-28.448Y0.508
X-27.94Y9.652
X-26.924Y32.512
X-26.924Y0.508
X-26.416Y22.383
X-25.4Y18.288
X-25.4Y0.508
X-24.892Y20.32
X-23.876Y0.508
X-23.222Y20.369
X-23.114Y27.94
X-22.356Y17.78
X-22.352Y0.508
X-22.225Y20.447
X-21.844Y32.512
X-21.844Y9.144
X-21.336Y28.448
X-20.828Y11.176
X-20.828Y0.508
X-20.32Y32.512
X-20.32Y7.62
X-20.314Y20.314
X-19.812Y12.7
X-19.304Y0.508
X-18.796Y32.512
X-18.796Y9.144
X-18.542Y21.146
X-18.542Y18.288
X-18.542Y15.796
X-18.288Y28.448
X-17.78Y12.7
X-17.78Y10.668
X-17.78Y7.112
X-17.78Y5.08
X-17.78Y2.54
X-17.692Y19.046
X-17.653Y25.4
X-17.272Y32.512
X-16.256Y30.988
X-16.256Y28.956
X-15.748Y32.512
X-15.748Y1.905
X-15.748Y0.508
X-15.494Y23.241
X-15.486Y26.168
X-14.224Y32.512
X-13.208Y23.876
X-13.208Y21.844
X-13.208Y19.812
X-13.208Y17.78
X-13.208Y15.748
X-13.208Y13.716
X-12.7Y32.512
X-12.192Y22.86
X-12.192Y20.828
X-12.192Y18.796
X-12.192Y16.764
X-12.192Y14.732
X-11.938Y6.731
X-11.811Y4.826
X-11.811Y3.175
X-11.811Y2.159
X-11.176Y32.512
X-11.176Y23.876
X-11.176Y21.844
X-11.176Y19.812
X-11.176Y17.78
X-11.176Y15.748
X-11.176Y13.716
X-10.287Y2.159
X-10.16Y20.828
X-10.16Y16.764
X-9.652Y32.512
X-8.636Y2.159
X-8.128Y32.512
X-8.001Y7.112
X-6.604Y32.512
X-6.477Y6.35
X-5.969Y28.829
X-5.08Y32.512
X-4.699Y8.636
X-3.556Y32.512
X-2.032Y32.512
X-2.032Y0.508
X-0.508Y32.512
X-0.508Y30.988
X-0.508Y29.464
X-0.508Y27.94
X-0.508Y26.416
X-0.508Y24.892
X-0.508Y12.7
X-0.508Y11.176
X-0.508Y9.652
X-0.508Y8.128
X-0.508Y6.604
X-0.508Y5.08
X-0.508Y3.556
X-0.508Y2.032
X-0.508Y0.508
T2
X-22.098Y25.913
X-22.098Y24.643
X-22.098Y23.373
X-20.32Y25.913
X-20.32Y24.643
X-20.32Y23.373
T3
X-29.404Y5.736
X-26.904Y5.736
X-24.404Y5.736
X-21.904Y5.736
T4
X-25.146Y31.75
X-25.146Y29.21
X-25.146Y26.67
X-25.146Y24.13
X-6.35Y1.016
X-3.81Y1.016
X-1.27Y22.606
X-1.27Y20.066
X-1.27Y17.526
X-1.27Y14.986
M30
